<?xml version="1.0" encoding="utf-8"?>
<!-- Generator: Adobe Illustrator 19.0.0, SVG Export Plug-In . SVG Version: 6.00 Build 0)  -->
<svg version="1.1" id="Layer_1" xmlns="http://www.w3.org/2000/svg" xmlns:xlink="http://www.w3.org/1999/xlink" x="0px" y="0px"
	 viewBox="0 0 130 130" style="enable-background:new 0 0 130 130;" xml:space="preserve">
<style type="text/css">
	.st0{opacity:0.3;}
	.st1{fill-rule:evenodd;clip-rule:evenodd;}
	.st2{fill-rule:evenodd;clip-rule:evenodd;fill:#FFFFFF;}
</style>
<g class="st0">
	<path class="st1" d="M65,126.5C31.1,126.5,3.5,98.9,3.5,65C3.5,31.1,31.1,3.5,65,3.5c33.9,0,61.5,27.6,61.5,61.5
		C126.5,98.9,98.9,126.5,65,126.5z"/>
</g>
<g>
	<path class="st2" d="M65,126.5C31.1,126.5,3.5,98.9,3.5,65C3.5,31.1,31.1,3.5,65,3.5c33.9,0,61.5,27.6,61.5,61.5
		C126.5,98.9,98.9,126.5,65,126.5z M65,9C34.1,9,9,34.1,9,65c0,30.9,25.1,56,56,56c30.9,0,56-25.1,56-56C121,34.1,95.9,9,65,9z"/>
	<path class="st2" d="M51.3,92.2c1.6,0,3.2-0.4,4.7-1.2L89,72.7c0,0,0.1,0,0.1-0.1c2.5-1.6,4.2-4.5,4.2-7.2c0-2.6-1.6-5.3-4.2-6.9
		c0,0-0.1,0-0.1-0.1L56.1,40.2c-1.5-0.8-3.2-1.3-4.8-1.3c-4.3,0-7.6,3-7.6,6.8v39.5C43.7,89.2,47.1,92.2,51.3,92.2z M86.5,68.5
		L53.7,86.7c-0.7,0.4-1.6,0.6-2.3,0.6c-1.5,0-2.7-0.9-2.7-2V45.8c0-1.1,1.1-2,2.7-2c0.8,0,1.6,0.2,2.4,0.6l32.8,18.2
		c1.1,0.7,1.9,1.9,1.9,2.8C88.4,66.4,87.7,67.8,86.5,68.5z"/>
</g>
</svg>
