<?xml version="1.0" encoding="utf-8"?>
<!-- Generator: Adobe Illustrator 21.0.0, SVG Export Plug-In . SVG Version: 6.00 Build 0)  -->
<svg version="1.1" xmlns="http://www.w3.org/2000/svg" xmlns:xlink="http://www.w3.org/1999/xlink" x="0px" y="0px"
	 viewBox="0 0 92.7 92.7" style="enable-background:new 0 0 92.7 92.7;" xml:space="preserve">
<style type="text/css">
	.st0{opacity:0.45;}
	.st1{fill-rule:evenodd;clip-rule:evenodd;fill:#BB8A11;}
	.st2{fill-rule:evenodd;clip-rule:evenodd;fill:none;stroke:#FFFFFF;stroke-width:3;stroke-miterlimit:10;}
</style>
<g id="Layer_1_copy" class="st0">
	<path class="st1" d="M46.3,3.8c23.5,0,42.5,19,42.5,42.5s-19,42.5-42.5,42.5S3.8,69.8,3.8,46.3S22.9,3.8,46.3,3.8z"/>
</g>
<g id="Layer_1">
	<path class="st2" d="M46.3,3.8c23.5,0,42.5,19,42.5,42.5s-19,42.5-42.5,42.5S3.8,69.8,3.8,46.3S22.9,3.8,46.3,3.8z"/>
</g>
<g id="Layer_3">
	<path class="st2" d="M41,27.8l20.9,16.8c1.2,0.9,1.2,2.5,0,3.4l-0.1,0.1L41,64.8c-1.2,0.9-3.1,0.9-4.2,0l0,0
		c-0.6-0.4-0.9-1-0.9-1.7V29.6c0-0.7,0.4-1.3,0.9-1.7l0,0C38,26.9,39.9,26.9,41,27.8z"/>
</g>
</svg>
