<?xml version="1.0" encoding="UTF-8"?>
<svg width="1224px" height="1224px" viewBox="0 0 1224 1224" version="1.1" xmlns="http://www.w3.org/2000/svg" xmlns:xlink="http://www.w3.org/1999/xlink">
    <title>Stroke 1</title>
    <g id="iIBN-Mahmoud" stroke="none" stroke-width="1" fill="none" fill-rule="evenodd" fill-opacity="0.2">
        <g id="homepage-1-copy-3" transform="translate(-223.000000, -878.000000)" fill="#E8D5B8">
            <g id="Group-13" transform="translate(0.000000, 837.000000)">
                <path d="M1219.75862,985 C1220.22103,963.111044 1219.60449,942.281231 1217.85505,922.487025 C1216.09021,902.473144 1213.1077,883.502716 1209,865.693422 C1242.78638,855.117683 1278.06788,838.555824 1314.77512,816 C1333.27132,857.573325 1350.07203,905.077852 1365,958.21545 C1317.65744,970.242607 1268.07993,980.041642 1219.75862,985 L1219.75862,985 Z M739,1151.46831 C777.010743,1130.67051 809.089576,1108.17588 835.166714,1084 C861.205081,1108.00464 893.183111,1130.3903 931,1151.07913 C902.379508,1190.96233 868.95921,1229.51454 834.825532,1265 C800.784904,1229.63907 767.527442,1191.2114 739,1151.46831 Z M355.084942,818 C391.833977,840.545366 427.177606,857.134612 461,867.712806 C453.108108,903.002229 449.694981,942.811711 450.783784,987 C406.459459,982.432857 357.772201,973.463364 305,960.052285 C320.027027,906.78464 336.752896,859.355405 355.084942,818 Z M450.773411,321 C449.72056,364.028448 453.126842,402.816277 461,437.209843 C427.130713,447.596285 391.844722,463.85967 355.165252,486 C335.060444,441.757752 318.516749,394.089208 305,347.227302 C352.502159,335.488779 402.249367,325.862883 450.773411,321 Z M931,154.536364 C892.973221,175.32187 860.877722,197.861492 834.814164,222 C808.83578,197.915823 776.864172,175.453816 739,154.738165 C767.57235,114.897985 800.937732,76.4316038 835.061945,41 C872.778997,80.0795455 904.81255,118.002616 931,154.536364 Z M1315.04808,484 C1278.2834,461.808593 1242.89788,445.536434 1209,435.160431 C1212.92828,418.164723 1215.82607,400.152967 1217.53064,381.086677 C1219.30496,361.466178 1219.9248,340.744962 1219.40568,319 C1263.69375,323.502939 1312.30525,332.285594 1365,345.317177 C1350.00745,397.304954 1333.31032,443.581312 1315.04808,484 Z M503,1037.56923 C545.605453,1038.38462 584.111862,1034.83846 618.380797,1027 C628.847588,1060.87692 645.412957,1096.33077 668,1133.28462 C623.756467,1153.19231 576.082964,1169.6 529.293871,1183 C517.458168,1135.61538 507.837334,1085.96923 503,1037.56923 L503,1037.56923 Z M1004,1133.03881 C1026.37249,1096.18537 1042.78772,1060.80297 1053.26109,1027 C1087.56352,1034.71135 1126.17398,1038.02506 1169,1036.95662 C1164.58407,1081.58335 1155.79846,1130.37545 1142.70481,1183 C1095.87903,1169.53611 1048.24404,1153.03722 1004,1133.03881 Z M1334.0728,749 C1323.71406,730.068683 1312.87675,712.619752 1301.62263,696.622326 C1290.25272,680.447322 1278.33477,665.785588 1266,652.644845 C1290.12922,626.656748 1312.67606,594.723661 1333.45529,557 C1369.75718,583.11935 1407.66459,615.253177 1447,653.208461 C1407.90388,690.993888 1370.15856,722.950137 1334.0728,749 Z M1167,268.554021 C1124.0234,267.531121 1085.1768,271.049277 1050.60632,279 C1045.52265,262.22289 1039.00079,245.073817 1030.95614,227.583776 C1022.76536,209.807014 1013.121,191.63504 1002,173.168596 C1046.28405,153.059312 1093.95977,136.522428 1140.82796,123 C1153.84092,175.431374 1162.58544,224.042372 1167,268.554021 Z M670,173.182359 C647.24456,209.937379 630.500139,245.269225 619.861028,279 C584.667101,271.141603 545.025804,267.722892 501,268.821211 C505.965966,220.270861 515.780035,170.513907 527.857076,123 C575.819509,136.535624 624.677701,153.080024 670,173.182359 Z M336.24258,557 C357.107761,595.176843 379.722072,627.371847 404,653.515275 C379.807585,679.51923 357.379848,711.357803 336.693467,749 C300.33488,722.848824 262.359318,690.777796 223,652.848904 C262.20384,615.113725 300.023923,583.104685 336.24258,557 Z M1132,731.312683 C1166.63637,724.183375 1199.34807,708.335323 1229.89548,684 C1240.62418,695.519543 1251.0978,708.551363 1261.30861,723.033735 C1272.30011,738.6426 1282.85875,755.817752 1293,774.566907 C1258.28633,796.008842 1225.18815,811.548265 1193.86778,821 C1179.37477,784.759349 1158.65169,754.722122 1132,731.312683 L1132,731.312683 Z M1051,434 C1062.14441,400.672327 1064.83875,364.647396 1059.09082,326.401644 C1091.40726,319.047578 1128.37046,316.012201 1169.73832,317.280143 C1170.39433,338.766003 1169.8086,359.106872 1168.07486,378.248959 C1166.52073,395.216333 1164.06068,411.084824 1160.71033,425.892853 C1147.43388,423.95636 1134.36829,422.988113 1121.56042,422.988113 C1096.87404,422.988113 1073.3591,426.653619 1051,434 Z M755.048633,355 C731.541743,328.161485 701.442312,307.533214 665,293.18514 C675.064351,260.229651 691.370159,226.877764 711.717312,194 C745.850285,212.34315 776.706492,233.134643 802,256.677609 C777.642711,287.254707 761.945444,320.078063 755.048633,355 Z M537,572.880562 C514.264278,577.587852 492.251436,586.048568 471.163569,598.169648 C460.219331,604.489981 449.554917,611.76418 439.131463,620 C415.385265,594.710914 394.43731,563.752915 376,529.522303 C410.659344,508.102966 443.694153,492.554172 474.995607,483 C489.367692,519.386505 510.074687,549.398392 537,572.880562 Z M616,869 C604.554279,902.97284 601.773942,939.548784 607.651266,978.49402 C575.955423,985.913645 539.772426,988.960991 499.279906,987.737376 C498.075093,948.542741 500.685521,910.969201 508.555419,876.949598 C546.808223,882.709159 582.728633,880.067087 616,869 Z M914.99886,951 C938.580252,977.316124 968.656088,997.529623 1005,1011.58649 C994.899265,1044.2907 978.577289,1077.39609 958.196285,1110 C924.147285,1091.90815 893.306478,1071.40919 868,1048.18681 C892.299527,1017.96686 908.020455,985.524965 914.99886,951 Z M712.047918,1111 C691.515378,1077.86206 675.087794,1044.22027 665,1010.98931 C701.261739,996.718681 731.276805,976.332065 754.758086,950 C761.687624,985.02157 777.494421,1017.94247 802,1048.5689 C776.796035,1072.03288 746.051543,1092.73731 712.047918,1111 L712.047918,1111 Z M1062.72196,978.649018 C1068.48262,939.637396 1065.59844,903.012331 1054,869 C1087.27611,880.012477 1123.20505,882.555018 1161.47835,876.713413 C1164.9949,892.187035 1167.50892,908.90853 1169.09754,926.714114 C1170.80183,945.900158 1171.3725,966.240483 1170.76327,987.727292 C1132.59793,988.904972 1095.9518,986.339034 1062.72196,978.649018 Z M1230.84324,620 C1200.33716,596.010859 1167.54662,580.351281 1133,573.238222 C1159.59764,549.621006 1180.28209,519.417623 1194.70372,483 C1226.09561,492.53057 1259.24358,508.08167 1294,529.521577 C1274.51216,565.753238 1253.4625,595.979865 1230.84324,620 Z M969.748993,310.781977 C948.547075,322.914971 930.151864,337.674855 914.648885,355 C907.698201,320.642442 892.117473,288.357122 868,258.282703 C893.283696,234.879506 924.180807,214.211047 958.304466,196 C969.531298,214.087791 979.164293,231.759593 987.23455,248.992297 C994.480676,264.491715 1000.40508,279.467297 1005,294.003779 C992.536973,298.880087 980.789229,304.465116 969.748993,310.781977 Z M610.171738,327.586074 C604.423644,366.499728 607.348249,403.041263 619,437 C596.637661,429.47789 573.023031,425.716835 548.303897,425.716835 C535.664314,425.716835 522.783607,426.707819 509.622884,428.65077 C501.735784,394.746655 499.106751,357.292166 500.257925,318.26927 C539.125615,317.091014 576.398772,319.705025 610.171738,327.586074 Z M438.550465,686 C469.155124,710.336501 502.028816,726.059346 537,733.036017 C510.371997,756.585206 489.911711,786.651152 475.681519,823 C444.172365,813.404154 410.901007,797.720284 376,776.104296 C395.321871,740.114026 416.203216,710.016899 438.550465,686 Z M753,605 L645.380907,576.255172 C584.230179,559.862663 545.977131,522.589405 524,473.195578 C581.754755,467.054181 632.30757,484.528193 674.552241,526.652769 L753,605 Z M835.054473,293 C867.212663,336.560351 880.426956,388.040765 863.789067,448.797208 L835.007251,554 L806.178212,448.797208 C789.563935,388.040765 802.856931,336.529533 835.054473,293 Z M914,608 L994.376574,527.300758 C1037.17074,484.462546 1088.48473,466.823282 1147,473.303011 C1123.46126,527.950296 1082.64881,562.66537 1023.79025,578.543838 L914,608 Z M917,699 L1024.34254,727.827627 C1082.35928,743.366251 1122.6697,777.296113 1146,830.76908 C1088.28455,837.007722 1037.59137,819.582817 995.29555,777.334766 L917,699 Z M835.226208,1009 C802.061968,965.195785 788.308798,913.338642 805.306469,852.022014 L834.962492,745 L864.690438,852.439344 C881.616187,913.570492 868.062801,965.288525 835.226208,1009 Z M753,698 L674.169903,778.223658 C632.047659,821.169368 581.598566,838.945172 524,832.828088 C545.99063,782.157195 584.340617,743.996369 645.827628,727.221686 L753,698 Z M1014.80875,964 C964.172729,942.019346 925.986898,903.680996 909.226423,842.238949 L880,735 L960.185517,813.822099 C1005.77842,858.674096 1020.59257,910.117191 1014.80875,964 L1014.80875,964 Z M789,735 L760.212402,842.578076 C744.871897,900.135674 709.986737,940.444565 657.233947,964 C651.391417,909.947859 665.819993,858.356503 710.728646,813.381408 L789,735 Z M739,652.88978 L631.531726,682.712019 C570.438071,699.632324 518.693514,685.995421 475,653.129445 C521.869117,617.770959 574.347694,607.337569 631.948958,623.243296 L739,652.88978 Z M655.131084,343 C704.710432,365.071808 742.070176,403.351271 758.503168,464.383341 L787,570 L709.118523,492.690648 C664.188699,448.02096 649.546982,396.674801 655.131084,343 Z M880,571 L909.375437,461.050734 C925.065211,402.640674 960.702521,361.688828 1014.58738,338 C1021.43411,396.995644 1003.39711,447.449568 960.367203,490.595402 L880,571 Z M931,653.205252 L1038.29536,623.538798 C1096.26635,607.497055 1148.07662,616.981706 1195,652.710679 C1148.13838,688.104618 1095.60241,698.706048 1037.88619,682.78396 L931,653.205252 Z" id="Stroke-1"></path>
            </g>
        </g>
    </g>
</svg>