<?xml version="1.0" encoding="UTF-8"?>
<svg width="460px" height="145px" viewBox="0 0 460 145" version="1.1" xmlns="http://www.w3.org/2000/svg" xmlns:xlink="http://www.w3.org/1999/xlink">
    <title>Group 21</title>
    <g id="iIBN-Mahmoud" stroke="none" stroke-width="1" fill="none" fill-rule="evenodd">
        <g id="homepage-1-copy-3" transform="translate(-605.000000, -6939.000000)">
            <g id="FOOTER" transform="translate(-5.000000, 6759.000000)">
                <g id="Group-21" transform="translate(610.000000, 180.000000)">
                    <path d="M53.1166569,52.3782764 L53.585281,53.3652022 M324.267896,85.2813227 C326.50835,86.5779048 328.952482,87.4638197 331.232678,88.7041006 C332.06726,87.0349375 332.923368,85.2978819 333.070744,83.4117938 C331.207839,81.8138351 328.815041,81.0786085 326.620953,80.0701558 C325.748285,81.7625017 325.004779,83.5210843 324.267896,85.2813227 M340.075268,81.7558781 C340.303785,81.7293834 340.762473,81.6664586 340.994301,81.6316844 C341.202947,81.5323294 341.414904,81.4379422 341.626861,81.3501787 C342.396862,81.0223074 343.256282,81.5952542 343.281121,82.4314917 C343.332455,84.4815154 341.313893,86.3046787 340.389892,88.0864441 L340.401484,88.0847881 C341.184732,88.0152397 341.88684,87.5664865 342.289228,86.8859051 C343.565939,84.7183114 344.991682,82.4612982 344.629037,79.8664782 C344.415423,79.4458756 344.066025,79.1478107 343.693444,78.8745846 C343.133745,78.4672294 342.355464,78.5384337 341.866969,79.025273 C341.085377,79.7985856 340.485935,80.7225866 340.075268,81.7558781 M309.263643,82.0705021 C309.742203,81.6134693 310.214139,81.148157 310.684419,80.6811887 C311.134828,80.2407151 311.87999,80.2804571 312.260851,80.7838555 C312.673174,81.3303077 312.986142,81.9247815 312.813927,82.6666317 C312.308873,85.3094733 309.960784,86.9836042 308.611213,89.1859721 C312.333711,88.185799 314.259541,83.8936653 314.165154,80.2986722 C314.24795,78.6593156 312.428099,77.019959 310.876505,78.0101966 C309.4193,78.8315308 309.252052,80.5735542 309.263643,82.0705021 M230.476827,78.2883904 C229.70517,79.0484558 229.448503,80.1397043 229.064331,81.1166946 C229.917128,80.5503714 230.728526,79.9459621 231.563108,79.3514884 C231.934033,80.3914035 232.694098,81.4710606 232.232098,82.6252338 C231.579667,84.3622895 230.334418,85.8012803 229.590912,87.498594 C232.419216,85.2134302 234.961047,81.3385873 233.334938,77.6326478 C232.369539,77.7336587 231.173968,77.4306261 230.476827,78.2883904 M126.733704,83.8820739 C126.425704,84.5742467 126.116048,85.2647636 125.819639,85.9668719 C131.413322,83.8539233 136.65264,80.9179847 142.251291,78.8199394 C143.673723,78.4606057 144.354304,77.1226257 144.958713,75.9237427 C138.639739,77.9572073 132.738055,81.0835763 126.733704,83.8820739 M274.709649,82.6699436 C274.404961,83.9499665 274.93651,85.6472801 275.615435,86.572937 C276.304296,87.4207659 276.97163,87.7022716 277.869136,87.1657549 C279.275009,86.0927215 279.775095,84.4252143 279.932407,82.7295565 C279.226987,83.3571486 278.538126,83.9897084 277.855889,84.6355156 C277.079265,85.0958602 276.287737,83.5906327 276.150296,82.6666317 C275.623715,79.2720044 278.983568,76.5049692 277.932061,73.10703 C276.709995,76.233399 275.378639,79.3614239 274.709649,82.6699436 M353.09739,73.4547723 C351.852141,74.5692036 351.251044,76.2267753 351.067237,77.8694438 C351.025839,78.2652076 351.239452,78.6526919 351.612033,78.7951007 C352.226378,79.0302407 352.882121,79.162714 353.526272,79.3514884 C352.365475,81.0438343 351.025839,82.9531052 351.449754,85.1074516 C351.489496,85.3127851 351.63356,85.4899681 351.823991,85.5744198 C353.893885,86.4934531 356.328081,85.9006352 358.267159,84.8938385 C360.643398,83.6138156 362.976583,81.9794267 364.352649,79.5965639 C361.97641,80.5569951 359.856838,82.0241364 357.520341,83.0590838 C356.278404,83.643622 354.903994,83.6138156 353.554423,83.5094929 C352.974852,83.4647831 352.640357,82.8156642 352.948357,82.3205453 C354.350918,80.0535967 356.897716,78.5980467 357.614728,75.8889685 C355.826339,76.2433345 354.069412,76.803034 352.228034,76.7334855 C352.686723,75.81942 353.474939,75.3855701 354.494983,75.4137207 C354.685413,74.7281715 354.885779,74.0426224 355.044747,73.3570733 C354.412187,73.2312237 353.628939,72.8950728 353.09739,73.4547723 M238.903782,77.4306261 C240.721978,78.5384337 242.492152,79.7290372 244.09839,81.1349097 C245.146585,79.5800047 246.794221,78.1956592 247.176738,76.3410335 C245.976199,74.5278057 243.845035,73.6021488 242.121227,72.3635238 C240.829613,73.9051814 239.73174,75.6024951 238.903782,77.4306261 M132.635388,77.5862822 C130.543966,78.5798316 127.475554,78.9805632 127.162586,81.7906523 C131.035773,80.5338122 134.605928,78.5235305 138.422814,77.1126903 C141.068967,76.0214418 144.364239,75.2547528 145.467079,72.2492656 C141.080558,73.7412457 136.965608,75.9469256 132.635388,77.5862822 M259.12417,72.7758469 C259.033095,73.638579 258.923804,74.4963433 258.865847,75.3640432 C259.579547,74.837462 260.261784,74.2612033 260.975484,73.7230307 C262.053485,75.9518933 260.791677,78.5119391 259.076148,80.0204783 C254.780703,82.0423515 250.049752,83.0027826 245.726155,84.961731 C244.548799,85.3276884 244.639875,86.8180126 244.166283,87.7271103 C253.194336,84.4765477 262.232324,81.2541356 271.265344,78.0035729 C272.692744,77.7353146 273.080228,76.2201517 273.676358,75.1189677 C269.286525,76.3344098 265.060628,78.0780891 260.763527,79.5800047 C262.008775,77.1805828 263.990906,73.5872456 261.642818,71.2325334 C260.682387,71.5239745 259.922321,72.1979323 259.12417,72.7758469 M45.6203262,70.0502095 C45.3123259,70.884791 45.0026696,71.7127489 44.6946693,72.5473305 C45.6948424,72.2608571 46.7115747,72.0091579 47.7398984,71.8385985 C46.7364134,73.0391375 45.1550139,73.3852239 43.9097652,74.2529237 L43.6232918,74.5675477 C42.6463015,76.2963238 42.9294631,78.4258315 43.0784955,80.3351023 C43.4841948,83.1104172 43.5123454,86.0016461 44.6267767,88.6246167 C45.466326,84.8739675 44.5257659,81.108415 43.9461953,77.3941959 C43.8766469,76.9504105 44.0587976,76.4933778 44.4280668,76.2367108 C46.0160901,75.1421505 48.0379632,75.034516 49.9422663,74.9831826 C50.3264388,74.0260633 50.3661808,73.9283642 50.7520092,72.9712449 C49.7799866,71.9561685 48.8742007,70.8831351 47.9766943,69.805134 C47.6935327,69.4673271 47.2215967,69.351413 46.8158974,69.5269401 C46.4168217,69.7008113 46.0160901,69.8746824 45.6203262,70.0502095 M401.100732,71.5057595 C399.078859,70.4906831 397.270599,69.1295203 395.40107,67.877648 C394.427391,69.5401874 393.490143,71.2259097 392.811218,73.0325138 C394.586359,74.443354 396.530404,75.6207101 398.380062,76.9222599 C399.449784,75.3226453 400.370473,73.6319553 401.21499,71.9064911 C403.318003,72.9116319 405.275296,74.168472 407.259083,75.387226 C408.237729,73.7743641 409.16173,72.123416 410.059236,70.4658444 C408.169836,68.9523373 406.09663,67.6723145 403.859488,66.7466575 C402.968605,68.3512399 402.157206,70.0054998 401.100732,71.5057595 M365.582995,67.3179485 C365.289898,67.3047012 365.010048,67.4355185 364.826241,67.6640349 C364.049617,68.6360574 363.39553,69.705779 363.243186,70.9742105 C363.932047,70.5055863 364.627531,70.0170912 365.294865,69.510381 C366.000285,68.9026599 366.212243,69.1576709 366.679211,69.9491986 C367.40119,72.5506423 365.399188,74.7215479 364.654026,77.0729483 C365.967167,75.643893 367.008738,73.9581707 367.694287,72.1416311 C367.975793,70.9261889 367.883062,69.6743166 367.803578,68.4390035 C367.763836,67.8793039 367.325018,67.4288948 366.765319,67.3891529 C366.369555,67.3643141 365.975447,67.3394754 365.582995,67.3179485 M419.029332,67.3990884 C418.297417,68.0051535 418.159976,69.0268536 417.772492,69.8382523 C418.353718,69.5600584 418.934945,69.2752409 419.516171,68.9871116 C419.915247,68.7900576 420.397118,68.9688965 420.57099,69.3812195 C420.874022,70.0965751 421.183678,70.8400813 420.840904,71.5802757 C420.183505,73.0772235 419.211483,74.4152035 418.542493,75.9121513 C420.844216,73.9432675 422.839594,71.0371353 422.294798,67.9405728 C422.185508,67.3162926 421.645679,66.8542921 421.011463,66.8327652 C420.28286,66.8079264 419.547634,66.8277974 419.029332,67.3990884 M171.395408,64.4614938 C170.681709,65.9551298 169.910052,67.4173034 169.143363,68.8778211 C167.338415,67.7137123 165.545058,66.5148293 163.642411,65.4964411 C162.700195,67.1871311 161.84243,68.9308104 161.138666,70.7341027 C163.013163,71.8717168 164.784993,73.2395033 166.813489,74.1022354 C167.699404,72.8967287 168.22433,71.4842326 168.979427,70.2058656 C171.034419,70.5817585 172.50984,72.4098895 174.284981,73.4382132 C175.175864,71.7541468 176.103177,70.0833278 176.969221,68.3827023 C175.215606,66.9254964 173.307991,65.6868714 171.395408,64.4614938 M89.0881151,64.6221176 C88.8413837,64.673451 88.6476415,64.8655372 88.5913404,65.1106128 C88.4721145,65.6636886 88.3562003,66.2184204 88.2469099,66.7748081 C88.2005443,67.0215396 88.4274047,67.2401204 88.6708243,67.1805075 C89.4342015,66.993389 90.1926109,66.8013028 90.9543322,66.6141843 C91.1596657,66.5645068 91.3451283,66.7632167 91.2772358,66.9635825 C90.7937084,68.4158206 90.1214066,69.7985103 89.6709975,71.2606839 C89.3497498,72.5125562 89.1576636,74.2893539 90.64302,74.8540211 C92.9960763,75.8310114 95.5842727,74.7563221 97.4918876,73.3057399 C99.3597606,71.8369426 101.325333,70.3582098 102.549054,68.271756 C98.8927924,70.3466184 95.0692829,74.2198054 90.5155145,72.1399752 C91.3285692,69.8912416 92.4363768,67.7385511 92.9348074,65.3821829 C92.9944204,65.1122687 92.8586353,64.8357307 92.6152157,64.7065693 L92.5970006,64.6982897 C91.9031719,64.3306764 91.1017087,64.2114505 90.3333638,64.3654507 C89.9177289,64.4499024 89.50375,64.53601 89.0881151,64.6221176 M444.717553,66.9801417 C444.598327,67.5282498 444.257209,67.2583355 444.131359,67.0414105 C443.690886,66.2382914 443.275251,65.4351723 442.862928,64.633709 L442.589702,64.5177949 C441.377571,64.9433653 442.248583,66.0677321 442.021722,66.8244856 C441.859443,67.3560345 441.316302,67.6789381 440.779786,67.5448089 C439.117246,67.13083 437.348728,66.5479476 435.934576,67.8279705 C433.205627,70.2207688 432.228637,73.9118051 430.049451,76.7467329 C428.34717,79.3630798 425.411231,80.676221 423.154218,82.7113415 C427.496029,81.8072115 430.75156,78.2436807 432.763497,74.4665369 C433.836531,72.5688574 434.763844,70.2207688 436.946341,69.3762518 L437.275868,69.313327 C438.678429,69.3166388 440.574452,70.532081 441.458711,69.8101017 C442.020067,69.2437785 442.374433,68.506896 442.818218,67.8445297 C443.740563,68.1988957 444.750672,69.6544456 445.664737,68.7122296 C446.722867,67.0496901 446.671534,65.0162256 446.237684,63.1649117 C444.924543,62.9662018 445.110005,65.6670005 444.717553,66.9801417 M380.973076,65.1536666 C382.249787,64.8671931 383.543057,64.5989348 384.846263,64.4399669 C384.195488,66.364141 382.847573,68.0564869 382.531293,70.0849837 C382.138841,71.5703402 383.663939,72.9248793 385.104586,72.6615887 C387.49076,72.1747494 389.794139,71.101716 391.680227,69.5468111 C389.045665,69.6163596 386.382953,70.8731996 383.816283,69.7190263 C384.30809,67.1424214 386.485619,64.8969996 385.795103,62.1548031 C383.615917,61.9031039 381.696711,63.0738364 380.973076,65.1536666 M154.145734,64.1766763 C154.973692,63.9531276 155.796682,63.2162451 156.710747,63.5076863 C158.321953,66.1306569 154.973692,68.2850033 154.432207,70.7539737 C156.62464,69.2272194 157.585071,66.5429799 158.533911,64.1534934 C159.121761,62.8105458 158.230878,60.6860058 156.561715,61.0718342 C154.922358,61.1264794 154.77995,63.0639009 154.145734,64.1766763 M216.679737,67.79982 C216.691328,69.4838863 218.163437,70.4227905 219.471611,71.1646408 C220.996709,70.0568332 221.382538,68.1707451 220.799655,66.4336895 C220.478408,66.9950449 219.834256,68.1078203 219.513009,68.6675198 C218.776126,67.8908953 217.759394,67.2334968 217.519286,66.1207214 C217.72462,63.9547836 218.918535,62.0471686 219.393783,59.9441556 C216.976146,61.6745875 216.542296,65.0410643 216.679737,67.79982 M225.00237,55.4350969 C223.940928,56.8856791 223.202389,58.55981 222.672496,60.2687151 C224.321788,61.5537057 226.184693,62.5191046 227.968115,63.5937939 C228.837471,61.9709965 229.734977,60.3498549 230.30958,58.5945842 C229.031213,56.9949696 227.055705,55.6867961 225.00237,55.4350969 M7.82736059,55.7778715 C8.35228589,55.3622366 8.86065203,54.9316985 9.38888916,54.529311 C9.68860992,54.3024505 10.1274276,54.3736549 10.3460085,54.6816552 C11.0166544,55.6288391 10.8543746,56.9916577 10.6672561,58.0994654 C9.91215855,60.7903285 7.99957583,63.0506535 7.72469382,65.9021405 C9.60912596,63.7643532 10.5645894,61.0221567 11.6773648,58.4521755 C12.5848066,56.4104313 12.7189358,53.7328155 11.1872137,52.0371578 C10.7748907,51.5817809 10.0760942,51.5155443 9.58759906,51.8914372 C8.4052752,52.7939113 7.85054342,54.2262784 7.82736059,55.7778715 M404.276778,49.5151981 C403.958843,51.0585115 405.267016,52.8469006 406.876566,52.7442338 C408.075449,51.9096523 408.088697,50.3050699 408.476181,49.0432621 C407.971127,49.4075635 406.975921,50.1510697 406.477491,50.5203389 C404.939145,48.3229387 406.507297,45.8490005 406.787147,43.5290625 C405.689275,45.3919678 404.589747,47.3509161 404.276778,49.5151981 M30.0861804,42.7275993 C28.9833405,47.3509161 26.2411439,51.5685336 26.1202621,56.4120872 C26.2278966,58.0199814 26.9813383,60.5899627 29.0280502,60.2057903 L29.2913408,60.0716611 C30.5912347,58.894305 31.2370418,57.0330556 30.5382454,55.3539571 C30.2666752,55.9865169 30.0050405,56.6207326 29.7533413,57.2582602 C29.6225239,57.5877874 29.2366956,57.7252284 28.9187597,57.5629487 C27.8407586,57.0231201 27.0641341,55.9418071 27.2860268,54.6634402 C27.8987156,50.5898874 29.3824162,47.0313244 30.3080731,43.0322878 C30.1308901,42.9942018 30.2683311,42.7689972 30.0861804,42.7275993 M105.284627,40.1410589 C104.84581,42.6712982 106.266585,47.4883571 107.005124,50.3630269 C107.730415,53.2989656 107.417447,56.3392269 107.867856,59.3033162 C106.617639,62.4445884 104.569272,66.9718621 107.693985,69.6180155 L108.015232,69.7935426 C110.4693,70.5155218 111.353559,67.0761848 111.151537,65.2447419 C110.611708,65.892205 110.080159,66.5529154 109.560202,67.2202495 C109.39461,67.4338626 109.103169,67.4951315 108.866373,67.3709378 C107.937404,66.8907222 107.107791,66.1207214 107.227016,64.9599244 C106.890866,61.0337481 110.280525,58.2120677 110.860096,54.5044723 C109.929471,55.7033553 109.157814,57.0181524 108.392781,58.3329495 C108.467297,56.9154856 108.53519,55.5046454 108.520287,54.0871815 C108.598115,50.0417793 106.399059,45.3853441 106.25665,41.3631247 C106.001639,40.6129949 105.622434,40.2950591 105.284627,40.1410589 M145.324671,43.2194063 C144.695423,45.7463338 144.592756,48.8809823 146.907726,50.6147261 C148.6779,49.5797788 149.278997,47.589368 149.45618,45.6701616 C148.318566,45.781108 148.078458,47.1737332 147.358135,47.8708737 C144.445379,44.4199452 148.015534,40.2139192 147.747275,36.3854419 C146.621253,38.5364765 145.935703,40.8845651 145.324671,43.2194063 M365.164048,42.0884158 C364.980241,43.7526112 366.09964,45.8556242 367.962546,45.8407997 C369.437967,45.2661182 368.984246,43.3568473 369.406504,42.1397492 C368.795471,42.5620077 368.192718,42.9792985 367.591621,43.4081807 C367.089878,42.8931909 366.593103,42.379857 366.09964,41.8714909 C366.112888,39.4389506 367.985728,37.4435721 367.712502,34.9977845 C366.38777,37.1471632 365.420715,39.568112 365.164048,42.0884158 M181.426946,34.4894184 C178.106835,36.1403664 176.702618,40.0963492 176.04522,43.5174711 C177.124877,42.9395565 177.803802,41.9393834 178.343631,40.8779414 C181.678645,38.900778 185.861489,39.5234023 189.312417,40.8845651 C186.792113,42.6878573 184.164175,44.345429 181.387204,45.7181832 C179.958149,46.4583775 178.269115,46.8557973 177.250727,48.2136483 C179.587224,48.2318633 181.706796,47.1555181 183.952218,46.6984853 C185.911166,46.233173 188.168179,45.8837748 189.512783,44.2146117 C191.450204,41.8565876 193.518443,39.0266276 192.875948,35.7826886 C189.403492,33.8386435 185.233896,33.9578694 181.426946,34.4894184 M430.879065,38.8709715 C429.17016,37.8161531 427.553986,36.5924314 425.730823,35.734667 C424.316671,37.0991416 423.5831,38.9868856 423.023401,40.8249521 C424.873059,42.0900717 426.73762,43.3353204 428.759493,44.3156225 C429.855709,42.7574058 430.673732,41.0269738 431.723582,39.4323269 C433.290079,40.5848443 434.861543,41.7406735 436.517458,42.7756209 C437.643481,41.1726944 438.531052,39.4257033 439.289461,37.6257228 C437.482857,36.2827751 435.649759,34.9812253 433.750423,33.7823423 C432.723755,35.4382581 431.769948,37.1405395 430.879065,38.8709715 M167.23078,43.2757074 C166.788651,45.231344 167.030414,47.7731747 169.115212,48.6822724 C171.224849,48.5001217 171.251344,46.0824847 171.416935,44.4944614 C170.617128,44.9796448 169.908396,46.6819262 168.92147,45.6916885 C167.613297,44.5110206 168.476029,42.4427818 168.368394,40.9011242 C169.491105,38.4818313 171.074161,35.9863662 170.646934,33.2027718 C169.471234,36.541098 167.966007,39.7982843 167.23078,43.2757074 M333.807627,32.078405 C332.386851,35.8787317 330.706097,39.7138326 330.472613,43.815536 C330.363322,45.7397101 331.431388,48.5398637 333.802659,48.1291966 C335.430424,47.1439267 335.352596,45.1237094 335.041284,43.4942883 C334.529606,44.305687 334.012961,45.1170858 333.504594,45.9268286 C332.575626,45.0707201 331.42642,44.0821384 331.626786,42.6646745 C331.573797,38.9686705 334.518015,35.7975918 333.807627,32.078405 M215.027133,37.3756795 C216.192898,39.6211013 216.946339,42.0950395 218.491309,44.1285041 C219.786235,45.8937103 220.981806,47.7797983 221.488516,49.9391125 C218.723137,53.075417 215.696123,56.0246029 212.149151,58.2634011 C204.674348,63.1665676 196.653092,67.2219054 188.30562,70.4095432 C185.106391,71.7756737 181.667054,72.615223 178.666535,74.4218271 C181.657118,74.4036121 184.540068,73.5342563 187.459447,73.0159546 C191.294548,72.4264486 195.174359,72.0041901 198.921696,70.9808342 C203.321464,69.3182947 207.22777,66.639023 211.198656,64.1700526 C216.507522,60.662823 222.094581,56.1322375 223.419314,49.5615637 C224.368154,44.9233436 221.551441,40.7802424 218.946686,37.2448622 C219.478235,37.2945397 220.551268,37.3922387 221.089441,37.4435721 C219.478235,35.067333 217.557372,32.9179543 215.901457,30.5764894 C215.381499,32.7523627 213.672594,35.2163654 215.027133,37.3756795 M93.2527433,30.3926828 C92.3436455,32.8947715 91.6580964,35.4780001 91.1497302,38.0827556 C90.7788051,39.9589081 91.2076873,42.3699215 93.2130013,43.1101159 C95.7034986,43.4711055 95.71509,40.0085856 95.8359719,38.3063042 C95.2530895,39.1690363 94.7447234,40.0715104 94.2181422,40.9673609 C93.6104211,41.7572327 92.491022,41.1346083 92.2293873,39.5118109 C92.236011,37.6936154 92.1664625,35.8257424 92.8934096,34.1184932 C93.4299263,32.9411371 93.5210016,31.6495228 93.2527433,30.3926828 M425.045274,32.9875028 C426.490889,34.3701924 428.049105,34.9514189 430.147151,36.2728396 C431.581174,35.1815912 432.197174,33.1580621 433.136078,31.5998453 C431.36756,30.3247902 429.499687,29.1987675 427.736137,27.9319919 C426.666416,29.5133915 425.550328,31.1196298 425.045274,32.9875028 M259.455353,32.3002977 C260.390945,32.6049862 261.323226,32.8947715 262.272066,33.1812449 C261.666001,31.9773941 260.889376,30.8662747 260.041547,29.8213918 C259.836214,30.6443819 259.644127,31.4723398 259.455353,32.3002977 M255.386768,31.0798878 C255.885199,29.2385095 256.385285,27.400443 256.958232,25.5805915 C261.351377,26.3257536 263.772325,31.2769418 263.144733,35.4051398 C261.798474,34.8735908 260.472085,34.2907085 259.145697,33.7227294 C256.976447,37.6604971 253.798745,41.2140923 249.688762,43.1515138 C252.35313,40.1526503 255.482811,37.5230561 257.517932,34.0108587 C256.827415,33.3451806 255.482811,31.9972651 255.386768,31.0798878 C255.729543,30.742081 256.370382,30.3330698 257.00791,30.4721667 C257.012877,30.1277362 257.809373,31.9128134 258.466771,32.3400397 C258.460148,31.4673721 258.801266,30.4970054 258.306148,29.6905745 C257.877265,29.758467 257.012877,29.9025317 256.587307,29.9687683 L257.107265,30.4903818 C256.678382,30.6394142 255.81565,30.9291995 255.386768,31.0798878 M233.52868,24.7029562 C232.283431,27.6918841 233.349841,30.8911134 233.722422,33.9363425 C231.591258,30.7702315 228.363879,28.205218 224.437702,27.890594 C224.374778,29.0961007 223.525293,30.7652638 224.780477,31.6279959 C225.841919,32.6165776 227.350458,32.1926632 228.632137,32.0270716 C230.663946,33.5985357 233.715798,35.0905158 233.634658,38.0844115 C233.354809,42.5686314 229.908848,45.8655597 227.196458,49.1161224 C233.2124,46.311001 235.921478,38.7285627 234.768961,32.4443624 C234.494079,30.1939729 232.911023,27.3888515 235.168036,25.6915379 C236.007586,26.2677966 236.853759,26.8573026 237.693308,27.4401849 C237.6072,26.160162 237.951631,24.411515 236.482834,23.7839229 C235.45451,22.8682015 234.157928,23.8004821 233.52868,24.7029562 M352.079002,22.800309 C350.383344,25.2510643 351.640184,28.4900355 351.593818,31.2454794 C349.161278,28.3194762 345.813016,26.0459039 341.926582,25.7379035 C341.876905,26.9318188 341.765958,28.1307018 341.963012,29.3196493 C342.789314,29.7833057 343.710003,30.0383168 344.60751,30.3545967 C344.799596,30.0383168 345.190392,29.4156924 345.384134,29.1027244 C348.247213,30.4622312 350.658226,32.5818034 352.194916,35.3753333 C353.239799,31.8051789 352.049195,28.1936266 352.330701,24.6002894 C353.834272,24.6052571 355.044747,25.4116881 356.079694,26.4333881 C356.342985,25.7196885 356.737093,25.0341393 356.732171,24.2508912 C355.781629,22.7655347 353.577605,20.9556188 352.079002,22.800309 M404.164176,29.5879077 C404.349639,30.622855 405.490565,31.980706 406.247318,31.7141035 C407.795599,31.0004038 408.259256,29.2401654 408.732848,27.753153 C407.689621,28.2962934 405.709146,30.0598437 405.404457,28.8228746 C405.15607,26.3025708 405.964157,23.8683746 406.174458,21.3778773 C405.1925,24.0240307 403.665746,26.6569368 404.164176,29.5879077 M127.372888,27.7879272 C126.818156,30.1873492 125.859381,32.787137 126.927446,35.1981503 C127.04336,35.557484 127.238759,35.8605166 127.47721,36.1221513 C128.237276,36.953421 129.629901,36.6801949 130.073686,35.6469035 C130.368439,34.9563866 130.626762,34.2509665 130.870182,33.5405786 C130.732741,33.2607289 130.452891,32.6894379 130.308826,32.4046204 C130.134955,32.8484058 129.961084,33.2938472 129.787213,33.7392885 C129.608374,34.1913535 129.05033,34.3436978 128.657878,34.0572243 C128.106458,33.6548368 127.632866,33.1729653 127.687512,32.4046204 C127.064887,28.559584 129.909751,25.0341393 128.77876,21.1940707 C127.909404,23.2921159 127.939211,25.610398 127.372888,27.7879272 M12.9292371,27.890594 C12.4573011,29.7270046 12.694097,31.8333295 13.8333671,33.3070945 C14.5785292,34.2708375 16.0787889,34.2145363 16.7179724,33.1762772 C17.4432635,31.9956092 17.8141886,30.6294787 17.7396724,29.1987675 C17.1336072,29.8992199 16.5888109,30.6592852 15.9827458,31.3663612 C15.7144874,31.6776734 15.2276482,31.7008562 14.9544221,31.3945118 C14.2125718,30.5665539 13.7456036,29.4984882 13.8714532,28.3592182 C14.2258191,25.3603547 15.9512834,22.623126 15.7509175,19.5315312 C14.3235182,22.1147598 13.6495604,25.0506985 12.9292371,27.890594 M109.399578,20.0697039 C107.930781,22.8864166 109.445944,26.1303556 109.43932,29.1027244 C108.256996,27.5130452 107.159124,25.747839 105.412133,24.7145476 C103.77112,23.6398582 101.823763,23.2457503 99.9376752,22.858266 C99.8283848,23.7706756 99.4011585,24.7609132 99.8581913,25.6451722 C100.469224,26.6105711 101.515763,27.1487438 102.406646,27.8227015 C102.663313,27.4285935 103.18327,26.6403776 103.446561,26.2462697 C105.491617,27.4567441 107.51349,28.9536919 108.523598,31.1808987 C107.948996,32.4675452 107.222049,33.6846433 106.673941,34.9928168 C107.900974,34.4447086 109.205836,34.2493106 110.411342,34.948107 C108.205663,36.0906889 105.892348,37.5296797 105.286283,40.1410589 C105.605875,40.5467582 105.93209,40.9574254 106.25665,41.3631247 C106.75508,38.1688632 110.386504,38.1804546 112.855474,37.8608629 C112.936614,37.210088 113.016098,36.5576572 113.095582,35.9068823 C112.015925,34.5804937 111.038935,33.1696535 109.999019,31.8101467 C110.360009,28.4055838 109.959277,24.9943973 110.050353,21.5832109 C111.454569,22.1081362 112.759431,22.858266 114.060981,23.5951485 C113.941755,22.6065668 114.347454,21.3546945 113.468163,20.6244356 C112.557409,19.3940902 110.341794,18.2929062 109.399578,20.0697039 M212.518421,18.6290571 C211.668936,20.303188 210.840978,21.9889102 210.143837,23.7375573 C212.125969,25.0275157 214.18096,26.2114954 216.068704,27.6504862 C216.88507,25.8687209 217.873652,24.1084824 218.204835,22.1594696 C216.605221,20.5714463 214.575068,19.5033807 212.518421,18.6290571 M306.766523,19.2003481 C305.840866,21.4242429 306.218414,23.9362672 306.248221,26.2926353 C305.345747,25.0738813 304.486326,23.7888907 303.287443,22.8417068 C301.629872,21.4060279 299.38445,21.0814684 297.346018,20.5615108 C297.031394,21.7537702 296.385587,23.0917501 297.129093,24.2674503 C298.015008,25.5077312 299.652708,25.787581 301.055269,26.0740544 C301.34671,25.7196885 301.927937,25.0043328 302.219378,24.6516228 C304.208133,26.0806781 305.155316,28.3873688 306.65392,30.2337148 C307.943879,27.0957545 306.428716,23.6017722 307.693835,20.4654677 C308.944052,21.0748447 310.131343,21.8084154 311.320291,22.5535775 C311.308699,21.6229528 311.333538,20.6989518 311.245775,19.7732949 C310.172741,18.533014 307.920696,17.4599806 306.766523,19.2003481 M284.193079,23.075191 C283.290605,22.8930402 282.245722,22.9659005 281.601571,22.2058352 C279.897633,20.81321 279.183934,15.3470321 277.966835,17.0360662 C277.079265,17.9468198 280.131117,21.7388669 279.650902,24.411515 C279.475375,25.0490426 278.513288,25.6965056 277.428663,25.2742471 C274.616918,23.7375573 276.423522,20.0183705 274.320509,17.9501317 C274.115175,18.3674224 273.714444,19.2135954 273.50911,19.6358539 C274.411584,21.4755763 274.636789,23.5206323 275.120316,25.4911721 C275.595564,27.1951094 277.229953,28.6009819 279.207116,27.537884 C280.268558,26.6801196 280.616301,25.2924622 281.074989,24.0687404 C282.187765,24.8122466 283.428046,25.3437956 284.777617,25.4679893 C286.20336,21.8017917 283.582046,18.5379818 281.949313,15.4828172 C281.137914,18.3160891 282.931271,20.7204787 284.193079,23.075191 M453.013691,19.2003481 C453.343219,20.9655543 454.480833,22.5270829 454.469241,24.3701171 C454.628209,28.7533261 454.446059,33.1464707 454.702725,37.5280238 C455.108425,42.2887816 455.719458,47.0263567 456.015867,51.7953941 C456.289093,56.9535717 457.362126,62.1663945 456.469588,67.3146366 C456.010899,70.4111991 453.411111,72.5688574 450.743431,73.8488803 C446.380093,75.8823448 441.688883,77.077916 437.042384,78.2834227 C436.181308,78.5185627 435.3815,78.8828642 434.637994,79.3730153 C437.74118,79.6876393 440.819528,78.985531 443.927682,78.9507568 C447.393513,78.5450574 451.624378,78.5682402 453.916165,75.4551186 C458.349052,69.5401874 460.402388,61.9825879 459.771484,54.6352896 C458.812708,45.0127631 457.507847,35.400172 457.32404,25.7130648 C458.206643,26.6155389 459.069375,27.5411958 460,28.4039279 C459.978473,26.6850873 459.89071,24.9364403 459.191913,23.3417934 C458.057611,20.4340053 457.267739,17.4069913 456.045673,14.5339774 C455.023973,16.0822587 453.858208,17.5427764 453.013691,19.2003481 M433.849778,22.1776846 C431.804722,20.7271024 431.256614,18.2299814 430.089193,16.1667104 C429.622225,18.1157232 430.158742,20.086263 430.061043,22.0468673 C429.951752,23.3666321 427.919944,23.9379231 427.073771,22.9493414 C425.388049,21.5716195 426.57534,19.0347565 425.136349,17.4997226 C424.712435,19.5497463 424.399467,21.8067595 425.359898,23.7657078 C425.931189,25.0059888 427.04562,26.3141622 428.575686,26.0061619 C430.279624,26.0111296 430.524699,23.8634069 431.245023,22.7026099 C432.250164,23.3666321 433.288423,24.8403972 434.637994,24.1151061 C435.558683,23.0006748 435.3815,21.4176193 434.907908,20.1558115 C434.300187,18.533014 433.912703,16.8522595 433.472229,15.191376 C431.872615,17.2877654 433.271864,19.9604134 433.849778,22.1776846 M380.208043,15.0357199 C379.206214,16.7098508 378.320299,18.4469064 377.704298,20.303188 C379.764257,21.5434689 381.739765,22.9427177 383.851057,24.1035147 C384.71379,22.3946096 385.695748,20.6807368 385.955726,18.7615304 C384.268348,17.1900663 382.145464,16.2428825 380.208043,15.0357199 M141.274301,21.5368452 C141.292516,22.4608462 141.891957,23.1083093 142.542732,23.7060949 C143.115679,24.2326761 144.029744,24.116762 144.447035,23.4577075 C145.082907,22.4442871 145.397531,21.2603073 145.478671,20.0365855 C145.122649,20.3512095 144.771595,20.6724572 144.423852,20.9953608 C143.854217,21.5235979 142.938496,21.3381353 142.612281,20.636027 C142.320839,20.0051231 142.108882,19.3477246 142.216517,18.6406485 C142.405291,16.2428825 144.210239,14.2292889 143.874088,11.7570067 C142.34899,14.7624938 140.914967,18.0875727 141.274301,21.5368452 M94.3837337,21.4639849 C92.5556027,17.8805832 89.1609754,14.7906444 84.9102396,14.8817197 C84.9963473,15.9050757 84.5972716,17.0758081 85.1801539,18.0080887 C85.6769286,19.1324555 87.0529946,19.2185631 88.0366086,19.6921551 C88.3164584,19.3957461 88.8645665,18.8012724 89.1394485,18.5048634 C91.6763115,20.0978544 93.297453,22.6529324 94.4234757,25.3669784 C96.4171983,21.619641 94.2297336,17.4467333 95.1885088,13.5685785 C96.561263,14.0587296 97.8859956,14.6830099 99.2057605,15.3106019 C99.2173519,14.4429021 99.2223196,13.58017 99.2223196,12.7174378 C97.996942,11.9805553 96.7152631,11.3165331 95.360724,10.8313498 C92.6632373,13.7855035 94.0310237,17.9484758 94.3837337,21.4639849 M223.250411,20.7204787 C225.666392,21.4805441 225.620026,18.4137881 226.072091,16.921808 C225.197768,17.2016577 223.998885,19.1457029 223.42097,17.5576796 C221.673979,15.2195266 224.570176,12.8035455 224.684434,10.3411987 C222.296603,13.008879 220.822838,17.6470991 223.250411,20.7204787 M387.166201,14.0935038 C389.514289,14.4412462 390.728076,12.2372223 390.954936,10.2087254 C390.143537,10.7916078 389.350354,11.4026407 388.577041,12.0136736 C387.452674,10.511758 388.474374,8.72833675 388.754224,7.11713071 C387.340072,9.15225119 386.023619,11.6079743 387.166201,14.0935038 M442.35125,11.1741243 C442.836433,13.088363 443.521982,14.9727951 443.561724,16.9731414 C443.796864,24.6168486 444.71093,32.2108783 445.17293,39.8380263 C445.436221,44.2543537 446.732803,48.5796056 446.527469,53.0307072 C445.499146,53.5109228 444.498972,54.0755901 443.396133,54.3554398 C442.053185,54.4183646 440.905635,53.6417401 439.739871,53.1217826 C439.665354,51.8881253 439.58587,50.6528122 439.488171,49.4307463 C438.239611,50.4027689 437.494449,51.7904263 436.883416,53.2078902 C436.141566,55.1436557 433.60967,56.2017859 431.7004,55.453312 C429.981559,54.3902141 430.741624,52.1613514 430.534635,50.5054357 C428.11203,52.1282331 427.640094,55.5725379 424.879682,56.7664532 C422.627637,57.8808845 419.863914,57.4172281 418.025847,55.7447532 C417.926492,54.1898483 417.851976,52.6365993 417.726126,51.088318 C415.989071,51.7788349 414.492123,52.9048576 413.08625,54.1087084 C410.095666,56.6704101 406.162867,57.9785835 402.259873,58.0464761 C400.077376,57.9653362 397.682922,57.3841098 396.31348,55.5377637 C394.175692,52.8303414 395.051672,49.1740794 395.164274,46.0129362 C398.254213,45.014419 401.330904,43.9629125 404.52351,43.3286967 C406.917964,42.6315562 409.487945,42.4262226 411.721776,41.2538343 C412.85939,39.6608433 413.407498,37.7350133 414.063241,35.9135059 C411.446894,35.9184737 408.842138,36.1585815 406.24235,36.363915 C398.724493,36.7646466 391.204979,36.3076139 383.697057,35.9648393 C386.94762,32.9924705 389.421558,29.2517568 391.03442,25.1599889 C391.873969,22.9659005 393.182143,20.8695112 395.387823,19.8411875 C397.403072,21.8928671 398.964601,24.6516228 398.118428,27.6008088 C398.323761,27.6057765 398.729461,27.6173679 398.934794,27.6223357 C399.463031,25.4398387 400.026043,23.212632 399.820709,20.9440274 C399.557419,18.0130565 398.346944,14.779053 395.432532,13.5619549 C391.729905,16.744625 390.868828,21.8067595 388.103449,25.6468282 C385.354629,29.8346391 380.595527,31.8912865 376.836598,34.9762576 C374.824661,36.6950982 374.602768,39.530026 374.077843,41.9460071 C380.009333,41.8433403 385.937511,41.9112328 391.867346,42.0884158 C391.284463,42.8666962 390.181623,42.9345888 389.390096,43.4081807 C385.172478,45.4317098 381.317506,48.3279064 378.452772,52.0470933 C372.926981,58.9092082 370.986248,68.5648531 373.670487,76.9752492 C375.195586,81.4660928 379.423139,84.3970637 383.816283,85.6754307 C390.535989,87.6641855 397.668019,87.202185 404.540069,86.4586789 C407.911514,86.4189369 411.13227,85.2250216 414.011907,83.545923 C418.926665,80.871619 424.308392,78.8778965 428.713127,75.3756346 C426.30377,75.6670758 424.030198,76.5347757 421.692045,77.1126903 C410.931904,80.1115537 399.655118,82.3900938 388.467751,80.7855114 C383.816283,79.8880051 378.932988,77.8661319 376.435867,73.5922133 C374.215284,69.5021014 374.705435,64.4631497 376.384533,60.2687151 C379.611913,53.3784495 386.63962,49.3910044 393.443778,46.7117327 C392.48997,51.1396514 391.570937,56.0461298 393.826294,60.2571236 C395.868038,63.5772348 400.335699,64.5078594 403.905853,63.5358369 C408.322181,62.8635351 411.604206,59.6344993 415.21907,57.321185 C415.44593,59.0184986 415.720812,60.9145222 417.196233,62.0223299 C418.612041,63.3834926 420.776323,63.3023527 422.571336,62.9198362 C425.250608,61.9312545 426.747555,59.3430581 428.153428,57.0231201 C428.398503,58.9655093 429.12545,61.2341139 431.364249,61.5818563 C434.339929,62.0173621 436.053802,59.0400256 437.431524,56.8989265 C438.431697,58.3842829 439.562688,60.3895969 441.635894,60.2869301 C444.866586,60.6512316 446.972911,57.4354432 447.926718,54.7793543 C450.56128,48.1556912 448.486418,41.0319416 447.983019,34.22116 C447.583944,28.4403581 446.881835,22.6694916 446.934825,16.8588832 C447.726352,17.7613573 448.522848,18.6638314 449.367365,19.5265635 C449.670397,18.4303472 449.743258,17.2695503 449.236548,16.2246674 C447.891944,12.9856962 446.842093,9.62087535 445.29878,6.46635581 C443.911122,7.70001306 442.887766,9.40891813 442.35125,11.1741243 M432.192206,9.23007923 C426.772394,11.8133078 421.531421,14.7740852 416.494125,18.0362393 C414.493779,19.4106494 412.008249,21.0914039 412.10926,23.8352563 C412.013217,26.1932804 414.208961,27.5527872 416.11492,28.324444 C416.399738,27.57597 416.653093,26.8208724 416.87333,26.0525275 C415.732404,25.0672576 414.18909,24.5721388 413.316423,23.2970837 C413.783391,21.8465015 415.17436,21.0351027 416.345093,20.2005212 C423.270132,15.8305595 430.369043,11.5732 438.153503,8.88233692 C438.501246,8.1454544 438.853956,7.39532456 439.193418,6.64685063 C436.68305,6.94988321 434.434316,8.15538989 432.192206,9.23007923 M408.85373,7.0426145 C405.642909,8.23156202 403.985337,11.7387916 403.322971,14.8866875 C404.465553,14.0636974 405.386242,12.8995886 406.694415,12.3167062 C409.454827,11.9739317 412.122507,12.9790725 414.670962,13.9163209 C411.059409,16.6518937 406.465899,17.3490342 402.620863,19.6060474 C405.820092,19.4222408 408.774246,17.9600672 411.985066,17.8408412 C415.606554,17.7547336 417.376728,14.0587296 418.572299,11.1625329 C419.223074,9.79143467 417.794019,8.56274517 416.616663,8.16863722 C414.151004,7.29431369 411.470077,6.63691513 408.85373,7.0426145 M311.681281,9.73844537 C311.080183,9.73844537 310.144591,10.3958439 310.527107,11.0532425 C311.252398,11.6013506 312.875196,10.0779081 311.681281,9.73844537 M307.092738,9.1009178 C308.35289,8.77967014 307.761728,9.49502575 308.584718,11.2767911 C309.202375,10.531629 309.815063,9.77984326 310.431064,9.03136934 C310.904656,8.45345473 311.6167,8.12061566 312.361862,8.12552858 L312.464529,8.12723933 C313.06397,8.13055116 313.535906,8.63560547 313.501132,9.23339106 C313.45311,10.0365102 313.347132,10.8330057 312.702981,11.3910493 C311.866743,12.4177171 310.58672,12.7257174 309.359687,13.0618683 C308.811578,13.2158685 308.233664,12.9360187 308.010115,12.4127493 C307.854459,12.0517597 307.702115,11.6940819 307.601104,11.4539741 C307.185469,12.1362114 306.77149,12.8184487 306.360823,13.5023419 C306.167081,13.8269014 305.764693,13.9643424 305.416951,13.8136541 C304.892026,13.5934173 304.378692,13.3516536 303.86867,13.106578 C303.643465,12.9989435 303.376863,12.9939758 303.156626,13.1165135 C302.017356,13.7407938 301.063549,14.6233969 300.374688,15.7328605 C299.876257,15.4894408 300.066687,15.5821721 299.568257,15.3387525 C300.291892,13.3930515 301.701076,11.7669422 303.703078,11.2221459 C304.131961,11.1062318 304.595617,11.2502965 304.903617,11.5715441 C305.249704,11.9391574 305.643812,12.3564482 305.882263,12.6064915 C307.071211,10.4985107 306.950329,11.3463396 307.092738,9.1009178 M236.166554,6.65513021 C233.180938,8.3242933 232.104592,11.9292219 230.943795,14.9330531 C231.202118,14.9512682 231.710484,14.9860424 231.967151,15.0026016 C232.659324,13.8649875 233.156099,12.3862547 234.568595,11.9507488 C237.597265,10.7750486 241.086279,11.3910493 243.81854,13.0535887 C240.80643,16.882066 235.361779,17.236432 232.139367,20.7320702 C235.515779,20.0531447 238.8806,19.104305 242.005313,17.6421313 C244.436197,15.191376 246.15007,12.0484479 247.21648,8.77470239 C244.725982,5.45459127 239.771482,5.43803212 236.166554,6.65513021 M352.575776,10.1458006 C353.20668,9.51158491 353.816057,8.86577776 354.422122,8.2083792 C355.008317,7.66523883 355.73692,7.31252877 356.256877,8.1454544 C357.073244,10.4604246 355.84621,12.9625134 354.314488,14.6532034 C345.606027,18.4469064 336.597845,21.6246088 328.295083,26.3091945 C327.627749,27.6802927 327.026652,29.091133 326.758394,30.60464 C340.020623,24.0124393 353.635562,18.041207 367.727406,13.4543204 C366.22549,18.0875727 363.859186,22.7953412 364.784843,27.8061423 C365.182263,29.2633482 366.778566,31.0103393 368.35831,29.9091553 C369.956268,28.4801 370.207967,26.1833449 370.138419,24.1614717 C369.543945,24.961279 369.020676,25.8173875 368.403019,26.5956679 C366.872953,26.6966788 366.084737,25.138462 366.078114,23.8120735 C365.826414,19.9157037 368.030438,16.4929258 368.94616,12.8201046 C371.05414,12.1676738 373.168745,11.4771569 375.137629,10.4720161 C376.757114,9.78646693 377.184341,7.94012084 378.02389,6.56902259 C378.047073,6.38024819 378.086815,6.00435531 378.109997,5.81558091 C370.934914,8.87736917 363.433616,11.0714576 356.210511,13.9958048 C357.09477,11.7454153 358.320148,8.35741162 358.056858,7.00287252 C357.767072,6.07887152 356.915932,5.68973131 355.965436,5.60362369 C353.657089,5.4777741 353.108981,8.45511065 352.575776,10.1458006 M331.444635,6.71639909 C329.724139,8.82603578 328.106309,11.4076085 328.300051,14.2292889 C329.931128,13.0767716 330.672978,10.8595003 332.699819,10.2650266 C335.682124,9.49833758 338.715761,10.5730269 341.57884,11.357931 C338.93103,13.3168793 336.024898,14.8866875 333.069089,16.3273342 C331.707926,17.0244748 330.167924,17.6305399 329.3913,19.0480038 C333.173411,17.3026686 337.664255,17.1900663 341.025764,14.5902786 C342.819121,12.7157819 344.561144,10.4306182 344.845962,7.77287335 C344.887359,6.04409729 342.943314,5.55229031 341.621894,5.1631501 C338.2786,4.23086952 333.956659,3.79205184 331.444635,6.71639909 M263.934605,4.41467617 C262.177679,6.9167649 262.300216,10.0083596 262.710883,12.8995886 C260.809892,9.64737 257.655373,6.56239892 253.60997,6.76276473 C253.364895,8.59089574 253.479153,11.122791 255.838833,11.2933503 C256.146833,10.9621671 256.757866,10.3047686 257.060899,9.97358541 C259.798128,11.2370491 261.12286,14.0189876 262.992389,16.194861 C263.985939,13.1794383 263.083465,9.97358541 263.876648,6.92835631 C265.049037,7.6205291 266.20321,8.33919654 267.397125,8.99162736 C267.299426,8.11730383 267.304394,7.21979748 267.054351,6.37362453 C266.345619,5.30059111 265.030821,4.93463372 263.934605,4.41467617 M315.445177,7.37379765 C314.372144,9.03136934 315.337543,10.8727477 315.771392,12.556814 C317.1872,19.3030148 316.995114,26.2677966 318.366212,33.022277 C319.086536,38.644111 319.914494,44.24773 320.513935,49.8811554 C321.48927,55.9219362 321.552194,63.0854278 321.085226,69.1924451 C321.3717,69.6097359 321.490926,70.4559089 321.941335,69.9922524 C322.661658,67.1987225 323.782713,63.8388695 324.022821,60.9542642 C324.782886,54.0938052 323.100476,47.3062064 322.7014,40.4772098 C321.666453,32.0320394 320.326817,23.6282668 319.469052,15.1549458 C320.34172,16.0292694 321.229291,16.8920015 322.171507,17.7000884 C322.101958,14.3832891 320.283763,11.5450495 319.278622,8.4816053 C318.783503,7.07242098 318.29004,5.63674201 317.440556,4.3964611 C316.152253,4.66140762 316.074425,6.40839876 315.445177,7.37379765 M176.644661,5.09360164 C175.079821,8.19678779 176.245586,11.7437594 176.194252,15.0373758 C175.187456,13.2423631 174.387648,11.2834148 172.920507,9.80302608 C170.901946,7.67020657 168.22433,6.31732339 165.487101,5.3519245 C165.172477,6.92173265 164.925745,8.50478812 164.819767,10.1060587 C165.848091,10.7386185 166.902909,11.3231568 167.966007,11.8994154 C167.156264,13.9676542 166.286908,16.0524522 164.801552,17.7381744 C162.383915,20.7734681 159.007503,22.7887175 156.316639,25.53257 C159.398299,24.1151061 163.041313,23.2275352 165.177445,20.3760483 C167.240716,17.5378086 168.196179,14.1117189 169.231126,10.808167 C170.943343,11.8133078 172.554549,13.0817393 173.652422,14.7674616 C174.867864,16.4796785 175.228853,18.6456163 176.543651,20.3081557 C177.434533,16.4482161 176.78707,12.4889215 176.901328,8.57268067 C177.280533,8.28951907 178.040598,7.71657221 178.416491,7.43009879 C179.509396,8.10571242 180.531096,8.87571325 181.559419,9.63577859 C181.764753,8.15207806 182.456926,6.23783943 180.964946,5.16977376 C179.925031,3.87319172 177.586877,3.55194406 176.644661,5.09360164 M272.076743,13.6712453 C264.396606,16.5392914 256.622081,19.1953803 249.132374,22.5502657 C247.120437,23.4527398 244.954499,24.0240307 243.091593,25.2229137 C241.544968,26.2114954 241.172387,28.1257341 240.510021,29.7021659 C243.720841,28.6523153 246.655124,26.948378 249.748375,25.6186776 C266.214801,18.9618962 282.752432,12.3564482 299.912687,7.67848615 C301.951119,7.03764675 302.740991,4.81044004 303.863702,3.20420174 C293.211196,6.51272145 282.504045,9.67220874 272.076743,13.6712453 M222.140947,4.88826808 C212.496894,8.67700336 202.708776,12.1179963 193.236937,16.3372697 C195.389628,13.618256 197.194576,10.2302524 196.646468,6.64850654 C196.601758,4.95119288 194.328186,4.66637537 193.283303,5.63343018 C192.029775,6.70149585 191.642291,8.40708909 191.299516,9.93881118 C192.254979,9.20689641 193.053131,8.28123949 194.030121,7.57416346 C195.268746,7.05420591 195.469112,8.5975194 195.527069,9.49502575 C195.51051,12.0931576 193.732056,14.1729878 192.304657,16.1783018 C191.728398,17.0691845 190.683515,17.4069913 189.762826,17.8176584 C181.170279,21.4739204 172.65556,25.3769139 164.55482,30.0449404 C162.5197,31.0268985 162.493205,33.5770088 161.835807,35.4548173 C167.451017,31.9575232 173.433841,29.1126599 179.35374,26.1700975 C186.346672,22.8400509 193.419088,19.6623486 200.675311,16.9549263 C199.842385,20.7883713 197.406533,24.3701171 198.042405,28.4271107 C197.972856,29.856166 199.441654,30.4605753 200.377246,31.2156729 C200.782946,30.9474145 201.605936,30.3993064 202.016603,30.1293921 C202.389184,28.7467025 202.680625,27.3474537 202.851184,25.9299898 C202.263334,26.7993455 201.759936,27.7250024 201.130688,28.5645517 C199.75959,28.9354769 199.19989,27.1123136 199.087288,26.0873018 C199.075696,22.7373842 201.099225,19.8180047 201.516516,16.5260441 C209.256267,13.0867071 217.352039,10.5448763 225.174585,7.29928144 C225.855166,5.90665628 226.563898,4.5223107 227.143469,3.08828764 C225.442843,3.58506237 223.780304,4.2076867 222.140947,4.88826808 M155.129348,7.48308809 C154.32954,10.197134 153.450249,13.1165135 154.152358,15.9448177 C154.5001,17.413615 155.83808,18.0130565 157.220769,18.080949 C158.414685,16.332302 158.906492,14.287246 158.911459,12.1858889 C158.312018,12.9741048 157.773845,13.8186218 157.088296,14.5505366 C155.740381,14.5273538 155.101197,12.9674811 155.134316,11.8083401 C155.220423,8.63229363 157.134662,5.88844121 157.654619,2.79187872 C156.192446,3.95267567 155.740381,5.81558091 155.129348,7.48308809 M107.695641,2.34643738 C105.455187,5.76921527 103.479679,9.88251004 104.347379,14.0819124 C104.512971,15.1897201 105.667144,16.6220872 106.51994,16.2495062 C108.096372,15.0771178 108.821663,13.2423631 108.569964,11.2933503 C108.054974,11.9507488 107.564823,12.6131151 107.077984,13.2870729 C106.640822,13.6364711 106.377532,14.345203 105.986736,13.3052879 C104.244712,9.52814407 107.341275,6.04906504 107.695641,2.34643738 M47.2282204,6.41999017 C48.0843288,7.15356085 48.9752115,7.84242181 49.9074921,8.47498164 C50.0598364,8.57930433 50.2668258,8.4501429 50.2403312,8.26633625 C50.1012343,7.29928144 49.9108039,6.33719438 49.6326101,5.39829014 C49.5680294,5.184677 49.3345453,5.06379515 49.122588,5.13499953 C48.5115551,5.34033309 47.9104577,5.56884946 47.3192958,5.82054866 C47.079188,5.92321544 47.0295105,6.25108676 47.2282204,6.41999017 M45.9680685,9.28306853 C45.4712938,6.61538823 46.7165424,2.01028648 50.2254279,2.81009379 C52.2539248,4.16960064 51.0881601,7.19827058 51.1626763,9.24332655 C51.8929351,10.2832417 51.8879674,11.5119312 51.7223758,12.7174378 C51.344827,12.6429216 50.5847617,12.5054806 50.2072129,12.4359322 C47.3971238,18.5793797 42.1809891,23.1662663 36.9068974,27.1719266 C38.8774372,24.017407 42.0153976,21.874652 44.3750775,19.0364124 C46.5112089,16.8241089 48.1687806,14.2193534 49.5448466,11.4821247 C48.3625227,10.7336507 47.1619838,10.0149833 45.9680685,9.28306853 M32.5021615,4.24411685 C32.0914944,6.59882907 32.3829355,8.98665961 32.4673872,11.3513073 C31.1708052,9.14562752 29.8907823,6.80416263 27.7082853,5.34033309 C26.3322193,4.31863306 24.6349056,3.95267567 22.995549,3.59334195 C23.0866244,5.04889191 22.5550754,6.94160364 23.9725393,7.92356169 C25.0919384,8.83762719 26.5259615,8.70018618 27.7828015,8.16863722 C30.1888471,9.92887568 31.6675799,12.4889215 32.570054,15.2874191 C35.2211752,12.1064049 31.6162465,7.56422796 34.2623999,4.50078379 C35.0969815,3.88643904 36.8439726,5.6152151 38.1405547,6.15173181 C37.7861887,4.72930017 37.4665969,2.90779282 35.9580577,2.23880285 C34.5074755,1.48536118 32.7886349,2.78194322 32.5021615,4.24411685 M75.8739073,10.5680592 C64.810734,14.8585369 54.0091955,19.869338 43.8567759,26.0177533 C42.5419788,27.046077 42.2969032,28.8394338 41.8001285,30.3247902 C46.3919829,28.4105516 50.5301164,25.6054303 54.9795621,23.3997505 C65.8903911,17.6752496 77.471866,13.4129225 88.8496632,8.723369 C91.5902038,7.58575487 94.4814328,6.80913037 97.1375217,5.48274184 C98.2983186,4.3236008 98.7934374,2.62628714 99.510449,1.16908127 C91.5107199,3.9973854 83.6881738,7.27113087 75.8739073,10.5680592 M68.1209097,2.10632959 C67.4221132,4.42626758 67.9934041,6.93332406 68.0281784,9.32446643 C65.9996816,6.22624802 62.7938286,4.06527794 59.1210074,3.4724601 C58.8974588,4.7856013 58.2831141,6.29414057 59.2882549,7.45328161 C60.1377397,8.80782071 62.0966881,8.19678779 63.199528,7.504615 C65.4929713,8.76311098 67.032973,10.8942746 68.2732539,13.1380404 C69.7470189,10.1275856 68.6226521,6.80913037 68.9091256,3.64964309 C70.6097511,2.86639493 72.2093657,4.58026775 73.8271954,5.01080585 C73.6003349,4.10667584 73.8901202,2.8945455 72.9992375,2.29510399 C71.712591,0.980306867 69.1210828,-0.0480168251 68.1209097,2.10632959 M52.6016671,53.3602345 C54.1217977,58.9207996 55.5094552,64.9417094 60.0284493,68.9357782 C60.662665,66.5694746 61.3035044,64.0856009 63.0405601,62.255814 C64.7544329,60.0849084 67.5529305,59.4225421 70.0053418,58.4621109 C73.9232385,56.8790555 77.9967913,55.7430973 82.014043,54.4365797 C72.636592,52.7574811 63.062087,53.3784495 53.5836251,53.3635463 M38.4204044,44.3437731 C40.0266427,46.4534098 43.2093128,45.6983122 45.5342186,45.9864415 C43.8137221,44.207988 40.3578259,41.3349742 38.4204044,44.3437731 M71.1644828,30.6344465 C72.0321827,31.9873296 72.8849793,33.4097613 74.16997,34.4198699 C75.5924016,34.0919986 76.9353493,33.5190517 78.2948561,33.0040619 C77.1688334,32.038663 76.0610258,31.0119953 74.7296695,30.3181665 C73.5870876,29.6624239 72.3186561,30.3993064 71.1644828,30.6344465 M52.6016671,53.3602345 L52.9692804,51.7324693 C53.6597972,48.2533902 54.0986149,47.6142067 55.8356706,45.8920543 C60.2354388,41.7174907 65.2677668,38.1986697 70.8448911,35.7826886 C70.0450838,34.0257619 68.6673619,32.2671794 69.1078355,30.2154998 C69.5069112,27.5809378 70.9359665,24.5605474 73.7808297,23.9495145 C76.1289183,23.8402241 77.9686407,25.6153658 79.614621,27.0609802 C81.2937196,28.6953691 83.1218506,30.1807255 84.7164975,31.9061898 C84.4416155,33.8369876 84.4250563,36.2082589 83.0026247,37.6737444 C80.7058695,38.5960895 78.1855657,38.8196381 75.86066,39.6989294 C75.8556922,40.6444573 75.8374771,41.5899852 75.8043588,42.5404808 C75.1867022,41.8416844 74.6087876,41.1163933 74.0441204,40.3795108 C69.7784813,41.8698349 65.6850576,43.8768049 62.0337633,46.5610443 C62.0122364,46.7514746 61.9708385,47.1290234 61.9493116,47.3161419 C67.9586299,47.4585507 73.9646364,47.6705079 79.968987,47.9089598 C87.6011028,47.86425 95.1719497,49.2370042 102.810689,48.7716919 C101.679699,50.9094791 101.310429,54.1087084 98.5881039,54.7942575 C93.297453,56.6339799 87.7153609,57.5248626 82.4776994,59.5368003 C81.4146014,61.5437702 81.4079778,63.926633 81.0138698,66.1306569 C80.3862778,70.4790917 81.2092679,75.5180434 84.7280889,78.4837885 C88.3959423,81.4263508 93.3719692,81.0587375 97.7651137,80.6414468 C105.427036,79.1213161 112.300742,74.9798707 118.283566,70.0882956 C119.624858,68.8562942 121.492731,67.582895 121.31058,65.5063766 C121.03073,59.5931014 120.139848,53.7212241 119.414557,47.8493468 C118.482276,37.3177225 116.460403,26.908636 115.980187,16.3372697 C115.905671,13.7093314 115.350939,11.121135 115.100896,8.51637953 C115.751671,6.63691513 116.877694,4.95616063 117.843092,3.21910499 C119.025416,5.4148493 119.470858,7.88713154 120.310407,10.2153491 C121.236064,13.0916748 122.574044,15.9729682 122.150129,19.0811221 C121.287397,18.178648 120.510773,17.1950341 119.715933,16.2346029 C119.396341,17.7828842 119.151266,19.3775311 119.386406,20.9589306 C119.956041,25.3421397 120.711139,29.7021659 121.03073,34.1118696 C121.373505,37.5363034 122.10542,40.9044361 122.236237,44.3503968 C122.830711,51.1429633 124.218368,57.970304 123.264561,64.7993006 C122.625377,67.91739 121.419871,70.9808342 119.318513,73.4100626 C116.476962,76.7301737 112.769367,79.1411871 109.07833,81.4064798 C103.605529,84.6404833 97.4405543,87.5482714 90.9162461,86.9687009 C86.7102201,86.6176468 82.1564517,84.5576875 80.4541703,80.4543283 C79.2486636,77.5448843 78.5912651,74.3903647 78.6939318,71.239157 C78.6839963,67.485196 79.8779116,63.8918588 80.4425789,60.2157257 C74.2842281,62.6267391 67.2449302,63.5408046 62.2523442,68.2485731 C64.0970343,71.1116515 67.2730808,72.5291154 70.1643097,74.0773966 C70.1477506,75.9701084 69.9540084,77.8611642 69.4274272,79.6810156 C64.9084331,78.4423906 60.2917399,76.6076359 57.2415431,72.8768577 C53.3385496,68.3760787 52.6877747,62.216072 50.3165033,56.9486039 C48.178716,60.7704575 45.231186,64.0624181 41.7173327,66.6721413 C36.6270476,70.6513069 31.3529559,74.739763 25.0704115,76.586109 C22.5517636,76.9984321 19.5678034,77.3047765 17.4879732,75.504796 C14.7855187,73.4663637 14.1281201,69.8382523 13.9343779,66.6671736 C14.0999695,58.2749925 17.6138228,50.5104034 19.8476532,42.5504163 C15.7327025,44.6186551 12.0532576,47.5396905 7.67667226,49.0945954 C6.13998243,49.6013057 4.14129209,49.5847465 3.13615122,48.1043578 C1.14077272,45.6088928 1.47361179,42.1397492 2.04490273,39.1988428 C2.58141944,36.4549904 3.22722659,33.7426004 4.00385108,31.056705 C2.02668766,30.1194567 0.489997823,28.3658419 0.18199749,26.160162 C-0.54991728,20.8231455 1.04969735,15.5275269 2.77019384,10.5332849 C4.26714169,7.20158241 5.03217478,3.56850321 6.81394014,0.369273949 C7.15837062,7.44996978 1.74849381,13.3665568 1.82632185,20.4174462 C1.96376286,22.2786955 2.81490356,25.2974299 5.29546538,24.6449991 C6.305574,23.5537506 6.66656364,22.051835 7.36867193,20.7734681 C8.36884505,24.0339662 7.50611294,27.753153 5.56869149,30.5069409 C4.72417444,33.9230952 3.46071071,37.3806473 3.95748544,40.9524576 C4.06015222,42.614997 5.9064983,43.7857295 7.47796237,43.3899656 C10.8146326,42.7524381 13.6363131,40.768651 16.5838432,39.2087783 C20.1556535,37.3110988 23.5088829,35.0507738 27.0922846,33.1746212 C29.6506745,31.8399531 32.1941611,30.4390484 34.4048087,28.5579281 C33.4625926,27.1603352 32.2388709,25.925022 30.6508476,25.2974299 C25.4479603,23.1215566 19.9784705,21.1559846 15.6813691,17.3655934 C13.5336463,15.5440861 11.9058811,13.186062 10.6490411,10.6806614 C10.4254924,8.95519721 10.6838153,7.20986199 10.7864821,5.48439776 C13.4442269,7.34564708 16.6186174,8.72171309 18.6189637,11.357931 C17.5724249,11.2834148 16.5391335,11.1906835 15.4992184,11.1111995 C19.9039543,15.3039783 25.8288209,17.097335 31.2900311,19.4404559 C33.0055599,20.223704 35.0390244,21.107963 35.5937562,23.0917501 C36.7247467,26.5757969 35.9646813,30.7089627 33.8153027,33.6548368 C30.3709979,36.8722812 25.8983694,38.6540465 22.0400856,41.2819848 C20.0347716,47.1687654 18.3838236,53.1830515 16.8537574,59.2105849 C16.212918,61.6050391 15.9628748,64.141902 16.3453913,66.5926574 C17.3389408,69.9458868 21.3545365,71.5405337 24.5835723,70.8202103 C29.8394489,69.6776285 34.4213678,66.678765 38.7929855,63.6865252 C42.4227528,61.0105653 46.2164559,58.3197022 48.807964,54.5707089 C46.7115747,51.0055222 41.9458491,51.8798458 38.5346626,50.8879522 C36.1650471,50.3547473 35.7295413,47.5396905 35.7245736,45.5111937 C35.9762727,42.6646745 36.8903383,39.6542196 39.117545,37.7234219 C40.1458687,36.5709045 41.8829243,36.9567329 43.18613,37.3309698 C47.2365,39.1392298 49.5912122,43.5555572 50.1906537,47.7947016 C50.3446539,49.5118862 51.5567842,50.8299952 52.288699,52.3203194 M132.145237,54.9714405 C131.45472,57.6225617 131.29244,60.7307156 133.258012,62.8916856 C134.973541,63.4215787 136.76193,63.4397938 138.498986,62.9877287 C138.467523,60.0286073 138.561911,57.064518 138.229071,54.1153321 C137.897888,50.7107692 137.170941,47.3492602 137.126232,43.9165468 C135.200402,47.471798 133.440163,51.1379955 132.145237,54.9714405 M146.359618,0.495123547 C147.639641,-0.00165118353 149.512482,-0.486834504 150.358654,0.970371373 C150.792504,2.52858811 149.757557,4.06196611 148.792158,5.19792433 C147.22235,6.62697964 145.57637,7.96330366 143.95854,9.33440192 C144.114196,6.0871511 147.238909,4.7011496 149.159771,2.59316883 C145.433961,2.23217919 142.398667,4.71274101 138.884814,5.39166648 C137.659436,5.67151624 136.419156,5.8768498 135.178875,6.0871511 C136.629457,10.1623598 139.159696,13.9461273 139.361718,18.3839816 C138.399631,17.6404754 137.521995,16.8075498 136.646016,15.9729682 C136.982167,26.7132379 139.841933,37.1421954 140.909999,47.7947016 C141.075591,52.6233519 141.463075,57.5877874 139.931353,62.2491903 C145.149143,60.5154465 149.393256,56.8674641 153.037926,52.8684275 C154.289799,51.4360603 156.432554,49.9970695 155.819865,47.8079489 C154.488508,40.86635 151.375387,34.4563 148.232459,28.1886589 C146.814995,25.6402045 147.791985,22.6529324 148.437792,20.0365855 C152.9187,26.5410227 156.45408,33.8055252 158.025544,41.5850174 C158.967761,46.1338181 160.002708,51.2125117 163.927228,54.2014397 C169.48117,58.4505195 176.944382,58.0696589 183.5134,57.2069268 C191.576054,55.7596564 199.431718,52.3285989 205.527144,46.7895607 C204.371315,44.5342034 202.577958,42.7226316 200.756451,40.9971673 C201.069419,39.1640686 201.418817,37.3309698 201.98514,35.5508604 C204.270304,37.4667549 206.663102,39.6823702 206.972759,42.8484812 C207.136694,45.8837748 206.926393,49.2750903 205.167811,51.8533511 C201.996732,55.3489893 197.732749,57.635809 193.501884,59.601381 C187.227619,62.0571041 180.570838,64.0971923 173.750121,63.5888262 C169.418245,63.474568 165.097961,61.9759642 161.809312,59.1377246 C159.37346,57.0049051 157.893071,54.0308804 156.962447,50.9790276 C154.604423,57.241701 149.745966,62.17633 144.273164,65.8508071 C150.941537,72.8089652 159.878514,77.3064324 169.24603,79.300155 C187.861835,83.3952347 207.686458,80.3400701 224.72252,72.0041901 C229.716762,69.5070691 234.795455,66.4899906 238.064233,61.8583942 C237.892018,58.0530998 235.49922,54.7213972 233.33825,51.7159101 C233.412766,49.8546608 233.629691,47.9967233 234.020487,46.17356 C235.212746,47.2068515 236.252661,48.4802507 237.691652,49.1972622 C239.337632,49.5334131 240.937247,48.6574337 242.266947,47.7797983 C244.752477,45.8539683 244.068584,42.0304588 246.53093,40.0499835 C246.958157,40.2553171 247.812609,40.6676401 248.239836,40.8713177 C249.518203,46.9667437 247.295964,53.2757828 249.062826,59.326499 C249.806332,61.7143295 250.667408,64.5293863 253.045303,65.7696672 C254.586961,66.1025063 255.610317,64.7363758 256.317393,63.6004176 C257.804405,61.2341139 258.233287,58.4157453 258.855912,55.7447532 C259.66731,50.1229191 261.187441,44.4265689 264.590348,39.7751015 C265.241123,39.0266276 266.1585,38.5695948 266.956652,37.9916802 C267.383878,38.94052 268.019749,39.8595532 268.069427,40.9408662 C268.081018,46.4037323 265.322263,51.5155443 265.900177,57.0181524 C265.852156,59.4126066 267.936954,61.4344798 270.218806,61.7938135 C273.257411,62.4065023 276.584146,61.469254 278.748428,59.2188645 C280.674258,57.2698516 281.391269,54.5160637 281.760538,51.8815017 C281.93441,49.5201658 281.248861,47.215131 280.869656,44.9067845 C280.473892,42.4129753 279.202149,40.0831018 279.240235,37.5296797 C279.606192,35.0557416 280.1543,32.5933948 281.096516,30.2668332 C283.015723,34.163203 283.591981,38.5348206 284.535853,42.7292552 C285.491317,47.7731747 285.102176,53.4364066 288.187148,57.812992 C290.603129,61.2158989 295.416876,60.4972314 298.551524,58.5780251 C297.591093,55.2413548 296.398834,51.9792007 294.968123,48.8197134 C293.222787,44.9399028 292.293819,40.7703069 291.197602,36.678539 C290.513709,34.4678915 291.903023,32.3483193 292.581948,30.3148547 C294.355434,33.1696535 296.186877,36.0724738 297.306276,39.2617676 C296.539587,38.9686705 295.77621,38.6772293 295.016144,38.3741968 C296.375651,44.7411929 301.058581,50.2189623 300.647914,56.9900018 C300.248838,59.935876 299.596407,63.5490842 296.650533,65.0096019 C293.563906,66.5148293 289.728805,66.1306569 286.895533,64.2280097 C286.514673,68.0962289 284.931617,72.2327065 286.657081,75.9866675 C288.604438,78.5963908 292.340184,78.5632725 295.18008,77.7055081 C299.242041,76.3178507 302.529034,73.4249658 305.801124,70.7589414 C308.03661,68.958961 309.911107,66.7681844 311.711087,64.5542251 C310.364827,58.5780251 309.25702,52.4478249 306.561189,46.8889156 C305.801124,45.2661182 304.72809,43.7807617 304.201509,42.0602653 C303.82396,39.627725 304.956607,37.3193784 305.620629,35.0391824 C309.230525,40.6047153 311.320291,46.9866147 313.120271,53.3271162 C314.279412,57.4751852 314.701671,61.8335555 316.29135,65.8623985 C317.024921,67.8213469 319.098127,69.2454344 320.85671,70.2008978 L321.086882,69.194101 C321.365076,69.4557357 321.651549,69.7239941 321.941335,69.9939084 C323.375358,69.7471769 324.921983,69.6842521 326.182135,68.8513265 C329.209149,67.0281632 330.542161,63.5242455 333.20653,61.2970387 C333.527777,63.1019869 333.718208,64.9317739 334.034487,66.7433457 C337.82819,69.2272194 342.539271,68.0217127 346.366092,66.284657 C342.744604,64.0508267 338.684299,61.6182864 337.232061,57.360927 C334.804488,50.9624684 339.601676,43.3005462 346.265081,42.2258568 C351.789216,41.3233827 357.556771,43.4479227 361.663442,47.1621417 C358.243976,46.7514746 354.793048,46.1106352 351.347087,46.7349155 C346.977125,47.4949808 342.280948,48.5497992 338.979052,51.7258456 C340.239204,56.0063879 344.097488,59.2188645 348.217406,60.6578553 C351.110291,61.8120285 354.286337,60.9492964 357.003695,59.738822 C361.47798,57.360927 365.334607,53.9712674 369.825451,51.6132433 C368.797127,54.451483 368.552052,58.107745 365.626049,59.7255747 C359.525655,63.317256 353.753132,67.4504217 347.497083,70.7920598 C343.875595,72.9050083 339.568558,75.0047095 335.312854,73.5524714 C332.931648,72.8503631 332.019238,70.4161669 331.078678,68.3860142 C329.215773,70.5635434 327.791685,73.204729 325.385639,74.8507093 C322.501034,76.4900659 318.251954,76.2035925 316.109199,73.4729874 C314.479778,71.41634 313.719713,68.8380792 313.150078,66.3177754 C311.303732,70.1015429 308.748654,73.5276326 305.506371,76.2184957 C301.570259,79.5866284 297.34105,83.3737078 291.94442,83.8754503 C289.781794,84.1337731 287.20519,83.8655148 285.734736,82.072158 C284.320584,80.3268228 283.982777,77.9986052 283.913229,75.8276996 C284.045702,71.5190068 284.795832,67.2484 285.945038,63.1069547 C285.055811,60.6860058 284.009272,58.3097667 283.444605,55.7729037 C282.008926,59.366241 280.452365,63.1533203 277.407136,65.7001188 C274.64838,68.1260354 270.389365,68.6327456 267.150394,66.8973459 C264.866886,65.342441 263.204346,62.7029112 263.267271,59.8812308 C262.876475,54.4846013 264.744348,49.3347032 265.597145,44.0771707 C264.780778,44.876978 263.858433,45.6370433 263.37325,46.7001412 C260.796645,52.0305341 260.523419,58.0646912 258.687008,63.6351918 C257.885545,65.8574308 256.958232,68.2734119 254.908208,69.6445101 C253.775562,70.1760591 252.106399,70.2621667 251.237043,69.215628 C249.004869,66.7830877 248.271298,63.434826 247.690072,60.2852742 C246.484565,55.6122799 247.474802,50.7173929 246.314006,46.0311513 C244.081831,47.8029811 245.022391,51.167802 242.916066,52.9893093 C242.028496,53.8586651 240.910752,54.4299561 239.86587,55.0807309 C240.463655,58.1955085 240.498429,61.566953 239.029632,64.4548701 C236.800769,69.273585 232.31655,72.4330723 228.004545,75.2431614 C218.633718,81.0603934 207.828867,84.0476655 197.088597,86.1109365 C185.907854,87.496938 174.270078,87.4290455 163.511593,83.742977 C159.967934,82.6318575 156.351414,81.3750174 153.448593,78.9755955 C149.300524,75.5329466 146.301661,71.0089847 142.983206,66.8277974 C140.376794,67.9488524 137.719049,69.2487463 134.8361,69.3365098 C132.670162,69.3646604 130.727773,67.7766371 130.186289,65.715022 C128.460824,60.2918979 130.454547,54.6137627 132.600614,49.6178648 C133.612378,46.7680338 135.193778,44.1980525 136.713909,41.6032325 C135.016595,33.6730519 134.428745,25.5557528 133.229862,17.5328409 C132.824162,15.0241285 133.208335,12.3332654 131.837237,10.059693 C132.357194,9.01481018 132.870528,7.95833592 133.365647,6.89523799 C131.413322,6.9796897 129.459342,7.04427041 127.503705,7.06082957 C128.944352,9.80302608 129.77231,13.3168793 127.990544,16.1104092 C127.743813,14.1398695 128.012071,11.9408133 126.838027,10.2153491 C125.505015,8.1984437 123.55269,6.71805501 121.842129,5.04392416 C121.997785,4.31863306 122.156753,3.58671829 122.322345,2.86639493 C126.944006,5.4148493 132.463173,4.62663339 137.396146,3.56353547 C140.486085,2.85645943 143.423679,1.66088825 146.359618,0.495123547" id="Fill-1" fill="#FFFFFF"></path>
                    <path d="M282.814244,125.305886 C282.635397,125.950195 282.438206,126.59909 282.220379,127.250278 C282.004845,127.901465 281.832877,128.600804 281.704474,129.355173 C281.940644,129.630322 282.241016,129.958209 282.596417,130.338833 C282.956405,130.721749 283.307221,131.127595 283.644279,131.558663 C283.988216,131.987438 284.290881,132.418506 284.552273,132.847281 C284.813665,133.278349 284.96729,133.677316 285.017735,134.048768 C284.776979,134.644925 284.4789,135.22274 284.109741,135.784504 C283.745167,136.346268 283.337029,136.878224 282.87386,137.380372 C282.415277,137.880227 281.915422,138.341103 281.381173,138.758413 C280.844631,139.175724 280.28516,139.535711 279.711931,139.83379 C279.235005,140.10894 278.68012,140.358867 278.049569,140.585866 C277.416724,140.812864 276.751779,140.99859 276.061612,141.140751 C275.369152,141.285205 274.66752,141.376921 273.965889,141.418194 C273.259671,141.459466 272.597019,141.43883 271.973346,141.356285 C271.725712,141.319598 271.526228,141.34482 271.38636,141.427365 C271.239614,141.50991 271.159362,141.617677 271.131847,141.750666 C271.111211,141.881362 271.152483,142.018937 271.26025,142.163391 C271.368017,142.305551 271.546864,142.424783 271.794499,142.521085 C272.406707,142.736619 273.087703,142.961325 273.839778,143.202081 C274.591854,143.440544 275.362273,143.646906 276.151036,143.818875 C276.937505,143.990843 277.714803,144.103196 278.485222,144.151347 C279.255642,144.197205 279.966445,144.144468 280.610754,143.98855 C281.145003,143.84639 281.667787,143.550604 282.169935,143.103485 C282.672083,142.654074 283.144424,142.110654 283.584663,141.473224 C284.02261,140.8335 284.426163,140.138748 284.790736,139.386672 C285.157602,138.632303 285.469439,137.88252 285.730831,137.137323 C285.996809,136.389833 286.200878,135.674444 286.343039,134.988863 C286.487493,134.300988 286.558573,133.714002 286.558573,133.223319 C286.558573,132.615696 286.471442,131.943873 286.299474,131.207847 C286.122919,130.474115 285.886749,129.742675 285.581791,129.013528 C285.274541,128.286675 284.919139,127.596508 284.504122,126.94532 C284.095983,126.294132 283.641986,125.748419 283.151303,125.305886 C282.972455,125.163726 282.862395,125.163726 282.814244,125.305886 L282.814244,125.305886 Z M286.035788,116.092958 C286.143555,116.072321 286.2261,116.003534 286.285716,115.89806 L287.056135,113.89176 C287.092822,113.797751 287.092822,113.740428 287.056135,113.719792 C287.021741,113.703741 286.959833,113.701448 286.877288,113.71062 L276.462872,117.881431 C276.284025,117.977733 276.151036,118.096965 276.068491,118.239125 L275.263678,120.261475 C275.224699,120.334849 275.226992,120.392172 275.27285,120.433444 C275.314122,120.477009 275.387495,120.479302 275.495262,120.440323 L286.035788,116.092958 L286.035788,116.092958 Z M263.870188,129.004357 C263.099769,129.226769 262.32935,129.401031 261.568102,129.53402 C260.804562,129.664716 260.008921,129.756433 259.185765,129.811463 C258.362609,129.8642 257.456907,129.891715 256.480126,129.891715 L256.445732,129.891715 L256.445732,134.209272 C256.911194,134.209272 257.436271,134.174878 258.020964,134.110676 C258.603364,134.044182 259.266017,133.922657 259.999749,133.74381 C260.735775,133.56267 261.54288,133.312742 262.427945,132.989441 C263.31301,132.668433 264.28062,132.251123 265.330774,131.735217 C266.055335,131.39128 266.763846,131.056515 267.444841,130.733214 C268.123544,130.409913 268.816004,130.150814 269.522221,129.953623 C270.226146,129.756433 270.957586,129.648666 271.71654,129.632615 C272.475495,129.614272 273.300944,129.735796 274.197473,129.999481 C274.543703,129.426253 274.899105,128.797995 275.263678,128.116999 C275.628251,127.438296 275.951552,126.791695 276.238167,126.184072 C276.334469,126.01669 276.286428,125.945609 276.096006,125.968539 C275.165083,126.039619 274.169958,126.012104 273.112925,125.888287 C272.055891,125.762176 271.037837,125.581036 270.058763,125.34028 C269.389232,125.161433 268.744923,124.932141 268.123544,124.652406 C267.504457,124.37267 266.88537,124.08147 266.270869,123.783391 C265.654075,123.485313 265.041867,123.20787 264.425073,122.948771 C263.810572,122.694257 263.173142,122.49936 262.515076,122.368663 C261.776758,122.22421 261.093469,122.276947 260.467504,122.529167 C259.839245,122.779095 259.286653,123.143668 258.809727,123.620595 C258.332801,124.099814 257.947591,124.650113 257.654098,125.2692 C257.358312,125.890579 257.179465,126.493616 257.108385,127.078309 C257.083162,127.163147 257.124435,127.229641 257.225323,127.2755 C257.323918,127.323651 257.417928,127.305307 257.502766,127.222763 C257.727471,127.018693 258.0095,126.855896 258.344265,126.729786 C258.676738,126.603676 259.034432,126.514252 259.41047,126.461515 C259.786508,126.406485 260.162546,126.381263 260.538584,126.381263 C260.914622,126.381263 261.256266,126.404192 261.568102,126.452343 C261.951019,126.511959 262.359158,126.601383 262.794811,126.720614 C263.232758,126.839846 263.661533,126.975128 264.094894,127.124167 C264.521376,127.273207 264.9341,127.438296 265.321603,127.617144 C265.709105,127.795991 266.050749,127.974838 266.351121,128.153686 C265.466056,128.499916 264.640607,128.784237 263.870188,129.004357 Z M264.950151,138.895988 C265.069382,138.884524 265.158806,138.818029 265.216129,138.698797 L266.007184,136.853002 C266.043871,136.781921 266.043871,136.731477 266.007184,136.701669 C265.968204,136.674154 265.91776,136.676447 265.84668,136.710841 L255.439143,139.957607 C255.267175,140.051617 255.14565,140.161677 255.063105,140.280908 L254.21702,142.161098 C254.184919,142.223006 254.187212,142.273451 254.226192,142.321602 C254.27205,142.369753 254.338544,142.376632 254.434847,142.339945 L264.950151,138.895988 L264.950151,138.895988 Z M245.107272,134.209272 L256.409046,134.179779 C256.587893,134.179779 256.409046,129.891715 256.409046,129.891715 L245.28612,129.891715 C245.107272,129.891715 244.999505,134.209272 245.107272,134.209272 Z M238.622911,128.243109 C238.66877,128.243109 238.726092,128.321068 238.790294,128.467815 C238.856788,128.616854 238.943919,128.811752 239.049393,129.050215 C239.15716,129.288678 239.297028,129.561535 239.462118,129.8642 C239.629501,130.169157 239.845034,130.483286 240.106427,130.806587 C240.083498,130.900597 240.000953,130.930405 239.858792,130.896011 C239.381866,130.774486 238.918697,130.604811 238.469286,130.375519 C238.019875,130.148521 237.593393,129.884836 237.18984,129.586757 C237.116467,129.527141 237.088952,129.474404 237.100416,129.426253 C237.109588,129.378102 237.13481,129.325365 237.169204,129.263456 C237.240284,129.180911 237.336586,129.082316 237.455818,128.958499 C237.577342,128.843853 237.708039,128.724621 237.852492,128.609976 C237.994653,128.497623 238.136813,128.403613 238.272095,128.332533 C238.407377,128.261453 238.526609,128.231645 238.622911,128.243109 L238.622911,128.243109 Z M238.164328,125.980003 C237.896058,126.165729 237.623201,126.388142 237.348051,126.658706 C237.072901,126.92927 236.811509,127.215884 236.55241,127.518548 C236.293311,127.821213 236.066312,128.09407 235.862243,128.332533 C235.550406,128.71545 235.215641,129.011236 234.848775,129.222184 C234.484201,129.428546 234.105871,129.584464 233.711489,129.685352 C233.317108,129.78624 232.922727,129.848149 232.521467,129.8642 C232.1225,129.882543 231.73729,129.894007 231.368131,129.894007 L230.93477,129.894007 L231.310808,134.209272 C232.182116,134.209272 232.936484,134.009788 233.569329,133.608528 C234.202173,133.209561 234.768523,132.611111 235.272964,131.808591 C235.272964,132.274052 235.472447,132.700534 235.871414,133.09033 C236.272674,133.480125 236.758772,133.808012 237.332001,134.07399 C237.905229,134.342261 238.501387,134.541744 239.122767,134.674733 C239.741853,134.807722 240.280688,134.839823 240.734685,134.7825 C240.808058,134.771036 240.879139,134.699955 240.959391,134.578431 C241.03735,134.450028 241.110723,134.307867 241.172632,134.147363 C241.239126,133.984566 241.301035,133.824062 241.351479,133.663558 C241.406509,133.500761 241.450074,133.374651 241.489054,133.276056 C241.702295,133.39758 241.924708,133.512226 242.160878,133.626872 C242.392462,133.739224 242.651561,133.83782 242.938176,133.922657 C243.22479,134.007495 243.541212,134.07399 243.887442,134.126727 C244.233672,134.181757 244.726536,134.209272 245.166776,134.209272 C244.985941,134.239574 245.024004,132.801152 245.280964,129.894007 L245.070586,129.894007 C244.506529,129.894007 244.059411,129.859614 243.717766,129.795412 C243.376122,129.726625 243.073457,129.616565 242.814358,129.46294 C242.550673,129.307021 242.29616,129.09378 242.053111,128.825509 C241.807769,128.559531 241.511983,128.227059 241.16346,127.830385 C240.984613,127.628608 240.810351,127.40161 240.638383,127.149389 C240.464121,126.899462 240.287567,126.667877 240.106427,126.454636 C239.927579,126.236809 239.73956,126.057962 239.54237,125.913509 C239.345179,125.771348 239.134231,125.700268 238.909526,125.700268 C238.680234,125.700268 238.434892,125.791984 238.164328,125.980003 Z M224.292198,126.883411 C224.062907,127.085188 223.760242,127.266328 223.377326,127.41766 C222.994409,127.575871 222.595442,127.697396 222.178132,127.789112 C221.758528,127.878536 221.343511,127.92898 220.930786,127.940445 C220.518062,127.949616 220.17871,127.910637 219.903561,127.814334 C219.699491,127.743254 219.655926,127.635487 219.775158,127.493326 C219.954005,127.206712 220.206225,126.926977 220.527233,126.649534 C220.852827,126.376677 221.20135,126.122164 221.584267,125.885994 C221.967183,125.654409 222.356979,125.45034 222.760532,125.2692 C223.159499,125.092645 223.521779,124.955071 223.842787,124.858768 L224.292198,126.883411 L224.292198,126.883411 Z M225.482221,131.496754 C225.79635,132.12272 226.190731,132.636333 226.6539,133.037593 C227.119361,133.434267 227.669661,133.732346 228.304798,133.922657 C228.935349,134.115262 229.664496,134.209272 230.489945,134.209272 L231.294758,134.209272 C231.32533,134.209272 231.205334,132.770086 230.93477,129.891715 L230.489945,129.891715 C229.616345,129.891715 228.905541,129.827513 228.355242,129.696817 C227.807236,129.563828 227.360117,129.336829 227.011594,129.015821 C226.665364,128.69252 226.399386,128.266038 226.209074,127.734082 C226.018763,127.204419 225.842208,126.537181 225.68629,125.736954 L224.416016,118.624335 C224.393087,118.54179 224.342642,118.498225 224.271562,118.489053 C224.202775,118.482174 224.13628,118.530325 224.074371,118.624335 C223.574516,119.747863 223.281023,120.513696 223.196185,120.917249 L223.521779,122.458087 C222.613785,122.829539 221.774579,123.304172 221.011038,123.879694 C220.247498,124.459801 219.639876,125.074302 219.183586,125.718611 C219.043718,125.911216 218.878628,126.184072 218.692902,126.54406 C218.507176,126.901755 218.326036,127.296136 218.154067,127.724911 C217.984392,128.155979 217.826181,128.60539 217.690899,129.07773 C217.553324,129.55007 217.459314,129.994896 217.413456,130.412206 C217.385941,130.69882 217.4639,130.93499 217.64504,131.120716 C217.823888,131.306443 218.062351,131.448603 218.362723,131.549491 C218.660801,131.652673 218.99786,131.714581 219.380776,131.73751 C219.763693,131.760439 220.139731,131.760439 220.511183,131.73751 C220.880342,131.714581 221.228865,131.66643 221.549873,131.59535 C221.870881,131.521976 222.12998,131.439432 222.320292,131.343129 C222.47621,131.260584 222.650472,131.143646 222.849955,131.001485 C223.047146,130.857031 223.251215,130.69882 223.466749,130.519973 C223.67999,130.341126 223.897817,130.141642 224.111058,129.928401 C224.326592,129.710574 224.523783,129.488162 224.70263,129.247406 C224.906699,130.121006 225.165799,130.868496 225.482221,131.496754 Z M223.948261,110.200168 C224.030806,110.285006 224.090422,110.385895 224.115644,110.505126 C224.147745,110.624358 224.163795,110.750468 224.163795,110.881164 C224.163795,111.01186 224.152331,111.140263 224.124816,111.266374 C224.101886,111.392484 224.08125,111.495665 224.056028,111.580503 C223.721263,111.4842 223.411719,111.344333 223.125105,111.158607 C222.838491,110.972881 222.629836,110.755054 222.494554,110.505126 C222.533533,110.408824 222.611492,110.3194 222.730724,110.236855 C222.849955,110.152017 222.982944,110.092402 223.134277,110.058008 C223.283316,110.021321 223.430063,110.01215 223.581395,110.030493 C223.728141,110.048836 223.851959,110.103866 223.948261,110.200168 L223.948261,110.200168 Z M223.141155,113.155735 C222.414302,113.83673 221.719549,114.382444 221.061482,114.795168 C220.408002,115.207893 219.724713,115.597688 219.023082,115.96914 L218.752518,116.102129 C218.644751,116.157159 218.539277,116.216775 218.43151,116.280977 C218.323743,116.347471 218.234319,116.416259 218.163239,116.487339 C218.089866,116.558419 218.062351,116.631792 218.071522,116.702873 C218.082987,116.773953 218.154067,116.82669 218.277885,116.854205 C218.403995,116.886306 218.55762,116.89777 218.743346,116.890892 C218.931365,116.886306 219.126263,116.861084 219.332625,116.819811 C219.543573,116.778539 219.738471,116.721216 219.915025,116.650136 C220.774868,116.338299 221.591146,115.948504 222.354686,115.476164 C223.118226,115.003823 223.806101,114.409959 224.41143,113.692277 C224.52149,113.740428 224.649893,113.825266 224.798932,113.944497 C224.950265,114.063729 225.046567,114.160031 225.094718,114.231111 C225.177263,114.327414 225.255222,114.38703 225.328595,114.409959 C225.399676,114.435181 225.489099,114.380151 225.596866,114.249455 C225.693169,114.093537 225.782592,113.887174 225.865137,113.630368 C225.947682,113.373562 225.954561,113.14427 225.883481,112.940201 C225.800936,112.690273 225.61521,112.470153 225.328595,112.277549 C225.255222,112.243155 225.232293,112.195004 225.255222,112.135388 C225.317131,111.945076 225.372161,111.640119 225.427191,111.220515 C225.479928,110.803205 225.489099,110.37443 225.45012,109.931898 C225.418019,109.489365 225.317131,109.092691 225.147455,108.739582 C224.97778,108.388766 224.698044,108.189283 224.303663,108.141132 C223.984948,108.104445 223.66394,108.14801 223.345225,108.274121 C223.033388,108.400231 222.730724,108.576785 222.44411,108.803784 C222.157495,109.030782 221.902982,109.287589 221.682862,109.574203 C221.460449,109.860817 221.290774,110.152017 221.171542,110.450096 C221.038553,110.869699 221.038553,111.238859 221.171542,111.562159 C221.338925,111.968005 221.607196,112.291306 221.978648,112.529769 C222.347807,112.768232 222.737603,112.976887 223.141155,113.155735 L223.141155,113.155735 Z M205.375657,111.030203 C205.290819,111.030203 205.189931,111.124213 205.068407,111.307646 C204.949175,111.493372 204.827651,111.727249 204.703833,112.006985 C204.57543,112.284427 204.453906,112.598557 204.334674,112.937908 C204.217736,113.274966 204.107676,113.605146 204.011373,113.912396 C203.915071,114.226526 203.843991,114.499382 203.788961,114.737845 C203.733931,114.978601 203.713295,115.139105 203.724759,115.22165 C203.821061,115.854495 203.935707,116.652429 204.066403,117.61316 C204.197099,118.576184 204.336967,119.607995 204.486007,120.71318 C204.637339,121.818364 204.784085,122.946478 204.935418,124.097521 C205.08675,125.250856 205.219739,126.333112 205.336678,127.348873 C205.492596,128.460936 205.61412,129.561535 205.705837,130.655255 C205.795261,131.746682 205.893856,132.856452 205.99933,133.975394 C206.024552,134.193221 206.100218,134.29411 206.2355,134.282645 C206.366196,134.268887 206.490013,134.154242 206.611538,133.941001 C206.870637,133.464075 207.072414,132.955048 207.209988,132.409334 C207.34527,131.863621 207.441573,131.311028 207.496603,130.744679 C207.54934,130.178329 207.569976,129.609686 207.54934,129.03875 C207.530996,128.472401 207.498896,127.935859 207.450744,127.41766 C207.297119,125.583329 207.09305,123.77422 206.833951,121.992626 C206.574851,120.211031 206.324924,118.411094 206.072703,116.581348 C205.990158,115.939332 205.912199,115.301902 205.85029,114.673644 C205.783796,114.045385 205.719594,113.442349 205.662271,112.855363 L205.662271,112.424295 C205.662271,112.224812 205.655393,112.018449 205.641635,111.807501 C205.630171,111.601139 205.604949,111.415413 205.563676,111.264081 C205.517818,111.108162 205.458202,111.030203 205.375657,111.030203 L205.375657,111.030203 Z M188.284276,112.192711 C188.525032,112.635243 188.829989,112.933322 189.199148,113.082361 C189.570601,113.229108 189.942053,113.252037 190.318091,113.151149 C190.691836,113.050261 191.038066,112.83702 191.345316,112.509133 C191.657152,112.178953 191.874979,111.757057 191.994211,111.243444 C192.065291,110.968295 192.108856,110.670216 192.134078,110.346915 C192.161593,110.025907 192.161593,109.720949 192.134078,109.434335 C192.108856,109.147721 192.065291,108.897793 191.994211,108.684552 C191.918545,108.466725 191.829121,108.336029 191.723647,108.287878 C191.700718,108.276414 191.63193,108.331444 191.528749,108.457554 C191.420982,108.585957 191.306336,108.732703 191.184812,108.897793 C191.065581,109.067469 190.960106,109.22568 190.870683,109.379305 C190.781259,109.535223 190.746865,109.631526 190.75833,109.66592 C190.767502,109.691142 190.792724,109.757636 190.838582,109.86311 C190.877562,109.97317 190.918834,110.090109 190.955521,110.223098 C190.987621,110.356087 191.019722,110.475318 191.044944,110.592257 C191.065581,110.70461 191.058702,110.787154 191.026601,110.833013 C190.822532,110.998103 190.584069,111.117334 190.318091,111.181536 C190.052112,111.245737 189.813649,111.264081 189.611873,111.225101 C189.288572,111.142556 189.079917,111.009567 188.983615,110.833013 C188.887312,110.651873 188.841454,110.404238 188.841454,110.078644 C188.841454,110.055715 188.843747,110.005271 188.850626,109.929605 C188.855211,109.849353 188.855211,109.771394 188.850626,109.693434 C188.843747,109.615475 188.832282,109.546688 188.813939,109.477901 C188.795596,109.413699 188.761202,109.379305 188.715344,109.379305 C188.596112,109.370134 188.49981,109.397649 188.428729,109.46185 C188.357649,109.526052 188.29574,109.604011 188.249882,109.693434 C188.201731,109.785151 188.16963,109.874575 188.151287,109.961705 C188.132943,110.051129 188.116893,110.117624 188.105428,110.149724 C188.048106,110.356087 187.990783,110.553277 187.935753,110.750468 C187.883016,110.947658 187.78442,111.135677 187.639967,111.316818 C187.509271,111.447514 187.364817,111.573624 187.199727,111.699734 C187.041516,111.825845 186.871841,111.933612 186.692993,112.013864 C186.514146,112.096408 186.32842,112.139974 186.142694,112.139974 C185.956968,112.139974 185.778121,112.080358 185.599273,111.958834 C185.502971,111.890046 185.438769,111.789158 185.402083,111.656169 C185.367689,111.52318 185.351639,111.378726 185.358517,111.218222 C185.365396,111.055425 185.381447,110.894921 185.418133,110.734417 C185.457113,110.571621 185.50985,110.431753 185.58093,110.312521 C185.688697,110.085523 185.677232,109.984635 185.546536,110.007564 C185.413547,110.055715 185.275972,110.165775 185.140691,110.330865 C185.003116,110.50054 184.883884,110.697731 184.776117,110.931608 C184.666057,111.165485 184.58122,111.410827 184.512432,111.665341 C184.450523,111.922147 184.425301,112.165196 184.452816,112.389901 C184.510139,112.903514 184.688986,113.288724 184.982479,113.54553 C185.27368,113.802336 185.63596,113.93074 186.064735,113.93074 C186.337592,113.93074 186.585226,113.884881 186.80076,113.786286 C187.014001,113.69457 187.211192,113.566166 187.387746,113.412541 C187.571179,113.256623 187.729391,113.07319 187.873844,112.864535 C188.016005,112.655879 188.15358,112.431174 188.284276,112.192711 L188.284276,112.192711 Z M179.777565,124.624891 C179.786736,124.99405 179.807372,125.37926 179.828009,125.782813 C179.855524,126.18178 179.87616,126.56011 179.903675,126.917805 C179.628525,127.124167 179.25478,127.29155 178.780147,127.429125 C178.307807,127.5667 177.819416,127.658416 177.30351,127.706567 C176.803655,127.766183 176.338193,127.795991 175.909418,127.795991 C175.478351,127.795991 175.138999,127.743254 174.886779,127.633194 C174.707932,127.562114 174.675831,127.452054 174.797355,127.293843 C175.049576,126.984299 175.398099,126.665584 175.854389,126.335405 C176.306093,126.007518 176.79219,125.732368 177.30351,125.503077 C177.7598,125.312765 178.202333,125.140797 178.631107,124.991757 C179.062175,124.842718 179.445092,124.721193 179.777565,124.624891 L179.777565,124.624891 Z M179.706484,121.811485 C178.631107,122.123322 177.665791,122.572733 176.812827,123.164305 C175.95757,123.755876 175.173393,124.448337 174.458004,125.232513 C174.336479,125.35633 174.192026,125.535178 174.026936,125.782813 C173.85726,126.028154 173.682999,126.310183 173.499566,126.631191 C173.31384,126.952199 173.134992,127.296136 172.958438,127.660709 C172.788762,128.027575 172.628258,128.38527 172.483805,128.74755 C172.341644,129.102952 172.226998,129.442303 172.137575,129.765604 C172.045858,130.088905 172,130.370934 172,130.609397 C172,130.834102 172.116939,131.031293 172.341644,131.198676 C172.568643,131.368351 172.859843,131.503633 173.222123,131.613693 C173.577525,131.719167 173.981078,131.797126 174.421317,131.842984 C174.861557,131.891136 175.304089,131.907186 175.746622,131.888843 C176.189154,131.870499 176.599586,131.824641 176.982502,131.744389 C177.365419,131.668723 177.674962,131.55637 177.915718,131.414209 C178.094566,131.331665 178.268827,131.205554 178.443089,131.040464 C178.615057,130.870789 178.787026,130.680477 178.96358,130.467236 C179.135549,130.249409 179.30981,130.022411 179.49095,129.783948 C179.669798,129.545485 179.848645,129.307021 180.025199,129.066265 C180.121502,129.703696 180.279713,130.375519 180.495247,131.08403 C180.708488,131.79254 181.006566,132.446021 181.389483,133.046764 C181.7724,133.640629 182.249326,134.135898 182.822554,134.532573 C183.395783,134.924661 184.092829,135.121852 184.918278,135.121852 C185.587809,135.121852 186.197724,134.965933 186.754902,134.65639 C187.309787,134.344554 187.800471,133.929536 188.222367,133.411338 C188.646556,132.890846 189.001958,132.30386 189.2794,131.645794 C189.559136,130.992313 189.767791,130.309025 189.898487,129.607393 C190.123193,130.29756 190.437322,130.955627 190.838582,131.574713 C191.239842,132.196093 191.698425,132.737221 192.21433,133.195804 C192.737115,133.656679 193.303465,134.009788 193.920259,134.252837 C194.532467,134.498179 195.167604,134.589895 195.827963,134.532573 C196.314061,134.495886 196.770351,134.349139 197.185368,134.094626 C197.607264,133.835527 197.985595,133.500761 198.322654,133.09033 C198.666591,132.677605 198.960084,132.209851 199.20084,131.691652 C199.448474,131.171161 199.645665,130.634619 199.794704,130.082026 C199.941451,129.524848 200.033167,128.96767 200.060682,128.415078 C200.092783,127.8579 200.058389,127.341994 199.962087,126.862775 L198.98072,122.35032 C198.737671,121.13049 198.506087,119.899195 198.272209,118.649557 C198.036039,117.402212 197.838849,116.164038 197.669173,114.932743 C197.657708,114.886885 197.639365,114.829562 197.609557,114.763067 C197.577456,114.701159 197.504083,114.664472 197.382559,114.664472 C197.35963,114.664472 197.302307,114.740138 197.215176,114.891471 C197.125752,115.04051 197.024864,115.226236 196.907926,115.444063 C196.79328,115.666476 196.678634,115.909525 196.552524,116.180088 C196.424121,116.446066 196.309475,116.709752 196.204001,116.957386 C196.096234,117.209607 196.013689,117.429727 195.949487,117.622331 C195.892165,117.812643 195.866943,117.936461 195.8807,117.998369 C195.960952,118.605991 196.041204,119.156291 196.119163,119.644682 C196.201708,120.135365 196.28196,120.614584 196.364505,121.086924 C196.444757,121.559265 196.543352,122.052241 196.651119,122.563561 C196.758886,123.079467 196.882704,123.66416 197.027157,124.319933 L198.029161,128.513673 C198.091069,128.800287 198.022282,129.031872 197.825091,129.201547 C197.627901,129.375809 197.37568,129.515677 197.077601,129.614272 C196.784108,129.71516 196.474565,129.777069 196.15585,129.802291 C195.839428,129.82522 195.594086,129.82522 195.415238,129.802291 C194.949777,129.777069 194.507245,129.685352 194.099106,129.524848 C193.686381,129.364344 193.310343,129.155689 192.966406,128.905761 C192.629348,128.655834 192.322097,128.36922 192.056119,128.045919 C191.787848,127.722618 191.56085,127.383267 191.384296,127.027865 C191.274236,126.810038 191.15959,126.486737 191.044944,126.057962 C190.925713,125.626894 190.817946,125.108696 190.721643,124.501074 C190.625341,123.891158 190.531332,123.260607 190.435029,122.609419 C190.34102,121.958232 190.244717,121.2566 190.148415,120.504524 L189.5385,115.955383 C189.515571,115.822394 189.467419,115.774243 189.396339,115.80405 C189.325259,115.831565 189.245007,115.918696 189.162462,116.060857 C189.102846,116.168624 189.001958,116.342885 188.850626,116.581348 C188.699293,116.822104 188.552547,117.065153 188.401214,117.315081 C188.252175,117.569594 188.121479,117.805764 188.006833,118.023591 C187.89448,118.246004 187.837157,118.397336 187.837157,118.482174 C187.956389,119.342017 188.073328,120.20186 188.187973,121.061702 C188.300326,121.921545 188.403507,122.730944 188.49981,123.489898 C188.596112,124.24656 188.68095,124.936727 188.761202,125.555814 C188.839161,126.177194 188.903363,126.679342 188.949221,127.059966 C188.958392,127.504791 188.852918,127.915223 188.62592,128.295846 C188.398921,128.678763 188.107721,129.015821 187.759198,129.309314 C187.40609,129.6051 187.02088,129.836685 186.60357,130.015532 C186.181674,130.196672 185.796464,130.302146 185.438769,130.338833 C184.638542,130.398449 183.996526,130.28151 183.5196,129.981138 C183.042674,129.683059 182.673515,129.281799 182.407537,128.779651 C182.148438,128.279796 181.965005,127.70886 181.864116,127.07143 C181.763228,126.431707 181.687562,125.79657 181.641704,125.163726 C181.554573,123.980582 181.485786,122.797438 181.42617,121.614295 C181.361968,120.435737 181.329867,119.231957 181.31611,118.01442 C181.31611,117.957097 181.270252,117.92041 181.180828,117.908946 C181.093697,117.897481 181.022617,117.931875 180.974466,118.01442 C180.940072,118.062571 180.852941,118.190974 180.708488,118.390458 C180.566327,118.594527 180.410409,118.821525 180.252198,119.071453 C180.091694,119.321381 179.94724,119.573601 179.823423,119.81665 C179.69502,120.059699 179.635404,120.245425 179.635404,120.362364 L179.706484,121.811485 L179.706484,121.811485 Z M191.801606,106.389345 C191.909373,106.366416 191.991918,106.299922 192.049241,106.192155 L192.81966,104.185855 C192.858639,104.091845 192.858639,104.034523 192.81966,104.016179 C192.785266,103.997836 192.723357,103.995543 192.640812,104.007008 L184.973308,106.980917 C184.796753,107.07722 184.663764,107.196451 184.58122,107.338612 L183.774114,109.363255 C183.73972,109.434335 183.742013,109.491658 183.785578,109.53293 C183.824558,109.576496 183.900224,109.578789 184.007991,109.542102 L191.801606,106.389345 L191.801606,106.389345 Z" id="Fill-1" fill="#CCCCCC"></path>
                </g>
            </g>
        </g>
    </g>
</svg>