<?xml version="1.0" encoding="UTF-8"?>
<svg width="628px" height="187px" viewBox="0 0 628 187" version="1.1" xmlns="http://www.w3.org/2000/svg" xmlns:xlink="http://www.w3.org/1999/xlink">
    <title>Group 21</title>
    <defs>
        <path d="M69.2825959,68.319491 L69.8938448,69.6067855 M422.958126,111.236508 C425.880457,112.927702 429.068455,114.083243 432.042623,115.701001 C433.131208,113.523832 434.247871,111.258107 434.440102,108.797992 C432.010225,106.713698 428.889184,105.754707 426.027329,104.439334 C424.889067,106.646741 423.919277,108.940545 422.958126,111.236508 M443.576437,106.638102 C443.874502,106.603544 444.472791,106.521468 444.775176,106.47611 C445.047322,106.346517 445.323788,106.223403 445.600254,106.108929 C446.604603,105.681271 447.725586,106.428592 447.757984,107.519337 C447.824941,110.193281 445.192035,112.57132 443.986816,114.895362 L444.001935,114.893202 C445.023563,114.802487 445.939357,114.217156 446.46421,113.329441 C448.129485,110.502145 449.989151,107.558215 449.516135,104.173667 C449.237509,103.625055 448.781772,103.236275 448.295797,102.879893 C447.565754,102.34856 446.550605,102.441435 445.913438,103.076443 C444.89397,104.085112 444.11209,105.29033 443.576437,106.638102 M403.387361,107.048481 C404.011569,106.452351 404.627138,105.845422 405.240547,105.236333 C405.828037,104.661802 406.799987,104.71364 407.296762,105.370246 C407.834575,106.08301 408.242794,106.858411 408.018166,107.826041 C407.359399,111.273226 404.296675,113.456875 402.536364,116.329529 C407.391797,115.024955 409.90375,109.42652 409.780636,104.737399 C409.88863,102.599107 407.514911,100.460816 405.491094,101.75243 C403.590391,102.823736 403.372242,105.09594 403.387361,107.048481 M300.621948,102.115292 C299.61544,103.106681 299.280657,104.530049 298.779562,105.804384 C299.891906,105.065702 300.950252,104.277342 302.038836,103.501941 C302.522652,104.858352 303.514041,106.266601 302.911432,107.772044 C302.060435,110.037769 300.436198,111.914713 299.466407,114.128601 C303.1555,111.147952 306.470931,106.09381 304.349919,101.259975 C303.090703,101.391729 301.531262,100.996469 300.621948,102.115292 M165.304832,109.411401 C164.903092,110.314235 164.499193,111.214909 164.112572,112.130702 C171.408681,109.374683 178.242573,105.545197 185.545162,102.808617 C187.400508,102.33992 188.288222,100.594729 189.076582,99.0309688 C180.834442,101.683314 173.136593,105.761186 165.304832,109.411401 M358.316934,107.830361 C357.919514,109.499956 358.612839,111.713844 359.498394,112.921222 C360.396908,114.027086 361.267344,114.394267 362.438004,113.694463 C364.271751,112.294854 364.924038,110.119845 365.129227,107.908117 C364.209114,108.726716 363.3106,109.551794 362.420725,110.394151 C361.407736,110.9946 360.375309,109.03126 360.196038,107.826041 C359.509193,103.398267 363.89161,99.7890902 362.52008,95.3569957 C360.926081,99.4348682 359.189529,103.514901 358.316934,107.830361 M460.561813,95.8105726 C458.937575,97.2641787 458.153535,99.4262287 457.913787,101.56884 C457.85979,102.085053 458.138416,102.590468 458.624391,102.776218 C459.425711,103.082923 460.281027,103.255714 461.121224,103.501941 C459.607141,105.709349 457.85979,108.199702 458.412722,111.009719 C458.464559,111.277546 458.65247,111.508654 458.900857,111.618808 C461.60072,112.817548 464.775758,112.044307 467.30499,110.731094 C470.404432,109.061499 473.447717,106.929687 475.242586,103.821605 C472.143144,105.074341 469.378484,106.988004 466.330879,108.337935 C464.710962,109.100377 462.918253,109.061499 461.157942,108.925425 C460.401981,108.867108 459.965683,108.020432 460.367423,107.374624 C462.19685,104.417735 465.518761,102.519191 466.453993,98.9856111 C464.121312,99.4478276 461.829668,100.17787 459.42787,100.087155 C460.02616,98.8948957 461.054268,98.3290045 462.38476,98.3657226 C462.633147,97.4715281 462.894494,96.5773336 463.101844,95.6831391 C462.276766,95.5189874 461.255138,95.0805297 460.561813,95.8105726 M311.613629,100.996469 C313.985189,102.441435 316.294111,103.994396 318.389205,105.828143 C319.756415,103.800006 321.905506,101.994338 322.40444,99.5752611 C320.83852,97.2101814 318.058741,96.0028028 315.810296,94.387205 C314.125582,96.3980627 312.693574,98.6119501 311.613629,100.996469 M173.00268,101.199498 C170.274739,102.495433 166.272462,103.018126 165.864243,106.68346 C170.916226,105.044103 175.572949,102.421996 180.551496,100.58177 C184.003,99.1584023 188.301182,98.1583732 189.739669,94.2381726 C184.01812,96.1842336 178.650793,99.0612072 173.00268,101.199498 M337.988048,94.9250176 C337.869254,96.0503204 337.726701,97.1691435 337.651105,98.3009259 C338.582018,97.6140809 339.471892,96.8624391 340.402805,96.1604748 C341.808893,99.0676869 340.163057,102.406877 337.925411,104.374537 C332.322656,107.011763 326.15185,108.264499 320.512377,110.819649 C318.976695,111.296985 319.095489,113.240886 318.47776,114.426666 C330.253481,110.186801 342.042162,105.983655 353.824362,101.743791 C355.686187,101.393889 356.191602,99.4175891 356.969162,97.9812622 C351.243293,99.5666215 345.731254,101.840986 340.126339,103.800006 C341.750576,100.670325 344.335965,95.9833638 341.273241,92.912 C340.020504,93.2921407 339.029115,94.171216 337.988048,94.9250176 M59.5047733,91.3698385 C59.1030337,92.4584231 58.6991343,93.5383682 58.2973947,94.6269528 C59.6019683,94.2532918 60.9281409,93.9249885 62.2694327,93.7025198 C60.9605392,95.2684402 58.8978442,95.7198572 57.2736068,96.8516396 L56.8999458,97.2620188 C55.6256106,99.5169441 55.9949518,102.294563 56.1893419,104.784916 C56.718515,108.404892 56.7552331,112.17606 58.2088392,115.597326 C59.3039035,110.705175 58.0770859,105.793585 57.3211244,100.948951 C57.230409,100.370101 57.4679969,99.773971 57.9496524,99.439188 C60.020987,98.0115006 62.6582129,97.8711078 65.1420865,97.8041512 C65.643181,96.5557347 65.6950184,96.4283012 66.1982728,95.1798847 C64.9304173,93.855872 63.7489574,92.4562632 62.5782969,91.0501747 C62.2089557,90.6095572 61.593387,90.4583648 61.064214,90.6873132 C60.5436804,90.9141017 60.020987,91.1408901 59.5047733,91.3698385 M523.174868,93.2683819 C520.537642,91.9443693 518.179042,90.1689396 515.740526,88.5360626 C514.470511,90.7045923 513.248013,92.9033605 512.362458,95.2598006 C514.67786,97.100027 517.213571,98.6357089 519.626168,100.333383 C521.021457,98.2469287 522.222356,96.0416808 523.3239,93.7910753 C526.066961,95.1021286 528.619951,96.7414852 531.207499,98.3311644 C532.483994,96.2274314 533.689213,94.0740209 534.859873,91.9119709 C532.395439,89.9378313 529.691256,88.2682362 526.773245,87.0608577 C525.611224,89.1537912 524.552878,91.3115214 523.174868,93.2683819 M476.847384,87.8060198 C476.465084,87.7887406 476.100062,87.959372 475.860315,88.2574368 C474.847326,89.5252923 473.99417,90.9205813 473.79546,92.5750572 C474.693974,91.9638083 475.601128,91.3266407 476.471564,90.6657143 C477.391677,89.8730346 477.668143,90.2056577 478.277232,91.2380852 C479.218944,94.6312726 476.607637,97.4628885 475.635686,100.529933 C477.348479,98.6659473 478.70705,96.4671792 479.601244,94.0977797 C479.968426,92.5124204 479.847472,90.8795434 479.743797,89.2682654 C479.69196,88.5382225 479.119589,87.9507324 478.389546,87.898895 C477.873332,87.8664967 477.359278,87.8340983 476.847384,87.8060198 M546.559998,87.9118544 C545.605327,88.7023742 545.426056,90.0350264 544.920642,91.0933725 C545.678763,90.730511 546.436885,90.3590099 547.195006,89.983189 C547.71554,89.7261621 548.344068,89.9594302 548.570856,90.4972429 C548.966116,91.4303154 549.370015,92.4001061 548.922918,93.365577 C548.065442,95.3181176 546.797586,97.0633089 545.924991,99.0158495 C548.927238,96.4477402 551.529906,92.657133 550.819302,88.6181384 C550.676749,87.8038599 549.972625,87.2012505 549.145387,87.1731719 C548.195035,87.1407736 547.236044,87.1666923 546.559998,87.9118544 M223.559228,84.0802093 C222.628316,86.0284302 221.621807,87.9356132 220.621778,89.8406363 C218.267498,88.3222335 215.928337,86.758473 213.446623,85.4301406 C212.217645,87.6353884 211.098822,89.9097527 210.180869,92.2618731 C212.625864,93.7457176 214.936947,95.5297869 217.582812,96.6550896 C218.738354,95.0826896 219.423039,93.2403033 220.407949,91.5728682 C223.088372,92.0631632 225.012834,94.4476819 227.328237,95.7889737 C228.490258,93.5923654 229.699796,91.4130363 230.829419,89.1948291 C228.542095,87.2941258 226.053901,85.678528 223.559228,84.0802093 M116.201889,84.2897186 C115.880066,84.3566752 115.627359,84.6072225 115.553922,84.9268862 C115.39841,85.6482895 115.247218,86.3718527 115.104665,87.0975758 C115.044188,87.4193994 115.340093,87.7045049 115.657597,87.6267489 C116.653306,87.3826813 117.642536,87.132134 118.636085,86.8880665 C118.903912,86.8232697 119.14582,87.0824566 119.057264,87.3438033 C118.426576,89.2380269 117.549661,91.0415352 116.962171,92.9487182 C116.543152,94.5815951 116.292605,96.8991572 118.230026,97.6356798 C121.29923,98.9100149 124.675138,97.5082462 127.163332,95.6161825 C129.599688,93.7003599 132.163477,91.771578 133.759636,89.0501165 C128.990599,91.7564588 124.003412,96.8084418 118.063715,94.0956198 C119.124221,91.162489 120.569187,88.3546319 121.219314,85.2811082 C121.29707,84.9290461 121.119959,84.5683444 120.802455,84.399873 L120.778696,84.3890736 C119.873703,83.909578 118.828316,83.7540659 117.826127,83.9549357 C117.283994,84.06509 116.744022,84.1774043 116.201889,84.2897186 M580.066374,87.3654022 C579.910862,88.0803258 579.465925,87.7282637 579.301773,87.4453181 C578.727242,86.3977714 578.18511,85.3502247 577.647297,84.3048379 L577.290915,84.1536455 C575.709876,84.7087373 576.845978,86.1753027 576.550073,87.1623725 C576.338404,87.8556972 575.62996,88.2768758 574.930155,88.1019247 C572.761626,87.5619522 570.454863,86.8016708 568.610317,88.4712659 C565.050818,91.5923072 563.776483,96.4067023 560.934067,100.104434 C558.7137,103.517061 554.884215,105.229853 551.940285,107.884358 C557.603517,106.705058 561.849861,102.056975 564.474127,97.1302655 C565.873736,94.6550314 567.083274,91.5923072 569.93001,90.4907632 L570.359828,90.4086874 C572.189255,90.4130071 574.662329,91.9983665 575.81571,91.0566544 C576.547913,90.317972 577.010129,89.3568209 577.58898,88.4928648 C578.792039,88.9550813 580.109572,90.8536247 581.301831,89.6246473 C582.682001,87.4561176 582.615044,84.8037725 582.049153,82.3890153 C580.33636,82.1298285 580.578268,85.6526093 580.066374,87.3654022 M496.921403,84.9830434 C498.586679,84.6093824 500.273553,84.2594802 501.973386,84.0521307 C501.124549,86.561923 499.366399,88.7693308 498.95386,91.4151962 C498.441966,93.3526176 500.431225,95.1194077 502.310329,94.7759852 C505.422731,94.1409775 508.427138,92.7413687 510.887253,90.7132319 C507.450868,90.8039473 503.977764,92.4433039 500.629935,90.9378605 C501.271422,87.5770714 504.111678,84.6482604 503.211003,81.0714823 C500.368588,80.743179 497.865275,82.2702213 496.921403,84.9830434 M201.059653,83.7087082 C202.139598,83.417123 203.213063,82.4559719 204.405323,82.8361126 C206.506896,86.2573785 202.139598,89.0673956 201.433314,92.2877918 C204.293008,90.2963731 205.545745,86.7951912 206.783362,83.6784697 C207.550123,81.9267988 206.388102,79.1556598 204.210933,79.6589142 C202.072641,79.7301905 201.886891,82.257262 201.059653,83.7087082 M282.625744,88.4345478 C282.640863,90.6311561 284.561005,91.8558138 286.267319,92.8234445 C288.256577,91.378478 288.759832,88.9183632 287.99955,86.6526384 C287.580532,87.3848412 286.740335,88.8362874 286.321316,89.5663302 C285.360165,88.5533417 284.033992,87.6958654 283.720808,86.2444192 C283.988635,83.4192829 285.545915,80.9310895 286.165804,78.188029 C283.012364,80.4451142 282.446473,84.8361708 282.625744,88.4345478 M293.481352,72.3066482 C292.096862,74.1987119 291.133551,76.3823608 290.442386,78.6113675 C292.593637,80.2874422 295.023513,81.5466582 297.349715,82.9484268 C298.483657,80.8317345 299.654318,78.7172021 300.4038,76.4277185 C298.736364,74.3412647 296.159615,72.6349515 293.481352,72.3066482 M10.2096008,72.7537454 C10.8942859,72.211613 11.5573722,71.6500416 12.2463772,71.1251883 C12.6373173,70.8292833 13.2096882,70.9221586 13.4947937,71.3238982 C14.3695492,72.5593553 14.1578799,74.3369449 13.9138124,75.7819114 C12.9289025,79.2917329 10.4342293,82.2399829 10.0756876,85.9593137 C12.5336426,83.1708955 13.7798992,79.5941175 15.2313453,76.241968 C16.4149651,73.5788235 16.5899162,70.0862811 14.5920179,67.8745536 C14.0542052,67.2805838 13.1427316,67.1941882 12.505564,67.6844833 C10.9634024,68.8616234 10.2398392,70.7299284 10.2096008,72.7537454 M527.317537,64.5850409 C526.902838,66.5980585 528.609151,68.9307399 530.708565,68.7968267 C532.272325,67.7082421 532.289604,65.6153085 532.795019,63.9694722 C532.136252,64.4446481 530.838158,65.4144387 530.188031,65.8960942 C528.181493,63.02992 530.226909,59.8030442 530.591931,56.7770381 C529.159923,59.2069145 527.725756,61.7620645 527.317537,64.5850409 M39.2428439,55.7316513 C37.8043571,61.7620645 34.2275791,67.2633047 34.0699071,73.5809833 C34.2102999,75.6782367 35.1930499,79.0303861 37.8626742,78.5292916 L38.2060967,78.3543405 C39.9016104,76.8186587 40.7439676,74.3909421 39.832494,72.2008135 C39.478272,73.0258916 39.1370093,73.8531295 38.808706,74.6846872 C38.6380747,75.1145053 38.1348203,75.2937762 37.7201214,75.082107 C36.3140329,74.3779828 35.3010445,72.9675745 35.5904697,71.3001394 C36.3896291,65.9868096 38.3248906,61.3452057 39.5322692,56.1290711 C39.301161,56.0793936 39.4804319,55.7856485 39.2428439,55.7316513 M137.327775,52.3579029 C136.755404,55.658215 138.60859,61.9413354 139.571901,65.6909047 C140.517932,69.5203899 140.109713,73.4859482 140.697203,77.3521515 C139.066486,81.4494631 136.394702,87.3546027 140.470415,90.8061072 L140.889434,91.0350555 C144.090391,91.9767676 145.243772,87.4906758 144.980265,85.1018373 C144.276141,85.9463544 143.582817,86.8081505 142.904611,87.6785862 C142.688622,87.9572121 142.308481,88.037128 141.999617,87.8751362 C140.787919,87.2487681 139.705814,86.2444192 139.861326,84.7303362 C139.422868,79.6092367 143.844163,75.9287839 144.600125,71.0927899 C143.386266,72.6565504 142.379758,74.3715031 141.381888,76.0864559 C141.479084,74.2375899 141.567639,72.3973635 141.5482,70.5484976 C141.649715,65.271886 138.781381,59.1982749 138.59563,53.9519018 C138.263007,52.9734716 137.768392,52.5587727 137.327775,52.3579029 M189.553918,56.3731386 C188.73316,59.669131 188.599247,63.757803 191.618773,66.019208 C193.927696,64.6692767 194.711736,62.0730887 194.942844,59.569776 C193.458999,59.7144887 193.145815,61.5309563 192.206263,62.44027 C188.407016,57.939059 193.06374,52.4529381 192.713837,47.4592721 C191.245112,50.2649694 190.350918,53.3276936 189.553918,56.3731386 M476.300932,54.8979337 C476.061184,57.0686233 477.52127,59.8116837 479.951147,59.7923475 C481.875609,59.0427629 481.283799,56.5524095 481.834571,54.9648903 C481.037571,55.5156623 480.251371,56.0599546 479.467331,56.6193661 C478.812884,55.9476403 478.164917,55.2780744 477.52127,54.6149881 C477.538549,51.4421095 479.981385,48.8394419 479.625003,45.6492841 C477.897091,48.4528215 476.635715,51.6105809 476.300932,54.8979337 M236.643843,44.9861979 C232.313263,47.1396083 230.481676,52.2995859 229.6242,56.7619189 C231.032448,56.0081172 231.918003,54.7035436 232.622127,53.319054 C236.972146,50.7401452 242.428029,51.5522639 246.92924,53.3276936 C243.641887,55.6798139 240.214141,57.8418639 236.592005,59.6324129 C234.72802,60.5978837 232.524932,61.1162574 231.1966,62.8873673 C234.244205,62.9111261 237.008864,61.5071975 239.937675,60.9110678 C242.492825,60.3041387 245.436756,59.8484019 247.190586,57.6712326 C249.717658,54.5955491 252.415361,50.9042968 251.577323,46.6730721 C247.048034,44.137361 241.60943,44.2928731 236.643843,44.9861979 M562.016172,50.7012672 C559.787165,49.3254171 557.679113,47.7292583 555.301074,46.6104352 C553.456528,48.3901847 552.499696,50.8524595 551.769653,53.2499375 C554.182251,54.9000936 556.614287,56.524331 559.251513,57.8029859 C560.68136,55.7705293 561.748346,53.5134441 563.117716,51.4334699 C565.160972,52.9367534 567.210708,54.4443568 569.370598,55.7942881 C570.839323,53.7035144 571.997024,51.4248304 572.986254,49.0770298 C570.629814,47.3253589 568.238816,45.6276852 565.761422,44.0639248 C564.42229,46.2238149 563.178193,48.444182 562.016172,50.7012672 M218.127105,56.4465749 C217.550414,58.9974052 217.865758,62.3128365 220.58506,63.4986162 C223.33676,63.2610283 223.371318,60.1075887 223.587307,58.0362541 C222.54408,58.6691019 221.619647,60.8894689 220.332352,59.5978546 C218.626039,58.057853 219.751342,55.3601502 219.610949,53.3492925 C221.075355,50.193693 223.14021,46.9387385 222.582958,43.3079632 C221.049436,47.6623017 219.086096,51.9108056 218.127105,56.4465749 M435.401253,41.8413978 C433.548067,46.7983457 431.355778,51.8006512 431.051234,57.1506991 C430.908681,59.6604914 432.30181,63.3128656 435.394773,62.7772129 C437.517945,61.4920783 437.41643,58.8570123 437.010371,56.7316804 C436.342965,57.7900266 435.669079,58.8483727 435.005993,59.904559 C433.794294,58.7878958 432.295331,57.4984414 432.556677,55.6495755 C432.487561,50.8287007 436.327845,46.6925111 435.401253,41.8413978 M280.470173,48.7508864 C281.990736,51.6796974 282.973486,54.9065732 284.988664,57.5589183 C286.677698,59.8613612 288.237138,62.3214761 288.898065,65.1379728 C285.291048,69.2288047 281.342769,73.075569 276.716284,75.9957405 C266.96654,82.3911752 256.504033,87.6807461 245.616026,91.8385346 C241.443119,93.620444 236.957027,94.7155083 233.043306,97.0719484 C236.944068,97.0481896 240.704436,95.9142473 244.512323,95.2382017 C249.514628,94.4692808 254.575251,93.9185088 259.463082,92.5836967 C265.20191,90.415167 270.297091,86.9204648 275.476507,83.7000686 C282.401115,79.1254213 289.688585,73.2159619 291.416497,64.6455179 C292.654114,58.5956656 288.980141,53.1916205 285.582633,48.580255 C286.275958,48.6450518 287.675567,48.7724853 288.377531,48.8394419 C286.275958,45.7399995 283.770486,42.9364621 281.610595,39.8823775 C280.93239,42.7204731 278.703383,45.9343896 280.470173,48.7508864 M121.634013,39.6426297 C120.448233,42.9062237 119.554039,46.2756523 118.890952,49.6731595 C118.407137,52.120315 118.966549,55.265115 121.582176,56.2305859 C124.83065,56.7014419 124.84577,52.1851117 125.003442,49.9647446 C124.24316,51.0900474 123.580074,52.2671875 122.893229,53.4356881 C122.100549,54.4659557 120.640464,53.653837 120.299201,51.5371446 C120.30784,49.1655853 120.217125,46.7292292 121.165317,44.5023825 C121.865121,42.9667006 121.983915,41.2819863 121.634013,39.6426297 M554.406879,43.0271775 C556.292463,44.8306858 558.32492,45.5888072 561.061501,47.3123995 C562.931966,45.8890319 563.735445,43.2496462 564.960102,41.2171896 C562.65334,39.5540742 560.216984,38.0853489 557.916701,36.4330329 C556.521412,38.495728 555.065646,40.5908214 554.406879,43.0271775 M338.420026,42.1308231 C339.640364,42.5282429 340.856382,42.9062237 342.093999,43.2798847 C341.303479,41.7096445 340.290491,40.2603583 339.184627,38.8974676 C338.9168,39.970933 338.666253,41.050878 338.420026,42.1308231 M333.113176,40.5389841 C333.763303,38.1371863 334.415589,35.7397082 335.162911,33.365989 C340.8931,34.3379395 344.050859,40.796011 343.232261,46.1806171 C341.47627,45.4872924 339.746198,44.7270111 338.016126,43.9861687 C335.18667,49.1223875 331.041841,53.7575117 325.680994,56.2845832 C329.156257,52.3730221 333.238449,48.9431166 335.892954,44.3619896 C334.99228,43.4937138 333.238449,41.7355632 333.113176,40.5389841 C333.560273,40.0983665 334.39615,39.5648736 335.227708,39.7463044 C335.234188,39.2970473 336.273095,41.6254088 337.130571,42.1826605 C337.121932,41.0443984 337.566869,39.7787028 336.921062,38.7268363 C336.36165,38.8153918 335.234188,39.0033022 334.679096,39.0896978 L335.357302,39.7700632 C334.79789,39.9644533 333.672587,40.3424341 333.113176,40.5389841 M304.602626,32.2212472 C302.978389,36.1198489 304.369358,40.2927566 304.855333,44.2647946 C302.075554,40.1350846 297.865929,36.7894148 292.744829,36.3790357 C292.662753,37.9514357 291.55473,40.128605 293.191926,41.2539077 C294.576416,42.5433621 296.544076,41.9904303 298.215831,41.7744412 C300.866016,43.824177 304.846694,45.770238 304.740859,49.6753193 C304.375837,55.5243018 299.881106,59.8246431 296.343206,64.0645074 C304.190087,60.4056535 307.723667,50.5155166 306.220384,42.3187336 C305.861842,39.3834429 303.796987,35.724589 306.740917,33.5107016 C307.835981,34.2623434 308.939685,35.0312642 310.03475,35.7915456 C309.922435,34.1219505 310.371692,31.8411065 308.45587,31.0225082 C307.114578,29.8280889 305.423384,31.0441071 304.602626,32.2212472 M459.23348,29.7395334 C457.021753,32.9361708 458.661109,37.1609159 458.600633,40.7549731 C455.427754,36.9384472 451.060456,33.9729181 445.991194,33.5711785 C445.926397,35.1284593 445.781685,36.6922198 446.038712,38.2430209 C447.116497,38.8477901 448.317396,39.1804132 449.488056,39.5929522 C449.738603,39.1804132 450.248337,38.3682945 450.501045,37.9600753 C454.235495,39.7333451 457.380295,42.4980044 459.384673,46.1417391 C460.747563,41.485016 459.194602,36.7742956 459.561784,32.087334 C461.522964,32.0938137 463.101844,33.1456802 464.451775,34.4783324 C464.795197,33.5474197 465.309251,32.6532252 465.302832,31.6315972 C464.062995,29.6941757 461.188181,27.3334158 459.23348,29.7395334 M527.170665,38.5929231 C527.412572,39.9428544 528.900737,41.7139643 529.887806,41.366222 C531.907304,40.4353094 532.512073,38.1393461 533.129801,36.1997648 C531.769071,36.9082088 529.185842,39.2084918 528.788422,37.5950538 C528.464439,34.307701 529.518465,31.1326626 529.792771,27.8841878 C528.511956,31.3356922 526.520538,34.7699175 527.170665,38.5929231 M166.138549,36.2451225 C165.414986,39.3748033 164.16441,42.7658308 165.557539,45.9106308 C165.708731,46.379327 165.963598,46.7745869 166.274622,47.1158495 C167.266012,48.2001144 169.082479,47.8437325 169.66133,46.4959611 C170.04579,45.5952869 170.382733,44.6751737 170.700237,43.7485808 C170.520966,43.3835594 170.155945,42.6383973 169.968034,42.2668962 C169.741246,42.8457467 169.514457,43.4267572 169.287669,44.0077676 C169.054401,44.5974176 168.326518,44.7961275 167.814624,44.4224665 C167.09538,43.8976132 166.477652,43.2690852 166.548928,42.2668962 C165.73681,37.2516313 169.447501,32.6532252 167.972296,27.64444 C166.838354,30.3810208 166.877232,33.404867 166.138549,36.2451225 M16.8642223,36.3790357 C16.2486536,38.7743538 16.5575179,41.5217341 18.0435223,43.4440363 C19.0154728,44.7010924 20.9723333,44.6276561 21.8060509,43.273405 C22.7520828,41.7334033 23.2358982,39.951494 23.1387031,38.0853489 C22.3481833,38.9989824 21.6375795,39.990372 20.8470597,40.9126451 C20.4971575,41.3187044 19.8621498,41.3489429 19.5057679,40.9493632 C18.5381371,39.8694181 17.9290481,38.476289 18.0931998,36.9902846 C18.5554162,33.0787236 20.8060218,29.5084252 20.5446751,25.4759103 C18.6828498,28.8453389 17.8037745,32.6748241 16.8642223,36.3790357 M142.695102,26.1778746 C140.779279,29.8518477 142.755579,34.0830725 142.746939,37.9600753 C141.204777,35.8865807 139.77277,33.5841379 137.494086,32.2363664 C135.353635,30.8345977 132.813604,30.3205439 130.353489,29.8151296 C130.210937,31.005229 129.653685,32.2968433 130.249815,33.4502247 C131.046814,34.7094406 132.411865,35.4114049 133.573886,36.2904802 C133.908669,35.7764263 134.586874,34.7483186 134.930297,34.2342648 C137.597761,35.8131445 140.234987,37.7656852 141.55252,40.6707374 C140.803038,42.348972 139.854846,43.9364913 139.139922,45.6428045 C140.740401,44.9278808 142.442395,44.6730138 144.014795,45.5844874 C141.137821,47.0748116 138.120454,48.9517562 137.329935,52.3579029 C137.746793,52.887076 138.172292,53.4227287 138.59563,53.9519018 C139.245757,49.7854737 143.982396,49.800593 147.202792,49.3837342 C147.308627,48.5348974 147.412302,47.6839006 147.515976,46.8350638 C146.107728,45.1049918 144.833393,43.2647654 143.476982,41.4914956 C143.947838,37.0507615 143.425145,32.6013878 143.543938,28.1520142 C145.375525,28.8366993 147.077519,29.8151296 148.775192,30.7762807 C148.61968,29.4868263 149.148853,27.8539493 148.001952,26.9014378 C146.814012,25.2966394 143.924079,23.8603125 142.695102,26.1778746 M277.19794,24.2987702 C276.089916,26.4824191 275.009971,28.6811873 274.100657,30.9620312 C276.686046,32.6445856 279.36647,34.1889071 281.828744,36.0658516 C282.89357,33.7418098 284.183025,31.4458466 284.615003,28.9036559 C282.528549,26.8323213 279.880523,25.4391922 277.19794,24.2987702 M400.130247,25.0439323 C398.922868,27.9446647 399.415323,31.221218 399.454201,34.2947417 C398.277061,32.7050626 397.156078,31.0289878 395.592318,29.7935307 C393.430268,27.9209059 390.501457,27.4975675 387.842632,26.819362 C387.432253,28.3744829 386.589895,30.1196741 387.559686,31.6531961 C388.715227,33.2709538 390.851359,33.6359752 392.680786,34.0096362 C393.060926,33.5474197 393.819048,32.6143472 394.199188,32.1542906 C396.793216,34.0182758 398.028674,37.0270027 399.983374,39.4352802 C401.665929,35.3422884 399.689629,30.7849202 401.339785,26.6940883 C402.970502,27.4889279 404.519143,28.4457592 406.069945,29.4177098 C406.054825,28.2038515 406.087224,26.9986328 405.97275,25.7912543 C404.573141,24.1734965 401.63569,22.7738877 400.130247,25.0439323 M370.686624,30.0980752 C369.509484,29.8604873 368.146594,29.9555224 367.306396,28.9641329 C365.083869,27.1476653 364.152957,20.0178679 362.565438,22.2209559 C361.407736,23.4088954 365.388414,28.3550438 364.762046,31.8411065 C364.533097,32.6726642 363.278201,33.5171813 361.863473,32.9664093 C358.19598,30.9620312 360.55242,26.110918 357.809359,23.4132152 C357.541533,23.9575075 357.01884,25.0612114 356.751013,25.6119834 C357.928153,28.0116213 358.221898,30.6790856 358.852586,33.2493549 C359.472475,35.4718818 361.604286,37.3056286 364.183195,35.9189791 C365.567685,34.800156 366.021262,32.9901681 366.619551,31.3940093 C368.070997,32.3637999 369.688755,33.0571247 371.449066,33.2191164 C373.308731,28.4371197 369.889625,24.1799762 367.759973,20.1949789 C366.701627,23.8905509 369.040788,27.0267114 370.686624,30.0980752 M590.887424,25.0439323 C591.317242,27.3463751 592.801086,29.3831515 592.785967,31.7871093 C592.993316,37.5043384 592.755728,43.234527 593.090511,48.9495963 C593.619685,55.1592804 594.416684,61.3387261 594.803304,67.5592096 C595.159686,74.2872674 596.559295,81.0866016 595.395114,87.8017 C594.796825,91.8406945 591.405797,94.6550314 587.926214,96.3246264 C582.234904,98.9769715 576.115935,100.536412 570.055283,102.108812 C568.93214,102.415517 567.888913,102.890692 566.919123,103.53002 C570.966757,103.940399 574.981993,103.024606 579.036106,102.979248 C583.556756,102.450075 589.075276,102.480313 592.064564,98.4197199 C597.84659,90.7045923 600.524853,80.8468537 599.701935,71.2634212 C598.451359,58.7122997 596.749365,46.1741374 596.509618,33.5387802 C597.660839,34.7159203 598.786142,35.9232989 600,37.0486016 C599.971921,34.8066357 599.857447,32.5257917 598.945974,30.4458175 C597.466449,26.6530504 596.436181,22.7047713 594.842182,18.9573619 C593.50953,20.9768591 591.988967,22.8818822 590.887424,25.0439323 M565.891015,28.9274147 C563.223551,27.035351 562.508627,23.7782366 560.985905,21.0870135 C560.376816,23.6292042 561.07662,26.1994735 560.949186,28.7567834 C560.806634,30.4782158 558.156448,31.2233779 557.052745,29.9339235 C554.853976,28.1368949 556.402618,24.8279433 554.525673,22.8257251 C553.972741,25.4996691 553.564522,28.4435993 554.817258,30.9987494 C555.56242,32.6165071 557.016026,34.3228203 559.011765,33.9210807 C561.234292,33.9275604 561.553956,31.1261829 562.493508,29.6120999 C563.804561,30.4782158 565.158812,32.4005181 566.919123,31.4544862 C568.120022,30.0008801 567.888913,27.9360252 567.271185,26.2901889 C566.478505,24.1734965 565.973091,21.9812081 565.39856,19.8148383 C563.312106,22.5492592 565.137213,26.0353218 565.891015,28.9274147 M495.923534,19.6118086 C494.616801,21.7954575 493.461259,24.0611823 492.65778,26.4824191 C495.344683,28.1001768 497.921432,29.925284 500.675292,31.439367 C501.800595,29.2103603 503.08141,26.974874 503.420513,24.4715614 C501.219585,22.4218256 498.450605,21.1863685 495.923534,19.6118086 M184.270827,28.0915372 C184.294586,29.2967559 185.076466,30.141273 185.925303,30.9209933 C186.672625,31.6078384 187.864884,31.4566461 188.409176,30.5970098 C189.238574,29.275157 189.648953,27.7308356 189.754788,26.1346768 C189.290411,26.5450559 188.832515,26.9640746 188.378938,27.3852532 C187.635936,28.0742581 186.441516,27.8323504 186.016018,26.916557 C185.635877,26.0936389 185.359411,25.2361625 185.499804,24.3138894 C185.746032,21.1863685 188.100312,18.5599421 187.661854,15.3352261 C185.672596,19.2554267 183.802131,23.5924861 184.270827,28.0915372 M123.109218,27.9965021 C120.724699,23.3224998 116.296924,19.2921448 110.752486,19.4109388 C110.864801,20.7457509 110.344267,22.2727932 111.104549,23.4888114 C111.752516,24.9553768 113.547384,25.0676911 114.830359,25.6854196 C115.19538,25.2987993 115.910304,24.5233987 116.268846,24.1367784 C119.577798,26.2145927 121.69233,29.5473032 123.161055,33.0873631 C125.761563,28.1995318 122.908348,22.7566086 124.158925,17.6981459 C125.949473,18.3374734 127.677386,19.151752 129.398818,19.9703503 C129.413937,18.8385679 129.420417,17.7132652 129.420417,16.5879624 C127.822098,15.6268113 126.150343,14.7606953 124.383553,14.1278475 C120.865092,17.9810915 122.649161,23.4110553 123.109218,27.9965021 M291.196188,27.0267114 C294.347468,28.018101 294.286991,24.0179845 294.876641,22.0719234 C293.736219,22.4369449 292.172458,24.9726559 291.418657,22.9013213 C289.139972,19.8515564 292.91762,16.7002767 293.066653,13.4885201 C289.952091,16.9681031 288.029789,23.0179553 291.196188,27.0267114 M504.999392,18.3828311 C508.062117,18.836408 509.645316,15.9615943 509.941221,13.3157288 C508.882875,14.0760102 507.848287,14.8730096 506.839619,15.6700091 C505.373053,13.7109887 506.705706,11.3847871 507.070727,9.28321397 C505.226181,11.9377189 503.509068,15.140836 504.999392,18.3828311 M576.979891,14.5749448 C577.612739,17.0717778 578.506933,19.5297328 578.558771,22.13888 C578.865475,32.1089329 580.057734,42.014189 580.660344,51.962643 C581.003766,57.72307 582.69496,63.364703 582.427134,69.1704877 C581.085842,69.7968558 579.781268,70.5333784 578.342782,70.8983998 C576.591111,70.9804756 575.094307,69.9674871 573.573744,69.2892816 C573.476549,67.6801635 573.372874,66.0688855 573.245441,64.4748865 C571.616884,65.742742 570.644933,67.55273 569.847934,69.4015959 C568.880303,71.9265075 565.577831,73.3066773 563.087478,72.330407 C560.845512,70.9437575 561.836901,68.0365454 561.566915,65.8766552 C558.406996,67.9933476 557.791427,72.485919 554.19089,74.0431998 C551.25344,75.4968059 547.648583,74.8920367 545.251105,72.7105476 C545.121511,70.6824108 545.024316,68.6564338 544.860165,66.6369366 C542.59444,67.5376107 540.641899,69.006336 538.808153,70.5765762 C534.907391,73.9179262 529.777652,75.6242394 524.686791,75.7127949 C521.840056,75.6069603 518.716855,74.8488388 516.930625,72.4405614 C514.142207,68.909141 515.284789,64.1401036 515.431662,60.0168733 C519.462017,58.7144596 523.475093,57.3429293 527.639361,56.5156914 C530.762562,55.6063777 534.114711,55.3385513 537.028403,53.8093491 C538.512248,51.7315348 539.227171,49.2195825 540.082488,46.8437034 C536.669861,46.8501831 533.272354,47.1633671 529.881327,47.4311935 C520.075426,47.9538869 510.267364,47.3577572 500.474423,46.91066 C504.714287,43.0336572 507.941163,38.1544654 510.044896,32.8173769 C511.13996,29.9555224 512.846273,27.2211015 515.723247,25.8798097 C518.351833,28.5559136 520.38861,32.1542906 519.284906,36.0010549 C519.552732,36.0075346 520.081905,36.0226538 520.349732,36.0291335 C521.038737,33.1823983 521.773099,30.2773461 521.505273,27.3182966 C521.16185,23.495291 519.582971,19.2770256 515.781564,17.6895064 C510.95205,21.8408152 509.828907,28.4435993 506.22189,33.4523846 C502.636473,38.9147467 496.428948,41.5973302 491.525998,45.6212056 C488.901731,47.8631715 488.612306,51.5609034 487.927621,54.7121831 C495.664347,54.5782699 503.396754,54.6668254 511.13132,54.8979337 C510.371039,55.9130821 508.932552,56.0016375 507.900125,56.6193661 C502.398885,59.2587519 497.37066,63.0363997 493.63405,67.8875129 C486.426497,76.8380977 483.895106,89.432417 487.396288,100.402499 C489.385547,106.260121 494.899746,110.083127 500.629935,111.750562 C509.394769,114.34459 518.697416,113.74198 527.66096,112.77219 C532.058496,112.720352 536.259482,111.163072 540.015531,108.972943 C546.426085,105.48472 553.445728,102.884213 559.191036,98.3160451 C556.048396,98.6961858 553.082867,99.8279682 550.033102,100.58177 C535.998136,104.493331 521.289284,107.46534 506.697066,105.372406 C500.629935,104.201746 494.260419,101.56452 491.003304,95.9898435 C488.106892,90.6549148 488.746219,84.0823692 490.936348,78.6113675 C495.145974,69.6240646 504.312547,64.4230492 513.187536,60.9283469 C511.943439,66.7038932 510.7447,73.1036476 513.68647,78.5962482 C516.349615,82.9268279 522.176999,84.1406862 526.833722,82.8728307 C532.594149,81.9959153 536.875051,77.7841295 541.590091,74.766763 C541.885996,76.9806504 542.244538,79.4537246 544.169,80.8986911 C546.015706,82.6741208 548.838682,82.5682862 551.180003,82.0693516 C554.674706,80.7798972 556.627246,77.4039889 558.460993,74.3779828 C558.780657,76.9115339 559.728848,79.8705834 562.64902,80.3241603 C566.530342,80.8922114 568.765829,77.008729 570.562857,74.215991 C571.867431,76.1534125 573.342636,78.7690394 576.046818,78.6351263 C580.260764,79.1103021 583.008144,74.9157954 584.252241,71.4513317 C587.688626,62.8117711 584.982284,53.5199238 584.325677,44.6362957 C583.805144,37.0961192 582.88935,29.5689021 582.958467,21.9898476 C583.990894,23.1669877 585.029801,24.3441279 586.131345,25.4694306 C586.526605,24.0395834 586.621641,22.5255004 585.960714,21.1626097 C584.206883,16.9378646 582.837513,12.5489678 580.824495,8.43437714 C579.014507,10.0434953 577.679695,12.2725019 576.979891,14.5749448 M563.728965,12.0392338 C556.659645,15.4086624 549.823592,19.2705459 543.253207,23.5255295 C540.644059,25.3182383 537.402064,27.5105268 537.533817,31.0894647 C537.408544,34.1651483 540.272558,35.9384181 542.758592,36.9449269 C543.130093,35.9686566 543.460556,34.9837467 543.747821,33.9815576 C542.259657,32.696423 540.246639,32.0506159 539.108377,30.3875005 C539.717466,28.4954367 541.531774,27.4370905 543.058816,26.3485059 C552.091477,20.6485558 561.350926,15.0954783 571.504569,11.5856568 C571.958146,10.6245057 572.418203,9.64607551 572.86098,8.66980517 C569.586587,9.06506506 566.653456,10.6374651 563.728965,12.0392338 M533.287473,9.18601891 C529.099446,10.73682 526.937396,15.3114673 526.07344,19.4174185 C527.563765,18.3439531 528.764664,16.8255503 530.470977,16.065269 C534.071514,15.6181717 537.551097,16.929225 540.875167,18.1517229 C536.164447,21.7198614 530.172912,22.6291751 525.157647,25.5731053 C529.330555,25.3333575 533.183799,23.4261746 537.371826,23.2706625 C542.095505,23.1583482 544.404428,18.3374734 545.963869,14.5598256 C546.812705,12.7714365 544.94872,11.1687981 543.413038,10.6547442 C540.196962,9.51432221 536.7001,8.65684583 533.287473,9.18601891 M406.540801,12.70232 C405.756761,12.70232 404.536423,13.5597964 405.035357,14.4172728 C405.981389,15.1321964 408.098081,13.1450975 406.540801,12.70232 M400.555745,11.8707623 C402.199421,11.4517437 401.428341,12.3848162 402.501806,14.708858 C403.307445,13.7369074 404.106604,12.7563173 404.910084,11.780047 C405.527812,11.0262453 406.456565,10.5921074 407.428516,10.5985155 L407.562429,10.6007469 C408.344309,10.6050667 408.959878,11.2638332 408.91452,12.0435536 C408.851883,13.0911003 408.71365,14.1300074 407.873453,14.8578904 C406.782708,16.1970223 405.113113,16.5987618 403.512635,17.0372195 C402.797711,17.2380893 402.043909,16.8730679 401.752324,16.1905426 C401.549295,15.7196866 401.350585,15.2531503 401.218831,14.9399662 C400.676699,15.829841 400.136726,16.7197157 399.601074,17.6117503 C399.348367,18.0350888 398.823513,18.2143597 398.369936,18.0178097 C397.685251,17.7305443 397.015685,17.4152003 396.350439,17.0955366 C396.056694,16.9551437 395.708952,16.948664 395.421686,17.1084959 C393.935682,17.9227745 392.691585,19.0739959 391.793071,20.5211223 C391.142944,20.2036185 391.391331,20.3245723 390.741204,20.0070685 C391.685076,17.4691976 393.523143,15.3481855 396.13445,14.6375816 C396.693862,14.4863893 397.298631,14.6742997 397.70037,15.0933184 C398.151787,15.572814 398.665841,16.1171063 398.976865,16.4432498 C400.527667,13.6937096 400.369995,14.7995734 400.555745,11.8707623 M308.043331,8.68060462 C304.149049,10.8577739 302.74512,15.5598547 301.231037,19.4778954 C301.56798,19.5016542 302.231067,19.5470119 302.56585,19.5686108 C303.468684,18.0847663 304.116651,16.1559844 305.959037,15.5879333 C309.909476,14.0544113 314.460364,14.8578904 318.024183,17.0264201 C314.095343,22.0200861 306.993624,22.4823026 302.790478,27.0418306 C307.194494,26.1562757 311.583391,24.9186586 315.659104,23.0114757 C318.829822,19.8148383 321.065309,15.7153668 322.456278,11.445264 C319.207803,7.11468427 312.745412,7.09308537 308.043331,8.68060462 M459.881447,13.233653 C460.704366,12.4064151 461.499205,11.5640579 462.289725,10.7065816 C463.054326,9.9981376 464.004678,9.538081 464.682883,10.6245057 C465.747709,13.6440321 464.14723,16.9076261 462.149332,19.112874 C450.79047,24.0611823 439.040667,28.2060114 428.210978,34.3163406 C427.340543,36.1047296 426.556503,37.944956 426.2066,39.9190956 C443.50516,31.320573 461.263777,23.5320092 479.644442,17.5491135 C477.685422,23.5924861 474.598939,29.7330537 475.806317,36.2688813 C476.324691,38.1695846 478.406825,40.4482687 480.46736,39.0119418 C482.551654,37.1479566 482.879958,34.152189 482.789242,31.5149631 C482.013842,32.55819 481.331316,33.6748532 480.525677,34.6900016 C478.529939,34.8217549 477.501831,32.7892983 477.493192,31.0592263 C477.164888,25.9770048 480.039702,21.5125119 481.234121,16.7218756 C483.983661,15.8708789 486.741841,14.9702047 489.30995,13.6591514 C491.422323,12.7649569 491.979575,10.3566794 493.074639,8.56829033 C493.104877,8.32206286 493.156715,7.8317678 493.186953,7.58554032 C483.828149,11.5791772 474.043847,14.4410316 464.622406,18.2553976 C465.775788,15.3201069 467.374106,10.9009717 467.030684,9.13418155 C466.652703,7.92896285 465.542519,7.42138867 464.302742,7.30907438 C461.291856,7.14492273 460.576932,11.0284052 459.881447,13.233653 M432.319089,8.76052055 C430.074964,11.5122206 427.964751,14.8794893 428.217458,18.5599421 C430.34495,17.0566586 431.312581,14.1645657 433.956286,13.3891651 C437.846248,12.389136 441.803167,13.7909047 445.537617,14.8146926 C442.083953,17.3698426 438.293346,19.4174185 434.437942,21.2965229 C432.662512,22.2058366 430.653814,22.9963564 429.640826,24.8452224 C434.574015,22.5686982 440.431637,22.4218256 444.816214,19.0307981 C447.155375,16.5858025 449.427579,13.6051541 449.79908,10.1385305 C449.853077,7.88360516 447.317366,7.24211779 445.593774,6.73454361 C441.232956,5.51852546 435.595643,4.94615458 432.319089,8.76052055 M344.262529,5.75827327 C341.970885,9.02186726 342.130717,13.0543821 342.66637,16.8255503 C340.186816,12.5835261 336.072225,8.55965077 330.795614,8.82099748 C330.47595,11.2055162 330.624982,14.5079882 333.702826,14.7304569 C334.104565,14.2984789 334.901565,13.4410025 335.296825,13.0090244 C338.867123,14.6570206 340.595035,18.285636 343.033551,21.1237317 C344.329485,17.1905717 343.152345,13.0090244 344.186932,9.03698649 C345.716135,9.93982057 347.221578,10.8772129 348.778859,11.7282096 C348.651425,10.5877876 348.657905,9.41712715 348.331762,8.3134233 C347.407329,6.91381449 345.692376,6.43647877 344.262529,5.75827327 M411.450231,9.61799694 C410.050622,11.780047 411.309838,14.1818448 411.875729,16.3784531 C413.722435,25.1778455 413.471888,34.2623434 415.260277,43.0725352 C416.199829,50.4053622 417.279774,57.7144304 418.061655,65.0623767 C419.33383,72.9416559 419.415906,82.2853406 418.806817,90.2510154 C419.180478,90.7953077 419.33599,91.8990116 419.92348,91.2942423 C420.863032,87.6505077 422.325278,83.2680906 422.638462,79.505562 C423.629851,70.5571372 421.435403,61.7037475 420.914869,52.7963606 C419.564938,41.7809209 417.817587,30.8194785 416.698764,19.7673207 C417.837026,20.9077427 418.994727,22.0330454 420.223705,23.0870718 C420.132989,18.7608119 417.76143,15.0587602 416.450377,11.0629634 C415.804569,9.22489693 415.160922,7.35227219 414.052899,5.73451448 C412.372504,6.0800969 412.270989,8.35878099 411.450231,9.61799694 M230.40608,6.64382822 C228.364984,10.6914623 229.885547,15.317947 229.81859,19.6139685 C228.505377,17.2726476 227.46215,14.7174975 225.548487,12.7865558 C222.915581,10.0046173 219.423039,8.23998703 215.85274,6.98077108 C215.442361,9.02834693 215.120538,11.0932019 214.982305,13.1818157 C216.323596,14.0068937 217.699446,14.7693349 219.086096,15.5209767 C218.02991,18.2186794 216.895967,20.9379811 214.958546,23.1367493 C211.805106,27.0958279 207.40109,29.7244142 203.891269,33.3033521 C207.910824,31.4544862 212.662583,30.2967851 215.448841,26.5774543 C218.140064,22.8754026 219.386321,18.4065899 220.736252,14.0976091 C222.969578,15.4086624 225.071151,17.0631382 226.503159,19.2619064 C228.088518,21.4952328 228.559374,24.3203691 230.274327,26.4888988 C231.436348,21.4541949 230.591831,16.2898976 230.740863,11.1817574 C231.235478,10.8124162 232.226867,10.0650942 232.717163,9.6914332 C234.14269,10.5726684 235.475342,11.5770173 236.816634,12.5684069 C237.08446,10.6331453 237.987294,8.1363123 236.041233,6.74318317 C234.684822,5.05198919 231.635058,4.63297051 230.40608,6.64382822 M354.882708,17.8320591 C344.865138,21.5729888 334.724454,25.0374526 324.955271,29.41339 C322.331004,30.5905301 319.505868,31.3356922 317.075991,32.8994527 C315.058654,34.1889071 314.572679,36.6857401 313.708723,38.7419555 C317.89675,37.3725851 321.724075,35.1500582 325.75875,33.4156664 C347.236697,24.7329081 368.80752,16.1171063 391.190461,10.0154167 C393.849286,9.17953924 394.879554,6.27448701 396.343959,4.17939358 C382.449386,8.49485407 368.483537,12.6159244 354.882708,17.8320591 M289.749061,6.37600185 C277.169861,11.3178305 264.402751,15.8060822 252.048179,21.3094822 C254.856036,17.7629426 257.210317,13.3438074 256.495393,8.67196506 C256.437076,6.45807767 253.471547,6.08657657 252.108656,7.34795241 C250.473619,8.74108154 249.968205,10.9657684 249.521108,12.9636668 C250.767364,12.0089953 251.808431,10.8016167 253.082767,9.87934364 C254.698364,9.20113814 254.959711,11.2141557 255.035307,12.3848162 C255.013708,15.7736838 252.693986,18.4865058 250.832161,21.1021328 C250.080519,22.2641537 248.717629,22.7047713 247.51673,23.240424 C236.30906,28.0094614 225.202905,33.1003225 214.636722,39.1890527 C211.982217,40.4698676 211.947659,43.7960984 211.090183,46.2454138 C218.41437,41.6837259 226.218053,37.9730346 233.93966,34.1349098 C243.060876,29.7913708 252.285767,25.6465416 261.750406,22.1151212 C260.663981,27.1152669 257.486783,31.7871093 258.31618,37.0788401 C258.225465,38.9428253 260.141288,39.7311852 261.361625,40.7160951 C261.890799,40.3661929 262.964264,39.6512692 263.499917,39.2992071 C263.985892,37.4956989 264.366033,35.6705917 264.588501,33.8217258 C263.82174,34.9556681 263.165134,36.1630467 262.344375,37.258111 C260.555986,37.7419264 259.825944,35.3638873 259.679071,34.0269153 C259.663952,29.6574576 262.303338,25.8495713 262.84763,21.5557097 C272.942956,17.0696179 283.502659,13.7541865 293.70598,9.52080188 C294.593695,7.70433428 295.518128,5.89866613 296.27409,4.02820127 C294.055882,4.67616831 291.887353,5.488287 289.749061,6.37600185 M202.342628,9.76054968 C201.299401,13.3006096 200.152499,17.1084959 201.068292,20.7975883 C201.521869,22.7134108 203.267061,23.495291 205.070569,23.5838465 C206.62785,21.3030026 207.269337,18.6355382 207.275817,15.8946377 C206.493936,16.9227454 205.791972,18.0242893 204.897778,18.9789608 C203.139627,18.9487223 202.305909,16.9141058 202.349107,15.4021827 C202.461422,11.2595134 204.958255,7.68057549 205.63646,3.64158094 C203.729277,5.15566392 203.139627,7.58554032 202.342628,9.76054968 M140.472575,3.06057049 C137.550243,7.5250634 134.973494,12.8902305 136.105277,18.3677119 C136.321266,19.8126784 137.826709,21.6809833 138.939053,21.195008 C140.995268,19.6658058 141.9413,17.2726476 141.612997,14.7304569 C140.941271,15.5879333 140.301943,16.4518893 139.666936,17.3309646 C139.096725,17.7867014 138.753302,18.7111344 138.243568,17.3547234 C135.971364,12.428014 140.010358,7.89008483 140.472575,3.06057049 M61.6020266,8.37390022 C62.7186898,9.33073155 63.8807107,10.2292458 65.0967288,11.0543239 C65.2954387,11.190397 65.565425,11.0219255 65.5308668,10.7821777 C65.349436,9.52080188 65.1010486,8.26590571 64.7381871,7.04124801 C64.6539514,6.76262218 64.3494069,6.6049502 64.0729409,6.69782548 C63.2759415,6.96565185 62.4919013,7.26371669 61.7208206,7.59201999 C61.4076365,7.72593318 61.3428398,8.15359143 61.6020266,8.37390022 M59.9583502,12.1083503 C59.3103832,8.62876725 60.9346206,2.62211279 65.5114277,3.66533973 C68.1572932,5.43860953 66.6367305,9.38904858 66.7339256,12.0565129 C67.6864371,13.4129239 67.6799574,15.0155624 67.4639684,16.5879624 C66.9715135,16.4907673 65.9801239,16.3114965 65.487669,16.2207811 C61.8223354,24.2339735 55.0186815,30.2168691 48.1394314,35.4416434 C50.7097007,31.3270527 54.8026925,28.5321548 57.8805359,24.8301031 C60.6667942,21.9444899 62.8288442,18.5469827 64.6237129,14.9766844 C63.0815513,14.000414 61.515631,13.0630217 59.9583502,12.1083503 M42.3941237,5.53580458 C41.8584709,8.60716835 42.2386116,11.7217299 42.348766,14.806053 C40.657572,11.9290794 38.9879769,8.87499473 36.1412417,6.96565185 C34.346373,5.63299964 32.1324856,5.15566392 29.9941944,4.68696776 C30.1129884,6.58551119 29.4196636,9.05426561 31.2685296,10.3350805 C32.7286153,11.5273398 34.5990802,11.3480689 36.2384368,10.6547442 C39.3767571,12.9507074 41.305539,16.2898976 42.4826791,19.9401119 C45.9406632,15.7909629 41.2385824,9.8663843 44.6900869,5.87058755 C45.7786715,5.06926832 48.0573556,7.32419361 49.7485496,8.02399802 C49.2863331,6.16865239 48.8694743,3.79277325 46.9018144,2.92017763 C45.0097506,1.93742762 42.7677846,3.6286216 42.3941237,5.53580458 M98.965966,13.784425 C84.53574,19.3807003 70.4467767,25.9165279 57.2044903,33.9361999 C55.4895375,35.2774917 55.1698738,37.6166527 54.5219067,39.5540742 C60.5112821,37.0572412 65.9088475,33.3983873 71.7124723,30.5214136 C85.9439884,23.0546735 101.05026,17.4951163 115.890865,11.3783074 C119.465483,9.89446287 123.236651,8.8814744 126.701115,7.1514024 C128.215198,5.63947931 128.861005,3.42559192 129.796238,1.52488861 C119.361809,5.21398095 109.158488,9.48408375 98.965966,13.784425 M88.8533604,2.74738642 C87.9418868,5.7733925 88.6870489,9.04346616 88.7324066,12.1623475 C86.0865412,8.12119307 81.9049939,5.30253645 77.1143575,4.52929578 C76.8227724,6.24208866 76.0214531,8.20974857 77.3325064,9.72167166 C78.4405301,11.4884618 80.9956801,10.6914623 82.4341669,9.78862826 C85.4256148,11.4301448 87.4343126,14.2099234 89.0520703,17.1365745 C90.9743725,13.2098942 89.5078071,8.8814744 89.8814681,4.76040403 C92.0996753,3.73877599 94.1861292,5.97426228 96.2963418,6.53583372 C96.0004369,5.3565337 96.3784176,3.77549413 95.2163967,2.9936139 C93.5381621,1.27866113 90.1579341,-0.0626306414 88.8533604,2.74738642 M68.6108701,69.6003058 C70.5936492,76.8532169 72.4036372,84.7065774 78.2979773,89.9162324 C79.1252153,86.8297494 79.9610927,83.5899142 82.2268175,81.2032356 C84.4623038,78.3716197 88.1125181,77.5076636 91.3113154,76.2549273 C96.4216154,74.1900724 101.734945,72.7083877 106.974839,71.0042344 C94.7433808,68.8141058 82.2548961,69.6240646 69.8916849,69.6046256 M50.113571,57.839704 C52.2086644,60.5914041 56.3599733,59.6064942 59.392459,59.9823151 C57.1483332,57.6625931 52.6406424,53.9151837 50.113571,57.839704 M92.8232385,39.9579736 C93.9550209,41.7226039 95.0673643,43.5779495 96.7434391,44.8954825 C98.5987847,44.4678242 100.350456,43.7205022 102.123725,43.0487764 C100.655,41.7895605 99.2100336,40.4504286 97.4734819,39.5454346 C95.9831577,38.6901181 94.3286819,39.6512692 92.8232385,39.9579736 M68.6108701,69.6003058 L69.0903657,67.4771338 C69.9910399,62.9392047 70.5634108,62.1054871 72.8291355,59.8592013 C78.5679636,54.4141183 85.1318697,49.8243518 92.4063797,46.6730721 C91.3631528,44.3814286 89.5661242,42.0876253 90.1406549,39.4115214 C90.6611885,35.9751362 92.5251736,32.0354966 96.2358649,31.2384972 C99.2985891,31.0959444 101.698227,33.4113466 103.845158,35.2969307 C106.035286,37.4287423 108.419805,39.3661637 110.499779,41.6167693 C110.141238,44.1352012 110.119639,47.2281638 108.264293,49.1396666 C105.268525,50.3427254 101.981173,50.6343106 98.9486869,51.7812122 C98.9422072,53.0145095 98.9184484,54.2478068 98.8752506,55.4875837 C98.0696116,54.5761101 97.31581,53.6300782 96.5792874,52.6689271 C91.0154104,54.6128282 85.676162,57.230615 80.9136043,60.7317969 C80.8855257,60.9801843 80.8315285,61.4726393 80.8034499,61.7167068 C88.6416912,61.9024574 96.4756127,62.1789233 104.307374,62.4899475 C114.262308,62.4316305 124.137326,64.2221794 134.100899,63.6152503 C132.625694,66.4036684 132.144038,70.5765762 128.593179,71.4707707 C121.69233,73.8704086 114.41134,75.0324295 107.579608,77.656696 C106.192958,80.2744829 106.184319,83.3825648 105.670265,86.2573785 C104.851667,91.92925 105.925132,98.5017957 110.514899,102.370159 C115.299055,106.208284 121.789525,105.728788 127.519714,105.184496 C137.513525,103.201717 146.479229,97.7998314 154.282912,91.419516 C156.032423,89.8125577 158.468779,88.1516022 158.231191,85.4431 C157.86617,77.7301323 156.704149,70.0711619 155.758117,62.4121915 C154.542099,48.6752902 151.904873,35.0982208 151.278505,21.3094822 C151.18131,17.8817366 150.457747,14.5058283 150.131603,11.1083211 C150.98044,8.65684583 152.449165,6.46455734 153.708381,4.19883259 C155.250543,7.06284691 155.831553,10.2875629 156.926618,13.3243684 C158.133996,17.0760976 159.879188,20.8343064 159.326256,24.8884202 C158.200953,23.7112801 157.187964,22.4283053 156.151217,21.175569 C155.734358,23.1950663 155.414695,25.2750405 155.721399,27.3377356 C156.464401,33.0549648 157.449311,38.7419555 157.86617,44.4937429 C158.313267,48.9603957 159.267939,53.3536122 159.43857,57.8483436 C160.213971,66.7082129 162.023958,75.61344 160.779862,84.5208269 C159.946144,88.5879 158.373744,92.5836967 155.632844,95.7522556 C151.926472,100.082835 147.090478,103.227635 142.276083,106.182365 C135.137646,110.40063 127.096375,114.193398 118.586408,113.437436 C113.100287,112.979539 107.160589,110.292636 104.940222,104.940428 C103.367822,101.145501 102.510346,97.0309105 102.644259,92.9206396 C102.6313,88.0241687 104.18858,83.3372071 104.925103,78.542251 C96.8924715,81.687051 87.7107785,82.8793104 81.1987098,89.019878 C83.6048274,92.7543281 87.7474967,94.603194 91.5186648,96.6226913 C91.4970659,99.0914457 91.2443588,101.55804 90.5575137,103.931759 C84.6631736,102.316162 78.6413999,99.9230034 74.6628822,95.0567709 C69.5720212,89.1861896 68.7231844,81.1513983 65.6302217,74.2807877 C62.8418035,79.2658142 58.9971991,83.5596758 54.4139122,86.9636626 C47.77441,92.1538786 40.8951599,97.4866473 32.7005367,99.8949248 C29.4153438,100.432737 25.5232218,100.832317 22.8103998,98.4845166 C19.2854591,95.8256918 18.4279827,91.0933725 18.1752756,86.9571829 C18.3912646,76.0108597 22.9745515,65.8831349 25.8882433,55.500543 C20.5209163,58.1982458 15.7216404,62.008292 10.0130508,64.0364288 C8.00867273,64.6973552 5.40168534,64.6757563 4.09063203,62.7448145 C1.48796442,59.4898601 1.92210233,54.9648903 2.66726443,51.1289254 C3.36706883,47.5499875 4.20942599,44.0120874 5.22241446,40.5087456 C2.64350564,39.2862478 0.639127595,36.9989242 0.23738803,34.1219505 C-0.717283409,27.1606246 1.36917046,20.253296 3.61329631,13.7390673 C5.56583699,9.39336836 6.56370623,4.65456941 8.88774801,0.481661672 C9.33700516,9.71735188 2.2806441,17.4346393 2.38215893,26.6314515 C2.56142981,29.059168 3.67161334,32.9966477 6.90712876,32.145651 C8.22466174,30.7222834 8.69551779,28.7632631 9.61131121,27.0958279 C10.9158848,31.3486516 9.79058209,36.1997648 7.26351063,39.7916621 C6.16196667,44.2475154 4.51397049,48.757366 5.16193753,53.4162491 C5.29585072,55.5847788 7.70412822,57.1118211 9.75386396,56.5956073 C14.1060426,55.7640496 17.7864954,53.1765013 21.6310998,51.1418847 C26.2899828,48.6666507 30.6637603,45.7184006 35.3377626,43.2712451 C38.6747928,41.5303737 41.9923841,39.7031066 44.8758374,37.2494714 C43.6468599,35.4265241 42.0507011,33.8152461 39.9793665,32.9966477 C33.1929917,30.1585521 26.0588746,27.5947625 20.4539597,22.650774 C17.6525822,20.2748949 15.5294102,17.1992113 13.8900536,13.9312975 C13.5984684,11.680692 13.9354113,9.40416781 14.0693244,7.15356229 C17.5359481,9.5812788 21.6764575,11.3761475 24.2856048,14.8146926 C22.9205542,14.7174975 21.5727828,14.5965437 20.2163718,14.492869 C25.9616795,19.9617108 33.6897664,22.3008718 40.8130841,25.3571163 C43.0507303,26.3787444 45.7030753,27.5321257 46.4266385,30.1196741 C47.9018435,34.6640829 46.9104539,40.0551687 44.1069165,43.8976132 C39.614345,48.0942798 33.7804818,50.4183216 28.7479378,53.8460672 C26.1323108,61.5244766 23.9789004,69.3691976 21.9831619,77.2311977 C21.1472844,80.3543988 20.821141,83.6633505 21.3200756,86.8599879 C22.6160097,91.2337654 27.8537433,93.3137396 32.065529,92.3741874 C38.9210203,90.8838632 44.8974363,86.9723022 50.5995463,83.0693807 C55.3340254,79.5789982 60.2823337,76.0691768 63.6625618,71.1791855 C60.9281409,66.5289421 54.7119771,67.669364 50.2626034,66.3755899 C47.1718006,65.6801052 46.6037495,62.008292 46.5972698,59.3624266 C46.9255731,55.6495755 48.1178325,51.7228952 51.0228847,49.2044633 C52.3641765,47.7011798 54.6299013,48.2044342 56.3297348,48.6925693 C61.6128261,51.0511694 64.6841898,56.8115963 65.4660701,62.3409151 C65.6669398,64.5807212 67.2479794,66.2999937 68.2026509,68.2438948 M172.363353,71.7018789 C171.462678,75.159863 171.251009,79.2139768 173.814799,82.0326334 C176.052445,82.7237983 178.385126,82.7475571 180.650851,82.1579071 C180.609813,78.2981834 180.732927,74.4319801 180.298789,70.5852157 C179.866811,66.1444816 178.918619,61.7599046 178.860302,57.2824524 C176.34835,61.9197365 174.052387,66.7017333 172.363353,71.7018789 M190.903849,0.645813322 C192.573445,-0.00215371764 195.01628,-0.635001527 196.119984,1.26570179 C196.685875,3.29815841 195.335944,5.29821667 194.076728,6.7799013 C192.029152,8.64388649 189.882221,10.3869178 187.772009,12.1753069 C187.975038,7.9397623 192.050751,6.13193426 194.556224,3.38239412 C189.696471,2.91153807 185.737392,6.14705349 181.154105,7.03260845 C179.555787,7.39762988 177.938029,7.66545626 176.320271,7.9397623 C178.212335,13.2552519 181.512647,18.1906009 181.776154,23.9791064 C180.521258,23.0093158 179.376516,21.922891 178.233934,20.8343064 C178.672392,34.8433538 182.402522,48.4463419 183.795651,62.3409151 C184.01164,68.6391547 184.517054,75.1145053 182.519156,81.1945961 C189.32497,78.9331911 194.860768,74.1749531 199.614686,68.9588185 C201.247563,67.0905135 204.042461,65.213569 203.243302,62.3581942 C201.50675,53.3039348 197.446157,44.9430001 193.346685,36.7678159 C191.497819,33.443745 192.772154,29.5473032 193.614512,26.1346768 C199.459174,34.6187252 204.07054,44.0941632 206.120275,54.2413271 C207.349253,60.1745453 208.699184,66.7989283 213.818124,70.69753 C221.062395,76.2398081 230.79702,75.7430334 239.365304,74.6177306 C249.881809,72.7299866 260.128328,68.2546943 268.078884,61.0298618 C266.57128,58.0880914 264.232119,55.7251716 261.85624,53.4745661 C262.26446,51.0835677 262.720196,48.6925693 263.458879,46.3706874 C266.439527,48.8696803 269.560568,51.7596133 269.964468,55.8893233 C270.178297,59.8484019 269.903991,64.2718569 267.610188,67.6348058 C263.473998,72.1943339 257.912281,75.1771421 252.393762,77.7409317 C244.209938,80.9440488 235.52718,83.6050334 226.630592,82.9419472 C220.98032,82.7929148 215.345166,80.8382142 211.055624,77.1361625 C207.878426,74.354224 205.947484,70.4750613 204.733626,66.4943838 C201.657942,74.6630883 195.320825,81.0995609 188.182388,85.8923571 C196.880265,94.9682154 208.537192,100.834477 220.755691,103.434985 C245.037176,108.776393 270.895381,104.791396 293.11633,93.9185088 C299.630559,90.6613945 306.254942,86.7260747 310.518565,80.684862 C310.293936,75.7214345 307.172895,71.3757355 304.354239,67.4555349 C304.451434,65.0278184 304.734379,62.6044217 305.244113,60.2263826 C306.799234,61.5741541 308.155645,63.2351096 310.03259,64.170342 C312.179521,64.6087997 314.265974,63.4662178 316.000366,62.3214761 C319.242361,59.8095239 318.350327,54.8223375 321.562083,52.2391089 C322.119335,52.5069353 323.233838,53.044748 323.79109,53.3104144 C325.458525,61.26097 322.559952,69.4901514 324.864555,77.38239 C325.834346,80.4969515 326.957489,84.1687648 330.059091,85.7865225 C332.069949,86.2206604 333.404761,84.438751 334.327034,82.9570664 C336.266615,79.8705834 336.826027,76.1944504 337.638146,72.7105476 C338.696492,65.3777206 340.679271,57.9476986 345.117845,51.8805672 C345.966682,50.9042968 347.163261,50.3081672 348.204328,49.5543655 C348.76158,50.7919825 349.590978,51.9907216 349.655774,53.4011298 C349.670893,60.5266074 346.072516,67.1941882 346.826318,74.3715031 C346.763681,77.4947043 349.482983,80.1319301 352.459312,80.6006263 C356.42271,81.3997856 360.761929,80.1772878 363.584906,77.2419971 C366.096858,74.6998064 367.03209,71.1079091 367.513746,67.6715239 C367.740534,64.5915206 366.84634,61.5849535 366.351725,58.5740667 C365.835511,55.3212722 364.176716,52.2823067 364.226393,48.9517562 C364.703729,45.7248803 365.418652,42.5131237 366.64763,39.478478 C369.150943,44.5606995 369.902584,50.2628095 371.133722,55.7338112 C372.379978,62.3128365 371.872404,69.6996608 375.896279,75.4082504 C379.047559,79.8468246 385.32636,78.9094323 389.415032,76.4061196 C388.162296,72.053941 386.607175,67.7989575 384.74103,63.6778871 C382.464505,58.6172645 381.252807,53.1786611 379.82296,47.8415726 C378.930925,44.9581193 380.743073,42.1934599 381.628628,39.5411148 C383.94187,43.2647654 386.330709,47.0510528 387.790794,51.2110012 C386.790765,50.8287007 385.795056,50.44856 384.803666,50.0533001 C386.576936,58.3580777 392.685105,65.5029942 392.149453,74.334785 C391.628919,78.1772295 390.777922,82.8901098 386.935478,84.7951329 C382.909443,86.758473 377.907137,86.2573785 374.211565,83.7756648 C373.71479,88.8211681 371.649935,94.2165737 373.900541,99.1130446 C376.440572,102.517031 381.313284,102.473834 385.017495,101.355011 C390.315706,99.5450226 394.603088,95.7716946 398.871031,92.2942715 C401.786882,89.9464709 404.231878,87.0889362 406.579679,84.2011631 C404.823688,76.4061196 403.378722,68.4102064 399.86242,61.1594552 C398.871031,59.0427629 397.471422,57.1053414 396.784577,54.8612156 C396.292122,51.688337 397.769487,48.6774501 398.635603,45.7032814 C403.344163,52.9626721 406.069945,61.2868887 408.417745,69.557108 C409.929668,74.9676328 410.48044,80.6524636 412.553935,85.9074763 C413.510766,88.4626264 416.214949,90.3201319 418.508752,91.5663885 L418.808977,90.2531753 C419.171838,90.5944379 419.545499,90.9443401 419.92348,91.2964022 C421.793945,90.9745786 423.811282,90.8925028 425.454959,89.806078 C429.403238,87.428039 431.141949,82.8577115 434.617213,79.9526592 C435.036231,82.3069395 435.284619,84.6936181 435.697158,87.0565379 C440.645466,90.2963731 446.790353,88.7239731 451.781859,86.4582483 C447.05818,83.5445565 441.762129,80.3716779 439.867905,74.8186004 C436.701506,66.4727849 442.958708,56.4789733 451.650106,55.0772046 C458.8555,53.9000644 466.378397,56.6712035 471.734924,61.5158371 C467.274751,60.9801843 462.77354,60.1443068 458.278809,60.9585854 C452.578859,61.949975 446.45341,63.325825 442.14659,67.4684943 C443.790266,73.0518103 448.82281,77.2419971 454.196617,79.1189416 C457.969945,80.6243851 462.112614,79.4990823 465.656994,77.9202026 C471.493017,74.8186004 476.523401,70.3973053 482.381023,67.3216217 C481.039731,71.0236734 480.720067,75.7927108 476.903542,77.9029235 C468.946506,82.5877252 461.417129,87.978811 453.257064,92.3374693 C448.533385,95.0934891 442.91551,97.8322298 437.364593,95.9380061 C434.258671,95.0222127 433.068571,91.8471742 431.841754,89.1991489 C429.411877,92.0394044 427.554372,95.4844292 424.416051,97.63136 C420.653523,99.7696512 415.111245,99.3959902 412.316347,95.8343314 C410.191015,93.1517478 409.199625,89.7887989 408.456623,86.5014461 C406.048346,91.4367951 402.715635,95.9056078 398.48657,99.4154292 C393.352512,103.808646 387.836152,108.748314 380.79707,109.402761 C377.976254,109.739704 374.615465,109.389802 372.697482,107.050641 C370.852936,104.774117 370.412318,101.737311 370.321603,98.9056952 C370.494394,93.285661 371.472824,87.7153044 372.971788,82.3134191 C371.811927,79.1556598 370.446877,76.0562174 369.710354,72.7472657 C367.837729,77.4342273 365.807433,82.3738961 361.835395,85.6958071 C358.237018,88.8600461 352.68178,89.5209725 348.457035,87.2574077 C345.478547,85.2292708 343.310017,81.786406 343.392093,78.1059532 C342.882359,71.0668712 345.318715,64.3496129 346.431058,57.4919617 C345.366232,58.5351887 344.163174,59.5265782 343.530326,60.9132277 C340.169537,67.865914 339.813155,75.7365537 337.417837,83.0024241 C336.37245,85.9009967 335.162911,89.0522764 332.488967,90.8406654 C331.011603,91.5339901 328.834433,91.6463044 327.700491,90.2812539 C324.788959,87.1083752 323.832128,82.7410774 323.074006,78.6329664 C321.501606,72.5377564 322.793221,66.1531212 321.279138,60.0406321 C318.367606,62.3517145 319.594423,66.7406113 316.847043,69.1164904 C315.689342,70.2504328 314.231416,70.9955949 312.868525,71.8444317 C313.648246,75.907185 313.693604,80.3047213 311.777781,84.0715697 C308.870569,90.35685 303.021586,94.4779204 297.397232,98.1432539 C285.174414,105.730948 271.081131,109.62739 257.072084,112.318613 C242.488505,114.126441 227.308798,114.037885 213.275991,109.22997 C208.653827,107.780684 203.936626,106.141327 200.150339,103.011646 C194.739814,98.5212347 190.828253,92.6204149 186.499833,87.1666923 C183.100166,88.6289379 179.633543,90.3244517 175.873174,90.4389258 C173.048038,90.475644 170.514487,88.4043093 169.808202,85.7152461 C167.557597,78.6416059 170.158105,71.2353427 172.957322,64.7189541 C174.277015,61.0017832 176.33971,57.6496337 178.322489,54.2650859 C176.108602,43.921372 175.341841,33.3335906 173.778081,22.8689229 C173.248907,19.5966894 173.750002,16.0868679 171.961613,13.1213387 C172.639818,11.7584481 173.309384,10.3804382 173.955192,8.99378869 C171.408681,9.10394308 168.860011,9.1881788 166.30918,9.2097777 C168.188285,12.7865558 169.26823,17.3698426 166.944188,21.0135773 C166.622365,18.443308 166.972267,15.5749739 165.440905,13.3243684 C163.702193,10.6936222 161.155683,8.76268044 158.924516,6.57903152 C159.127546,5.63299964 159.334895,4.6783282 159.550884,3.73877599 C165.579138,7.06284691 172.778051,6.0347392 179.212364,4.64808974 C183.242719,3.72581665 187.074364,2.16637598 190.903849,0.645813322" id="path-1"></path>
        <filter x="-3.7%" y="-17.2%" width="107.3%" height="137.8%" filterUnits="objectBoundingBox" id="filter-2">
            <feOffset dx="0" dy="2" in="SourceAlpha" result="shadowOffsetOuter1"></feOffset>
            <feGaussianBlur stdDeviation="7" in="shadowOffsetOuter1" result="shadowBlurOuter1"></feGaussianBlur>
            <feColorMatrix values="0 0 0 0 1   0 0 0 0 1   0 0 0 0 1  0 0 0 1 0" type="matrix" in="shadowBlurOuter1"></feColorMatrix>
        </filter>
    </defs>
    <g id="iIBN-Mahmoud" stroke="none" stroke-width="1" fill="none" fill-rule="evenodd">
        <g id="homepage-1-copy-3" transform="translate(-522.000000, -235.000000)">
            <g id="SLIDE-2-Copy-2" transform="translate(-40.000000, -44.000000)">
                <g id="Group-21" transform="translate(576.000000, 291.000000)">
                    <g id="Fill-1">
                        <use fill="black" fill-opacity="1" filter="url(#filter-2)" xlink:href="#path-1"></use>
                        <use fill="#8F1010" fill-rule="evenodd" xlink:href="#path-1"></use>
                    </g>
                    <path d="M352.814244,155.305886 C352.635397,155.950195 352.438206,156.59909 352.220379,157.250278 C352.004845,157.901465 351.832877,158.600804 351.704474,159.355173 C351.940644,159.630322 352.241016,159.958209 352.596417,160.338833 C352.956405,160.721749 353.307221,161.127595 353.644279,161.558663 C353.988216,161.987438 354.290881,162.418506 354.552273,162.847281 C354.813665,163.278349 354.96729,163.677316 355.017735,164.048768 C354.776979,164.644925 354.4789,165.22274 354.109741,165.784504 C353.745167,166.346268 353.337029,166.878224 352.87386,167.380372 C352.415277,167.880227 351.915422,168.341103 351.381173,168.758413 C350.844631,169.175724 350.28516,169.535711 349.711931,169.83379 C349.235005,170.10894 348.68012,170.358867 348.049569,170.585866 C347.416724,170.812864 346.751779,170.99859 346.061612,171.140751 C345.369152,171.285205 344.66752,171.376921 343.965889,171.418194 C343.259671,171.459466 342.597019,171.43883 341.973346,171.356285 C341.725712,171.319598 341.526228,171.34482 341.38636,171.427365 C341.239614,171.50991 341.159362,171.617677 341.131847,171.750666 C341.111211,171.881362 341.152483,172.018937 341.26025,172.163391 C341.368017,172.305551 341.546864,172.424783 341.794499,172.521085 C342.406707,172.736619 343.087703,172.961325 343.839778,173.202081 C344.591854,173.440544 345.362273,173.646906 346.151036,173.818875 C346.937505,173.990843 347.714803,174.103196 348.485222,174.151347 C349.255642,174.197205 349.966445,174.144468 350.610754,173.98855 C351.145003,173.84639 351.667787,173.550604 352.169935,173.103485 C352.672083,172.654074 353.144424,172.110654 353.584663,171.473224 C354.02261,170.8335 354.426163,170.138748 354.790736,169.386672 C355.157602,168.632303 355.469439,167.88252 355.730831,167.137323 C355.996809,166.389833 356.200878,165.674444 356.343039,164.988863 C356.487493,164.300988 356.558573,163.714002 356.558573,163.223319 C356.558573,162.615696 356.471442,161.943873 356.299474,161.207847 C356.122919,160.474115 355.886749,159.742675 355.581791,159.013528 C355.274541,158.286675 354.919139,157.596508 354.504122,156.94532 C354.095983,156.294132 353.641986,155.748419 353.151303,155.305886 C352.972455,155.163726 352.862395,155.163726 352.814244,155.305886 L352.814244,155.305886 Z M356.035788,146.092958 C356.143555,146.072321 356.2261,146.003534 356.285716,145.89806 L357.056135,143.89176 C357.092822,143.797751 357.092822,143.740428 357.056135,143.719792 C357.021741,143.703741 356.959833,143.701448 356.877288,143.71062 L346.462872,147.881431 C346.284025,147.977733 346.151036,148.096965 346.068491,148.239125 L345.263678,150.261475 C345.224699,150.334849 345.226992,150.392172 345.27285,150.433444 C345.314122,150.477009 345.387495,150.479302 345.495262,150.440323 L356.035788,146.092958 L356.035788,146.092958 Z M333.870188,159.004357 C333.099769,159.226769 332.32935,159.401031 331.568102,159.53402 C330.804562,159.664716 330.008921,159.756433 329.185765,159.811463 C328.362609,159.8642 327.456907,159.891715 326.480126,159.891715 L326.445732,159.891715 L326.445732,164.209272 C326.911194,164.209272 327.436271,164.174878 328.020964,164.110676 C328.603364,164.044182 329.266017,163.922657 329.999749,163.74381 C330.735775,163.56267 331.54288,163.312742 332.427945,162.989441 C333.31301,162.668433 334.28062,162.251123 335.330774,161.735217 C336.055335,161.39128 336.763846,161.056515 337.444841,160.733214 C338.123544,160.409913 338.816004,160.150814 339.522221,159.953623 C340.226146,159.756433 340.957586,159.648666 341.71654,159.632615 C342.475495,159.614272 343.300944,159.735796 344.197473,159.999481 C344.543703,159.426253 344.899105,158.797995 345.263678,158.116999 C345.628251,157.438296 345.951552,156.791695 346.238167,156.184072 C346.334469,156.01669 346.286428,155.945609 346.096006,155.968539 C345.165083,156.039619 344.169958,156.012104 343.112925,155.888287 C342.055891,155.762176 341.037837,155.581036 340.058763,155.34028 C339.389232,155.161433 338.744923,154.932141 338.123544,154.652406 C337.504457,154.37267 336.88537,154.08147 336.270869,153.783391 C335.654075,153.485313 335.041867,153.20787 334.425073,152.948771 C333.810572,152.694257 333.173142,152.49936 332.515076,152.368663 C331.776758,152.22421 331.093469,152.276947 330.467504,152.529167 C329.839245,152.779095 329.286653,153.143668 328.809727,153.620595 C328.332801,154.099814 327.947591,154.650113 327.654098,155.2692 C327.358312,155.890579 327.179465,156.493616 327.108385,157.078309 C327.083162,157.163147 327.124435,157.229641 327.225323,157.2755 C327.323918,157.323651 327.417928,157.305307 327.502766,157.222763 C327.727471,157.018693 328.0095,156.855896 328.344265,156.729786 C328.676738,156.603676 329.034432,156.514252 329.41047,156.461515 C329.786508,156.406485 330.162546,156.381263 330.538584,156.381263 C330.914622,156.381263 331.256266,156.404192 331.568102,156.452343 C331.951019,156.511959 332.359158,156.601383 332.794811,156.720614 C333.232758,156.839846 333.661533,156.975128 334.094894,157.124167 C334.521376,157.273207 334.9341,157.438296 335.321603,157.617144 C335.709105,157.795991 336.050749,157.974838 336.351121,158.153686 C335.466056,158.499916 334.640607,158.784237 333.870188,159.004357 Z M334.950151,168.895988 C335.069382,168.884524 335.158806,168.818029 335.216129,168.698797 L336.007184,166.853002 C336.043871,166.781921 336.043871,166.731477 336.007184,166.701669 C335.968204,166.674154 335.91776,166.676447 335.84668,166.710841 L325.439143,169.957607 C325.267175,170.051617 325.14565,170.161677 325.063105,170.280908 L324.21702,172.161098 C324.184919,172.223006 324.187212,172.273451 324.226192,172.321602 C324.27205,172.369753 324.338544,172.376632 324.434847,172.339945 L334.950151,168.895988 L334.950151,168.895988 Z M315.107272,164.209272 L326.409046,164.179779 C326.587893,164.179779 326.409046,159.891715 326.409046,159.891715 L315.28612,159.891715 C315.107272,159.891715 314.999505,164.209272 315.107272,164.209272 Z M308.622911,158.243109 C308.66877,158.243109 308.726092,158.321068 308.790294,158.467815 C308.856788,158.616854 308.943919,158.811752 309.049393,159.050215 C309.15716,159.288678 309.297028,159.561535 309.462118,159.8642 C309.629501,160.169157 309.845034,160.483286 310.106427,160.806587 C310.083498,160.900597 310.000953,160.930405 309.858792,160.896011 C309.381866,160.774486 308.918697,160.604811 308.469286,160.375519 C308.019875,160.148521 307.593393,159.884836 307.18984,159.586757 C307.116467,159.527141 307.088952,159.474404 307.100416,159.426253 C307.109588,159.378102 307.13481,159.325365 307.169204,159.263456 C307.240284,159.180911 307.336586,159.082316 307.455818,158.958499 C307.577342,158.843853 307.708039,158.724621 307.852492,158.609976 C307.994653,158.497623 308.136813,158.403613 308.272095,158.332533 C308.407377,158.261453 308.526609,158.231645 308.622911,158.243109 L308.622911,158.243109 Z M308.164328,155.980003 C307.896058,156.165729 307.623201,156.388142 307.348051,156.658706 C307.072901,156.92927 306.811509,157.215884 306.55241,157.518548 C306.293311,157.821213 306.066312,158.09407 305.862243,158.332533 C305.550406,158.71545 305.215641,159.011236 304.848775,159.222184 C304.484201,159.428546 304.105871,159.584464 303.711489,159.685352 C303.317108,159.78624 302.922727,159.848149 302.521467,159.8642 C302.1225,159.882543 301.73729,159.894007 301.368131,159.894007 L300.93477,159.894007 L301.310808,164.209272 C302.182116,164.209272 302.936484,164.009788 303.569329,163.608528 C304.202173,163.209561 304.768523,162.611111 305.272964,161.808591 C305.272964,162.274052 305.472447,162.700534 305.871414,163.09033 C306.272674,163.480125 306.758772,163.808012 307.332001,164.07399 C307.905229,164.342261 308.501387,164.541744 309.122767,164.674733 C309.741853,164.807722 310.280688,164.839823 310.734685,164.7825 C310.808058,164.771036 310.879139,164.699955 310.959391,164.578431 C311.03735,164.450028 311.110723,164.307867 311.172632,164.147363 C311.239126,163.984566 311.301035,163.824062 311.351479,163.663558 C311.406509,163.500761 311.450074,163.374651 311.489054,163.276056 C311.702295,163.39758 311.924708,163.512226 312.160878,163.626872 C312.392462,163.739224 312.651561,163.83782 312.938176,163.922657 C313.22479,164.007495 313.541212,164.07399 313.887442,164.126727 C314.233672,164.181757 314.726536,164.209272 315.166776,164.209272 C314.985941,164.239574 315.024004,162.801152 315.280964,159.894007 L315.070586,159.894007 C314.506529,159.894007 314.059411,159.859614 313.717766,159.795412 C313.376122,159.726625 313.073457,159.616565 312.814358,159.46294 C312.550673,159.307021 312.29616,159.09378 312.053111,158.825509 C311.807769,158.559531 311.511983,158.227059 311.16346,157.830385 C310.984613,157.628608 310.810351,157.40161 310.638383,157.149389 C310.464121,156.899462 310.287567,156.667877 310.106427,156.454636 C309.927579,156.236809 309.73956,156.057962 309.54237,155.913509 C309.345179,155.771348 309.134231,155.700268 308.909526,155.700268 C308.680234,155.700268 308.434892,155.791984 308.164328,155.980003 Z M294.292198,156.883411 C294.062907,157.085188 293.760242,157.266328 293.377326,157.41766 C292.994409,157.575871 292.595442,157.697396 292.178132,157.789112 C291.758528,157.878536 291.343511,157.92898 290.930786,157.940445 C290.518062,157.949616 290.17871,157.910637 289.903561,157.814334 C289.699491,157.743254 289.655926,157.635487 289.775158,157.493326 C289.954005,157.206712 290.206225,156.926977 290.527233,156.649534 C290.852827,156.376677 291.20135,156.122164 291.584267,155.885994 C291.967183,155.654409 292.356979,155.45034 292.760532,155.2692 C293.159499,155.092645 293.521779,154.955071 293.842787,154.858768 L294.292198,156.883411 L294.292198,156.883411 Z M295.482221,161.496754 C295.79635,162.12272 296.190731,162.636333 296.6539,163.037593 C297.119361,163.434267 297.669661,163.732346 298.304798,163.922657 C298.935349,164.115262 299.664496,164.209272 300.489945,164.209272 L301.294758,164.209272 C301.32533,164.209272 301.205334,162.770086 300.93477,159.891715 L300.489945,159.891715 C299.616345,159.891715 298.905541,159.827513 298.355242,159.696817 C297.807236,159.563828 297.360117,159.336829 297.011594,159.015821 C296.665364,158.69252 296.399386,158.266038 296.209074,157.734082 C296.018763,157.204419 295.842208,156.537181 295.68629,155.736954 L294.416016,148.624335 C294.393087,148.54179 294.342642,148.498225 294.271562,148.489053 C294.202775,148.482174 294.13628,148.530325 294.074371,148.624335 C293.574516,149.747863 293.281023,150.513696 293.196185,150.917249 L293.521779,152.458087 C292.613785,152.829539 291.774579,153.304172 291.011038,153.879694 C290.247498,154.459801 289.639876,155.074302 289.183586,155.718611 C289.043718,155.911216 288.878628,156.184072 288.692902,156.54406 C288.507176,156.901755 288.326036,157.296136 288.154067,157.724911 C287.984392,158.155979 287.826181,158.60539 287.690899,159.07773 C287.553324,159.55007 287.459314,159.994896 287.413456,160.412206 C287.385941,160.69882 287.4639,160.93499 287.64504,161.120716 C287.823888,161.306443 288.062351,161.448603 288.362723,161.549491 C288.660801,161.652673 288.99786,161.714581 289.380776,161.73751 C289.763693,161.760439 290.139731,161.760439 290.511183,161.73751 C290.880342,161.714581 291.228865,161.66643 291.549873,161.59535 C291.870881,161.521976 292.12998,161.439432 292.320292,161.343129 C292.47621,161.260584 292.650472,161.143646 292.849955,161.001485 C293.047146,160.857031 293.251215,160.69882 293.466749,160.519973 C293.67999,160.341126 293.897817,160.141642 294.111058,159.928401 C294.326592,159.710574 294.523783,159.488162 294.70263,159.247406 C294.906699,160.121006 295.165799,160.868496 295.482221,161.496754 Z M293.948261,140.200168 C294.030806,140.285006 294.090422,140.385895 294.115644,140.505126 C294.147745,140.624358 294.163795,140.750468 294.163795,140.881164 C294.163795,141.01186 294.152331,141.140263 294.124816,141.266374 C294.101886,141.392484 294.08125,141.495665 294.056028,141.580503 C293.721263,141.4842 293.411719,141.344333 293.125105,141.158607 C292.838491,140.972881 292.629836,140.755054 292.494554,140.505126 C292.533533,140.408824 292.611492,140.3194 292.730724,140.236855 C292.849955,140.152017 292.982944,140.092402 293.134277,140.058008 C293.283316,140.021321 293.430063,140.01215 293.581395,140.030493 C293.728141,140.048836 293.851959,140.103866 293.948261,140.200168 L293.948261,140.200168 Z M293.141155,143.155735 C292.414302,143.83673 291.719549,144.382444 291.061482,144.795168 C290.408002,145.207893 289.724713,145.597688 289.023082,145.96914 L288.752518,146.102129 C288.644751,146.157159 288.539277,146.216775 288.43151,146.280977 C288.323743,146.347471 288.234319,146.416259 288.163239,146.487339 C288.089866,146.558419 288.062351,146.631792 288.071522,146.702873 C288.082987,146.773953 288.154067,146.82669 288.277885,146.854205 C288.403995,146.886306 288.55762,146.89777 288.743346,146.890892 C288.931365,146.886306 289.126263,146.861084 289.332625,146.819811 C289.543573,146.778539 289.738471,146.721216 289.915025,146.650136 C290.774868,146.338299 291.591146,145.948504 292.354686,145.476164 C293.118226,145.003823 293.806101,144.409959 294.41143,143.692277 C294.52149,143.740428 294.649893,143.825266 294.798932,143.944497 C294.950265,144.063729 295.046567,144.160031 295.094718,144.231111 C295.177263,144.327414 295.255222,144.38703 295.328595,144.409959 C295.399676,144.435181 295.489099,144.380151 295.596866,144.249455 C295.693169,144.093537 295.782592,143.887174 295.865137,143.630368 C295.947682,143.373562 295.954561,143.14427 295.883481,142.940201 C295.800936,142.690273 295.61521,142.470153 295.328595,142.277549 C295.255222,142.243155 295.232293,142.195004 295.255222,142.135388 C295.317131,141.945076 295.372161,141.640119 295.427191,141.220515 C295.479928,140.803205 295.489099,140.37443 295.45012,139.931898 C295.418019,139.489365 295.317131,139.092691 295.147455,138.739582 C294.97778,138.388766 294.698044,138.189283 294.303663,138.141132 C293.984948,138.104445 293.66394,138.14801 293.345225,138.274121 C293.033388,138.400231 292.730724,138.576785 292.44411,138.803784 C292.157495,139.030782 291.902982,139.287589 291.682862,139.574203 C291.460449,139.860817 291.290774,140.152017 291.171542,140.450096 C291.038553,140.869699 291.038553,141.238859 291.171542,141.562159 C291.338925,141.968005 291.607196,142.291306 291.978648,142.529769 C292.347807,142.768232 292.737603,142.976887 293.141155,143.155735 L293.141155,143.155735 Z M275.375657,141.030203 C275.290819,141.030203 275.189931,141.124213 275.068407,141.307646 C274.949175,141.493372 274.827651,141.727249 274.703833,142.006985 C274.57543,142.284427 274.453906,142.598557 274.334674,142.937908 C274.217736,143.274966 274.107676,143.605146 274.011373,143.912396 C273.915071,144.226526 273.843991,144.499382 273.788961,144.737845 C273.733931,144.978601 273.713295,145.139105 273.724759,145.22165 C273.821061,145.854495 273.935707,146.652429 274.066403,147.61316 C274.197099,148.576184 274.336967,149.607995 274.486007,150.71318 C274.637339,151.818364 274.784085,152.946478 274.935418,154.097521 C275.08675,155.250856 275.219739,156.333112 275.336678,157.348873 C275.492596,158.460936 275.61412,159.561535 275.705837,160.655255 C275.795261,161.746682 275.893856,162.856452 275.99933,163.975394 C276.024552,164.193221 276.100218,164.29411 276.2355,164.282645 C276.366196,164.268887 276.490013,164.154242 276.611538,163.941001 C276.870637,163.464075 277.072414,162.955048 277.209988,162.409334 C277.34527,161.863621 277.441573,161.311028 277.496603,160.744679 C277.54934,160.178329 277.569976,159.609686 277.54934,159.03875 C277.530996,158.472401 277.498896,157.935859 277.450744,157.41766 C277.297119,155.583329 277.09305,153.77422 276.833951,151.992626 C276.574851,150.211031 276.324924,148.411094 276.072703,146.581348 C275.990158,145.939332 275.912199,145.301902 275.85029,144.673644 C275.783796,144.045385 275.719594,143.442349 275.662271,142.855363 L275.662271,142.424295 C275.662271,142.224812 275.655393,142.018449 275.641635,141.807501 C275.630171,141.601139 275.604949,141.415413 275.563676,141.264081 C275.517818,141.108162 275.458202,141.030203 275.375657,141.030203 L275.375657,141.030203 Z M258.284276,142.192711 C258.525032,142.635243 258.829989,142.933322 259.199148,143.082361 C259.570601,143.229108 259.942053,143.252037 260.318091,143.151149 C260.691836,143.050261 261.038066,142.83702 261.345316,142.509133 C261.657152,142.178953 261.874979,141.757057 261.994211,141.243444 C262.065291,140.968295 262.108856,140.670216 262.134078,140.346915 C262.161593,140.025907 262.161593,139.720949 262.134078,139.434335 C262.108856,139.147721 262.065291,138.897793 261.994211,138.684552 C261.918545,138.466725 261.829121,138.336029 261.723647,138.287878 C261.700718,138.276414 261.63193,138.331444 261.528749,138.457554 C261.420982,138.585957 261.306336,138.732703 261.184812,138.897793 C261.065581,139.067469 260.960106,139.22568 260.870683,139.379305 C260.781259,139.535223 260.746865,139.631526 260.75833,139.66592 C260.767502,139.691142 260.792724,139.757636 260.838582,139.86311 C260.877562,139.97317 260.918834,140.090109 260.955521,140.223098 C260.987621,140.356087 261.019722,140.475318 261.044944,140.592257 C261.065581,140.70461 261.058702,140.787154 261.026601,140.833013 C260.822532,140.998103 260.584069,141.117334 260.318091,141.181536 C260.052112,141.245737 259.813649,141.264081 259.611873,141.225101 C259.288572,141.142556 259.079917,141.009567 258.983615,140.833013 C258.887312,140.651873 258.841454,140.404238 258.841454,140.078644 C258.841454,140.055715 258.843747,140.005271 258.850626,139.929605 C258.855211,139.849353 258.855211,139.771394 258.850626,139.693434 C258.843747,139.615475 258.832282,139.546688 258.813939,139.477901 C258.795596,139.413699 258.761202,139.379305 258.715344,139.379305 C258.596112,139.370134 258.49981,139.397649 258.428729,139.46185 C258.357649,139.526052 258.29574,139.604011 258.249882,139.693434 C258.201731,139.785151 258.16963,139.874575 258.151287,139.961705 C258.132943,140.051129 258.116893,140.117624 258.105428,140.149724 C258.048106,140.356087 257.990783,140.553277 257.935753,140.750468 C257.883016,140.947658 257.78442,141.135677 257.639967,141.316818 C257.509271,141.447514 257.364817,141.573624 257.199727,141.699734 C257.041516,141.825845 256.871841,141.933612 256.692993,142.013864 C256.514146,142.096408 256.32842,142.139974 256.142694,142.139974 C255.956968,142.139974 255.778121,142.080358 255.599273,141.958834 C255.502971,141.890046 255.438769,141.789158 255.402083,141.656169 C255.367689,141.52318 255.351639,141.378726 255.358517,141.218222 C255.365396,141.055425 255.381447,140.894921 255.418133,140.734417 C255.457113,140.571621 255.50985,140.431753 255.58093,140.312521 C255.688697,140.085523 255.677232,139.984635 255.546536,140.007564 C255.413547,140.055715 255.275972,140.165775 255.140691,140.330865 C255.003116,140.50054 254.883884,140.697731 254.776117,140.931608 C254.666057,141.165485 254.58122,141.410827 254.512432,141.665341 C254.450523,141.922147 254.425301,142.165196 254.452816,142.389901 C254.510139,142.903514 254.688986,143.288724 254.982479,143.54553 C255.27368,143.802336 255.63596,143.93074 256.064735,143.93074 C256.337592,143.93074 256.585226,143.884881 256.80076,143.786286 C257.014001,143.69457 257.211192,143.566166 257.387746,143.412541 C257.571179,143.256623 257.729391,143.07319 257.873844,142.864535 C258.016005,142.655879 258.15358,142.431174 258.284276,142.192711 L258.284276,142.192711 Z M249.777565,154.624891 C249.786736,154.99405 249.807372,155.37926 249.828009,155.782813 C249.855524,156.18178 249.87616,156.56011 249.903675,156.917805 C249.628525,157.124167 249.25478,157.29155 248.780147,157.429125 C248.307807,157.5667 247.819416,157.658416 247.30351,157.706567 C246.803655,157.766183 246.338193,157.795991 245.909418,157.795991 C245.478351,157.795991 245.138999,157.743254 244.886779,157.633194 C244.707932,157.562114 244.675831,157.452054 244.797355,157.293843 C245.049576,156.984299 245.398099,156.665584 245.854389,156.335405 C246.306093,156.007518 246.79219,155.732368 247.30351,155.503077 C247.7598,155.312765 248.202333,155.140797 248.631107,154.991757 C249.062175,154.842718 249.445092,154.721193 249.777565,154.624891 L249.777565,154.624891 Z M249.706484,151.811485 C248.631107,152.123322 247.665791,152.572733 246.812827,153.164305 C245.95757,153.755876 245.173393,154.448337 244.458004,155.232513 C244.336479,155.35633 244.192026,155.535178 244.026936,155.782813 C243.85726,156.028154 243.682999,156.310183 243.499566,156.631191 C243.31384,156.952199 243.134992,157.296136 242.958438,157.660709 C242.788762,158.027575 242.628258,158.38527 242.483805,158.74755 C242.341644,159.102952 242.226998,159.442303 242.137575,159.765604 C242.045858,160.088905 242,160.370934 242,160.609397 C242,160.834102 242.116939,161.031293 242.341644,161.198676 C242.568643,161.368351 242.859843,161.503633 243.222123,161.613693 C243.577525,161.719167 243.981078,161.797126 244.421317,161.842984 C244.861557,161.891136 245.304089,161.907186 245.746622,161.888843 C246.189154,161.870499 246.599586,161.824641 246.982502,161.744389 C247.365419,161.668723 247.674962,161.55637 247.915718,161.414209 C248.094566,161.331665 248.268827,161.205554 248.443089,161.040464 C248.615057,160.870789 248.787026,160.680477 248.96358,160.467236 C249.135549,160.249409 249.30981,160.022411 249.49095,159.783948 C249.669798,159.545485 249.848645,159.307021 250.025199,159.066265 C250.121502,159.703696 250.279713,160.375519 250.495247,161.08403 C250.708488,161.79254 251.006566,162.446021 251.389483,163.046764 C251.7724,163.640629 252.249326,164.135898 252.822554,164.532573 C253.395783,164.924661 254.092829,165.121852 254.918278,165.121852 C255.587809,165.121852 256.197724,164.965933 256.754902,164.65639 C257.309787,164.344554 257.800471,163.929536 258.222367,163.411338 C258.646556,162.890846 259.001958,162.30386 259.2794,161.645794 C259.559136,160.992313 259.767791,160.309025 259.898487,159.607393 C260.123193,160.29756 260.437322,160.955627 260.838582,161.574713 C261.239842,162.196093 261.698425,162.737221 262.21433,163.195804 C262.737115,163.656679 263.303465,164.009788 263.920259,164.252837 C264.532467,164.498179 265.167604,164.589895 265.827963,164.532573 C266.314061,164.495886 266.770351,164.349139 267.185368,164.094626 C267.607264,163.835527 267.985595,163.500761 268.322654,163.09033 C268.666591,162.677605 268.960084,162.209851 269.20084,161.691652 C269.448474,161.171161 269.645665,160.634619 269.794704,160.082026 C269.941451,159.524848 270.033167,158.96767 270.060682,158.415078 C270.092783,157.8579 270.058389,157.341994 269.962087,156.862775 L268.98072,152.35032 C268.737671,151.13049 268.506087,149.899195 268.272209,148.649557 C268.036039,147.402212 267.838849,146.164038 267.669173,144.932743 C267.657708,144.886885 267.639365,144.829562 267.609557,144.763067 C267.577456,144.701159 267.504083,144.664472 267.382559,144.664472 C267.35963,144.664472 267.302307,144.740138 267.215176,144.891471 C267.125752,145.04051 267.024864,145.226236 266.907926,145.444063 C266.79328,145.666476 266.678634,145.909525 266.552524,146.180088 C266.424121,146.446066 266.309475,146.709752 266.204001,146.957386 C266.096234,147.209607 266.013689,147.429727 265.949487,147.622331 C265.892165,147.812643 265.866943,147.936461 265.8807,147.998369 C265.960952,148.605991 266.041204,149.156291 266.119163,149.644682 C266.201708,150.135365 266.28196,150.614584 266.364505,151.086924 C266.444757,151.559265 266.543352,152.052241 266.651119,152.563561 C266.758886,153.079467 266.882704,153.66416 267.027157,154.319933 L268.029161,158.513673 C268.091069,158.800287 268.022282,159.031872 267.825091,159.201547 C267.627901,159.375809 267.37568,159.515677 267.077601,159.614272 C266.784108,159.71516 266.474565,159.777069 266.15585,159.802291 C265.839428,159.82522 265.594086,159.82522 265.415238,159.802291 C264.949777,159.777069 264.507245,159.685352 264.099106,159.524848 C263.686381,159.364344 263.310343,159.155689 262.966406,158.905761 C262.629348,158.655834 262.322097,158.36922 262.056119,158.045919 C261.787848,157.722618 261.56085,157.383267 261.384296,157.027865 C261.274236,156.810038 261.15959,156.486737 261.044944,156.057962 C260.925713,155.626894 260.817946,155.108696 260.721643,154.501074 C260.625341,153.891158 260.531332,153.260607 260.435029,152.609419 C260.34102,151.958232 260.244717,151.2566 260.148415,150.504524 L259.5385,145.955383 C259.515571,145.822394 259.467419,145.774243 259.396339,145.80405 C259.325259,145.831565 259.245007,145.918696 259.162462,146.060857 C259.102846,146.168624 259.001958,146.342885 258.850626,146.581348 C258.699293,146.822104 258.552547,147.065153 258.401214,147.315081 C258.252175,147.569594 258.121479,147.805764 258.006833,148.023591 C257.89448,148.246004 257.837157,148.397336 257.837157,148.482174 C257.956389,149.342017 258.073328,150.20186 258.187973,151.061702 C258.300326,151.921545 258.403507,152.730944 258.49981,153.489898 C258.596112,154.24656 258.68095,154.936727 258.761202,155.555814 C258.839161,156.177194 258.903363,156.679342 258.949221,157.059966 C258.958392,157.504791 258.852918,157.915223 258.62592,158.295846 C258.398921,158.678763 258.107721,159.015821 257.759198,159.309314 C257.40609,159.6051 257.02088,159.836685 256.60357,160.015532 C256.181674,160.196672 255.796464,160.302146 255.438769,160.338833 C254.638542,160.398449 253.996526,160.28151 253.5196,159.981138 C253.042674,159.683059 252.673515,159.281799 252.407537,158.779651 C252.148438,158.279796 251.965005,157.70886 251.864116,157.07143 C251.763228,156.431707 251.687562,155.79657 251.641704,155.163726 C251.554573,153.980582 251.485786,152.797438 251.42617,151.614295 C251.361968,150.435737 251.329867,149.231957 251.31611,148.01442 C251.31611,147.957097 251.270252,147.92041 251.180828,147.908946 C251.093697,147.897481 251.022617,147.931875 250.974466,148.01442 C250.940072,148.062571 250.852941,148.190974 250.708488,148.390458 C250.566327,148.594527 250.410409,148.821525 250.252198,149.071453 C250.091694,149.321381 249.94724,149.573601 249.823423,149.81665 C249.69502,150.059699 249.635404,150.245425 249.635404,150.362364 L249.706484,151.811485 L249.706484,151.811485 Z M261.801606,136.389345 C261.909373,136.366416 261.991918,136.299922 262.049241,136.192155 L262.81966,134.185855 C262.858639,134.091845 262.858639,134.034523 262.81966,134.016179 C262.785266,133.997836 262.723357,133.995543 262.640812,134.007008 L254.973308,136.980917 C254.796753,137.07722 254.663764,137.196451 254.58122,137.338612 L253.774114,139.363255 C253.73972,139.434335 253.742013,139.491658 253.785578,139.53293 C253.824558,139.576496 253.900224,139.578789 254.007991,139.542102 L261.801606,136.389345 L261.801606,136.389345 Z" id="Fill-1" fill="#666666"></path>
                </g>
            </g>
        </g>
    </g>
</svg>