<?xml version="1.0" encoding="UTF-8"?>
<svg width="600px" height="117px" viewBox="0 0 600 117" version="1.1" xmlns="http://www.w3.org/2000/svg" xmlns:xlink="http://www.w3.org/1999/xlink">
    <title>Fill 1</title>
    <g id="iIBN-Mahmoud" stroke="none" stroke-width="1" fill="none" fill-rule="evenodd">
        <g id="homepage-1-copy-3" transform="translate(-536.000000, -247.000000)" fill="#8F1010">
            <g id="SLIDE-2-Copy-2" transform="translate(-40.000000, -44.000000)">
                <path d="M645.282596,359.319491 L645.893845,360.606785 M998.958126,402.236508 C1001.88046,403.927702 1005.06845,405.083243 1008.04262,406.701001 C1009.13121,404.523832 1010.24787,402.258107 1010.4401,399.797992 C1008.01023,397.713698 1004.88918,396.754707 1002.02733,395.439334 C1000.88907,397.646741 999.919277,399.940545 998.958126,402.236508 M1019.57644,397.638102 C1019.8745,397.603544 1020.47279,397.521468 1020.77518,397.47611 C1021.04732,397.346517 1021.32379,397.223403 1021.60025,397.108929 C1022.6046,396.681271 1023.72559,397.428592 1023.75798,398.519337 C1023.82494,401.193281 1021.19203,403.57132 1019.98682,405.895362 L1020.00194,405.893202 C1021.02356,405.802487 1021.93936,405.217156 1022.46421,404.329441 C1024.12949,401.502145 1025.98915,398.558215 1025.51613,395.173667 C1025.23751,394.625055 1024.78177,394.236275 1024.2958,393.879893 C1023.56575,393.34856 1022.55061,393.441435 1021.91344,394.076443 C1020.89397,395.085112 1020.11209,396.29033 1019.57644,397.638102 M979.387361,398.048481 C980.011569,397.452351 980.627138,396.845422 981.240547,396.236333 C981.828037,395.661802 982.799987,395.71364 983.296762,396.370246 C983.834575,397.08301 984.242794,397.858411 984.018166,398.826041 C983.359399,402.273226 980.296675,404.456875 978.536364,407.329529 C983.391797,406.024955 985.90375,400.42652 985.780636,395.737399 C985.88863,393.599107 983.514911,391.460816 981.491094,392.75243 C979.590391,393.823736 979.372242,396.09594 979.387361,398.048481 M876.621948,393.115292 C875.61544,394.106681 875.280657,395.530049 874.779562,396.804384 C875.891906,396.065702 876.950252,395.277342 878.038836,394.501941 C878.522652,395.858352 879.514041,397.266601 878.911432,398.772044 C878.060435,401.037769 876.436198,402.914713 875.466407,405.128601 C879.1555,402.147952 882.470931,397.09381 880.349919,392.259975 C879.090703,392.391729 877.531262,391.996469 876.621948,393.115292 M741.304832,400.411401 C740.903092,401.314235 740.499193,402.214909 740.112572,403.130702 C747.408681,400.374683 754.242573,396.545197 761.545162,393.808617 C763.400508,393.33992 764.288222,391.594729 765.076582,390.030969 C756.834442,392.683314 749.136593,396.761186 741.304832,400.411401 M934.316934,398.830361 C933.919514,400.499956 934.612839,402.713844 935.498394,403.921222 C936.396908,405.027086 937.267344,405.394267 938.438004,404.694463 C940.271751,403.294854 940.924038,401.119845 941.129227,398.908117 C940.209114,399.726716 939.3106,400.551794 938.420725,401.394151 C937.407736,401.9946 936.375309,400.03126 936.196038,398.826041 C935.509193,394.398267 939.89161,390.78909 938.52008,386.356996 C936.926081,390.434868 935.189529,394.514901 934.316934,398.830361 M1036.56181,386.810573 C1034.93758,388.264179 1034.15354,390.426229 1033.91379,392.56884 C1033.85979,393.085053 1034.13842,393.590468 1034.62439,393.776218 C1035.42571,394.082923 1036.28103,394.255714 1037.12122,394.501941 C1035.60714,396.709349 1033.85979,399.199702 1034.41272,402.009719 C1034.46456,402.277546 1034.65247,402.508654 1034.90086,402.618808 C1037.60072,403.817548 1040.77576,403.044307 1043.30499,401.731094 C1046.40443,400.061499 1049.44772,397.929687 1051.24259,394.821605 C1048.14314,396.074341 1045.37848,397.988004 1042.33088,399.337935 C1040.71096,400.100377 1038.91825,400.061499 1037.15794,399.925425 C1036.40198,399.867108 1035.96568,399.020432 1036.36742,398.374624 C1038.19685,395.417735 1041.51876,393.519191 1042.45399,389.985611 C1040.12131,390.447828 1037.82967,391.17787 1035.42787,391.087155 C1036.02616,389.894896 1037.05427,389.329004 1038.38476,389.365723 C1038.63315,388.471528 1038.89449,387.577334 1039.10184,386.683139 C1038.27677,386.518987 1037.25514,386.08053 1036.56181,386.810573 M887.613629,391.996469 C889.985189,393.441435 892.294111,394.994396 894.389205,396.828143 C895.756415,394.800006 897.905506,392.994338 898.40444,390.575261 C896.83852,388.210181 894.058741,387.002803 891.810296,385.387205 C890.125582,387.398063 888.693574,389.61195 887.613629,391.996469 M749.00268,392.199498 C746.274739,393.495433 742.272462,394.018126 741.864243,397.68346 C746.916226,396.044103 751.572949,393.421996 756.551496,391.58177 C760.003,390.158402 764.301182,389.158373 765.739669,385.238173 C760.01812,387.184234 754.650793,390.061207 749.00268,392.199498 M913.988048,385.925018 C913.869254,387.05032 913.726701,388.169143 913.651105,389.300926 C914.582018,388.614081 915.471892,387.862439 916.402805,387.160475 C917.808893,390.067687 916.163057,393.406877 913.925411,395.374537 C908.322656,398.011763 902.15185,399.264499 896.512377,401.819649 C894.976695,402.296985 895.095489,404.240886 894.47776,405.426666 C906.253481,401.186801 918.042162,396.983655 929.824362,392.743791 C931.686187,392.393889 932.191602,390.417589 932.969162,388.981262 C927.243293,390.566622 921.731254,392.840986 916.126339,394.800006 C917.750576,391.670325 920.335965,386.983364 917.273241,383.912 C916.020504,384.292141 915.029115,385.171216 913.988048,385.925018 M635.504773,382.369838 C635.103034,383.458423 634.699134,384.538368 634.297395,385.626953 C635.601968,385.253292 636.928141,384.924989 638.269433,384.70252 C636.960539,386.26844 634.897844,386.719857 633.273607,387.85164 L632.899946,388.262019 C631.625611,390.516944 631.994952,393.294563 632.189342,395.784916 C632.718515,399.404892 632.755233,403.17606 634.208839,406.597326 C635.303904,401.705175 634.077086,396.793585 633.321124,391.948951 C633.230409,391.370101 633.467997,390.773971 633.949652,390.439188 C636.020987,389.011501 638.658213,388.871108 641.142087,388.804151 C641.643181,387.555735 641.695018,387.428301 642.198273,386.179885 C640.930417,384.855872 639.748957,383.456263 638.578297,382.050175 C638.208956,381.609557 637.593387,381.458365 637.064214,381.687313 C636.54368,381.914102 636.020987,382.14089 635.504773,382.369838 M1099.17487,384.268382 C1096.53764,382.944369 1094.17904,381.16894 1091.74053,379.536063 C1090.47051,381.704592 1089.24801,383.90336 1088.36246,386.259801 C1090.67786,388.100027 1093.21357,389.635709 1095.62617,391.333383 C1097.02146,389.246929 1098.22236,387.041681 1099.3239,384.791075 C1102.06696,386.102129 1104.61995,387.741485 1107.2075,389.331164 C1108.48399,387.227431 1109.68921,385.074021 1110.85987,382.911971 C1108.39544,380.937831 1105.69126,379.268236 1102.77324,378.060858 C1101.61122,380.153791 1100.55288,382.311521 1099.17487,384.268382 M1052.84738,378.80602 C1052.46508,378.788741 1052.10006,378.959372 1051.86031,379.257437 C1050.84733,380.525292 1049.99417,381.920581 1049.79546,383.575057 C1050.69397,382.963808 1051.60113,382.326641 1052.47156,381.665714 C1053.39168,380.873035 1053.66814,381.205658 1054.27723,382.238085 C1055.21894,385.631273 1052.60764,388.462889 1051.63569,391.529933 C1053.34848,389.665947 1054.70705,387.467179 1055.60124,385.09778 C1055.96843,383.51242 1055.84747,381.879543 1055.7438,380.268265 C1055.69196,379.538223 1055.11959,378.950732 1054.38955,378.898895 C1053.87333,378.866497 1053.35928,378.834098 1052.84738,378.80602 M1122.56,378.911854 C1121.60533,379.702374 1121.42606,381.035026 1120.92064,382.093373 C1121.67876,381.730511 1122.43688,381.35901 1123.19501,380.983189 C1123.71554,380.726162 1124.34407,380.95943 1124.57086,381.497243 C1124.96612,382.430315 1125.37002,383.400106 1124.92292,384.365577 C1124.06544,386.318118 1122.79759,388.063309 1121.92499,390.01585 C1124.92724,387.44774 1127.52991,383.657133 1126.8193,379.618138 C1126.67675,378.80386 1125.97262,378.201251 1125.14539,378.173172 C1124.19504,378.140774 1123.23604,378.166692 1122.56,378.911854 M799.559228,375.080209 C798.628316,377.02843 797.621807,378.935613 796.621778,380.840636 C794.267498,379.322233 791.928337,377.758473 789.446623,376.430141 C788.217645,378.635388 787.098822,380.909753 786.180869,383.261873 C788.625864,384.745718 790.936947,386.529787 793.582812,387.65509 C794.738354,386.08269 795.423039,384.240303 796.407949,382.572868 C799.088372,383.063163 801.012834,385.447682 803.328237,386.788974 C804.490258,384.592365 805.699796,382.413036 806.829419,380.194829 C804.542095,378.294126 802.053901,376.678528 799.559228,375.080209 M692.201889,375.289719 C691.880066,375.356675 691.627359,375.607222 691.553922,375.926886 C691.39841,376.64829 691.247218,377.371853 691.104665,378.097576 C691.044188,378.419399 691.340093,378.704505 691.657597,378.626749 C692.653306,378.382681 693.642536,378.132134 694.636085,377.888066 C694.903912,377.82327 695.14582,378.082457 695.057264,378.343803 C694.426576,380.238027 693.549661,382.041535 692.962171,383.948718 C692.543152,385.581595 692.292605,387.899157 694.230026,388.63568 C697.29923,389.910015 700.675138,388.508246 703.163332,386.616182 C705.599688,384.70036 708.163477,382.771578 709.759636,380.050116 C704.990599,382.756459 700.003412,387.808442 694.063715,385.09562 C695.124221,382.162489 696.569187,379.354632 697.219314,376.281108 C697.29707,375.929046 697.119959,375.568344 696.802455,375.399873 L696.778696,375.389074 C695.873703,374.909578 694.828316,374.754066 693.826127,374.954936 C693.283994,375.06509 692.744022,375.177404 692.201889,375.289719 M1156.06637,378.365402 C1155.91086,379.080326 1155.46592,378.728264 1155.30177,378.445318 C1154.72724,377.397771 1154.18511,376.350225 1153.6473,375.304838 L1153.29092,375.153646 C1151.70988,375.708737 1152.84598,377.175303 1152.55007,378.162372 C1152.3384,378.855697 1151.62996,379.276876 1150.93016,379.101925 C1148.76163,378.561952 1146.45486,377.801671 1144.61032,379.471266 C1141.05082,382.592307 1139.77648,387.406702 1136.93407,391.104434 C1134.7137,394.517061 1130.88421,396.229853 1127.94028,398.884358 C1133.60352,397.705058 1137.84986,393.056975 1140.47413,388.130265 C1141.87374,385.655031 1143.08327,382.592307 1145.93001,381.490763 L1146.35983,381.408687 C1148.18925,381.413007 1150.66233,382.998367 1151.81571,382.056654 C1152.54791,381.317972 1153.01013,380.356821 1153.58898,379.492865 C1154.79204,379.955081 1156.10957,381.853625 1157.30183,380.624647 C1158.682,378.456118 1158.61504,375.803772 1158.04915,373.389015 C1156.33636,373.129828 1156.57827,376.652609 1156.06637,378.365402 M1072.9214,375.983043 C1074.58668,375.609382 1076.27355,375.25948 1077.97339,375.052131 C1077.12455,377.561923 1075.3664,379.769331 1074.95386,382.415196 C1074.44197,384.352618 1076.43122,386.119408 1078.31033,385.775985 C1081.42273,385.140978 1084.42714,383.741369 1086.88725,381.713232 C1083.45087,381.803947 1079.97776,383.443304 1076.62993,381.93786 C1077.27142,378.577071 1080.11168,375.64826 1079.211,372.071482 C1076.36859,371.743179 1073.86528,373.270221 1072.9214,375.983043 M777.059653,374.708708 C778.139598,374.417123 779.213063,373.455972 780.405323,373.836113 C782.506896,377.257379 778.139598,380.067396 777.433314,383.287792 C780.293008,381.296373 781.545745,377.795191 782.783362,374.67847 C783.550123,372.926799 782.388102,370.15566 780.210933,370.658914 C778.072641,370.730191 777.886891,373.257262 777.059653,374.708708 M858.625744,379.434548 C858.640863,381.631156 860.561005,382.855814 862.267319,383.823445 C864.256577,382.378478 864.759832,379.918363 863.99955,377.652638 C863.580532,378.384841 862.740335,379.836287 862.321316,380.56633 C861.360165,379.553342 860.033992,378.695865 859.720808,377.244419 C859.988635,374.419283 861.545915,371.931089 862.165804,369.188029 C859.012364,371.445114 858.446473,375.836171 858.625744,379.434548 M869.481352,363.306648 C868.096862,365.198712 867.133551,367.382361 866.442386,369.611367 C868.593637,371.287442 871.023513,372.546658 873.349715,373.948427 C874.483657,371.831735 875.654318,369.717202 876.4038,367.427719 C874.736364,365.341265 872.159615,363.634951 869.481352,363.306648 M586.209601,363.753745 C586.894286,363.211613 587.557372,362.650042 588.246377,362.125188 C588.637317,361.829283 589.209688,361.922159 589.494794,362.323898 C590.369549,363.559355 590.15788,365.336945 589.913812,366.781911 C588.928902,370.291733 586.434229,373.239983 586.075688,376.959314 C588.533643,374.170896 589.779899,370.594117 591.231345,367.241968 C592.414965,364.578823 592.589916,361.086281 590.592018,358.874554 C590.054205,358.280584 589.142732,358.194188 588.505564,358.684483 C586.963402,359.861623 586.239839,361.729928 586.209601,363.753745 M1103.31754,355.585041 C1102.90284,357.598059 1104.60915,359.93074 1106.70856,359.796827 C1108.27233,358.708242 1108.2896,356.615309 1108.79502,354.969472 C1108.13625,355.444648 1106.83816,356.414439 1106.18803,356.896094 C1104.18149,354.02992 1106.22691,350.803044 1106.59193,347.777038 C1105.15992,350.206915 1103.72576,352.762065 1103.31754,355.585041 M615.242844,346.731651 C613.804357,352.762065 610.227579,358.263305 610.069907,364.580983 C610.2103,366.678237 611.19305,370.030386 613.862674,369.529292 L614.206097,369.354341 C615.90161,367.818659 616.743968,365.390942 615.832494,363.200814 C615.478272,364.025892 615.137009,364.853129 614.808706,365.684687 C614.638075,366.114505 614.13482,366.293776 613.720121,366.082107 C612.314033,365.377983 611.301044,363.967575 611.59047,362.300139 C612.389629,356.98681 614.324891,352.345206 615.532269,347.129071 C615.301161,347.079394 615.480432,346.785649 615.242844,346.731651 M713.327775,343.357903 C712.755404,346.658215 714.60859,352.941335 715.571901,356.690905 C716.517932,360.52039 716.109713,364.485948 716.697203,368.352152 C715.066486,372.449463 712.394702,378.354603 716.470415,381.806107 L716.889434,382.035056 C720.090391,382.976768 721.243772,378.490676 720.980265,376.101837 C720.276141,376.946354 719.582817,377.808151 718.904611,378.678586 C718.688622,378.957212 718.308481,379.037128 717.999617,378.875136 C716.787919,378.248768 715.705814,377.244419 715.861326,375.730336 C715.422868,370.609237 719.844163,366.928784 720.600125,362.09279 C719.386266,363.65655 718.379758,365.371503 717.381888,367.086456 C717.479084,365.23759 717.567639,363.397364 717.5482,361.548498 C717.649715,356.271886 714.781381,350.198275 714.59563,344.951902 C714.263007,343.973472 713.768392,343.558773 713.327775,343.357903 M765.553918,347.373139 C764.73316,350.669131 764.599247,354.757803 767.618773,357.019208 C769.927696,355.669277 770.711736,353.073089 770.942844,350.569776 C769.458999,350.714489 769.145815,352.530956 768.206263,353.44027 C764.407016,348.939059 769.06374,343.452938 768.713837,338.459272 C767.245112,341.264969 766.350918,344.327694 765.553918,347.373139 M1052.30093,345.897934 C1052.06118,348.068623 1053.52127,350.811684 1055.95115,350.792347 C1057.87561,350.042763 1057.2838,347.55241 1057.83457,345.96489 C1057.03757,346.515662 1056.25137,347.059955 1055.46733,347.619366 C1054.81288,346.94764 1054.16492,346.278074 1053.52127,345.614988 C1053.53855,342.442109 1055.98138,339.839442 1055.625,336.649284 C1053.89709,339.452822 1052.63572,342.610581 1052.30093,345.897934 M812.643843,335.986198 C808.313263,338.139608 806.481676,343.299586 805.6242,347.761919 C807.032448,347.008117 807.918003,345.703544 808.622127,344.319054 C812.972146,341.740145 818.428029,342.552264 822.92924,344.327694 C819.641887,346.679814 816.214141,348.841864 812.592005,350.632413 C810.72802,351.597884 808.524932,352.116257 807.1966,353.887367 C810.244205,353.911126 813.008864,352.507197 815.937675,351.911068 C818.492825,351.304139 821.436756,350.848402 823.190586,348.671233 C825.717658,345.595549 828.415361,341.904297 827.577323,337.673072 C823.048034,335.137361 817.60943,335.292873 812.643843,335.986198 M1138.01617,341.701267 C1135.78717,340.325417 1133.67911,338.729258 1131.30107,337.610435 C1129.45653,339.390185 1128.4997,341.852459 1127.76965,344.249938 C1130.18225,345.900094 1132.61429,347.524331 1135.25151,348.802986 C1136.68136,346.770529 1137.74835,344.513444 1139.11772,342.43347 C1141.16097,343.936753 1143.21071,345.444357 1145.3706,346.794288 C1146.83932,344.703514 1147.99702,342.42483 1148.98625,340.07703 C1146.62981,338.325359 1144.23882,336.627685 1141.76142,335.063925 C1140.42229,337.223815 1139.17819,339.444182 1138.01617,341.701267 M794.127105,347.446575 C793.550414,349.997405 793.865758,353.312837 796.58506,354.498616 C799.33676,354.261028 799.371318,351.107589 799.587307,349.036254 C798.54408,349.669102 797.619647,351.889469 796.332352,350.597855 C794.626039,349.057853 795.751342,346.36015 795.610949,344.349292 C797.075355,341.193693 799.14021,337.938739 798.582958,334.307963 C797.049436,338.662302 795.086096,342.910806 794.127105,347.446575 M1011.40125,332.841398 C1009.54807,337.798346 1007.35578,342.800651 1007.05123,348.150699 C1006.90868,350.660491 1008.30181,354.312866 1011.39477,353.777213 C1013.51794,352.492078 1013.41643,349.857012 1013.01037,347.73168 C1012.34296,348.790027 1011.66908,349.848373 1011.00599,350.904559 C1009.79429,349.787896 1008.29533,348.498441 1008.55668,346.649575 C1008.48756,341.828701 1012.32785,337.692511 1011.40125,332.841398 M856.470173,339.750886 C857.990736,342.679697 858.973486,345.906573 860.988664,348.558918 C862.677698,350.861361 864.237138,353.321476 864.898065,356.137973 C861.291048,360.228805 857.342769,364.075569 852.716284,366.995741 C842.96654,373.391175 832.504033,378.680746 821.616026,382.838535 C817.443119,384.620444 812.957027,385.715508 809.043306,388.071948 C812.944068,388.04819 816.704436,386.914247 820.512323,386.238202 C825.514628,385.469281 830.575251,384.918509 835.463082,383.583697 C841.20191,381.415167 846.297091,377.920465 851.476507,374.700069 C858.401115,370.125421 865.688585,364.215962 867.416497,355.645518 C868.654114,349.595666 864.980141,344.19162 861.582633,339.580255 C862.275958,339.645052 863.675567,339.772485 864.377531,339.839442 C862.275958,336.74 859.770486,333.936462 857.610595,330.882377 C856.93239,333.720473 854.703383,336.93439 856.470173,339.750886 M697.634013,330.64263 C696.448233,333.906224 695.554039,337.275652 694.890952,340.673159 C694.407137,343.120315 694.966549,346.265115 697.582176,347.230586 C700.83065,347.701442 700.84577,343.185112 701.003442,340.964745 C700.24316,342.090047 699.580074,343.267188 698.893229,344.435688 C698.100549,345.465956 696.640464,344.653837 696.299201,342.537145 C696.30784,340.165585 696.217125,337.729229 697.165317,335.502382 C697.865121,333.966701 697.983915,332.281986 697.634013,330.64263 M1130.40688,334.027178 C1132.29246,335.830686 1134.32492,336.588807 1137.0615,338.3124 C1138.93197,336.889032 1139.73544,334.249646 1140.9601,332.21719 C1138.65334,330.554074 1136.21698,329.085349 1133.9167,327.433033 C1132.52141,329.495728 1131.06565,331.590821 1130.40688,334.027178 M914.420026,333.130823 C915.640364,333.528243 916.856382,333.906224 918.093999,334.279885 C917.303479,332.709645 916.290491,331.260358 915.184627,329.897468 C914.9168,330.970933 914.666253,332.050878 914.420026,333.130823 M909.113176,331.538984 C909.763303,329.137186 910.415589,326.739708 911.162911,324.365989 C916.8931,325.33794 920.050859,331.796011 919.232261,337.180617 C917.47627,336.487292 915.746198,335.727011 914.016126,334.986169 C911.18667,340.122387 907.041841,344.757512 901.680994,347.284583 C905.156257,343.373022 909.238449,339.943117 911.892954,335.36199 C910.99228,334.493714 909.238449,332.735563 909.113176,331.538984 C909.560273,331.098366 910.39615,330.564874 911.227708,330.746304 C911.234188,330.297047 912.273095,332.625409 913.130571,333.18266 C913.121932,332.044398 913.566869,330.778703 912.921062,329.726836 C912.36165,329.815392 911.234188,330.003302 910.679096,330.089698 L911.357302,330.770063 C910.79789,330.964453 909.672587,331.342434 909.113176,331.538984 M880.602626,323.221247 C878.978389,327.119849 880.369358,331.292757 880.855333,335.264795 C878.075554,331.135085 873.865929,327.789415 868.744829,327.379036 C868.662753,328.951436 867.55473,331.128605 869.191926,332.253908 C870.576416,333.543362 872.544076,332.99043 874.215831,332.774441 C876.866016,334.824177 880.846694,336.770238 880.740859,340.675319 C880.375837,346.524302 875.881106,350.824643 872.343206,355.064507 C880.190087,351.405654 883.723667,341.515517 882.220384,333.318734 C881.861842,330.383443 879.796987,326.724589 882.740917,324.510702 C883.835981,325.262343 884.939685,326.031264 886.03475,326.791546 C885.922435,325.12195 886.371692,322.841107 884.45587,322.022508 C883.114578,320.828089 881.423384,322.044107 880.602626,323.221247 M1035.23348,320.739533 C1033.02175,323.936171 1034.66111,328.160916 1034.60063,331.754973 C1031.42775,327.938447 1027.06046,324.972918 1021.99119,324.571179 C1021.9264,326.128459 1021.78168,327.69222 1022.03871,329.243021 C1023.1165,329.84779 1024.3174,330.180413 1025.48806,330.592952 C1025.7386,330.180413 1026.24834,329.368294 1026.50104,328.960075 C1030.23549,330.733345 1033.38029,333.498004 1035.38467,337.141739 C1036.74756,332.485016 1035.1946,327.774296 1035.56178,323.087334 C1037.52296,323.093814 1039.10184,324.14568 1040.45177,325.478332 C1040.7952,324.54742 1041.30925,323.653225 1041.30283,322.631597 C1040.06299,320.694176 1037.18818,318.333416 1035.23348,320.739533 M1103.17066,329.592923 C1103.41257,330.942854 1104.90074,332.713964 1105.88781,332.366222 C1107.9073,331.435309 1108.51207,329.139346 1109.1298,327.199765 C1107.76907,327.908209 1105.18584,330.208492 1104.78842,328.595054 C1104.46444,325.307701 1105.51847,322.132663 1105.79277,318.884188 C1104.51196,322.335692 1102.52054,325.769918 1103.17066,329.592923 M742.138549,327.245122 C741.414986,330.374803 740.16441,333.765831 741.557539,336.910631 C741.708731,337.379327 741.963598,337.774587 742.274622,338.11585 C743.266012,339.200114 745.082479,338.843733 745.66133,337.495961 C746.04579,336.595287 746.382733,335.675174 746.700237,334.748581 C746.520966,334.383559 746.155945,333.638397 745.968034,333.266896 C745.741246,333.845747 745.514457,334.426757 745.287669,335.007768 C745.054401,335.597418 744.326518,335.796128 743.814624,335.422467 C743.09538,334.897613 742.477652,334.269085 742.548928,333.266896 C741.73681,328.251631 745.447501,323.653225 743.972296,318.64444 C742.838354,321.381021 742.877232,324.404867 742.138549,327.245122 M592.864222,327.379036 C592.248654,329.774354 592.557518,332.521734 594.043522,334.444036 C595.015473,335.701092 596.972333,335.627656 597.806051,334.273405 C598.752083,332.733403 599.235898,330.951494 599.138703,329.085349 C598.348183,329.998982 597.637579,330.990372 596.84706,331.912645 C596.497157,332.318704 595.86215,332.348943 595.505768,331.949363 C594.538137,330.869418 593.929048,329.476289 594.0932,327.990285 C594.555416,324.078724 596.806022,320.508425 596.544675,316.47591 C594.68285,319.845339 593.803774,323.674824 592.864222,327.379036 M718.695102,317.177875 C716.779279,320.851848 718.755579,325.083072 718.746939,328.960075 C717.204777,326.886581 715.77277,324.584138 713.494086,323.236366 C711.353635,321.834598 708.813604,321.320544 706.353489,320.81513 C706.210937,322.005229 705.653685,323.296843 706.249815,324.450225 C707.046814,325.709441 708.411865,326.411405 709.573886,327.29048 C709.908669,326.776426 710.586874,325.748319 710.930297,325.234265 C713.597761,326.813144 716.234987,328.765685 717.55252,331.670737 C716.803038,333.348972 715.854846,334.936491 715.139922,336.642804 C716.740401,335.927881 718.442395,335.673014 720.014795,336.584487 C717.137821,338.074812 714.120454,339.951756 713.329935,343.357903 C713.746793,343.887076 714.172292,344.422729 714.59563,344.951902 C715.245757,340.785474 719.982396,340.800593 723.202792,340.383734 C723.308627,339.534897 723.412302,338.683901 723.515976,337.835064 C722.107728,336.104992 720.833393,334.264765 719.476982,332.491496 C719.947838,328.050762 719.425145,323.601388 719.543938,319.152014 C721.375525,319.836699 723.077519,320.81513 724.775192,321.776281 C724.61968,320.486826 725.148853,318.853949 724.001952,317.901438 C722.814012,316.296639 719.924079,314.860312 718.695102,317.177875 M853.19794,315.29877 C852.089916,317.482419 851.009971,319.681187 850.100657,321.962031 C852.686046,323.644586 855.36647,325.188907 857.828744,327.065852 C858.89357,324.74181 860.183025,322.445847 860.615003,319.903656 C858.528549,317.832321 855.880523,316.439192 853.19794,315.29877 M976.130247,316.043932 C974.922868,318.944665 975.415323,322.221218 975.454201,325.294742 C974.277061,323.705063 973.156078,322.028988 971.592318,320.793531 C969.430268,318.920906 966.501457,318.497567 963.842632,317.819362 C963.432253,319.374483 962.589895,321.119674 963.559686,322.653196 C964.715227,324.270954 966.851359,324.635975 968.680786,325.009636 C969.060926,324.54742 969.819048,323.614347 970.199188,323.154291 C972.793216,325.018276 974.028674,328.027003 975.983374,330.43528 C977.665929,326.342288 975.689629,321.78492 977.339785,317.694088 C978.970502,318.488928 980.519143,319.445759 982.069945,320.41771 C982.054825,319.203852 982.087224,317.998633 981.97275,316.791254 C980.573141,315.173497 977.63569,313.773888 976.130247,316.043932 M946.686624,321.098075 C945.509484,320.860487 944.146594,320.955522 943.306396,319.964133 C941.083869,318.147665 940.152957,311.017868 938.565438,313.220956 C937.407736,314.408895 941.388414,319.355044 940.762046,322.841107 C940.533097,323.672664 939.278201,324.517181 937.863473,323.966409 C934.19598,321.962031 936.55242,317.110918 933.809359,314.413215 C933.541533,314.957508 933.01884,316.061211 932.751013,316.611983 C933.928153,319.011621 934.221898,321.679086 934.852586,324.249355 C935.472475,326.471882 937.604286,328.305629 940.183195,326.918979 C941.567685,325.800156 942.021262,323.990168 942.619551,322.394009 C944.070997,323.3638 945.688755,324.057125 947.449066,324.219116 C949.308731,319.43712 945.889625,315.179976 943.759973,311.194979 C942.701627,314.890551 945.040788,318.026711 946.686624,321.098075 M1166.88742,316.043932 C1167.31724,318.346375 1168.80109,320.383152 1168.78597,322.787109 C1168.99332,328.504338 1168.75573,334.234527 1169.09051,339.949596 C1169.61968,346.15928 1170.41668,352.338726 1170.8033,358.55921 C1171.15969,365.287267 1172.5593,372.086602 1171.39511,378.8017 C1170.79682,382.840695 1167.4058,385.655031 1163.92621,387.324626 C1158.2349,389.976972 1152.11593,391.536412 1146.05528,393.108812 C1144.93214,393.415517 1143.88891,393.890692 1142.91912,394.53002 C1146.96676,394.940399 1150.98199,394.024606 1155.03611,393.979248 C1159.55676,393.450075 1165.07528,393.480313 1168.06456,389.41972 C1173.84659,381.704592 1176.52485,371.846854 1175.70194,362.263421 C1174.45136,349.7123 1172.74937,337.174137 1172.50962,324.53878 C1173.66084,325.71592 1174.78614,326.923299 1176,328.048602 C1175.97192,325.806636 1175.85745,323.525792 1174.94597,321.445817 C1173.46645,317.65305 1172.43618,313.704771 1170.84218,309.957362 C1169.50953,311.976859 1167.98897,313.881882 1166.88742,316.043932 M1141.89102,319.927415 C1139.22355,318.035351 1138.50863,314.778237 1136.9859,312.087014 C1136.37682,314.629204 1137.07662,317.199473 1136.94919,319.756783 C1136.80663,321.478216 1134.15645,322.223378 1133.05274,320.933924 C1130.85398,319.136895 1132.40262,315.827943 1130.52567,313.825725 C1129.97274,316.499669 1129.56452,319.443599 1130.81726,321.998749 C1131.56242,323.616507 1133.01603,325.32282 1135.01176,324.921081 C1137.23429,324.92756 1137.55396,322.126183 1138.49351,320.6121 C1139.80456,321.478216 1141.15881,323.400518 1142.91912,322.454486 C1144.12002,321.00088 1143.88891,318.936025 1143.27118,317.290189 C1142.47851,315.173497 1141.97309,312.981208 1141.39856,310.814838 C1139.31211,313.549259 1141.13721,317.035322 1141.89102,319.927415 M1071.92353,310.611809 C1070.6168,312.795458 1069.46126,315.061182 1068.65778,317.482419 C1071.34468,319.100177 1073.92143,320.925284 1076.67529,322.439367 C1077.8006,320.21036 1079.08141,317.974874 1079.42051,315.471561 C1077.21958,313.421826 1074.45061,312.186368 1071.92353,310.611809 M760.270827,319.091537 C760.294586,320.296756 761.076466,321.141273 761.925303,321.920993 C762.672625,322.607838 763.864884,322.456646 764.409176,321.59701 C765.238574,320.275157 765.648953,318.730836 765.754788,317.134677 C765.290411,317.545056 764.832515,317.964075 764.378938,318.385253 C763.635936,319.074258 762.441516,318.83235 762.016018,317.916557 C761.635877,317.093639 761.359411,316.236162 761.499804,315.313889 C761.746032,312.186368 764.100312,309.559942 763.661854,306.335226 C761.672596,310.255427 759.802131,314.592486 760.270827,319.091537 M699.109218,318.996502 C696.724699,314.3225 692.296924,310.292145 686.752486,310.410939 C686.864801,311.745751 686.344267,313.272793 687.104549,314.488811 C687.752516,315.955377 689.547384,316.067691 690.830359,316.68542 C691.19538,316.298799 691.910304,315.523399 692.268846,315.136778 C695.577798,317.214593 697.69233,320.547303 699.161055,324.087363 C701.761563,319.199532 698.908348,313.756609 700.158925,308.698146 C701.949473,309.337473 703.677386,310.151752 705.398818,310.97035 C705.413937,309.838568 705.420417,308.713265 705.420417,307.587962 C703.822098,306.626811 702.150343,305.760695 700.383553,305.127848 C696.865092,308.981092 698.649161,314.411055 699.109218,318.996502 M867.196188,318.026711 C870.347468,319.018101 870.286991,315.017984 870.876641,313.071923 C869.736219,313.436945 868.172458,315.972656 867.418657,313.901321 C865.139972,310.851556 868.91762,307.700277 869.066653,304.48852 C865.952091,307.968103 864.029789,314.017955 867.196188,318.026711 M1080.99939,309.382831 C1084.06212,309.836408 1085.64532,306.961594 1085.94122,304.315729 C1084.88287,305.07601 1083.84829,305.87301 1082.83962,306.670009 C1081.37305,304.710989 1082.70571,302.384787 1083.07073,300.283214 C1081.22618,302.937719 1079.50907,306.140836 1080.99939,309.382831 M1152.97989,305.574945 C1153.61274,308.071778 1154.50693,310.529733 1154.55877,313.13888 C1154.86548,323.108933 1156.05773,333.014189 1156.66034,342.962643 C1157.00377,348.72307 1158.69496,354.364703 1158.42713,360.170488 C1157.08584,360.796856 1155.78127,361.533378 1154.34278,361.8984 C1152.59111,361.980476 1151.09431,360.967487 1149.57374,360.289282 C1149.47655,358.680163 1149.37287,357.068885 1149.24544,355.474887 C1147.61688,356.742742 1146.64493,358.55273 1145.84793,360.401596 C1144.8803,362.926507 1141.57783,364.306677 1139.08748,363.330407 C1136.84551,361.943757 1137.8369,359.036545 1137.56691,356.876655 C1134.407,358.993348 1133.79143,363.485919 1130.19089,365.0432 C1127.25344,366.496806 1123.64858,365.892037 1121.2511,363.710548 C1121.12151,361.682411 1121.02432,359.656434 1120.86016,357.636937 C1118.59444,358.537611 1116.6419,360.006336 1114.80815,361.576576 C1110.90739,364.917926 1105.77765,366.624239 1100.68679,366.712795 C1097.84006,366.60696 1094.71685,365.848839 1092.93063,363.440561 C1090.14221,359.909141 1091.28479,355.140104 1091.43166,351.016873 C1095.46202,349.71446 1099.47509,348.342929 1103.63936,347.515691 C1106.76256,346.606378 1110.11471,346.338551 1113.0284,344.809349 C1114.51225,342.731535 1115.22717,340.219583 1116.08249,337.843703 C1112.66986,337.850183 1109.27235,338.163367 1105.88133,338.431193 C1096.07543,338.953887 1086.26736,338.357757 1076.47442,337.91066 C1080.71429,334.033657 1083.94116,329.154465 1086.0449,323.817377 C1087.13996,320.955522 1088.84627,318.221102 1091.72325,316.87981 C1094.35183,319.555914 1096.38861,323.154291 1095.28491,327.001055 C1095.55273,327.007535 1096.08191,327.022654 1096.34973,327.029133 C1097.03874,324.182398 1097.7731,321.277346 1097.50527,318.318297 C1097.16185,314.495291 1095.58297,310.277026 1091.78156,308.689506 C1086.95205,312.840815 1085.82891,319.443599 1082.22189,324.452385 C1078.63647,329.914747 1072.42895,332.59733 1067.526,336.621206 C1064.90173,338.863172 1064.61231,342.560903 1063.92762,345.712183 C1071.66435,345.57827 1079.39675,345.666825 1087.13132,345.897934 C1086.37104,346.913082 1084.93255,347.001638 1083.90012,347.619366 C1078.39888,350.258752 1073.37066,354.0364 1069.63405,358.887513 C1062.4265,367.838098 1059.89511,380.432417 1063.39629,391.402499 C1065.38555,397.260121 1070.89975,401.083127 1076.62993,402.750562 C1085.39477,405.34459 1094.69742,404.74198 1103.66096,403.77219 C1108.0585,403.720352 1112.25948,402.163072 1116.01553,399.972943 C1122.42609,396.48472 1129.44573,393.884213 1135.19104,389.316045 C1132.0484,389.696186 1129.08287,390.827968 1126.0331,391.58177 C1111.99814,395.493331 1097.28928,398.46534 1082.69707,396.372406 C1076.62993,395.201746 1070.26042,392.56452 1067.0033,386.989843 C1064.10689,381.654915 1064.74622,375.082369 1066.93635,369.611367 C1071.14597,360.624065 1080.31255,355.423049 1089.18754,351.928347 C1087.94344,357.703893 1086.7447,364.103648 1089.68647,369.596248 C1092.34962,373.926828 1098.177,375.140686 1102.83372,373.872831 C1108.59415,372.995915 1112.87505,368.78413 1117.59009,365.766763 C1117.886,367.98065 1118.24454,370.453725 1120.169,371.898691 C1122.01571,373.674121 1124.83868,373.568286 1127.18,373.069352 C1130.67471,371.779897 1132.62725,368.403989 1134.46099,365.377983 C1134.78066,367.911534 1135.72885,370.870583 1138.64902,371.32416 C1142.53034,371.892211 1144.76583,368.008729 1146.56286,365.215991 C1147.86743,367.153412 1149.34264,369.769039 1152.04682,369.635126 C1156.26076,370.110302 1159.00814,365.915795 1160.25224,362.451332 C1163.68863,353.811771 1160.98228,344.519924 1160.32568,335.636296 C1159.80514,328.096119 1158.88935,320.568902 1158.95847,312.989848 C1159.99089,314.166988 1161.0298,315.344128 1162.13135,316.469431 C1162.52661,315.039583 1162.62164,313.5255 1161.96071,312.16261 C1160.20688,307.937865 1158.83751,303.548968 1156.8245,299.434377 C1155.01451,301.043495 1153.6797,303.272502 1152.97989,305.574945 M1139.72896,303.039234 C1132.65964,306.408662 1125.82359,310.270546 1119.25321,314.52553 C1116.64406,316.318238 1113.40206,318.510527 1113.53382,322.089465 C1113.40854,325.165148 1116.27256,326.938418 1118.75859,327.944927 C1119.13009,326.968657 1119.46056,325.983747 1119.74782,324.981558 C1118.25966,323.696423 1116.24664,323.050616 1115.10838,321.3875 C1115.71747,319.495437 1117.53177,318.437091 1119.05882,317.348506 C1128.09148,311.648556 1137.35093,306.095478 1147.50457,302.585657 C1147.95815,301.624506 1148.4182,300.646076 1148.86098,299.669805 C1145.58659,300.065065 1142.65346,301.637465 1139.72896,303.039234 M1109.28747,300.186019 C1105.09945,301.73682 1102.9374,306.311467 1102.07344,310.417418 C1103.56376,309.343953 1104.76466,307.82555 1106.47098,307.065269 C1110.07151,306.618172 1113.5511,307.929225 1116.87517,309.151723 C1112.16445,312.719861 1106.17291,313.629175 1101.15765,316.573105 C1105.33055,316.333358 1109.1838,314.426175 1113.37183,314.270662 C1118.09551,314.158348 1120.40443,309.337473 1121.96387,305.559826 C1122.81271,303.771437 1120.94872,302.168798 1119.41304,301.654744 C1116.19696,300.514322 1112.7001,299.656846 1109.28747,300.186019 M982.540801,303.70232 C981.756761,303.70232 980.536423,304.559796 981.035357,305.417273 C981.981389,306.132196 984.098081,304.145098 982.540801,303.70232 M976.555745,302.870762 C978.199421,302.451744 977.428341,303.384816 978.501806,305.708858 C979.307445,304.736907 980.106604,303.756317 980.910084,302.780047 C981.527812,302.026245 982.456565,301.592107 983.428516,301.598516 L983.562429,301.600747 C984.344309,301.605067 984.959878,302.263833 984.91452,303.043554 C984.851883,304.0911 984.71365,305.130007 983.873453,305.85789 C982.782708,307.197022 981.113113,307.598762 979.512635,308.03722 C978.797711,308.238089 978.043909,307.873068 977.752324,307.190543 C977.549295,306.719687 977.350585,306.25315 977.218831,305.939966 C976.676699,306.829841 976.136726,307.719716 975.601074,308.61175 C975.348367,309.035089 974.823513,309.21436 974.369936,309.01781 C973.685251,308.730544 973.015685,308.4152 972.350439,308.095537 C972.056694,307.955144 971.708952,307.948664 971.421686,308.108496 C969.935682,308.922774 968.691585,310.073996 967.793071,311.521122 C967.142944,311.203618 967.391331,311.324572 966.741204,311.007068 C967.685076,308.469198 969.523143,306.348185 972.13445,305.637582 C972.693862,305.486389 973.298631,305.6743 973.70037,306.093318 C974.151787,306.572814 974.665841,307.117106 974.976865,307.44325 C976.527667,304.69371 976.369995,305.799573 976.555745,302.870762 M884.043331,299.680605 C880.149049,301.857774 878.74512,306.559855 877.231037,310.477895 C877.56798,310.501654 878.231067,310.547012 878.56585,310.568611 C879.468684,309.084766 880.116651,307.155984 881.959037,306.587933 C885.909476,305.054411 890.460364,305.85789 894.024183,308.02642 C890.095343,313.020086 882.993624,313.482303 878.790478,318.041831 C883.194494,317.156276 887.583391,315.918659 891.659104,314.011476 C894.829822,310.814838 897.065309,306.715367 898.456278,302.445264 C895.207803,298.114684 888.745412,298.093085 884.043331,299.680605 M1035.88145,304.233653 C1036.70437,303.406415 1037.49921,302.564058 1038.28972,301.706582 C1039.05433,300.998138 1040.00468,300.538081 1040.68288,301.624506 C1041.74771,304.644032 1040.14723,307.907626 1038.14933,310.112874 C1026.79047,315.061182 1015.04067,319.206011 1004.21098,325.316341 C1003.34054,327.10473 1002.5565,328.944956 1002.2066,330.919096 C1019.50516,322.320573 1037.26378,314.532009 1055.64444,308.549114 C1053.68542,314.592486 1050.59894,320.733054 1051.80632,327.268881 C1052.32469,329.169585 1054.40683,331.448269 1056.46736,330.011942 C1058.55165,328.147957 1058.87996,325.152189 1058.78924,322.514963 C1058.01384,323.55819 1057.33132,324.674853 1056.52568,325.690002 C1054.52994,325.821755 1053.50183,323.789298 1053.49319,322.059226 C1053.16489,316.977005 1056.0397,312.512512 1057.23412,307.721876 C1059.98366,306.870879 1062.74184,305.970205 1065.30995,304.659151 C1067.42232,303.764957 1067.97957,301.356679 1069.07464,299.56829 C1069.10488,299.322063 1069.15671,298.831768 1069.18695,298.58554 C1059.82815,302.579177 1050.04385,305.441032 1040.62241,309.255398 C1041.77579,306.320107 1043.37411,301.900972 1043.03068,300.134182 C1042.6527,298.928963 1041.54252,298.421389 1040.30274,298.309074 C1037.29186,298.144923 1036.57693,302.028405 1035.88145,304.233653 M1008.31909,299.760521 C1006.07496,302.512221 1003.96475,305.879489 1004.21746,309.559942 C1006.34495,308.056659 1007.31258,305.164566 1009.95629,304.389165 C1013.84625,303.389136 1017.80317,304.790905 1021.53762,305.814693 C1018.08395,308.369843 1014.29335,310.417418 1010.43794,312.296523 C1008.66251,313.205837 1006.65381,313.996356 1005.64083,315.845222 C1010.57401,313.568698 1016.43164,313.421826 1020.81621,310.030798 C1023.15537,307.585803 1025.42758,304.605154 1025.79908,301.13853 C1025.85308,298.883605 1023.31737,298.242118 1021.59377,297.734544 C1017.23296,296.518525 1011.59564,295.946155 1008.31909,299.760521 M920.262529,296.758273 C917.970885,300.021867 918.130717,304.054382 918.66637,307.82555 C916.186816,303.583526 912.072225,299.559651 906.795614,299.820997 C906.47595,302.205516 906.624982,305.507988 909.702826,305.730457 C910.104565,305.298479 910.901565,304.441002 911.296825,304.009024 C914.867123,305.657021 916.595035,309.285636 919.033551,312.123732 C920.329485,308.190572 919.152345,304.009024 920.186932,300.036986 C921.716135,300.939821 923.221578,301.877213 924.778859,302.72821 C924.651425,301.587788 924.657905,300.417127 924.331762,299.313423 C923.407329,297.913814 921.692376,297.436479 920.262529,296.758273 M987.450231,300.617997 C986.050622,302.780047 987.309838,305.181845 987.875729,307.378453 C989.722435,316.177845 989.471888,325.262343 991.260277,334.072535 C992.199829,341.405362 993.279774,348.71443 994.061655,356.062377 C995.33383,363.941656 995.415906,373.285341 994.806817,381.251015 C995.180478,381.795308 995.33599,382.899012 995.92348,382.294242 C996.863032,378.650508 998.325278,374.268091 998.638462,370.505562 C999.629851,361.557137 997.435403,352.703747 996.914869,343.796361 C995.564938,332.780921 993.817587,321.819478 992.698764,310.767321 C993.837026,311.907743 994.994727,313.033045 996.223705,314.087072 C996.132989,309.760812 993.76143,306.05876 992.450377,302.062963 C991.804569,300.224897 991.160922,298.352272 990.052899,296.734514 C988.372504,297.080097 988.270989,299.358781 987.450231,300.617997 M806.40608,297.643828 C804.364984,301.691462 805.885547,306.317947 805.81859,310.613968 C804.505377,308.272648 803.46215,305.717498 801.548487,303.786556 C798.915581,301.004617 795.423039,299.239987 791.85274,297.980771 C791.442361,300.028347 791.120538,302.093202 790.982305,304.181816 C792.323596,305.006894 793.699446,305.769335 795.086096,306.520977 C794.02991,309.218679 792.895967,311.937981 790.958546,314.136749 C787.805106,318.095828 783.40109,320.724414 779.891269,324.303352 C783.910824,322.454486 788.662583,321.296785 791.448841,317.577454 C794.140064,313.875403 795.386321,309.40659 796.736252,305.097609 C798.969578,306.408662 801.071151,308.063138 802.503159,310.261906 C804.088518,312.495233 804.559374,315.320369 806.274327,317.488899 C807.436348,312.454195 806.591831,307.289898 806.740863,302.181757 C807.235478,301.812416 808.226867,301.065094 808.717163,300.691433 C810.14269,301.572668 811.475342,302.577017 812.816634,303.568407 C813.08446,301.633145 813.987294,299.136312 812.041233,297.743183 C810.684822,296.051989 807.635058,295.632971 806.40608,297.643828 M930.882708,308.832059 C920.865138,312.572989 910.724454,316.037453 900.955271,320.41339 C898.331004,321.59053 895.505868,322.335692 893.075991,323.899453 C891.058654,325.188907 890.572679,327.68574 889.708723,329.741955 C893.89675,328.372585 897.724075,326.150058 901.75875,324.415666 C923.236697,315.732908 944.80752,307.117106 967.190461,301.015417 C969.849286,300.179539 970.879554,297.274487 972.343959,295.179394 C958.449386,299.494854 944.483537,303.615924 930.882708,308.832059 M865.749061,297.376002 C853.169861,302.31783 840.402751,306.806082 828.048179,312.309482 C830.856036,308.762943 833.210317,304.343807 832.495393,299.671965 C832.437076,297.458078 829.471547,297.086577 828.108656,298.347952 C826.473619,299.741082 825.968205,301.965768 825.521108,303.963667 C826.767364,303.008995 827.808431,301.801617 829.082767,300.879344 C830.698364,300.201138 830.959711,302.214156 831.035307,303.384816 C831.013708,306.773684 828.693986,309.486506 826.832161,312.102133 C826.080519,313.264154 824.717629,313.704771 823.51673,314.240424 C812.30906,319.009461 801.202905,324.100322 790.636722,330.189053 C787.982217,331.469868 787.947659,334.796098 787.090183,337.245414 C794.41437,332.683726 802.218053,328.973035 809.93966,325.13491 C819.060876,320.791371 828.285767,316.646542 837.750406,313.115121 C836.663981,318.115267 833.486783,322.787109 834.31618,328.07884 C834.225465,329.942825 836.141288,330.731185 837.361625,331.716095 C837.890799,331.366193 838.964264,330.651269 839.499917,330.299207 C839.985892,328.495699 840.366033,326.670592 840.588501,324.821726 C839.82174,325.955668 839.165134,327.163047 838.344375,328.258111 C836.555986,328.741926 835.825944,326.363887 835.679071,325.026915 C835.663952,320.657458 838.303338,316.849571 838.84763,312.55571 C848.942956,308.069618 859.502659,304.754187 869.70598,300.520802 C870.593695,298.704334 871.518128,296.898666 872.27409,295.028201 C870.055882,295.676168 867.887353,296.488287 865.749061,297.376002 M778.342628,300.76055 C777.299401,304.30061 776.152499,308.108496 777.068292,311.797588 C777.521869,313.713411 779.267061,314.495291 781.070569,314.583847 C782.62785,312.303003 783.269337,309.635538 783.275817,306.894638 C782.493936,307.922745 781.791972,309.024289 780.897778,309.978961 C779.139627,309.948722 778.305909,307.914106 778.349107,306.402183 C778.461422,302.259513 780.958255,298.680575 781.63646,294.641581 C779.729277,296.155664 779.139627,298.58554 778.342628,300.76055 M716.472575,294.06057 C713.550243,298.525063 710.973494,303.89023 712.105277,309.367712 C712.321266,310.812678 713.826709,312.680983 714.939053,312.195008 C716.995268,310.665806 717.9413,308.272648 717.612997,305.730457 C716.941271,306.587933 716.301943,307.451889 715.666936,308.330965 C715.096725,308.786701 714.753302,309.711134 714.243568,308.354723 C711.971364,303.428014 716.010358,298.890085 716.472575,294.06057 M637.602027,299.3739 C638.71869,300.330732 639.880711,301.229246 641.096729,302.054324 C641.295439,302.190397 641.565425,302.021926 641.530867,301.782178 C641.349436,300.520802 641.101049,299.265906 640.738187,298.041248 C640.653951,297.762622 640.349407,297.60495 640.072941,297.697825 C639.275941,297.965652 638.491901,298.263717 637.720821,298.59202 C637.407636,298.725933 637.34284,299.153591 637.602027,299.3739 M635.95835,303.10835 C635.310383,299.628767 636.934621,293.622113 641.511428,294.66534 C644.157293,296.43861 642.636731,300.389049 642.733926,303.056513 C643.686437,304.412924 643.679957,306.015562 643.463968,307.587962 C642.971513,307.490767 641.980124,307.311496 641.487669,307.220781 C637.822335,315.233973 631.018681,321.216869 624.139431,326.441643 C626.709701,322.327053 630.802692,319.532155 633.880536,315.830103 C636.666794,312.94449 638.828844,309.546983 640.623713,305.976684 C639.081551,305.000414 637.515631,304.063022 635.95835,303.10835 M618.394124,296.535805 C617.858471,299.607168 618.238612,302.72173 618.348766,305.806053 C616.657572,302.929079 614.987977,299.874995 612.141242,297.965652 C610.346373,296.633 608.132486,296.155664 605.994194,295.686968 C606.112988,297.585511 605.419664,300.054266 607.26853,301.33508 C608.728615,302.52734 610.59908,302.348069 612.238437,301.654744 C615.376757,303.950707 617.305539,307.289898 618.482679,310.940112 C621.940663,306.790963 617.238582,300.866384 620.690087,296.870588 C621.778671,296.069268 624.057356,298.324194 625.74855,299.023998 C625.286333,297.168652 624.869474,294.792773 622.901814,293.920178 C621.009751,292.937428 618.767785,294.628622 618.394124,296.535805 M674.965966,304.784425 C660.53574,310.3807 646.446777,316.916528 633.20449,324.9362 C631.489538,326.277492 631.169874,328.616653 630.521907,330.554074 C636.511282,328.057241 641.908848,324.398387 647.712472,321.521414 C661.943988,314.054673 677.05026,308.495116 691.890865,302.378307 C695.465483,300.894463 699.236651,299.881474 702.701115,298.151402 C704.215198,296.639479 704.861005,294.425592 705.796238,292.524889 C695.361809,296.213981 685.158488,300.484084 674.965966,304.784425 M664.85336,293.747386 C663.941887,296.773392 664.687049,300.043466 664.732407,303.162348 C662.086541,299.121193 657.904994,296.302536 653.114358,295.529296 C652.822772,297.242089 652.021453,299.209749 653.332506,300.721672 C654.44053,302.488462 656.99568,301.691462 658.434167,300.788628 C661.425615,302.430145 663.434313,305.209923 665.05207,308.136574 C666.974373,304.209894 665.507807,299.881474 665.881468,295.760404 C668.099675,294.738776 670.186129,296.974262 672.296342,297.535834 C672.000437,296.356534 672.378418,294.775494 671.216397,293.993614 C669.538162,292.278661 666.157934,290.937369 664.85336,293.747386 M644.61087,360.600306 C646.593649,367.853217 648.403637,375.706577 654.297977,380.916232 C655.125215,377.829749 655.961093,374.589914 658.226817,372.203236 C660.462304,369.37162 664.112518,368.507664 667.311315,367.254927 C672.421615,365.190072 677.734945,363.708388 682.974839,362.004234 C670.743381,359.814106 658.254896,360.624065 645.891685,360.604626 M626.113571,348.839704 C628.208664,351.591404 632.359973,350.606494 635.392459,350.982315 C633.148333,348.662593 628.640642,344.915184 626.113571,348.839704 M668.823238,330.957974 C669.955021,332.722604 671.067364,334.57795 672.743439,335.895482 C674.598785,335.467824 676.350456,334.720502 678.123725,334.048776 C676.655,332.78956 675.210034,331.450429 673.473482,330.545435 C671.983158,329.690118 670.328682,330.651269 668.823238,330.957974 M644.61087,360.600306 L645.090366,358.477134 C645.99104,353.939205 646.563411,353.105487 648.829136,350.859201 C654.567964,345.414118 661.13187,340.824352 668.40638,337.673072 C667.363153,335.381429 665.566124,333.087625 666.140655,330.411521 C666.661188,326.975136 668.525174,323.035497 672.235865,322.238497 C675.298589,322.095944 677.698227,324.411347 679.845158,326.296931 C682.035286,328.428742 684.419805,330.366164 686.499779,332.616769 C686.141238,335.135201 686.119639,338.228164 684.264293,340.139667 C681.268525,341.342725 677.981173,341.634311 674.948687,342.781212 C674.942207,344.014509 674.918448,345.247807 674.875251,346.487584 C674.069612,345.57611 673.31581,344.630078 672.579287,343.668927 C667.01541,345.612828 661.676162,348.230615 656.913604,351.731797 C656.885526,351.980184 656.831528,352.472639 656.80345,352.716707 C664.641691,352.902457 672.475613,353.178923 680.307374,353.489948 C690.262308,353.43163 700.137326,355.222179 710.100899,354.61525 C708.625694,357.403668 708.144038,361.576576 704.593179,362.470771 C697.69233,364.870409 690.41134,366.03243 683.579608,368.656696 C682.192958,371.274483 682.184319,374.382565 681.670265,377.257379 C680.851667,382.92925 681.925132,389.501796 686.514899,393.370159 C691.299055,397.208284 697.789525,396.728788 703.519714,396.184496 C713.513525,394.201717 722.479229,388.799831 730.282912,382.419516 C732.032423,380.812558 734.468779,379.151602 734.231191,376.4431 C733.86617,368.730132 732.704149,361.071162 731.758117,353.412191 C730.542099,339.67529 727.904873,326.098221 727.278505,312.309482 C727.18131,308.881737 726.457747,305.505828 726.131603,302.108321 C726.98044,299.656846 728.449165,297.464557 729.708381,295.198833 C731.250543,298.062847 731.831553,301.287563 732.926618,304.324368 C734.133996,308.076098 735.879188,311.834306 735.326256,315.88842 C734.200953,314.71128 733.187964,313.428305 732.151217,312.175569 C731.734358,314.195066 731.414695,316.275041 731.721399,318.337736 C732.464401,324.054965 733.449311,329.741955 733.86617,335.493743 C734.313267,339.960396 735.267939,344.353612 735.43857,348.848344 C736.213971,357.708213 738.023958,366.61344 736.779862,375.520827 C735.946144,379.5879 734.373744,383.583697 731.632844,386.752256 C727.926472,391.082835 723.090478,394.227635 718.276083,397.182365 C711.137646,401.40063 703.096375,405.193398 694.586408,404.437436 C689.100287,403.979539 683.160589,401.292636 680.940222,395.940428 C679.367822,392.145501 678.510346,388.030911 678.644259,383.92064 C678.6313,379.024169 680.18858,374.337207 680.925103,369.542251 C672.892471,372.687051 663.710779,373.87931 657.19871,380.019878 C659.604827,383.754328 663.747497,385.603194 667.518665,387.622691 C667.497066,390.091446 667.244359,392.55804 666.557514,394.931759 C660.663174,393.316162 654.6414,390.923003 650.662882,386.056771 C645.572021,380.18619 644.723184,372.151398 641.630222,365.280788 C638.841804,370.265814 634.997199,374.559676 630.413912,377.963663 C623.77441,383.153879 616.89516,388.486647 608.700537,390.894925 C605.415344,391.432737 601.523222,391.832317 598.8104,389.484517 C595.285459,386.825692 594.427983,382.093373 594.175276,377.957183 C594.391265,367.01086 598.974551,356.883135 601.888243,346.500543 C596.520916,349.198246 591.72164,353.008292 586.013051,355.036429 C584.008673,355.697355 581.401685,355.675756 580.090632,353.744815 C577.487964,350.48986 577.922102,345.96489 578.667264,342.128925 C579.367069,338.549987 580.209426,335.012087 581.222414,331.508746 C578.643506,330.286248 576.639128,327.998924 576.237388,325.12195 C575.282717,318.160625 577.36917,311.253296 579.613296,304.739067 C581.565837,300.393368 582.563706,295.654569 584.887748,291.481662 C585.337005,300.717352 578.280644,308.434639 578.382159,317.631452 C578.56143,320.059168 579.671613,323.996648 582.907129,323.145651 C584.224662,321.722283 584.695518,319.763263 585.611311,318.095828 C586.915885,322.348652 585.790582,327.199765 583.263511,330.791662 C582.161967,335.247515 580.51397,339.757366 581.161938,344.416249 C581.295851,346.584779 583.704128,348.111821 585.753864,347.595607 C590.106043,346.76405 593.786495,344.176501 597.6311,342.141885 C602.289983,339.666651 606.66376,336.718401 611.337763,334.271245 C614.674793,332.530374 617.992384,330.703107 620.875837,328.249471 C619.64686,326.426524 618.050701,324.815246 615.979366,323.996648 C609.192992,321.158552 602.058875,318.594763 596.45396,313.650774 C593.652582,311.274895 591.52941,308.199211 589.890054,304.931298 C589.598468,302.680692 589.935411,300.404168 590.069324,298.153562 C593.535948,300.581279 597.676457,302.376148 600.285605,305.814693 C598.920554,305.717498 597.572783,305.596544 596.216372,305.492869 C601.96168,310.961711 609.689766,313.300872 616.813084,316.357116 C619.05073,317.378744 621.703075,318.532126 622.426639,321.119674 C623.901843,325.664083 622.910454,331.055169 620.106917,334.897613 C615.614345,339.09428 609.780482,341.418322 604.747938,344.846067 C602.132311,352.524477 599.9789,360.369198 597.983162,368.231198 C597.147284,371.354399 596.821141,374.66335 597.320076,377.859988 C598.61601,382.233765 603.853743,384.31374 608.065529,383.374187 C614.92102,381.883863 620.897436,377.972302 626.599546,374.069381 C631.334025,370.578998 636.282334,367.069177 639.662562,362.179186 C636.928141,357.528942 630.711977,358.669364 626.262603,357.37559 C623.171801,356.680105 622.60375,353.008292 622.59727,350.362427 C622.925573,346.649575 624.117833,342.722895 627.022885,340.204463 C628.364177,338.70118 630.629901,339.204434 632.329735,339.692569 C637.612826,342.051169 640.68419,347.811596 641.46607,353.340915 C641.66694,355.580721 643.247979,357.299994 644.202651,359.243895 M748.363353,362.701879 C747.462678,366.159863 747.251009,370.213977 749.814799,373.032633 C752.052445,373.723798 754.385126,373.747557 756.650851,373.157907 C756.609813,369.298183 756.732927,365.43198 756.298789,361.585216 C755.866811,357.144482 754.918619,352.759905 754.860302,348.282452 C752.34835,352.919737 750.052387,357.701733 748.363353,362.701879 M766.903849,291.645813 C768.573445,290.997846 771.01628,290.364998 772.119984,292.265702 C772.685875,294.298158 771.335944,296.298217 770.076728,297.779901 C768.029152,299.643886 765.882221,301.386918 763.772009,303.175307 C763.975038,298.939762 768.050751,297.131934 770.556224,294.382394 C765.696471,293.911538 761.737392,297.147053 757.154105,298.032608 C755.555787,298.39763 753.938029,298.665456 752.320271,298.939762 C754.212335,304.255252 757.512647,309.190601 757.776154,314.979106 C756.521258,314.009316 755.376516,312.922891 754.233934,311.834306 C754.672392,325.843354 758.402522,339.446342 759.795651,353.340915 C760.01164,359.639155 760.517054,366.114505 758.519156,372.194596 C765.32497,369.933191 770.860768,365.174953 775.614686,359.958818 C777.247563,358.090513 780.042461,356.213569 779.243302,353.358194 C777.50675,344.303935 773.446157,335.943 769.346685,327.767816 C767.497819,324.443745 768.772154,320.547303 769.614512,317.134677 C775.459174,325.618725 780.07054,335.094163 782.120275,345.241327 C783.349253,351.174545 784.699184,357.798928 789.818124,361.69753 C797.062395,367.239808 806.79702,366.743033 815.365304,365.617731 C825.881809,363.729987 836.128328,359.254694 844.078884,352.029862 C842.57128,349.088091 840.232119,346.725172 837.85624,344.474566 C838.26446,342.083568 838.720196,339.692569 839.458879,337.370687 C842.439527,339.86968 845.560568,342.759613 845.964468,346.889323 C846.178297,350.848402 845.903991,355.271857 843.610188,358.634806 C839.473998,363.194334 833.912281,366.177142 828.393762,368.740932 C820.209938,371.944049 811.52718,374.605033 802.630592,373.941947 C796.98032,373.792915 791.345166,371.838214 787.055624,368.136162 C783.878426,365.354224 781.947484,361.475061 780.733626,357.494384 C777.657942,365.663088 771.320825,372.099561 764.182388,376.892357 C772.880265,385.968215 784.537192,391.834477 796.755691,394.434985 C821.037176,399.776393 846.895381,395.791396 869.11633,384.918509 C875.630559,381.661395 882.254942,377.726075 886.518565,371.684862 C886.293936,366.721434 883.172895,362.375736 880.354239,358.455535 C880.451434,356.027818 880.734379,353.604422 881.244113,351.226383 C882.799234,352.574154 884.155645,354.23511 886.03259,355.170342 C888.179521,355.6088 890.265974,354.466218 892.000366,353.321476 C895.242361,350.809524 894.350327,345.822338 897.562083,343.239109 C898.119335,343.506935 899.233838,344.044748 899.79109,344.310414 C901.458525,352.26097 898.559952,360.490151 900.864555,368.38239 C901.834346,371.496952 902.957489,375.168765 906.059091,376.786522 C908.069949,377.22066 909.404761,375.438751 910.327034,373.957066 C912.266615,370.870583 912.826027,367.19445 913.638146,363.710548 C914.696492,356.377721 916.679271,348.947699 921.117845,342.880567 C921.966682,341.904297 923.163261,341.308167 924.204328,340.554365 C924.76158,341.791983 925.590978,342.990722 925.655774,344.40113 C925.670893,351.526607 922.072516,358.194188 922.826318,365.371503 C922.763681,368.494704 925.482983,371.13193 928.459312,371.600626 C932.42271,372.399786 936.761929,371.177288 939.584906,368.241997 C942.096858,365.699806 943.03209,362.107909 943.513746,358.671524 C943.740534,355.591521 942.84634,352.584954 942.351725,349.574067 C941.835511,346.321272 940.176716,343.282307 940.226393,339.951756 C940.703729,336.72488 941.418652,333.513124 942.64763,330.478478 C945.150943,335.5607 945.902584,341.262809 947.133722,346.733811 C948.379978,353.312837 947.872404,360.699661 951.896279,366.40825 C955.047559,370.846825 961.32636,369.909432 965.415032,367.40612 C964.162296,363.053941 962.607175,358.798957 960.74103,354.677887 C958.464505,349.617264 957.252807,344.178661 955.82296,338.841573 C954.930925,335.958119 956.743073,333.19346 957.628628,330.541115 C959.94187,334.264765 962.330709,338.051053 963.790794,342.211001 C962.790765,341.828701 961.795056,341.44856 960.803666,341.0533 C962.576936,349.358078 968.685105,356.502994 968.149453,365.334785 C967.628919,369.17723 966.777922,373.89011 962.935478,375.795133 C958.909443,377.758473 953.907137,377.257379 950.211565,374.775665 C949.71479,379.821168 947.649935,385.216574 949.900541,390.113045 C952.440572,393.517031 957.313284,393.473834 961.017495,392.355011 C966.315706,390.545023 970.603088,386.771695 974.871031,383.294271 C977.786882,380.946471 980.231878,378.088936 982.579679,375.201163 C980.823688,367.40612 979.378722,359.410206 975.86242,352.159455 C974.871031,350.042763 973.471422,348.105341 972.784577,345.861216 C972.292122,342.688337 973.769487,339.67745 974.635603,336.703281 C979.344163,343.962672 982.069945,352.286889 984.417745,360.557108 C985.929668,365.967633 986.48044,371.652464 988.553935,376.907476 C989.510766,379.462626 992.214949,381.320132 994.508752,382.566388 L994.808977,381.253175 C995.171838,381.594438 995.545499,381.94434 995.92348,382.296402 C997.793945,381.974579 999.811282,381.892503 1001.45496,380.806078 C1005.40324,378.428039 1007.14195,373.857711 1010.61721,370.952659 C1011.03623,373.306939 1011.28462,375.693618 1011.69716,378.056538 C1016.64547,381.296373 1022.79035,379.723973 1027.78186,377.458248 C1023.05818,374.544557 1017.76213,371.371678 1015.86791,365.8186 C1012.70151,357.472785 1018.95871,347.478973 1027.65011,346.077205 C1034.8555,344.900064 1042.3784,347.671203 1047.73492,352.515837 C1043.27475,351.980184 1038.77354,351.144307 1034.27881,351.958585 C1028.57886,352.949975 1022.45341,354.325825 1018.14659,358.468494 C1019.79027,364.05181 1024.82281,368.241997 1030.19662,370.118942 C1033.96994,371.624385 1038.11261,370.499082 1041.65699,368.920203 C1047.49302,365.8186 1052.5234,361.397305 1058.38102,358.321622 C1057.03973,362.023673 1056.72007,366.792711 1052.90354,368.902923 C1044.94651,373.587725 1037.41713,378.978811 1029.25706,383.337469 C1024.53338,386.093489 1018.91551,388.83223 1013.36459,386.938006 C1010.25867,386.022213 1009.06857,382.847174 1007.84175,380.199149 C1005.41188,383.039404 1003.55437,386.484429 1000.41605,388.63136 C996.653523,390.769651 991.111245,390.39599 988.316347,386.834331 C986.191015,384.151748 985.199625,380.788799 984.456623,377.501446 C982.048346,382.436795 978.715635,386.905608 974.48657,390.415429 C969.352512,394.808646 963.836152,399.748314 956.79707,400.402761 C953.976254,400.739704 950.615465,400.389802 948.697482,398.050641 C946.852936,395.774117 946.412318,392.737311 946.321603,389.905695 C946.494394,384.285661 947.472824,378.715304 948.971788,373.313419 C947.811927,370.15566 946.446877,367.056217 945.710354,363.747266 C943.837729,368.434227 941.807433,373.373896 937.835395,376.695807 C934.237018,379.860046 928.68178,380.520973 924.457035,378.257408 C921.478547,376.229271 919.310017,372.786406 919.392093,369.105953 C918.882359,362.066871 921.318715,355.349613 922.431058,348.491962 C921.366232,349.535189 920.163174,350.526578 919.530326,351.913228 C916.169537,358.865914 915.813155,366.736554 913.417837,374.002424 C912.37245,376.900997 911.162911,380.052276 908.488967,381.840665 C907.011603,382.53399 904.834433,382.646304 903.700491,381.281254 C900.788959,378.108375 899.832128,373.741077 899.074006,369.632966 C897.501606,363.537756 898.793221,357.153121 897.279138,351.040632 C894.367606,353.351715 895.594423,357.740611 892.847043,360.11649 C891.689342,361.250433 890.231416,361.995595 888.868525,362.844432 C889.648246,366.907185 889.693604,371.304721 887.777781,375.07157 C884.870569,381.35685 879.021586,385.47792 873.397232,389.143254 C861.174414,396.730948 847.081131,400.62739 833.072084,403.318613 C818.488505,405.126441 803.308798,405.037885 789.275991,400.22997 C784.653827,398.780684 779.936626,397.141327 776.150339,394.011646 C770.739814,389.521235 766.828253,383.620415 762.499833,378.166692 C759.100166,379.628938 755.633543,381.324452 751.873174,381.438926 C749.048038,381.475644 746.514487,379.404309 745.808202,376.715246 C743.557597,369.641606 746.158105,362.235343 748.957322,355.718954 C750.277015,352.001783 752.33971,348.649634 754.322489,345.265086 C752.108602,334.921372 751.341841,324.333591 749.778081,313.868923 C749.248907,310.596689 749.750002,307.086868 747.961613,304.121339 C748.639818,302.758448 749.309384,301.380438 749.955192,299.993789 C747.408681,300.103943 744.860011,300.188179 742.30918,300.209778 C744.188285,303.786556 745.26823,308.369843 742.944188,312.013577 C742.622365,309.443308 742.972267,306.574974 741.440905,304.324368 C739.702193,301.693622 737.155683,299.76268 734.924516,297.579032 C735.127546,296.633 735.334895,295.678328 735.550884,294.738776 C741.579138,298.062847 748.778051,297.034739 755.212364,295.64809 C759.242719,294.725817 763.074364,293.166376 766.903849,291.645813" id="Fill-1"></path>
            </g>
        </g>
    </g>
</svg>