<?xml version="1.0" encoding="UTF-8"?>
<svg width="220px" height="56px" viewBox="0 0 220 56" version="1.1" xmlns="http://www.w3.org/2000/svg" xmlns:xlink="http://www.w3.org/1999/xlink">
    <title>Fill 1</title>
    <g id="iIBN-Mahmoud" stroke="none" stroke-width="1" fill="none" fill-rule="evenodd">
        <g id="homepage-1-copy-3" transform="translate(-1304.000000, -21.000000)" fill="#8F1010">
            <g id="HEADER" transform="translate(147.000000, 21.000000)">
                <path d="M1240.48362,53.6851743 C1239.46764,54.0226464 1238.65071,54.7432528 1238.20337,55.7171416 C1240.22463,54.6547823 1242.405,53.9691361 1244.57538,53.2906245 C1245.24034,53.1736152 1245.45295,52.448728 1245.80113,51.969275 C1243.98605,52.4030658 1242.23805,53.0630271 1240.48362,53.6851743 M1240.72549,51.5361977 C1239.97563,51.7844859 1239.62745,52.5379119 1239.28642,53.1843172 C1241.40043,52.2282652 1243.62718,51.5319169 1245.88603,51.0068018 C1246.08509,50.5844265 1246.27701,50.1613379 1246.46537,49.7389626 C1244.52972,50.2647912 1242.59764,50.8227261 1240.72549,51.5361977 M1349.54347,52.0441895 C1350.6094,52.7441052 1351.72527,53.3755276 1352.81188,54.0469045 C1353.66662,53.088712 1354.61483,52.1647662 1355.18346,50.9925323 C1354.6719,49.74253 1353.04162,49.3615361 1351.99139,48.6016888 C1350.98183,49.5969818 1350.14065,50.7578002 1349.54347,52.0441895 M1289.55121,50.5665897 C1290.57433,51.315735 1291.69662,51.9271802 1292.72972,52.6727581 C1293.53309,51.5611692 1294.39211,50.4881079 1295.16195,49.3551149 C1294.12171,48.47041 1292.96802,47.7248322 1291.738,47.1319372 C1290.96388,48.2470934 1290.07561,49.3051719 1289.55121,50.5665897 M1300.43807,50.7934737 C1299.49629,51.0531774 1299.33219,52.082717 1299.07391,52.8746705 C1302.26599,51.3728127 1305.72276,50.3746659 1308.63943,48.3284292 C1309.0404,47.8989192 1309.08249,47.2810528 1309.22447,46.7373874 C1306.42909,48.3676701 1303.4211,49.5684429 1300.43807,50.7934737 M1185.01619,46.2186935 C1185.42501,46.1544811 1186.24551,46.030337 1186.65361,45.9696919 C1185.0376,46.4676951 1183.49222,47.6998607 1183.71625,49.5784315 C1184.08583,51.6674765 1184.79573,53.6923091 1185.04473,55.8127468 C1186.10281,53.4540095 1184.50464,51.0210712 1184.55815,48.6159583 C1185.42145,47.4337357 1187.09454,47.8097353 1188.34097,47.4544264 C1189.02305,47.3659559 1188.99808,46.5276267 1189.25065,46.0481738 C1188.3053,45.4617001 1187.39634,44.4428626 1186.18486,44.6098149 C1185.60267,44.9793933 1185.38221,45.6714608 1185.01619,46.2186935 M1254.52474,45.6464892 C1253.39532,45.3839317 1251.8428,44.0732843 1250.99734,45.4402959 C1250.41871,46.3464049 1249.37134,47.2946088 1249.65459,48.4632753 C1250.74548,48.8221516 1251.83567,49.1774604 1252.91586,49.5641621 C1253.63718,48.6516318 1254.25505,47.6641871 1254.86935,46.6767423 C1255.76761,47.1954362 1256.63091,47.7633596 1257.47281,48.3669567 C1258.30472,47.2667834 1259.30928,46.2650692 1259.86365,44.9822471 C1259.06742,44.0376107 1257.9173,43.5296189 1256.86921,42.9260218 C1255.99949,43.753649 1255.24535,44.6911507 1254.52474,45.6464892 M1369.14682,45.3482581 C1369.56206,45.5366146 1369.98515,45.7142691 1370.41466,45.8847888 C1369.3844,46.6482034 1368.43977,47.5821378 1367.92107,48.7757759 C1367.61285,49.4364507 1367.27824,50.3068861 1367.85044,50.9354546 C1368.65952,51.8094574 1370.01369,51.7488123 1371.08247,51.4862547 C1372.69206,51.1594847 1374.21532,50.0507497 1374.62771,48.3954955 C1373.1922,49.5463253 1371.3807,50.4238954 1369.49927,50.0543171 C1368.82005,49.9123362 1368.32918,49.1596237 1368.83717,48.5624479 C1370.04579,46.83656 1372.05921,45.9240297 1373.91709,45.0642964 C1374.29023,44.7061336 1374.47859,44.204563 1374.75899,43.7821878 C1373.38769,44.2723429 1372.00284,44.8509684 1370.52881,44.3964869 C1370.96546,43.9948024 1371.40924,43.6081007 1371.87085,43.2356685 C1372.06991,43.3912054 1372.4716,43.7001386 1372.66994,43.8528215 C1373.14939,43.2813307 1373.24928,42.581415 1373.14583,41.8600952 C1371.31434,42.1262201 1370.08432,43.8813604 1369.14682,45.3482581 M1157.59891,45.6329333 C1157.46763,47.0249165 1158.39443,48.4711235 1159.86846,48.5560266 C1161.30682,48.33271 1161.34963,46.5276267 1161.33892,45.4017685 C1160.95864,45.9561359 1160.82737,46.7195506 1160.23447,47.1033984 C1159.07651,47.0705787 1158.18823,46.0446064 1158.22747,44.9044787 C1157.96135,43.0152058 1159.01586,41.3706536 1159.78712,39.7467922 C1158.00701,41.0859785 1157.68024,43.5581577 1157.59891,45.6329333 M1213.15124,39.3636579 C1212.92721,39.9529855 1212.74313,40.5537286 1212.64681,41.1822971 C1213.86185,40.8769313 1215.01268,40.3296985 1216.28124,40.2519301 C1215.8717,41.7866076 1214.70375,43.2035623 1215.01268,44.8695186 C1215.70832,45.9268836 1217.21874,45.4196053 1218.11343,44.897344 C1219.98843,43.6723132 1221.79708,42.017059 1222.42565,39.7967352 C1220.39797,41.1994205 1218.84902,43.7329583 1216.12142,43.7472277 C1216.45532,42.0769906 1218.3025,40.2761881 1217.05821,38.6209339 C1215.69119,38.1236442 1214.39125,38.8913397 1213.15124,39.3636579 M1171.70353,39.5306103 C1172.1045,40.3860628 1173.12762,40.0243326 1173.82396,39.8530994 C1174.48821,40.9161722 1175.03829,42.0420305 1175.66044,43.1286478 C1176.45596,42.1197989 1176.37748,40.7984494 1176.58367,39.6048113 C1176.68998,39.1959921 1176.64789,38.5388847 1177.23365,38.5567215 C1177.93713,38.8877723 1178.07197,39.7118321 1178.39874,40.3368332 C1178.5236,40.0635736 1178.77546,39.5127735 1178.90317,39.2359465 C1179.14504,37.8853446 1177.85223,37.1005258 1176.88547,36.4897941 C1176.03287,37.5014969 1175.76675,38.8092904 1175.52203,40.0699948 C1174.7793,38.7201065 1174.00519,37.3381119 1172.70524,36.4434184 C1171.80983,37.1747269 1171.30541,38.404752 1171.70353,39.5306103 M1269.04889,32.1775714 C1268.6579,33.3890463 1268.89549,34.9479819 1270.04346,35.6700152 C1271.581,36.0852557 1273.00937,34.4328553 1272.61196,32.9516882 C1272.24881,33.3105644 1271.91561,33.6915583 1271.58528,34.0789734 C1271.35697,34.1310568 1270.90962,34.2337967 1270.68702,34.2880206 C1270.05345,33.6266324 1269.56401,32.766899 1269.76592,31.8222626 C1270.1355,30.5365866 1271.00166,29.4399807 1271.21142,28.0965136 C1270.27035,29.3179771 1269.50693,30.6999716 1269.04889,32.1775714 M1245.88603,30.0507124 C1245.94311,30.853368 1246.04941,31.9285698 1246.94553,32.2232336 C1248.71423,32.7176695 1250.54643,30.6007991 1249.52687,28.9419775 C1249.01246,29.6347585 1248.69211,30.7349318 1247.64474,30.7285105 C1247.27587,30.4802224 1246.90558,30.1398964 1246.86277,29.6697186 C1246.56811,27.9516788 1247.90729,26.501191 1247.83666,24.7931399 C1246.7215,26.3056997 1245.95738,28.1564452 1245.88603,30.0507124 M1351.58971,28.6116401 C1351.51551,29.6490279 1352.34955,30.6364727 1353.40478,30.6364727 C1354.61911,30.2918659 1354.78606,28.8463723 1354.96657,27.7947151 C1354.6398,28.2356406 1354.38152,28.7179474 1354.01836,29.1267667 C1353.37981,29.4178631 1352.70486,28.803564 1352.46656,28.2456292 C1352.20044,26.8286745 1352.8076,25.4359778 1352.92889,24.0368599 C1351.91362,25.5244483 1351.68959,27.0313004 1351.58971,28.6116401 M1168.90814,24.5555538 C1168.33309,23.1136276 1167.48049,21.820817 1166.36533,20.7406209 C1165.91799,21.7030941 1165.10106,22.8467892 1165.61191,23.9234179 C1166.16271,24.1545827 1166.76987,24.121763 1167.35278,24.171706 C1167.90643,24.9422554 1168.06625,26.1423147 1169.00803,26.537578 C1169.7322,24.9850637 1169.38403,23.1692784 1170.09822,21.6217584 C1171.18198,21.5083164 1171.25261,22.751184 1171.58652,23.4689365 C1171.85264,22.662 1172.22222,21.7423351 1171.7499,20.9396795 C1171.48306,20.3039762 1170.72678,20.2540332 1170.166,20.0442725 C1169.36691,21.4191324 1169.04299,22.9852027 1168.90814,24.5555538 M1189.15433,19.9236958 C1188.93387,20.4031488 1188.71769,20.8897365 1188.51149,21.3756106 C1189.05444,21.9306916 1189.58384,22.5057497 1190.04617,23.1343183 C1189.40262,23.1871152 1188.67131,23.5538396 1188.07057,23.2013846 C1187.74736,22.751184 1187.49908,22.2496134 1187.20727,21.7851434 C1187.04103,22.7048083 1186.7428,23.7921391 1187.33212,24.6340357 C1188.69557,25.4224218 1190.79888,24.5662559 1190.99081,22.9174229 C1191.1756,21.6039216 1190.00265,20.7220706 1189.15433,19.9236958 M1262.42073,19.9629368 C1262.99651,20.4316877 1263.55729,20.9218427 1264.09026,21.4405366 C1263.40461,21.5789501 1262.6519,22.097644 1261.98052,21.6502972 C1261.12792,21.0531215 1262.51134,18.4782023 1262.44356,17.6541425 C1261.70798,18.7907029 1260.49579,21.5539786 1260.46368,22.914569 C1260.52005,23.8699075 1261.54673,24.6190528 1262.46354,24.2323511 C1264.35282,23.7985604 1265.35453,21.8807486 1265.55002,20.0977829 C1265.3581,18.975492 1264.27861,18.3640468 1263.46454,17.7147876 C1263.0386,18.4246919 1262.70826,19.18882 1262.42073,19.9629368 M1283.22485,21.1244686 C1284.56047,21.8736139 1285.93533,22.5699622 1287.16036,23.4960484 C1288.03793,22.3887404 1288.97187,21.2978422 1289.51197,19.9736389 C1288.38183,18.8327977 1286.81504,18.3005478 1285.4623,17.4836228 C1284.49555,18.5417013 1283.69717,19.7667321 1283.22485,21.1244686 M1197.14593,16.8543408 C1197.74667,17.4194103 1198.32601,18.0087379 1198.83685,18.6587106 C1198.21542,19.0817993 1197.45486,20.1684166 1196.64935,19.5077419 C1195.42289,18.7478946 1195.9423,17.1561393 1195.97012,15.9839054 L1195.50494,15.9418106 C1195.30303,17.3123896 1194.72012,18.7835681 1195.29589,20.1363104 C1195.59769,20.9603701 1196.62723,21.6246123 1197.46271,21.0987836 C1198.62067,20.4916193 1199.835,19.4050019 1199.72513,17.9730643 C1199.74225,16.8043978 1198.55289,16.2043681 1197.86011,15.4480882 C1197.61824,15.9132717 1197.38066,16.3820226 1197.14593,16.8543408 M1272.46285,18.2613069 C1273.73354,19.1174729 1275.15406,19.7353393 1276.37267,20.6799758 C1277.22598,19.5897911 1277.92875,18.3925857 1278.48597,17.1283139 C1277.42861,15.9739168 1275.94031,15.3838757 1274.60469,14.6275958 C1273.74496,15.7249152 1272.76108,16.8650429 1272.46285,18.2613069 M1315.19266,11.7680014 C1314.56338,13.2420338 1315.70779,14.4535087 1316.12945,15.7784255 C1314.26158,15.9946075 1313.99546,13.8634676 1313.69009,12.5314161 C1312.95094,13.6080448 1313.38829,14.8651818 1313.54383,16.0338484 C1313.1821,16.1472904 1312.76971,16.8721776 1312.41797,16.4034267 C1311.11446,15.62931 1311.768,14.0018811 1311.63315,12.7939736 C1310.56437,14.4777667 1310.56794,17.3551979 1312.66341,18.2577395 C1313.32765,17.8631897 1313.78927,17.2595927 1314.04826,16.5382729 C1314.51415,16.8436387 1314.94723,17.2488906 1315.51159,17.3694673 C1316.54897,17.1918129 1317.02486,16.0231463 1316.82651,15.0785099 C1316.59178,13.8491982 1315.88188,12.783985 1315.19266,11.7680014 M1219.29993,15.0071627 C1219.80436,15.5865017 1220.6962,15.4302514 1221.30336,15.8454919 C1222.06749,16.9570807 1222.40425,18.296267 1222.98359,19.5077419 C1222.26227,20.032857 1221.96332,20.8611976 1221.74357,21.6923921 C1222.41852,21.1594287 1223.17837,20.8897365 1223.93536,21.4112842 C1222.46489,21.831519 1221.43821,23.1307509 1221.58376,24.6896865 C1221.96047,27.9966276 1223.49158,31.0231743 1224.25499,34.2380776 C1224.55323,35.775609 1224.77012,37.3316906 1224.88713,38.8977609 C1225.03268,40.4038996 1224.57463,41.877932 1224.5889,43.3805033 C1226.00942,38.9013283 1225.30237,34.0425863 1223.83191,29.6732859 C1223.27825,27.6876943 1222.3436,25.744911 1222.3436,23.6530122 C1223.38813,22.8924514 1224.7423,22.9673659 1225.95234,22.725499 C1226.03796,22.2888544 1226.10859,21.8486423 1226.16995,21.4077169 C1225.51927,20.5907918 1224.56464,20.1113389 1223.70063,19.5605388 C1224.29709,17.8346508 1223.57292,15.6392986 1224.99701,14.2580175 C1225.129,14.6268823 1225.38799,15.3624716 1225.51927,15.7284825 C1226.01656,14.9536523 1226.40754,13.9098433 1225.79966,13.0757949 C1225.38157,12.4714844 1224.43978,12.7661482 1224.18721,13.3740261 C1223.52654,14.5740854 1223.39169,15.969636 1223.28467,17.315957 C1222.5819,15.2946918 1221.63655,13.2027929 1219.79366,11.9848968 C1219.40624,12.9331006 1219.09445,13.9733423 1219.29993,15.0071627 M1302.30594,15.5265701 C1302.77826,15.2169234 1303.55594,14.7924077 1304.08534,14.5833605 C1303.72717,17.6320249 1304.13599,15.8647556 1304.48488,16.1986604 L1304.76456,14.7966886 C1305.51513,15.3003995 1306.25144,16.0024556 1306.79938,16.7301967 C1306.08948,16.4990319 1305.22404,16.3228044 1304.48488,16.1986604 C1304.30366,16.0067365 1304.28725,15.7249152 1304.11316,15.5329913 L1303.98902,16.2186376 C1303.41753,16.0053095 1302.85603,15.7819929 1302.30594,15.5265701 M1302.33448,11.8136636 C1302.25956,12.5563876 1302.23745,13.2991116 1302.22104,14.0446894 C1302.07549,14.8616145 1301.64098,15.6357312 1301.7052,16.4926107 C1301.96419,17.1383025 1302.71405,17.3052549 1303.26199,17.6320249 C1301.74158,19.1310288 1299.97146,20.3746099 1298.63584,22.0519818 C1300.78553,21.02815 1302.95948,19.6433015 1304.10317,17.4764881 C1304.98431,17.6891026 1305.8362,17.9980359 1306.69522,18.2819976 C1307.59847,17.3987197 1307.78683,15.7962623 1306.79225,14.9079901 C1305.43594,13.7150655 1304.03968,12.4750518 1302.33448,11.8136636 M1361.96144,16.7516009 C1359.37939,17.9309695 1356.80019,19.1595677 1354.34585,20.5907918 C1353.24353,21.1380246 1352.95743,22.4379699 1353.00595,23.5638282 C1356.46272,21.6067755 1359.94018,19.592645 1363.73014,18.3533447 C1366.84873,17.1240331 1369.89168,15.7142131 1372.92608,14.282989 C1374.03053,13.8142381 1374.28952,12.4750518 1374.32591,11.4019904 C1370.26625,13.3169484 1366.23371,15.3382135 1361.96144,16.7516009 M1298.20348,6.77369985 C1296.99628,8.33334888 1295.66637,10.684238 1297.03053,12.5349834 C1298.49386,14.0625262 1301.30137,11.7501646 1299.79095,10.0485347 C1299.32149,10.5101509 1298.47388,11.7608667 1297.81678,10.8197976 C1297.34018,9.38857345 1298.66795,8.0986167 1298.89269,6.6994988 C1298.72217,6.71662212 1298.37328,6.75586306 1298.20348,6.77369985 M1179.77004,30.9418385 C1179.94769,30.1427503 1180.75035,29.5776807 1181.55657,29.5919502 C1182.71097,29.4820755 1183.65204,30.2847311 1184.50464,30.9418385 C1182.93143,31.0096183 1181.31542,31.3784832 1179.77004,30.9418385 M1204.53821,16.1337344 C1205.19531,15.9097043 1205.90165,15.6471468 1206.5873,15.9418106 C1208.097,16.5211495 1209.41122,17.5050269 1210.75397,18.385451 C1209.38981,18.8791733 1208.02637,19.3871652 1206.63367,19.7952709 C1205.91235,18.5845095 1205.49711,17.1989476 1204.53821,16.1337344 M1228.12629,9.38500609 C1228.27969,12.8196586 1228.57435,16.2650132 1229.09661,19.6675595 C1229.92067,26.3278174 1230.76614,32.980227 1231.67867,39.6297828 C1232.07678,41.1180847 1231.09933,42.4394342 1230.06622,43.387638 C1226.87272,46.243665 1222.96218,48.232824 1218.84189,49.365817 C1216.88127,49.9487233 1214.80364,49.8381352 1212.79664,49.5819989 C1210.4272,49.2416729 1208.40594,47.5757166 1207.28008,45.5152105 C1206.36327,42.9795322 1206.47029,40.1663135 1207.36926,37.6370565 C1211.603,35.875495 1216.11714,34.8523766 1220.25527,32.856083 C1221.00513,31.7302247 1221.87129,30.4944918 1221.99614,29.1196319 C1220.15967,28.600938 1218.25256,29.3893242 1216.38041,29.3044211 C1209.23713,29.2330739 1202.07673,29.5248838 1194.94772,28.9990552 C1198.36454,26.5903749 1202.29648,25.0849498 1206.18276,23.6137712 C1206.35328,23.9234179 1206.69788,24.537717 1206.86769,24.8430829 C1206.8998,24.4699372 1206.96044,23.7243593 1206.99255,23.3512136 C1209.32631,22.3816057 1211.76639,21.7102288 1214.18862,20.9967572 C1214.67878,19.8380792 1215.47787,18.6943842 1215.50997,17.4265451 C1213.73057,15.0927793 1211.14781,13.5231417 1208.60856,12.130445 C1206.94617,11.200078 1204.88281,12.3080994 1204.05162,13.8570464 C1203.29106,15.3096747 1202.93218,16.999889 1203.06061,18.6344526 C1203.09557,19.5041745 1203.86683,20.008599 1204.38196,20.612196 C1200.53848,22.0905092 1196.80489,23.9198506 1193.45585,26.32425 C1191.67645,27.9402633 1190.6462,30.4659529 1190.83099,32.856083 C1191.60511,33.1935551 1192.48981,33.1015172 1193.31387,33.1614488 C1198.75909,33.3569401 1204.21144,33.4882189 1209.65665,33.2791717 C1205.9837,34.9272912 1202.16163,36.1915629 1198.38237,37.5664228 C1195.55488,38.5431655 1193.66847,41.2529308 1193.18973,44.130362 C1191.19343,41.4840956 1189.96769,38.2798945 1189.72653,34.9700995 C1189.64805,33.1015172 1188.17402,31.7623309 1187.7545,30.0043368 C1187.28218,28.3811888 1186.11708,27.0662605 1184.78218,26.0759619 C1183.79116,25.3760462 1182.33069,25.027872 1181.29045,25.8198256 C1179.23707,27.4187155 1178.15759,29.9972021 1177.84509,32.5257456 C1177.69954,33.8684992 1178.66558,35.4103115 1180.13248,35.3639358 C1182.43057,35.3425317 1184.77861,34.8702134 1187.01962,35.6407628 C1187.442,37.3780663 1185.84739,38.5360308 1184.84567,39.6868606 C1181.56727,42.9295892 1178.26747,46.40705 1173.93027,48.2114198 C1171.86691,48.8399884 1169.54742,49.0533164 1167.48762,48.3177271 C1165.00831,47.2239751 1164.28699,44.1838724 1164.70294,41.7216817 C1165.06539,39.7681963 1165.42712,37.7826047 1166.11276,35.9183033 C1167.77872,35.0121943 1169.46893,34.1317703 1170.93298,32.906026 C1173.80613,30.9489733 1176.59438,28.8570744 1179.17358,26.5197412 C1179.71296,26.0509904 1179.79144,25.2975643 1179.95126,24.6440243 C1180.27446,22.8075482 1180.5199,20.9218427 1180.2923,19.0639625 C1179.84424,17.4871902 1178.37377,16.4176961 1176.90331,15.8597613 C1174.12576,14.773144 1171.39103,13.5088722 1168.95452,11.7715688 C1168.35449,11.3670303 1167.8465,10.8412017 1167.534,10.1840943 C1168.44653,10.117028 1169.409,10.2411721 1170.2616,9.82165074 C1168.29028,8.77784171 1166.2155,7.92524309 1164.18425,7.00486466 C1163.4665,8.27627114 1162.9478,9.7824098 1163.37446,11.2428863 C1163.82181,11.4840397 1164.3405,11.6723962 1164.61019,12.1447144 C1167.0788,15.8069644 1171.17413,17.8603358 1175.13176,19.5255787 C1176.37463,20.0942156 1177.85223,20.4102835 1178.71838,21.5611133 C1179.01376,22.0369989 1179.21995,22.7897115 1178.72195,23.2128001 C1176.64075,25.3653441 1174.04443,26.8993082 1171.58652,28.5723992 C1168.88317,30.5829623 1165.79313,32.3659279 1162.36204,32.6077948 C1160.54697,32.7105348 1158.68196,31.5176102 1158.36946,29.6739994 C1158.25958,27.4857819 1159.42468,25.5287291 1159.65941,23.3868872 C1159.89343,23.4254147 1160.36932,23.5003292 1160.60762,23.5395702 C1162.28713,22.548558 1163.04412,20.3995814 1162.80939,18.5381339 C1162.19866,19.365761 1162.09235,20.6942452 1160.95222,21.0174479 C1159.3355,20.6264654 1158.11332,18.9148469 1158.2767,17.2488906 C1158.03912,14.6982295 1159.56309,12.507158 1160.02114,10.0877757 C1157.99631,13.0579581 1156.87402,16.8400714 1157.41412,20.435255 C1157.60604,21.5147376 1158.44794,22.2817196 1159.11931,23.0850887 C1157.69094,26.2314987 1156.64642,29.6775668 1157.11232,33.169297 C1157.69451,34.7710409 1158.90599,36.3335438 1160.65328,36.7102568 C1162.07023,37.1932771 1163.53784,36.6745832 1164.91984,36.3406785 C1163.97449,38.8799241 1163.41727,41.5518754 1163.08265,44.2366693 C1162.73804,46.9079071 1163.47363,49.8809435 1165.63688,51.6353703 C1167.13231,53.0594597 1169.35906,53.0808638 1171.29185,52.9174788 C1173.98735,52.736257 1176.30328,51.163052 1178.39946,49.5962683 C1181.40389,47.0142144 1184.5189,44.4642667 1186.79203,41.1787298 C1187.56686,40.041456 1187.7017,38.6387707 1188.12764,37.3637969 C1188.5757,41.047451 1189.34982,44.8937767 1191.83984,47.7890446 C1194.10582,49.9551445 1196.90477,51.4541485 1199.87067,52.4237565 C1200.20458,51.0103691 1200.87596,49.6890196 1201.085,48.2435261 C1199.16006,46.3257143 1195.9209,45.8776541 1194.72726,43.1714561 C1195.40577,42.5421741 1196.14493,41.9599812 1197.02178,41.6296439 C1200.04833,40.4146016 1203.19902,39.5234755 1206.16492,38.1628851 C1205.56418,40.4966509 1204.90065,42.897483 1205.08829,45.3275674 C1205.3908,46.8508294 1205.55062,48.4918142 1206.47385,49.7953269 C1207.23798,50.949724 1208.35314,51.8023226 1209.42905,52.6477866 C1211.48956,53.958434 1214.02524,53.9762708 1216.38398,53.9298951 C1219.44548,53.478981 1222.32577,52.2396808 1225.05765,50.8327147 C1227.75029,49.1139615 1230.67695,47.3338497 1232.2152,44.4214584 C1233.18837,41.6439133 1233.75986,38.6387707 1233.40812,35.6942732 C1232.89371,29.5034797 1231.91982,23.3619157 1231.19208,17.188959 C1231.07507,16.5389863 1231.18138,15.8775981 1231.29482,15.2347602 C1232.02327,16.1373018 1232.59548,17.1461507 1233.29111,18.069383 C1233.45093,16.7052252 1232.88229,15.4017125 1232.58763,14.0946325 C1231.91625,11.2849811 1230.91169,8.57521577 1229.9378,5.86473697 C1229.16368,6.93423097 1228.49944,8.12073432 1228.12629,9.38500609 M1176.68356,8.95906351 C1177.25933,9.02612985 1177.83439,8.90483967 1178.40945,8.85846401 C1179.58168,10.304671 1180.34581,12.0127222 1181.35466,13.56595 C1181.95469,11.7366086 1181.77347,9.65113101 1182.94213,8.02798301 C1184.09296,8.23346285 1184.70013,9.18238014 1185.24379,10.117028 C1185.8795,8.55809245 1184.82498,6.46833398 1183.00991,6.62529775 C1181.73779,7.69693216 1181.62435,9.59048592 1181.27261,11.1180287 C1180.48066,9.86731292 1179.83782,8.51813803 1178.92101,7.3537523 C1178.31027,6.74302057 1177.49692,6.41839097 1176.75134,6.02098726 C1176.53801,6.94778693 1175.8067,8.17067734 1176.68356,8.95906351 M1353.72798,8.87344692 C1354.49853,8.13072293 1355.31189,6.92281542 1356.55547,7.3637409 C1356.97785,8.00657886 1356.12525,8.15640791 1355.70287,8.38329189 C1355.06717,8.6322935 1354.39222,8.74930285 1353.72798,8.87344692 M1355.73141,6.01456601 C1354.67975,6.73160502 1353.87353,7.74402129 1353.0138,8.67082097 C1352.67632,8.42253283 1352.33957,8.16996387 1352.00495,7.92524309 C1350.49096,6.96776414 1348.63665,9.40284288 1348.25423,11.160837 C1348.92917,10.6036157 1349.46499,9.84662225 1350.29333,9.50201544 C1351.4727,8.9519288 1352.3203,10.4116918 1353.48183,10.2768457 C1355.26195,10.0813544 1357.26894,9.15027392 1357.66991,7.2253274 C1358.07945,6.12015982 1356.54049,5.46661979 1355.73141,6.01456601 M1282.16963,7.00129731 C1281.39194,7.6584047 1280.59999,9.33149572 1281.76866,9.99930518 C1283.81846,9.89228443 1285.76053,8.94408061 1287.85314,9.15384127 C1286.67306,11.0295582 1284.47486,11.7822708 1282.79106,13.0893509 C1283.19988,13.3661779 1283.62226,13.8356422 1284.16592,13.5581018 C1286.87997,12.8160913 1289.61827,10.9047007 1290.08346,7.94593377 C1290.14767,7.21105797 1290.27181,5.87187168 1289.20589,5.89684319 C1286.82289,5.75129497 1284.41421,6.22004585 1282.16963,7.00129731 M1192.05245,8.63514738 C1192.51121,8.24844575 1192.92645,7.35303883 1193.63707,7.60132696 C1194.26921,8.14499236 1194.22283,9.05395524 1194.39692,9.79667923 C1193.5907,9.45920714 1192.80588,9.07964022 1192.05245,8.63514738 M1191.30687,9.08249411 C1191.16489,10.5244203 1192.91932,10.7484504 1193.83256,11.4055578 C1192.63893,13.1428613 1191.04075,14.5277097 1189.51249,15.95608 C1188.06343,17.2909854 1186.35895,18.3890183 1185.20098,20.0121663 C1188.5964,18.0016032 1191.9069,15.5543955 1194.12366,12.2296176 C1194.87281,12.6348695 1195.02549,11.8215118 1195.28091,11.3063852 C1194.68088,10.244026 1195.33799,9.11460033 1195.23525,7.99587679 C1195.17104,7.14684552 1194.78433,6.22361321 1193.96028,5.85760225 C1192.49694,6.18437227 1191.64078,7.7261845 1191.30687,9.08249411 M1364.53993,5.25757259 C1364.0248,6.10660386 1363.74084,7.05837504 1363.73014,8.05652188 C1364.12184,7.96091668 1364.51425,7.86103064 1364.90808,7.75971767 C1365.12284,7.70478035 1365.35543,7.77470057 1365.49884,7.94450683 C1366.41922,9.03611845 1367.89539,11.5682293 1368.29707,11.4626355 C1368.65238,11.3491935 1368.2828,8.17495817 1369.7975,7.48075025 C1370.49385,7.37087562 1370.68435,8.41539812 1371.0261,8.95835004 C1371.21731,8.31194473 1371.64397,7.64413526 1371.40924,6.95206776 C1371.24942,6.00029658 1369.88883,5.49872601 1369.20675,6.22361321 C1368.43263,6.95492165 1368.29065,8.07792603 1367.94319,9.03326457 C1366.97644,7.65126998 1366.14881,5.99672922 1364.53993,5.25757259 M1254.45696,5.94321885 C1253.43384,7.06550975 1253.20696,8.64941682 1252.82311,10.067085 C1251.9541,8.27341726 1250.60921,6.70021227 1248.85336,5.73702554 C1248.69925,5.65212241 1248.49733,5.71562139 1248.42313,5.87543904 C1248.00861,6.76799208 1247.8602,7.75757725 1248.06212,8.71648315 C1248.1356,9.0675112 1248.49234,9.28583353 1248.8448,9.21805372 C1249.38204,9.11531381 1249.90715,8.96548476 1250.41871,8.76713964 C1251.48107,9.96006424 1253.04572,12.8346415 1253.23051,12.8275201 C1253.67857,11.5054438 1253.27545,10.0471078 1253.8077,8.73860077 C1254.04101,8.0886281 1254.29358,7.24673155 1255.09623,7.14399164 C1255.78973,7.44222279 1256.05229,8.19493538 1256.45397,8.770707 C1256.64161,7.90383894 1256.96196,6.85574909 1256.23993,6.13514272 C1255.82469,5.53439959 1254.97566,5.37458194 1254.45696,5.94321885 M1277.62339,5.29610006 C1271.87994,7.90383894 1266.01877,10.244026 1260.23252,12.7554462 C1259.73951,12.9930322 1259.24935,13.2484551 1258.80129,13.56595 C1258.39319,14.3143817 1258.28331,15.1855306 1258.06642,16.0024556 C1262.39576,13.7714298 1266.99551,12.1404336 1271.42475,10.1341513 C1273.45671,9.33078224 1275.40378,8.3226468 1277.47784,7.62986583 C1277.82173,6.89784392 1278.49026,6.04239141 1278.0743,5.21119693 C1277.96086,5.23188761 1277.73683,5.27469591 1277.62339,5.29610006 M1237.75245,9.35646722 C1238.28827,11.601049 1238.27828,13.9241127 1238.51587,16.2115028 C1238.60148,19.4121367 1239.27999,22.548558 1239.63102,25.720653 C1239.96207,28.0893789 1240.11476,30.4795089 1240.48005,32.8453809 C1240.8746,37.0156227 1241.97549,41.2957391 1240.81467,45.4410094 C1239.33636,45.6115291 1237.47134,45.110672 1236.89272,43.600966 C1236.22491,40.6743053 1237.47919,37.8111436 1237.74888,34.9344259 C1237.5748,35.1541752 1237.22662,35.5915333 1237.05254,35.8112825 C1235.75973,39.0190511 1235.06694,42.5564435 1235.5464,46.0053655 C1235.77043,48.1015452 1237.77386,49.6854523 1239.81938,49.7211258 C1241.11576,49.7032891 1242.33793,49.1917299 1243.4959,48.6551992 C1246.01802,47.5471777 1248.2412,45.8776541 1250.3331,44.1089578 C1252.18028,42.6099539 1253.46595,40.581554 1254.86578,38.6922811 C1255.90246,37.2817476 1255.75691,35.4524063 1255.9524,33.8078542 C1256.30057,35.7834572 1256.67729,37.9103161 1258.15132,39.4021854 C1258.89761,40.3789281 1260.18685,40.581554 1261.31985,40.7984494 C1261.17787,42.9402913 1260.90389,45.1813057 1261.99836,47.1490605 C1258.97538,48.7971801 1256.03088,50.5944151 1252.87306,51.9657077 C1251.33552,52.7441052 1249.58395,53.1907385 1248.32681,54.4307522 C1250.83752,54.1574926 1253.16772,53.1058354 1255.63348,52.612113 C1258.36108,51.9764097 1261.08511,51.2586573 1263.65005,50.1149622 C1265.39377,52.1540642 1268.09283,52.9424503 1270.697,52.9781239 C1272.90948,52.8468451 1275.16833,52.6656233 1277.25381,51.8415636 C1280.87325,50.3675312 1284.2972,48.3712375 1287.28807,45.8491152 C1288.18348,44.947287 1289.20945,44.0875537 1289.68534,42.8760788 C1290.49941,40.5002182 1291.31562,38.0737012 1291.27709,35.5308882 C1291.77438,35.6371955 1292.21816,35.8826297 1292.22887,36.4469858 C1292.57347,39.0547247 1293.19134,41.6439133 1294.34217,44.01692 C1294.95718,45.1491995 1295.96175,46.282906 1297.34018,46.357107 C1298.66866,46.6696076 1299.49986,45.3660949 1300.01784,44.3679481 C1302.07121,39.4307242 1301.89712,33.4810841 1305.59861,29.3151232 C1305.70492,31.8186952 1304.76742,34.2559144 1305.01927,36.7737558 C1304.87729,39.4378589 1306.40127,41.9136056 1308.48674,43.4625525 C1310.25116,44.7089875 1312.72762,44.3465439 1314.45351,43.2064162 C1316.38559,41.6760195 1317.53285,39.4414263 1318.28628,37.1397668 C1318.57381,37.8111436 1318.92198,38.4575489 1319.1774,39.1431952 C1317.71051,41.8001636 1316.89358,44.7660652 1316.55682,47.766927 C1316.46764,49.2309708 1316.62032,50.8790903 1317.67555,51.9978139 C1318.36405,52.8504125 1319.48705,53.1201048 1320.49233,53.4147686 C1323.23064,54.2388283 1325.96609,52.7969021 1328.27417,51.4434464 C1331.05243,49.9052015 1333.44256,47.7811964 1335.65931,45.5294799 C1337.1683,43.9812464 1338.02804,41.9207403 1338.54316,39.8538129 C1339.00193,42.2118367 1339.19314,44.7803347 1340.67787,46.7766283 C1342.16617,48.8685272 1345.16775,49.8202984 1347.5115,48.6123909 C1350.23197,47.4301684 1351.22013,44.4214584 1352.31031,41.9136056 C1352.40235,42.8653768 1352.27535,43.9634096 1352.99311,44.7161222 C1353.97984,45.8598173 1355.38252,46.9400134 1356.98855,46.7088485 C1359.88738,46.1794526 1362.45089,44.6526232 1365.03009,43.3170043 C1368.22644,41.1466235 1371.9529,39.7717637 1374.87599,37.1932771 C1375.77069,36.0424474 1376.48844,34.742502 1377,33.3747769 C1375.33761,34.3978952 1373.75014,35.5344555 1372.0271,36.4576879 C1369.71902,37.6977016 1367.23899,39.37436 1364.48642,38.5888277 C1361.83659,37.7719026 1359.12754,35.9818023 1358.31989,33.1792856 C1358.92776,32.955969 1359.53493,32.6855632 1360.18205,32.5863907 C1362.50796,32.276744 1364.84886,31.7944372 1366.97644,30.7748862 C1369.87527,29.3222579 1371.8573,26.4091531 1372.52796,23.2905686 C1371.49485,24.4556678 1370.64225,25.8376623 1369.25384,26.6331832 C1366.88797,28.0009084 1364.13183,28.4553898 1361.46701,28.8599283 C1360.25268,29.0875257 1359.16963,29.7589025 1358.30633,30.629338 C1356.82802,31.999917 1356.40279,34.1317703 1356.29577,36.0602842 C1356.46272,38.8235599 1358.96986,40.6136602 1361.18661,41.8465392 C1360.15707,42.1126642 1359.15465,42.4786751 1358.13866,42.7804736 C1356.54405,42.5421741 1355.04505,41.7116931 1353.95487,40.5358918 C1353.31203,39.7574942 1353.97342,38.7422241 1353.962,37.8682213 C1352.04348,38.7736168 1351.65392,41.071709 1350.48882,42.6456275 C1349.44787,44.2794776 1347.49081,45.0150668 1345.62508,45.0892679 C1346.01963,44.3501113 1346.49267,43.6437743 1346.75879,42.8411187 C1347.60069,39.8181393 1347.88822,36.6175055 1347.35169,33.5131904 C1346.5526,26.8429439 1344.49923,20.3639078 1343.96698,13.6651225 C1344.826,14.4820476 1345.35896,15.5972037 1346.27862,16.3541972 L1346.80517,16.2721479 C1345.60154,12.4358109 1343.91703,8.76642617 1342.10553,5.17552335 C1341.26078,6.1986417 1340.40033,7.38514505 1340.18772,8.70292719 C1341.50193,14.9400964 1342.16617,21.2978422 1343.57956,27.5143207 C1344.38222,31.0274551 1345.00722,34.579117 1345.4724,38.1486157 C1345.78562,40.4538426 1345.4196,42.7733389 1345.04717,45.0464596 C1343.96698,44.6133823 1342.80616,44.1688895 1342.00636,43.2956002 C1340.11352,40.304727 1339.78246,36.6460444 1339.78246,33.1864203 C1339.64476,31.3784832 1338.97624,29.6625839 1338.74222,27.8689161 C1338.2271,24.7225062 1336.63605,21.919276 1335.00863,19.2309149 C1334.36222,20.3888794 1334.02832,21.68169 1333.5774,22.9217037 C1334.9701,28.3590712 1336.15589,33.8399604 1337.59139,39.2673392 C1334.70683,43.4268789 1330.49021,46.4855319 1325.96965,48.6694686 C1324.1396,49.5042305 1321.89787,49.9908181 1320.06924,48.8827967 C1318.87917,48.2970364 1318.56739,46.8793683 1318.35049,45.6964323 C1318.58808,43.7286775 1319.16028,41.8215677 1319.76388,39.9422834 C1321.99776,42.3966259 1326.50547,41.9813854 1328.15359,39.0754153 C1329.61335,36.2800334 1330.07854,32.8204094 1328.75005,29.8830466 C1327.61706,27.2974253 1326.05456,24.903728 1325.28401,22.1611429 C1325.92256,22.4272679 1326.51974,22.8467892 1327.22964,22.9110016 C1326.05812,20.8790344 1324.85378,18.6979515 1322.83252,17.3873041 C1322.20395,18.5880769 1321.78086,19.8737528 1321.31568,21.1423054 C1322.88603,24.0190231 1323.8378,27.1911181 1325.34679,30.1035093 C1326.45196,32.0605621 1327.60636,34.0711252 1327.92243,36.3335438 C1325.83409,37.6370565 1322.63774,38.038741 1320.83266,36.0638515 C1319.00046,33.9962107 1319.31225,31.1052235 1318.89701,28.5688318 C1318.70865,25.2725928 1317.35948,22.221788 1316.02315,19.2558864 C1315.22834,20.9211292 1314.0982,22.7297798 1314.62759,24.6440243 C1315.01858,27.2260782 1316.36847,29.5598439 1316.61675,32.1775714 C1316.80511,34.1060853 1317.72478,36.3371112 1316.32566,38.0244716 C1313.7857,40.8940546 1308.30552,40.4752467 1306.60389,36.8700745 C1306.13157,34.1060853 1306.58606,31.3078495 1307.3352,28.6366116 C1307.63343,27.3430875 1307.96377,25.8091235 1307.00843,24.7082367 C1304.89227,25.8590665 1303.84418,28.1036483 1302.76756,30.1356156 C1301.52469,32.9095933 1301.05879,35.938994 1300.41952,38.8877723 C1300.10702,40.5037856 1299.17665,41.9136056 1298.09289,43.1179457 C1297.32591,43.3455432 1296.38127,43.2171183 1295.87328,42.5493088 C1294.05464,40.5886887 1294.04394,37.7226731 1293.53666,35.2433591 C1294.36001,34.6497507 1295.36885,34.1139335 1295.68492,33.0729784 C1296.1394,31.7052532 1296.58746,30.3339607 1296.95348,28.9419775 C1297.37228,27.2118087 1296.3456,25.6421711 1295.56863,24.1931102 C1294.8152,25.3296705 1294.44562,26.6474527 1293.99043,27.9152918 C1294.48843,28.7322168 1294.95005,29.570546 1295.36885,30.4338467 C1293.83418,31.459819 1291.74941,31.9542548 1290.112,30.8704914 C1289.40209,29.9151528 1288.96045,28.7821598 1288.15138,27.9010224 C1287.44789,29.0554195 1286.67734,30.3624996 1286.67734,31.7302247 C1287.84601,33.875634 1289.49056,35.9639655 1289.39852,38.5395981 C1289.2594,39.4842346 1289.45489,40.7092654 1288.49241,41.2672003 C1285.01852,44.3643807 1280.91963,46.7801957 1276.47541,48.182881 C1273.54162,48.9042008 1270.39877,49.2238361 1267.49352,48.2149872 C1269.18016,47.4337357 1270.68274,46.3250008 1272.29518,45.4089032 C1273.82272,44.507075 1275.37453,43.5866966 1276.61811,42.2974533 C1277.88595,41.0617204 1279.21086,39.8003025 1279.91435,38.1379136 C1280.52508,36.6638812 1281.41264,35.2148202 1281.39908,33.5702681 C1281.49825,31.2472044 1279.82587,29.4107284 1279.13666,27.2974253 C1279.71529,27.3545031 1280.29463,27.4251368 1280.87325,27.4857819 C1279.83943,25.6457385 1278.20915,24.2423397 1276.86283,22.6370285 C1276.16362,23.7521847 1275.17975,24.7967072 1274.95928,26.1287588 C1276.16719,28.2099556 1276.88851,30.5230307 1278.03863,32.6327663 C1278.57873,33.7479225 1279.24297,34.8452419 1279.40635,36.0959577 C1277.30019,38.7486453 1274.2451,40.3689395 1271.38622,42.0627211 C1269.2615,43.8000246 1266.60168,44.6276517 1264.26078,46.0089328 C1263.28403,44.2652081 1262.70113,42.304588 1262.49922,40.3189964 C1263.13492,39.7788984 1263.94114,39.3172822 1264.2251,38.478953 C1264.74736,37.0156227 1264.83298,35.4424177 1265.0884,33.9184423 C1265.53932,31.1587339 1264.17159,28.4125815 1262.14034,26.601077 C1261.66089,27.8303887 1261.27347,29.1017951 1261.06014,30.4053079 C1262.32156,31.72309 1263.49665,33.1685836 1263.88406,35.0050596 C1262.47068,35.8719276 1260.43514,37.0263248 1258.92544,35.7834572 C1256.96838,33.6551712 1257.27375,30.5579908 1256.67729,27.9224265 C1255.61921,23.304838 1254.19797,18.6130484 1251.20353,14.8516259 C1250.47222,16.60962 1249.60536,18.6337391 1250.43298,20.5130234 C1251.52674,23.1129141 1252.46138,25.7912867 1253.03287,28.5581298 C1253.54443,30.6785675 1254.32925,32.792584 1254.39346,34.9800881 C1252.79814,38.3084333 1249.57682,40.4217364 1246.70723,42.5742803 C1245.22607,43.8000246 1243.40029,44.4714014 1241.63802,45.174171 C1242.10392,43.9990832 1242.61191,42.8232819 1242.78528,41.5582967 C1243.5173,36.5968148 1242.66114,31.6060806 1242.029,26.6831263 C1241.7907,23.1521551 1241.05583,19.6818289 1240.73976,16.1622733 C1240.97021,15.792695 1241.20137,15.426684 1241.43611,15.0571057 C1242.28799,16.1765427 1242.8816,17.4836228 1243.86548,18.5024603 C1243.86191,17.7782866 1243.78699,17.0605341 1243.59507,16.3677531 C1242.55483,12.4607824 1241.25845,8.57878312 1239.26858,5.04067721 C1238.31395,6.22718056 1237.273,7.77256016 1237.75245,9.35646722 M1309.63329,10.3467659 C1308.6644,10.8797292 1308.48674,12.1268776 1308.09933,13.0643794 C1313.2242,10.7983934 1318.66584,9.40284288 1323.99048,7.69693216 C1324.91086,7.30737664 1326.20653,7.45292486 1326.75733,6.47618217 C1327.13047,5.93608413 1327.21252,5.27184202 1327.36164,4.64969475 C1321.46194,6.57892209 1315.41598,8.07792603 1309.63329,10.3467659 M1208.73984,8.11288614 C1206.50953,9.06465732 1204.12939,9.61260355 1201.91691,10.607183 C1201.25267,10.9154028 1201.3233,11.7972537 1201.17775,12.3965699 C1206.56661,10.5643747 1211.92264,8.62444531 1217.37856,6.99416259 C1218.39454,6.62529775 1218.09559,5.39598609 1217.59902,4.71390719 C1214.8386,6.2942469 1211.66721,6.91996154 1208.73984,8.11288614 M1240.54783,1.9606201 C1242.26373,2.00342839 1243.70566,0.948203823 1245.03414,0 C1244.5868,2.03910198 1242.8816,3.55166188 1240.93168,4.13528169 C1239.56752,4.46918642 1238.09349,4.08177131 1236.78284,4.67537973 C1235.7954,5.10845702 1235.35875,6.1558334 1234.77228,6.98346051 C1234.65884,5.55223638 1235.53213,4.25942575 1236.41327,3.20776854 C1237.45065,2.02911337 1239.08807,1.93208123 1240.54783,1.9606201" id="Fill-1"></path>
            </g>
        </g>
    </g>
</svg>