<?xml version="1.0" encoding="utf-8"?>
<!-- Generator: Adobe Illustrator 24.0.1, SVG Export Plug-In . SVG Version: 6.00 Build 0)  -->
<svg version="1.1" id="livetype" xmlns="http://www.w3.org/2000/svg" xmlns:xlink="http://www.w3.org/1999/xlink" x="0px" y="0px"
	 viewBox="0 0 132.6 40" style="enable-background:new 0 0 132.6 40;" xml:space="preserve">
<style type="text/css">
	.st0{display:none;}
	.st1{display:inline;}
	.st2{fill:#FFFFFF;}
	.st3{fill-rule:evenodd;clip-rule:evenodd;fill:url(#SVGID_1_);}
	.st4{fill-rule:evenodd;clip-rule:evenodd;fill:url(#SVGID_2_);}
	.st5{fill-rule:evenodd;clip-rule:evenodd;fill:url(#SVGID_3_);}
	.st6{fill-rule:evenodd;clip-rule:evenodd;fill:url(#SVGID_4_);}
</style>
<title>Download_on_the_App_Store_Badge_US-UK_RGB_blk_4SVG_092917</title>
<path d="M8.5,40c-0.3,0-0.7,0-1,0c-0.7,0-1.4-0.1-2.1-0.2c-0.6-0.1-1.3-0.3-1.9-0.6C3,39,2.4,38.6,2,38.2c-0.5-0.4-0.9-0.9-1.1-1.5
	c-0.3-0.5-0.5-1.1-0.6-1.7C0.1,34.3,0,33.7,0,33c0-0.2,0-1,0-1V7.9c0,0,0-0.7,0-0.9c0-0.7,0.1-1.3,0.2-2c0.1-0.6,0.3-1.2,0.6-1.7
	c0.3-0.5,0.7-1,1.1-1.5c0.5-0.4,1-0.8,1.6-1.1c0.6-0.3,1.2-0.5,1.9-0.6C6.1,0.1,6.8,0,7.5,0l1,0h115.5l1,0c0.7,0,1.4,0.1,2.1,0.2
	c0.7,0.1,1.3,0.3,1.9,0.6c1.2,0.6,2.1,1.4,2.7,2.5c0.3,0.5,0.5,1.1,0.6,1.7c0.1,0.7,0.2,1.3,0.2,2c0,0.3,0,0.6,0,0.9
	c0,0.4,0,0.8,0,1.1v21.9c0,0.4,0,0.8,0,1.1c0,0.3,0,0.7,0,1c0,0.6-0.1,1.3-0.2,1.9c-0.1,0.6-0.3,1.2-0.6,1.7c-0.3,0.5-0.7,1-1.1,1.4
	c-0.5,0.4-1,0.8-1.6,1.1c-0.6,0.3-1.2,0.5-1.9,0.6c-0.7,0.1-1.4,0.2-2.1,0.2c-0.3,0-0.7,0-1,0l-1.2,0L8.5,40z"/>
<g class="st0">
	<g class="st1">
		<g id="_Group_">
			<g id="_Group_2">
				<g id="_Group_3">
					<path id="_Path_" class="st2" d="M24.8,20.3c0-1.7,0.9-3.3,2.4-4.2c-0.9-1.3-2.4-2.1-4-2.2c-1.7-0.2-3.3,1-4.2,1
						c-0.9,0-2.2-1-3.6-1c-1.9,0.1-3.6,1.1-4.5,2.7c-1.9,3.3-0.5,8.3,1.4,11c0.9,1.3,2,2.8,3.4,2.8c1.4-0.1,1.9-0.9,3.6-0.9
						c1.7,0,2.1,0.9,3.6,0.9c1.5,0,2.4-1.3,3.3-2.7c0.7-0.9,1.2-2,1.5-3.1C25.9,24,24.8,22.2,24.8,20.3z"/>
					<path id="_Path_2" class="st2" d="M22,12.2c0.8-1,1.2-2.2,1.1-3.5c-1.2,0.1-2.4,0.7-3.2,1.7c-0.8,0.9-1.2,2.1-1.1,3.4
						C20.1,13.8,21.2,13.2,22,12.2z"/>
				</g>
			</g>
			<g>
				<path class="st2" d="M42.3,27.1h-4.7l-1.1,3.4h-2l4.5-12.4H41l4.5,12.4h-2L42.3,27.1z M38.1,25.6h3.8L40,20.1h-0.1L38.1,25.6z"
					/>
				<path class="st2" d="M55.2,26c0,2.8-1.5,4.6-3.8,4.6c-1.2,0.1-2.3-0.6-2.8-1.6h0v4.5h-1.9v-12h1.8v1.5h0c0.6-1,1.7-1.6,2.9-1.6
					C53.6,21.3,55.2,23.2,55.2,26z M53.2,26c0-1.8-0.9-3-2.4-3c-1.4,0-2.4,1.2-2.4,3c0,1.8,1,3,2.4,3C52.3,29,53.2,27.8,53.2,26z"/>
				<path class="st2" d="M65.1,26c0,2.8-1.5,4.6-3.8,4.6c-1.2,0.1-2.3-0.6-2.8-1.6h0v4.5h-1.9v-12h1.8v1.5h0c0.6-1,1.7-1.6,2.9-1.6
					C63.6,21.3,65.1,23.2,65.1,26z M63.2,26c0-1.8-0.9-3-2.4-3c-1.4,0-2.4,1.2-2.4,3c0,1.8,1,3,2.4,3C62.3,29,63.2,27.8,63.2,26
					L63.2,26z"/>
				<path class="st2" d="M71.7,27c0.1,1.2,1.3,2,3,2c1.6,0,2.7-0.8,2.7-1.9c0-1-0.7-1.5-2.3-1.9l-1.6-0.4c-2.3-0.6-3.3-1.6-3.3-3.3
					c0-2.1,1.9-3.6,4.5-3.6c2.6,0,4.4,1.5,4.5,3.6h-1.9c-0.1-1.2-1.1-2-2.6-2s-2.5,0.8-2.5,1.9c0,0.9,0.7,1.4,2.3,1.8l1.4,0.3
					c2.5,0.6,3.6,1.6,3.6,3.4c0,2.3-1.9,3.8-4.8,3.8c-2.8,0-4.6-1.4-4.7-3.7L71.7,27z"/>
				<path class="st2" d="M83.3,19.3v2.1h1.7v1.5h-1.7v5c0,0.8,0.3,1.1,1.1,1.1c0.2,0,0.4,0,0.6,0v1.5c-0.3,0.1-0.7,0.1-1,0.1
					c-1.8,0-2.5-0.7-2.5-2.4v-5.2h-1.3v-1.5h1.3v-2.1H83.3z"/>
				<path class="st2" d="M86.1,26c0-2.8,1.7-4.6,4.3-4.6c2.6,0,4.3,1.8,4.3,4.6c0,2.9-1.7,4.6-4.3,4.6C87.7,30.6,86.1,28.8,86.1,26z
					 M92.8,26c0-2-0.9-3.1-2.4-3.1S88,24,88,26c0,2,0.9,3.1,2.4,3.1S92.8,27.9,92.8,26L92.8,26z"/>
				<path class="st2" d="M96.2,21.4H98V23h0c0.2-1,1.2-1.7,2.2-1.6c0.2,0,0.4,0,0.6,0.1v1.7c-0.3-0.1-0.6-0.1-0.8-0.1
					c-1,0-1.9,0.8-1.9,1.8c0,0.1,0,0.2,0,0.3v5.4h-1.9L96.2,21.4z"/>
				<path class="st2" d="M109.4,27.8c-0.2,1.6-1.9,2.8-3.9,2.8c-2.6,0-4.3-1.8-4.3-4.6c0-2.8,1.6-4.7,4.2-4.7c2.5,0,4.1,1.7,4.1,4.5
					v0.6h-6.4v0.1c-0.1,1.3,0.8,2.4,2.1,2.6c0.1,0,0.2,0,0.3,0c0.9,0.1,1.8-0.4,2.1-1.3L109.4,27.8z M103.1,25.1h4.5
					c0.1-1.2-0.9-2.2-2.1-2.3c-0.1,0-0.1,0-0.2,0C104.1,22.8,103.1,23.8,103.1,25.1C103.1,25.1,103.1,25.1,103.1,25.1z"/>
			</g>
		</g>
	</g>
	<g id="_Group_4" class="st1">
		<g>
			<path class="st2" d="M37.8,8.7c1.5-0.1,2.7,1,2.8,2.4c0,0.2,0,0.3,0,0.5c0,1.9-1,3-2.8,3h-2.2v-6H37.8z M36.6,13.9h1.1
				c1,0.1,1.9-0.7,2-1.8c0-0.1,0-0.3,0-0.4c0.1-1-0.6-2-1.6-2.1c-0.1,0-0.2,0-0.4,0h-1.1V13.9z"/>
			<path class="st2" d="M41.7,12.4c-0.1-1.2,0.7-2.2,1.9-2.3c1.2-0.1,2.2,0.7,2.3,1.9c0,0.1,0,0.3,0,0.4c0.1,1.2-0.7,2.2-1.9,2.3
				c-1.2,0.1-2.2-0.7-2.3-1.9C41.7,12.7,41.7,12.6,41.7,12.4z M45,12.4c0-1-0.4-1.5-1.2-1.5c-0.8,0-1.2,0.6-1.2,1.5
				c0,1,0.4,1.6,1.2,1.6C44.6,14,45,13.4,45,12.4L45,12.4z"/>
			<path class="st2" d="M51.6,14.7h-0.9l-0.9-3.3h-0.1l-0.9,3.3h-0.9l-1.2-4.5h0.9l0.8,3.4h0.1l0.9-3.4h0.9l0.9,3.4h0.1l0.8-3.4h0.9
				L51.6,14.7z"/>
			<path class="st2" d="M53.9,10.2h0.9v0.7h0.1c0.2-0.5,0.8-0.8,1.3-0.8c0.8-0.1,1.5,0.5,1.6,1.4c0,0.1,0,0.2,0,0.3v2.9h-0.9V12
				c0-0.7-0.3-1.1-1-1.1c-0.6,0-1.1,0.4-1.1,1c0,0.1,0,0.1,0,0.2v2.6h-0.9L53.9,10.2z"/>
			<path class="st2" d="M59.1,8.4H60v6.3h-0.9V8.4z"/>
			<path class="st2" d="M61.2,12.4c-0.1-1.2,0.7-2.2,1.9-2.3c1.2-0.1,2.2,0.7,2.3,1.9c0,0.1,0,0.3,0,0.4c0.1,1.2-0.7,2.2-1.9,2.3
				s-2.2-0.7-2.3-1.9C61.2,12.7,61.2,12.6,61.2,12.4z M64.6,12.4c0-1-0.4-1.5-1.2-1.5c-0.8,0-1.2,0.6-1.2,1.5c0,1,0.4,1.6,1.2,1.6
				C64.1,14,64.6,13.4,64.6,12.4z"/>
			<path class="st2" d="M66.4,13.4c0-0.8,0.6-1.3,1.7-1.3l1.2-0.1v-0.4c0-0.5-0.3-0.7-0.9-0.7c-0.5,0-0.8,0.2-0.9,0.5h-0.9
				c0.1-0.8,0.8-1.3,1.8-1.3c1.1,0,1.8,0.6,1.8,1.5v3.1h-0.9v-0.6h-0.1c-0.3,0.5-0.8,0.7-1.4,0.7c-0.7,0.1-1.4-0.5-1.5-1.2
				C66.4,13.5,66.4,13.5,66.4,13.4z M69.3,13v-0.4l-1.1,0.1c-0.6,0-0.9,0.3-0.9,0.6c0,0.4,0.4,0.6,0.8,0.6
				C68.7,14.1,69.2,13.7,69.3,13C69.3,13.1,69.3,13.1,69.3,13z"/>
			<path class="st2" d="M71.3,12.4c0-1.4,0.7-2.3,1.9-2.3c0.6,0,1.1,0.3,1.4,0.8h0.1V8.4h0.9v6.3h-0.9V14h-0.1
				c-0.3,0.5-0.8,0.8-1.4,0.8C72.1,14.8,71.3,13.9,71.3,12.4z M72.3,12.4c0,1,0.5,1.5,1.2,1.5c0.7,0,1.2-0.6,1.2-1.5
				c0-0.9-0.5-1.5-1.2-1.5C72.7,10.9,72.3,11.5,72.3,12.4L72.3,12.4z"/>
			<path class="st2" d="M79.2,12.4c-0.1-1.2,0.7-2.2,1.9-2.3s2.2,0.7,2.3,1.9c0,0.1,0,0.3,0,0.4c0.1,1.2-0.7,2.2-1.9,2.3
				c-1.2,0.1-2.2-0.7-2.3-1.9C79.2,12.7,79.2,12.6,79.2,12.4z M82.6,12.4c0-1-0.4-1.5-1.2-1.5c-0.8,0-1.2,0.6-1.2,1.5
				c0,1,0.4,1.6,1.2,1.6C82.1,14,82.6,13.4,82.6,12.4z"/>
			<path class="st2" d="M84.7,10.2h0.9v0.7h0.1c0.2-0.5,0.8-0.8,1.3-0.8c0.8-0.1,1.5,0.5,1.6,1.4c0,0.1,0,0.2,0,0.3v2.9h-0.9V12
				c0-0.7-0.3-1.1-1-1.1c-0.6,0-1.1,0.4-1.1,1c0,0.1,0,0.1,0,0.2v2.6h-0.9V10.2z"/>
			<path class="st2" d="M93.5,9.1v1.1h1V11h-1v2.3c0,0.5,0.2,0.7,0.6,0.7c0.1,0,0.2,0,0.3,0v0.7c-0.2,0-0.3,0-0.5,0
				c-1,0-1.4-0.3-1.4-1.2V11h-0.7v-0.7h0.7V9.1H93.5z"/>
			<path class="st2" d="M95.7,8.4h0.9v2.5h0.1c0.2-0.5,0.8-0.9,1.4-0.8c0.8,0,1.5,0.6,1.6,1.4c0,0.1,0,0.2,0,0.3v2.9h-0.9V12
				c0-0.7-0.3-1.1-1-1.1c-0.6,0-1.1,0.4-1.1,1c0,0.1,0,0.1,0,0.2v2.6h-0.9L95.7,8.4z"/>
			<path class="st2" d="M104.8,13.5c-0.2,0.8-1.1,1.4-2,1.3c-1.1,0-2.1-0.9-2.1-2c0-0.1,0-0.2,0-0.3c-0.2-1.1,0.6-2.2,1.8-2.3
				c0.1,0,0.2,0,0.3,0c1.3,0,2,0.9,2,2.3v0.3h-3.2v0c-0.1,0.7,0.4,1.2,1.1,1.3c0,0,0.1,0,0.1,0c0.4,0.1,0.9-0.2,1.1-0.5L104.8,13.5z
				 M101.6,12h2.3c0-0.6-0.4-1.1-1-1.2c0,0-0.1,0-0.1,0C102.2,10.9,101.6,11.4,101.6,12C101.6,12,101.6,12,101.6,12L101.6,12z"/>
		</g>
	</g>
</g>
<g>
	<path class="st2" d="M69.6,14.2c-0.9,0-1.6-0.3-2.2-0.9c-0.6-0.6-0.9-1.4-0.9-2.2c0-0.9,0.3-1.6,0.9-2.2c0.6-0.6,1.3-0.9,2.2-0.9
		c0.8,0,1.6,0.3,2.2,0.9c0.6,0.6,0.9,1.3,0.9,2.2c0,0.9-0.3,1.6-0.9,2.2C71.2,13.9,70.5,14.2,69.6,14.2z M44.1,14.2
		c-0.8,0-1.6-0.3-2.2-0.9C41.3,12.7,41,12,41,11.1s0.3-1.6,0.9-2.2c0.6-0.6,1.3-0.9,2.2-0.9c0.4,0,0.8,0.1,1.2,0.3
		C45.7,8.5,46,8.7,46.2,9L46.3,9l-0.6,0.6l-0.1-0.1c-0.4-0.4-0.8-0.6-1.5-0.6c-0.6,0-1.1,0.2-1.5,0.6C42.2,10,42,10.5,42,11.1
		c0,0.6,0.2,1.2,0.6,1.6c0.4,0.4,0.9,0.6,1.5,0.6c0.6,0,1.1-0.2,1.5-0.6c0.2-0.2,0.4-0.6,0.4-1H44v-0.9h2.9l0,0.1c0,0.1,0,0.3,0,0.4
		c0,0.8-0.2,1.5-0.7,2C45.7,13.9,45,14.2,44.1,14.2z M78,14.1h-0.9l-2.8-4.4l0,0.8v3.6h-0.9V8.2h1l0,0l2.6,4.2l0-0.8V8.2H78L78,14.1
		L78,14.1z M62.8,14.1h-0.9v-5h-1.6V8.2h4.1v0.9h-1.6L62.8,14.1L62.8,14.1z M59.6,14.1h-0.9V8.2h0.9V14.1z M54.4,14.1h-0.9v-5h-1.6
		V8.2H56v0.9h-1.6V14.1z M51.3,14.1h-3.5V8.2h3.5v0.9h-2.6v1.6h2.3v0.9h-2.3v1.6h2.6V14.1z M68.1,12.7c0.4,0.4,0.9,0.6,1.5,0.6
		c0.6,0,1.1-0.2,1.5-0.6c0.4-0.4,0.6-0.9,0.6-1.6s-0.2-1.2-0.6-1.6c-0.4-0.4-0.9-0.6-1.5-0.6c-0.6,0-1.1,0.2-1.5,0.6
		c-0.4,0.4-0.6,0.9-0.6,1.6S67.7,12.3,68.1,12.7L68.1,12.7z M66.5,22.3c-2.2,0-4,1.7-4,4c0,2.3,1.8,4,4,4c2.2,0,4-1.7,4-4
		C70.6,24,68.7,22.3,66.5,22.3z M66.5,28.7c-1.2,0-2.3-1-2.3-2.4c0-1.5,1.1-2.4,2.3-2.4c1.2,0,2.3,1,2.3,2.4
		C68.8,27.7,67.7,28.7,66.5,28.7z M57.7,22.3c-2.2,0-4,1.7-4,4c0,2.3,1.8,4,4,4c2.2,0,4-1.7,4-4C61.7,24,59.9,22.3,57.7,22.3z
		 M57.7,28.7c-1.2,0-2.3-1-2.3-2.4c0-1.5,1.1-2.4,2.3-2.4c1.2,0,2.3,1,2.3,2.4C60,27.7,58.9,28.7,57.7,28.7z M47.2,23.5v1.7h4.1
		c-0.1,1-0.4,1.7-0.9,2.1c-0.6,0.6-1.5,1.3-3.2,1.3c-2.5,0-4.5-2-4.5-4.6s2-4.6,4.5-4.6c1.4,0,2.3,0.5,3.1,1.2l1.2-1.2
		c-1-1-2.4-1.7-4.3-1.7c-3.5,0-6.4,2.8-6.4,6.3c0,3.5,2.9,6.3,6.4,6.3c1.9,0,3.3-0.6,4.4-1.8c1.1-1.1,1.5-2.7,1.5-4
		c0-0.4,0-0.8-0.1-1.1L47.2,23.5C47.2,23.5,47.2,23.5,47.2,23.5z M90.1,24.8c-0.3-0.9-1.4-2.6-3.5-2.6c-2.1,0-3.8,1.6-3.8,4
		c0,2.3,1.7,4,4,4c1.8,0,2.9-1.1,3.4-1.8l-1.4-0.9c-0.5,0.7-1.1,1.1-2,1.1c-0.9,0-1.5-0.4-2-1.2l5.4-2.2
		C90.3,25.3,90.1,24.8,90.1,24.8z M84.6,26.2c0-1.6,1.2-2.3,2.1-2.3c0.7,0,1.3,0.3,1.5,0.9L84.6,26.2z M80.3,30.1H82V18.2h-1.8V30.1
		z M77.4,23.2L77.4,23.2c-0.5-0.5-1.2-0.9-2.2-0.9c-2,0-3.9,1.8-3.9,4c0,2.3,1.8,4,3.9,4c1,0,1.7-0.4,2.1-0.9h0.1V30
		c0,1.5-0.8,2.4-2.1,2.4c-1.1,0-1.8-0.8-2-1.4l-1.5,0.6c0.4,1.1,1.6,2.4,3.6,2.4c2.1,0,3.8-1.2,3.8-4.2v-7.2h-1.7L77.4,23.2
		C77.4,23.2,77.4,23.2,77.4,23.2z M75.3,28.7c-1.2,0-2.2-1-2.2-2.4c0-1.4,1-2.5,2.2-2.5c1.2,0,2.1,1,2.1,2.5
		C77.5,27.7,76.5,28.7,75.3,28.7z M98.4,18.2h-4.2v11.8H96v-4.5h2.5c2,0,3.9-1.4,3.9-3.7S100.4,18.2,98.4,18.2z M98.5,23.9H96v-4.1
		h2.5c1.3,0,2.1,1.1,2.1,2C100.6,22.8,99.8,23.9,98.5,23.9z M109.4,22.2c-1.3,0-2.6,0.6-3.2,1.8l1.6,0.7c0.3-0.7,1-0.9,1.6-0.9
		c0.9,0,1.8,0.5,1.9,1.5v0.1c-0.3-0.2-1-0.5-1.8-0.5c-1.7,0-3.4,0.9-3.4,2.7c0,1.6,1.4,2.6,2.9,2.6c1.2,0,1.8-0.5,2.3-1.2h0.1v0.9
		h1.7v-4.5C113,23.4,111.4,22.2,109.4,22.2z M109.2,28.7c-0.6,0-1.4-0.3-1.4-1c0-0.9,1-1.3,1.9-1.3c0.8,0,1.1,0.2,1.6,0.4
		C111.2,27.9,110.3,28.7,109.2,28.7z M119.2,22.5l-2,5.1h-0.1l-2.1-5.1h-1.9l3.2,7.2l-1.8,4h1.8l4.9-11.2H119.2z M103.3,30.1h1.8
		V18.2h-1.8V30.1z"/>
	<g>
		
			<linearGradient id="SVGID_1_" gradientUnits="userSpaceOnUse" x1="1565.9885" y1="-1297.9011" x2="1564.6217" y2="-1297.1956" gradientTransform="matrix(11.64 0 0 22.55 -18205.5156 29277.5684)">
			<stop  offset="0" style="stop-color:#00A0FF"/>
			<stop  offset="6.569999e-03" style="stop-color:#00A1FF"/>
			<stop  offset="0.2601" style="stop-color:#00BEFF"/>
			<stop  offset="0.5122" style="stop-color:#00D2FF"/>
			<stop  offset="0.7604" style="stop-color:#00DFFF"/>
			<stop  offset="1" style="stop-color:#00E3FF"/>
		</linearGradient>
		<path class="st3" d="M11.8,8.8c-0.3,0.3-0.4,0.7-0.4,1.3v21c0,0.6,0.2,1,0.4,1.3l0.1,0.1l11.7-11.7v-0.3L11.8,8.8L11.8,8.8z"/>
		
			<linearGradient id="SVGID_2_" gradientUnits="userSpaceOnUse" x1="1526.1588" y1="-1318.4995" x2="1523.6506" y2="-1318.4995" gradientTransform="matrix(9.145 0 0 7.7 -13922.7227 10173.0508)">
			<stop  offset="0" style="stop-color:#FFE000"/>
			<stop  offset="0.4087" style="stop-color:#FFBD00"/>
			<stop  offset="0.7754" style="stop-color:#FFA500"/>
			<stop  offset="1" style="stop-color:#FF9C00"/>
		</linearGradient>
		<path class="st4" d="M27.6,24.7l-3.9-3.9v-0.3l3.9-3.9l0.1,0.1l4.6,2.6c1.3,0.7,1.3,2,0,2.7L27.6,24.7
			C27.6,24.6,27.6,24.7,27.6,24.7z"/>
		
			<linearGradient id="SVGID_3_" gradientUnits="userSpaceOnUse" x1="1598.9845" y1="-1308.0999" x2="1597.5482" y2="-1306.2365" gradientTransform="matrix(15.02 0 0 11.5775 -23991.2891 15167.3086)">
			<stop  offset="0" style="stop-color:#FF3A44"/>
			<stop  offset="1" style="stop-color:#C31162"/>
		</linearGradient>
		<path class="st5" d="M27.6,24.6l-4-4L11.8,32.4c0.4,0.5,1.2,0.5,2,0.1L27.6,24.6"/>
		
			<linearGradient id="SVGID_4_" gradientUnits="userSpaceOnUse" x1="1597.8782" y1="-1308.9204" x2="1598.5195" y2="-1308.0879" gradientTransform="matrix(15.02 0 0 11.5715 -23991.2891 15147.9883)">
			<stop  offset="0" style="stop-color:#32A071"/>
			<stop  offset="6.850000e-02" style="stop-color:#2DA771"/>
			<stop  offset="0.4762" style="stop-color:#15CF74"/>
			<stop  offset="0.8009" style="stop-color:#06E775"/>
			<stop  offset="1" style="stop-color:#00F076"/>
		</linearGradient>
		<path class="st6" d="M27.6,16.6L13.8,8.7c-0.8-0.5-1.5-0.4-2,0.1l11.8,11.8L27.6,16.6z"/>
	</g>
</g>
</svg>
