<?xml version="1.0" encoding="UTF-8"?>
<svg width="1667px" height="111px" viewBox="0 0 1667 111" version="1.1" xmlns="http://www.w3.org/2000/svg" xmlns:xlink="http://www.w3.org/1999/xlink">
    <title>Fill 1</title>
    <defs>
        <path d="M504.925644,830 L504.921881,829.976352 C504.464272,829.992087 504.005185,830 503.545144,830 L503.545144,830 L3,830 L3,744 C233.686134,804.048635 403.012915,822.998766 510.980341,800.849679 C565.706893,789.622552 592.036963,786.21872 590.968773,791.191875 C607.977495,797.627951 638.226282,803.769152 657.824104,810.503789 C690.919398,782.997524 706.877226,792.598181 748.525487,797.136725 C729.117507,739.76421 789.32581,750.088434 841.648051,727 C854.587872,732.608538 872.231065,737.923506 895.172122,743.148475 C952.502572,757.630532 937.115876,774.616859 934.770614,797.15244 C986.596472,789.133916 998.462939,788.456777 1025.46966,810.503789 C1034.79379,807.251141 1047.1445,804.076427 1059.38231,800.87337 L1061.47853,800.323978 C1074.74015,796.84248 1087.65722,793.320415 1096.21179,789.62177 L1096.92295,789.845959 C1103.95321,787.815202 1130.26027,791.483127 1175.84414,800.849679 C1283.63633,822.998766 1452.68828,804.048635 1683,744 L1683,744 L1683,830 L504.925644,830 Z" id="path-1"></path>
        <filter x="-0.2%" y="-11.7%" width="100.5%" height="115.5%" filterUnits="objectBoundingBox" id="filter-2">
            <feOffset dx="0" dy="-8" in="SourceAlpha" result="shadowOffsetOuter1"></feOffset>
            <feColorMatrix values="0 0 0 0 0.258823529   0 0 0 0 0.650980392   0 0 0 0 0.674509804  0 0 0 1 0" type="matrix" in="shadowOffsetOuter1"></feColorMatrix>
        </filter>
    </defs>
    <g id="iIBN-Mahmoud" stroke="none" stroke-width="1" fill="none" fill-rule="evenodd">
        <g id="Fill-1" transform="translate(-3.000000, -719.000000)">
            <use fill="black" fill-opacity="1" filter="url(#filter-2)" xlink:href="#path-1"></use>
            <use fill="#FBF9F2" fill-rule="evenodd" xlink:href="#path-1"></use>
        </g>
    </g>
</svg>