<?xml version="1.0" encoding="UTF-8"?>
<svg width="40px" height="40px" viewBox="0 0 40 40" version="1.1" xmlns="http://www.w3.org/2000/svg" xmlns:xlink="http://www.w3.org/1999/xlink">
    <title>speaker-ico</title>
    <g id="iIBN-Mahmoud" stroke="none" stroke-width="1" fill="none" fill-rule="evenodd">
        <g id="homepage-1-copy-3" transform="translate(-1406.000000, -4159.000000)" fill-rule="nonzero">
            <g id="Group-14" transform="translate(0.000000, 3828.000000)">
                <g id="Group-9-Copy" transform="translate(254.000000, 262.000000)">
                    <g id="Group-13" transform="translate(611.000000, 39.000000)">
                        <g id="speaker" transform="translate(541.000000, 30.000000)">
                            <polygon id="Path" fill="#C5C5C5" points="14.1561719 17.0860156 13.9921094 20.0157031 13.78125 24.0234375 10.1641406 28.1875781 0 28.1875781 0 11.8125781 10.140625 11.8125781 10.1641406 11.7891406"></polygon>
                            <path d="M36.5782031,9.7265625 L37.09375,10.5235156 C39.0157031,13.4063281 40,16.7109375 40,20.0157031 C40,23.3203125 39.0157031,26.6250781 37.09375,29.5078906 L36.5782031,30.3048437 L34.6328125,28.9921875 L35.1483594,28.2188281 C36.8125,25.7344531 37.6561719,22.875 37.6561719,20.0157031 C37.6561719,17.15625 36.8124219,14.2969531 35.1483594,11.8125781 L34.6328125,11.0390625 L36.5782031,9.7265625 Z M32.6875,12.328125 L33.2032031,13.1250781 C34.609375,15.234375 35.2892188,17.625 35.2892188,20.0157031 C35.2892188,22.40625 34.6094531,24.796875 33.2032813,26.9063281 L32.6875,27.703125 L30.7188281,26.390625 L31.2578125,25.6172656 C32.3827344,23.90625 32.9453906,21.9608594 32.9453906,20.0157031 C32.9453906,18.0703125 32.3827344,16.125 31.2578125,14.4141406 L30.7188281,13.640625 L32.6875,12.328125 Z M29.3125,15.7265625 C30.1796875,17.015625 30.625,18.515625 30.625,20.0157031 C30.625,21.5157031 30.1796875,23.015625 29.3125,24.3046875 L27.3438281,23.015625 C27.9532031,22.1016406 28.2578906,21.0469531 28.2578906,20.0157031 C28.2578906,18.9844531 27.9532031,17.9297656 27.3438281,17.015625 L29.3125,15.7265625 Z" id="Combined-Shape" fill="#C5C5C5"></path>
                            <polygon id="Path" fill="#42A6AC" points="25.78125 0 25.78125 40 10.1641406 28.1875781 10.1641406 11.7891406"></polygon>
                        </g>
                    </g>
                </g>
            </g>
        </g>
    </g>
</svg>