<?xml version="1.0" encoding="UTF-8"?>
<svg width="922px" height="922px" viewBox="0 0 922 922" version="1.1" xmlns="http://www.w3.org/2000/svg" xmlns:xlink="http://www.w3.org/1999/xlink">
    <title>Stroke 1</title>
    <g id="iIBN-Mahmoud" stroke="none" stroke-width="1" fill="none" fill-rule="evenodd">
        <g id="homepage-1-copy-3" transform="translate(-374.000000, -1029.000000)" fill="#E8D5B8">
            <g id="Group-9" transform="translate(0.000000, 837.000000)">
                <path d="M1124.13793,903 C1124.4877,886.550903 1124.02134,870.89773 1122.69805,856.022794 C1121.36311,840.982777 1119.1071,826.726893 1116,813.343577 C1141.55637,805.396128 1168.24365,792.950234 1196.00939,776 C1210.0001,807.241493 1222.70833,842.940161 1234,882.871965 C1198.18961,891.910125 1160.68867,899.273896 1124.13793,903 L1124.13793,903 Z M763,1028.69442 C791.70603,1013.06734 815.932232,996.165305 835.625904,978 C855.290295,996.036639 879.44037,1012.8568 908,1028.402 C886.385566,1058.36948 861.146278,1087.33689 835.36824,1114 C809.660474,1087.43046 784.544162,1058.55664 763,1028.69442 Z M473.884764,777 C501.682111,793.942376 528.416394,806.40885 554,814.358145 C548.030492,840.877415 545.448767,870.793416 546.272349,904 C512.744976,900.567886 475.917434,893.827498 436,883.74935 C447.366597,843.719818 460.018216,808.07773 473.884764,777 Z M546.264503,403 C545.468116,435.33653 548.044663,464.486172 554,490.333457 C528.380924,498.139026 501.690239,510.361207 473.945511,527 C458.738028,493.75128 446.224207,457.927647 436,422.710215 C471.93112,413.888537 509.560419,406.65453 546.264503,403 Z M908,277.309091 C879.28186,292.92693 855.043071,309.862779 835.359655,328 C815.740563,309.903602 791.595338,293.026072 763,277.46072 C784.578077,247.525557 809.775891,218.622642 835.546782,192 C864.031013,221.363636 888.22302,249.858319 908,277.309091 Z M1196.21585,526 C1168.40668,509.322821 1141.64071,497.094047 1116,489.296324 C1118.97139,476.523792 1121.16331,462.987684 1122.45267,448.659078 C1123.79478,433.913976 1124.26363,418.341668 1123.87096,402 C1157.37091,405.384027 1194.14115,411.984325 1234,421.777757 C1222.65948,460.84736 1210.0296,495.624743 1196.21585,526 Z M585,941.994675 C617.018644,942.61144 645.956793,939.929093 671.710417,934 C679.576369,959.624852 692.025495,986.442505 709,1014.39477 C675.750315,1029.45316 639.922955,1041.8641 604.760242,1052 C595.865533,1016.15779 588.63533,978.604931 585,941.994675 L585,941.994675 Z M962,1014.20884 C978.813265,986.332523 991.149556,959.568912 999.020458,934 C1024.79925,939.832945 1053.8156,942.339471 1086,941.531292 C1082.68136,975.287409 1076.07884,1012.19425 1066.23877,1052 C1031.04848,1041.81577 995.25007,1029.33585 962,1014.20884 Z M1211.14862,725 C1203.36526,710.702911 1195.22231,697.525334 1186.76617,685.443944 C1178.22304,673.228446 1169.26811,662.155783 1160,652.231784 C1178.13024,632.605356 1195.07152,608.489223 1210.68463,580 C1237.96119,599.725551 1266.44411,623.993285 1296,652.657431 C1266.62391,681.193301 1238.26278,705.326926 1211.14862,725 Z M1085,364.098554 C1052.70243,363.324822 1023.50862,365.985992 997.528386,372 C993.707933,359.309622 988.806656,346.337887 982.760977,333.108241 C976.605481,319.661716 969.357602,305.916249 961,291.94804 C994.280134,276.737172 1030.10916,264.228503 1065.33131,254 C1075.11075,293.659629 1081.68239,330.429487 1085,364.098554 Z M711,291.958451 C693.899758,319.760325 681.316673,346.485696 673.321601,372 C646.874093,366.055828 617.08448,363.46988 584,364.300659 C587.731821,327.576677 595.10689,289.940007 604.182537,254 C640.225312,264.238485 676.941231,276.752839 711,291.958451 Z M459.088348,580 C474.766052,608.83147 491.758021,633.145405 510,652.88914 C491.822274,672.527543 474.970493,696.572299 459.427136,725 C432.107976,705.250414 403.573852,681.030106 374,652.385891 C403.457029,623.88797 431.874329,599.714476 459.088348,580 Z M1059,711.570849 C1085.03106,706.210858 1109.61563,694.2959 1132.57362,676 C1140.6368,684.660678 1148.50828,694.458324 1156.18225,705.346531 C1164.44294,717.081663 1172.37832,729.994368 1180,744.090448 C1153.91085,760.211027 1129.03582,771.893951 1105.4969,779 C1094.60464,751.753379 1079.03015,729.170647 1059,711.570849 L1059,711.570849 Z M998,488 C1006.42854,462.933033 1008.46628,435.837358 1004.11911,407.071322 C1028.56012,401.540059 1056.51548,399.25704 1087.80209,400.210706 C1088.29823,416.371011 1087.85525,431.670126 1086.54401,446.067593 C1085.36862,458.829379 1083.50808,470.764654 1080.9742,481.902317 C1070.93319,480.445809 1061.05165,479.717555 1051.36503,479.717555 C1032.69465,479.717555 1014.91025,482.474517 998,488 Z M774.700797,428 C757.027733,407.829439 734.398235,392.326204 707,381.54287 C714.566629,356.77508 726.82574,331.709375 742.123235,307 C767.785251,320.785845 790.983713,336.411751 810,354.105532 C791.687585,377.085836 779.885991,401.754321 774.700797,428 Z M610,592.574437 C592.912905,596.113495 576.369092,602.474471 560.520446,611.5874 C552.295273,616.339183 544.280404,621.808106 536.446628,628 C518.600106,608.987037 502.856612,585.712046 489,559.976622 C515.048327,543.873033 539.87573,532.183064 563.400425,525 C574.201806,552.356278 589.764206,574.919959 610,592.574437 Z M670,816 C661.391253,841.693745 659.300059,869.356223 663.72061,898.810604 C639.881002,904.422084 612.66644,906.7268 582.210527,905.801377 C581.304344,876.158376 583.267742,847.741412 589.186982,822.012301 C617.958322,826.368272 644.975382,824.370066 670,816 Z M895.33491,877 C913.063985,896.861226 935.675745,912.116697 963,922.725654 C955.406017,947.408074 943.13475,972.393275 927.811806,997 C902.212922,983.345771 879.026038,967.87486 860,950.348537 C878.268988,927.541026 890.088371,903.056577 895.33491,877 Z M742.371793,998 C726.934919,973.095089 714.584254,947.811507 707,922.836688 C734.262475,912.111555 756.828547,896.789937 774.482356,877 C779.692155,903.320558 791.576097,928.06235 810,951.07973 C791.051034,968.714155 767.936562,984.274627 742.371793,998 L742.371793,998 Z M1006.56011,898.927829 C1010.89291,869.423241 1008.72361,841.723612 1000,816 C1025.02818,824.328764 1052.05166,826.251694 1080.83842,821.833674 C1083.48334,833.536413 1085.37423,846.182922 1086.56909,859.64933 C1087.85095,874.159783 1088.28017,889.543223 1087.82195,905.79375 C1059.11639,906.684433 1031.55349,904.743807 1006.56011,898.927829 Z M1133.53436,628 C1110.60743,609.964369 1085.96361,598.191109 1060,592.843335 C1079.98953,575.087325 1095.53499,552.379673 1106.3736,525 C1129.96626,532.165319 1154.87872,543.857022 1181,559.976076 C1166.35386,587.215938 1150.53393,609.941067 1133.53436,628 Z M936.497418,395.627907 C920.55729,404.784884 906.727314,415.924419 895.071789,429 C889.846093,403.069767 878.132115,378.703488 860,356.005814 C879.00891,338.343023 902.238125,322.744186 927.893139,309 C936.33375,322.651163 943.576074,335.988372 949.643494,348.994186 C955.091312,360.69186 959.545429,371.994186 963,382.965116 C953.629987,386.645349 944.797741,390.860465 936.497418,395.627907 Z M665.323163,407.249972 C660.975865,436.680466 663.187752,464.316922 672,490 C655.087307,484.311009 637.227503,481.466514 618.532359,481.466514 C608.97301,481.466514 599.231299,482.215997 589.277811,483.685456 C583.312778,458.043688 581.324434,429.716764 582.19507,400.20365 C611.590801,399.312532 639.780584,401.289515 665.323163,407.249972 Z M536.009977,678 C559.010994,696.296785 583.717309,708.11761 610,713.362845 C589.98765,731.06771 574.610664,753.672034 563.915924,781 C540.235132,773.785605 515.22995,761.994083 489,745.742646 C503.521406,718.684267 519.214839,696.056501 536.009977,678 Z M773,617 L692.168192,595.387347 C646.238388,583.062153 617.506841,555.037146 601,517.89893 C644.379117,513.281339 682.348917,526.419694 714.078539,558.092308 L773,617 Z M835.040854,382 C859.159497,414.878885 869.070217,453.73575 856.5918,499.594061 L835.005438,579 L813.383659,499.594061 C800.922951,453.73575 810.892698,414.855625 835.040854,382 Z M894,619 L954.713635,558.475569 C987.038843,526.346909 1025.79962,513.117461 1070,517.977258 C1052.21966,558.962722 1021.39137,584.999027 976.93169,596.907878 L894,619 Z M897,688 L977.624093,709.674907 C1021.19998,721.358083 1051.47681,746.869258 1069,787.074496 C1025.65041,791.765204 987.575178,778.663772 955.807138,746.89832 L897,688 Z M835.171184,921 C810.073922,887.980913 799.666117,848.891628 812.52922,802.671897 L834.971616,722 L857.468439,802.986475 C870.277115,849.066393 860.020498,888.05082 835.171184,921 Z M773,687 L713.791368,747.167744 C682.1537,779.377026 644.261805,792.708879 601,788.121066 C617.51698,750.117897 646.321337,721.497277 692.503721,708.916265 L773,687 Z M970.106561,887 C932.129547,870.490513 903.490174,841.694896 890.919817,795.546285 L869,715 L929.139138,774.202625 C963.333816,807.890587 974.444428,846.52907 970.106561,887 L970.106561,887 Z M800,715 L778.355189,795.801 C766.820975,839.032035 740.591532,869.307708 700.92778,887 C696.5349,846.401886 707.383453,807.652046 741.149358,773.871625 L800,715 Z M763,652.91659 L681.991717,675.484771 C635.940061,688.289326 596.935642,677.969507 564,653.097958 C599.329373,626.340185 638.887087,618.444647 682.306222,630.481413 L763,652.91659 Z M699.850439,419 C737.128144,435.626781 765.218178,464.462852 777.57381,510.438552 L799,590 L740.442499,531.762559 C706.660676,498.112705 695.651866,459.43344 699.850439,419 Z M869,591 L891.031578,507.948194 C902.798908,463.82729 929.526891,432.893707 969.940536,415 C975.075584,459.563233 961.547833,497.674352 929.275402,530.265197 L869,591 Z M907,653.155326 L987.877939,630.705036 C1031.57577,618.565339 1070.62972,625.742912 1106,652.781054 C1070.67628,679.565657 1031.0753,687.58836 987.569511,675.539213 L907,653.155326 Z" id="Stroke-1"></path>
            </g>
        </g>
    </g>
</svg>