<?xml version="1.0" encoding="UTF-8"?>
<svg width="20px" height="23px" viewBox="0 0 20 23" version="1.1" xmlns="http://www.w3.org/2000/svg" xmlns:xlink="http://www.w3.org/1999/xlink">
    <title>bok-file</title>
    <g id="Symbols" stroke="none" stroke-width="1" fill="none" fill-rule="evenodd">
        <g id="Book-box-Copy-5" transform="translate(-36.000000, -336.000000)" fill-rule="nonzero">
            <g id="bok-file" transform="translate(36.000000, 336.000000)">
                <path d="M4.28571429,0 C3.5,0 2.85714286,0.642857143 2.85714286,1.42857143 L2.85714286,21.4285714 C2.85714286,22.2142857 3.5,22.8571429 4.28571429,22.8571429 L18.5714286,22.8571429 C19.3571429,22.8571429 20,22.2142857 20,21.4285714 L20,5.71428571 L14.2857143,0 L4.28571429,0 Z" id="Path" fill="#E2E5E7"></path>
                <path d="M15.7142857,5.71428571 L20,5.71428571 L14.2857143,0 L14.2857143,4.28571429 C14.2857143,5.07142857 14.9285714,5.71428571 15.7142857,5.71428571 Z" id="Path" fill="#B0B7BD"></path>
                <polygon id="Path" fill="#CAD1D8" points="20 10 15.7142857 5.71428571 20 5.71428571"></polygon>
                <path d="M17.1428571,18.5714286 C17.1428571,18.9642857 16.8214286,19.2857143 16.4285714,19.2857143 L0.714285714,19.2857143 C0.321428571,19.2857143 0,18.9642857 0,18.5714286 L0,11.4285714 C0,11.0357143 0.321428571,10.7142857 0.714285714,10.7142857 L16.4285714,10.7142857 C16.8214286,10.7142857 17.1428571,11.0357143 17.1428571,11.4285714 L17.1428571,18.5714286 Z" id="Path" fill="#328957"></path>
                <path d="M4.20117188,18.0976562 C4.46940104,18.0976562 4.71484375,18.0436198 4.9375,17.9355469 C5.16015625,17.827474 5.34960938,17.6744792 5.50585938,17.4765625 C5.66210938,17.2786458 5.78125,17.0449219 5.86328125,16.7753906 C5.9453125,16.5058594 5.98632812,16.2096354 5.98632812,15.8867188 C5.98632812,15.4492188 5.91276042,15.0709635 5.765625,14.7519531 C5.61848958,14.4329427 5.41145833,14.1894531 5.14453125,14.0214844 C4.87760417,13.8535156 4.56705729,13.7695312 4.21289062,13.7695312 C3.90559896,13.7695312 3.64778646,13.8248698 3.43945312,13.9355469 C3.23111979,14.046224 3.02669271,14.2057292 2.82617188,14.4140625 L2.82617188,14.4140625 L2.82617188,12.7851562 C2.82617188,12.5898438 2.78190104,12.4394531 2.69335938,12.3339844 C2.60481771,12.2285156 2.47851562,12.1757812 2.31445312,12.1757812 C2.15820312,12.1757812 2.03645833,12.2311198 1.94921875,12.3417969 C1.86197917,12.452474 1.81835938,12.6158854 1.81835938,12.8320312 L1.81835938,12.8320312 L1.81835938,17.4882812 C1.81835938,17.6888021 1.86328125,17.8404948 1.953125,17.9433594 C2.04296875,18.046224 2.16341146,18.0976562 2.31445312,18.0976562 C2.46289062,18.0976562 2.58528646,18.046224 2.68164062,17.9433594 C2.77799479,17.8404948 2.82617188,17.6888021 2.82617188,17.4882812 L2.82617188,17.4882812 L2.82617188,17.3828125 C2.94335938,17.5182292 3.03776042,17.6197917 3.109375,17.6875 C3.18098958,17.7552083 3.26757812,17.8209635 3.36914062,17.8847656 C3.47070312,17.9485677 3.59375,18 3.73828125,18.0390625 C3.8828125,18.078125 4.03710938,18.0976562 4.20117188,18.0976562 Z M3.93164062,17.2734375 C3.61653646,17.2734375 3.36197917,17.1595052 3.16796875,16.9316406 C2.97395833,16.703776 2.87695312,16.3776042 2.87695312,15.953125 C2.87695312,15.6640625 2.92252604,15.4147135 3.01367188,15.2050781 C3.10481771,14.9954427 3.22981771,14.8352865 3.38867188,14.7246094 C3.54752604,14.6139323 3.72851562,14.5585938 3.93164062,14.5585938 C4.12955729,14.5585938 4.30273438,14.6139323 4.45117188,14.7246094 C4.59960938,14.8352865 4.71419271,14.9921875 4.79492188,15.1953125 C4.87565104,15.3984375 4.91601562,15.640625 4.91601562,15.921875 C4.91601562,16.3567708 4.81901042,16.6907552 4.625,16.9238281 C4.43098958,17.156901 4.19986979,17.2734375 3.93164062,17.2734375 Z M8.70507812,18.0976562 C9.03059896,18.0976562 9.32356771,18.046224 9.58398438,17.9433594 C9.84440104,17.8404948 10.0683594,17.6927083 10.2558594,17.5 C10.4433594,17.3072917 10.5865885,17.0768229 10.6855469,16.8085938 C10.7845052,16.5403646 10.8339844,16.2473958 10.8339844,15.9296875 C10.8339844,15.609375 10.7851562,15.3164062 10.6875,15.0507812 C10.5898438,14.7851562 10.4472656,14.5559896 10.2597656,14.3632812 C10.0722656,14.1705729 9.84700521,14.0221354 9.58398438,13.9179688 C9.32096354,13.8138021 9.02799479,13.7617188 8.70507812,13.7617188 C8.38736979,13.7617188 8.09700521,13.813151 7.83398438,13.9160156 C7.57096354,14.0188802 7.34700521,14.1653646 7.16210938,14.3554688 C6.97721354,14.5455729 6.83528646,14.7747396 6.73632812,15.0429688 C6.63736979,15.3111979 6.58789062,15.6067708 6.58789062,15.9296875 C6.58789062,16.25 6.63671875,16.5423177 6.734375,16.8066406 C6.83203125,17.0709635 6.97526042,17.3001302 7.1640625,17.4941406 C7.35286458,17.688151 7.57617188,17.8372396 7.83398438,17.9414062 C8.09179688,18.0455729 8.38216146,18.0976562 8.70507812,18.0976562 Z M8.70507812,17.3046875 C8.49153646,17.3046875 8.30598958,17.249349 8.1484375,17.1386719 C7.99088542,17.0279948 7.86979167,16.8684896 7.78515625,16.6601562 C7.70052083,16.4518229 7.65820312,16.2083333 7.65820312,15.9296875 C7.65820312,15.6484375 7.70117188,15.4023438 7.78710938,15.1914062 C7.87304688,14.9804688 7.99544271,14.8209635 8.15429688,14.7128906 C8.31315104,14.6048177 8.49674479,14.5507812 8.70507812,14.5507812 C9.02799479,14.5507812 9.28515625,14.671875 9.4765625,14.9140625 C9.66796875,15.15625 9.76367188,15.4947917 9.76367188,15.9296875 C9.76367188,16.359375 9.66796875,16.6959635 9.4765625,16.9394531 C9.28515625,17.1829427 9.02799479,17.3046875 8.70507812,17.3046875 Z M14.9160156,18.0976562 C15.0670573,18.0976562 15.1888021,18.0488281 15.28125,17.9511719 C15.3736979,17.8535156 15.4199219,17.7200521 15.4199219,17.5507812 C15.4199219,17.4908854 15.4023438,17.4277344 15.3671875,17.3613281 C15.3320312,17.2949219 15.2740885,17.1979167 15.1933594,17.0703125 L15.1933594,17.0703125 L14.0996094,15.3515625 L14.6660156,14.8320312 C14.9550781,14.5716146 15.0996094,14.3632812 15.0996094,14.2070312 C15.0996094,14.0794271 15.0553385,13.9733073 14.9667969,13.8886719 C14.8782552,13.8040365 14.7675781,13.7617188 14.6347656,13.7617188 C14.5227865,13.7617188 14.4277344,13.7903646 14.3496094,13.8476562 C14.2714844,13.9049479 14.1582031,14.0117188 14.0097656,14.1679688 L14.0097656,14.1679688 L12.8105469,15.4257812 L12.8105469,12.8398438 C12.8105469,12.6210938 12.7623698,12.4557292 12.6660156,12.34375 C12.5696615,12.2317708 12.4394531,12.1757812 12.2753906,12.1757812 C12.1061198,12.1757812 11.9759115,12.2376302 11.8847656,12.3613281 C11.7936198,12.485026 11.7480469,12.6653646 11.7480469,12.9023438 L11.7480469,12.9023438 L11.7480469,17.4492188 C11.7480469,17.6627604 11.7949219,17.8242188 11.8886719,17.9335938 C11.9824219,18.0429688 12.1113281,18.0976562 12.2753906,18.0976562 C12.4160156,18.0976562 12.5403646,18.0423177 12.6484375,17.9316406 C12.7565104,17.8209635 12.8105469,17.6627604 12.8105469,17.4570312 L12.8105469,17.4570312 L12.8105469,16.609375 L13.3886719,16.0625 L14.3300781,17.609375 C14.4498698,17.7942708 14.5449219,17.921875 14.6152344,17.9921875 C14.6855469,18.0625 14.7858073,18.0976562 14.9160156,18.0976562 Z" id="bok" fill="#FFFFFF"></path>
                <path d="M16.4285714,19.2857143 L2.85714286,19.2857143 L2.85714286,20 L16.4285714,20 C16.8214286,20 17.1428571,19.6785714 17.1428571,19.2857143 L17.1428571,18.5714286 C17.1428571,18.9642857 16.8214286,19.2857143 16.4285714,19.2857143 Z" id="Path" fill="#CAD1D8"></path>
            </g>
        </g>
    </g>
</svg>