<svg xmlns="http://www.w3.org/2000/svg" width="23" height="29" viewBox="0 0 23 29">
  <g fill="none" fill-rule="evenodd">
    <path fill="#FFE288" d="M1.60195975,9.37203009 L2.41512185,8.57235551 C2.41707969,8.57039761 2.41903753,8.56843977 2.42077785,8.56648193 C2.61699836,8.36786846 2.71815415,8.09572678 2.69857558,7.82010442 L2.61721589,6.67671762 C2.56217839,5.91445975 3.03619664,5.22703541 3.76908674,5.0053628 L4.84394864,4.68253441 C5.11239216,4.60400272 5.3314543,4.41061026 5.44718523,4.14804025 L5.89836181,3.10580923 C6.15723366,2.51040406 6.74219694,2.12579449 7.38872388,2.12579449 C7.73243605,2.12579449 8.60933717,2.35529852 8.92085351,2.38401371 C8.93847418,2.38575402 8.95652996,2.38662418 8.97393311,2.3864066 C9.34918847,2.38510139 9.53931789,2.22325212 9.85474991,1.95437349 C10.4775651,1.42270732 10.8617395,1.11380145 11.4730251,1.11380145 C12.3266495,1.11380145 12.6962489,1.71029437 13.3634421,2.17691625 C13.5792411,2.34964246 13.8561687,2.41164122 14.0362913,2.37922782 C15.1633626,2.17778641 15.2943212,2.1262296 15.5544984,2.1262296 C16.202548,2.1262296 16.7879464,2.51083916 17.0461656,3.10580923 L17.4986475,4.14956304 C17.6130732,4.40691205 17.8314827,4.60073962 18.0994911,4.68231689 L19.1750057,5.00579791 C19.9087659,5.22681789 20.3825666,5.91445975 20.3273116,6.67845793 L20.246387,7.8183641 C20.2250681,8.09790215 20.327094,8.37134909 20.5267952,8.56843977 L21.3432203,9.37420551 C21.8855459,9.90782951 21.9853965,10.7338265 21.5866469,11.3823112 L20.9840629,12.3608032 C20.8376589,12.600314 20.8035052,12.890729 20.8894332,13.155692 L21.2411944,14.2490447 C21.4750492,14.9760612 21.1798483,15.7552871 20.5228795,16.1446826 L19.5465629,16.7239899 C19.303789,16.8688711 19.1384591,17.1114275 19.093646,17.3857446 L18.9015587,18.5104229 C18.7840875,19.2019805 18.2469828,19.7323415 17.5608637,19.8400234 C17.5401975,19.8417637 17.5195313,19.8450268 17.498865,19.8491601 C17.4599255,19.8539459 17.4203333,19.8576442 17.3772605,19.8598195 L16.2651994,19.9152921 C15.9828333,19.928562 15.7222212,20.0656118 15.5490598,20.2925053 L14.8692494,21.1887674 C14.562954,21.5905626 14.0784939,21.8305085 13.573585,21.8305085 C13.3347268,21.8305085 13.1043527,21.7789517 12.8889887,21.6769257 C12.8839853,21.6745328 12.8791995,21.6723574 12.874196,21.670182 C11.8217407,21.2246614 11.7975938,21.1622276 11.5976752,21.1622276 L11.3470698,21.1622276 C11.1451933,21.1622276 11.0942891,21.2368436 10.0701139,21.6719223 C9.85431486,21.7676396 9.65635403,21.8305085 9.37115999,21.8305085 C8.86494591,21.8305085 8.38113841,21.590345 8.07571316,21.1870271 L7.39677282,20.2946807 C7.22426414,20.0662643 6.96082403,19.9283444 6.67911056,19.9165973 C5.10912911,19.8343674 5.70562197,19.8726544 5.39106011,19.8417637 C4.70189546,19.7373449 4.16109262,19.2050261 4.04253369,18.5104229 L3.85153411,17.388355 C3.80650345,17.1155607 3.64421913,16.8749622 3.40601353,16.7281231 C3.40340306,16.7263828 3.40079259,16.72486 3.39796459,16.7231197 L2.42056032,16.1431598 C1.76446165,15.7548521 1.46969582,14.9756261 1.70355063,14.247957 L2.05378895,13.1598252 C2.14145732,12.8942097 2.10752119,12.6033596 1.9589418,12.3581927 L1.35831568,11.3842691 C0.958913438,10.7342615 1.05898154,9.9065243 1.60195975,9.37203009 Z"/>
    <path fill="#000" fill-rule="nonzero" d="M0.410061654,11.9683622 L0.973271007,12.8818099 L0.643481414,13.9068553 C0.249082538,15.1331246 0.746812562,16.4468447 1.8527826,17.1014206 L2.76514264,17.6426585 L2.94461259,18.6975068 C3.09993566,19.6087791 3.68794452,20.3547215 4.48935947,20.7238858 L1.99396568,24.8856311 C1.75249697,25.2887314 2.08990051,25.7934227 2.55543471,25.7225049 L5.64036017,25.2528375 L6.77569803,28.1591631 C6.94429098,28.5907612 7.53621559,28.63949 7.77311592,28.2411755 L11.2702785,22.3613045 L11.464106,22.2760291 L11.4810741,22.2760291 L11.6698982,22.3589115 L15.1348649,28.2392176 C15.3698074,28.6379672 15.9641249,28.592284 16.1333705,28.1591631 L17.2689259,25.2528375 L20.3536339,25.7225049 C20.8176453,25.7932052 21.1557014,25.2915595 20.9166257,24.888024 L18.449947,20.7256261 C19.2550601,20.3566794 19.8445918,19.6100844 19.9996973,18.6977244 L20.1798199,17.6435287 L21.0910922,17.1027259 C22.1981499,16.4468447 22.6956624,15.1331246 22.3014811,13.9081606 L21.971474,12.8815924 L22.5351184,11.9661868 C23.2077501,10.872399 23.0389396,9.48014718 22.1250567,8.58105708 L21.3623638,7.82793584 L21.4385026,6.7580773 C21.5313919,5.47111459 20.7330225,4.31206495 19.4963113,3.93920248 L18.4904094,3.63682282 L18.0679479,2.6626816 C17.6330868,1.66026029 16.6465458,1.01242815 15.5544984,1.01242815 C15.1766325,1.01242815 14.9975976,1.07355669 13.9947412,1.255202 C13.4519805,0.896044581 12.8163306,0 11.4730251,0 C10.2306579,0 9.56955587,0.773569915 8.94652318,1.26107558 C7.93844582,1.07834253 7.78181749,1.01177551 7.38850636,1.01177551 C6.2986342,1.01177551 5.31274594,1.65939013 4.87657951,2.66224655 L4.45498829,3.63617019 L3.44756356,3.93876738 C2.21172255,4.31271753 1.41357064,5.47154964 1.50645996,6.75611946 L1.58259876,7.82880599 L0.820775939,8.57822903 C-0.094194523,9.4790595 -0.263222581,10.8728341 0.410061654,11.9683622 Z M7.39851314,26.6922953 L6.51552097,24.4324966 C6.42089134,24.1897227 6.17028602,24.0452765 5.91293696,24.0844336 L3.55785602,24.443156 L5.63535675,20.9786244 L6.55315527,21.0253954 L7.18837016,21.8603114 C7.70219812,22.5392516 8.51818817,22.9443099 9.37115999,22.9443099 C9.46013356,22.9443099 9.54801946,22.939524 9.63547025,22.9312576 L7.39851314,26.6922953 Z M16.9961316,24.0846512 C16.738565,24.0454941 16.4881772,24.1899403 16.3935476,24.4324966 L15.5129483,26.6866393 L13.2994855,22.9301699 C13.3899818,22.9393065 13.4813484,22.9445275 13.573585,22.9445275 C14.4239463,22.9445275 15.2392838,22.5405569 15.7559398,21.8631394 L16.3922423,21.0243077 L17.3050374,20.9786244 L19.3588265,24.4444613 L16.9961316,24.0846512 Z M1.48698165,9.71916613 L2.30014375,8.91949155 C2.30210159,8.91753366 2.30405943,8.91557582 2.30579975,8.91361798 C2.50202027,8.71500451 2.60317605,8.44286283 2.58359748,8.16724047 L2.50223779,7.02385366 C2.44720029,6.26159579 2.92121854,5.57417146 3.65410864,5.35249885 L4.72897054,5.02967046 C4.99741406,4.95113877 5.2164762,4.75774631 5.33220713,4.4951763 L5.78338371,3.45294528 C6.04225556,2.8575401 6.62721885,2.47293054 7.27374578,2.47293054 C7.61745795,2.47293054 8.49435907,2.70243456 8.80587541,2.73114976 C8.82349609,2.73289007 8.84155187,2.73376023 8.85895501,2.73354265 C9.23421037,2.73223744 9.42433979,2.57038817 9.73977181,2.30150953 C10.362587,1.76984337 10.7467614,1.4609375 11.358047,1.4609375 C12.2116714,1.4609375 12.5812708,2.05743042 13.248464,2.5240523 C13.464263,2.69677851 13.7411906,2.75877727 13.9213132,2.72636386 C15.0483845,2.52492246 15.1793432,2.47336565 15.4395203,2.47336565 C16.0875699,2.47336565 16.6729683,2.85797521 16.9311875,3.45294528 L17.3836694,4.49669909 C17.4980951,4.7540481 17.7165046,4.94787567 17.984513,5.02945294 L19.0600276,5.35293396 C19.7937878,5.57395393 20.2675885,6.26159579 20.2123335,7.02559398 L20.1314089,8.16550015 C20.11009,8.4450382 20.2121159,8.71848514 20.4118171,8.91557582 L21.2282422,9.72134156 C21.7705678,10.2549656 21.8704184,11.0809625 21.4716688,11.7294473 L20.8690848,12.7079392 C20.7226808,12.94745 20.6885271,13.2378651 20.7744551,13.502828 L21.1262163,14.5961808 C21.3600711,15.3231973 21.0648702,16.1024232 20.4079014,16.4918186 L19.4315848,17.0711259 C19.1888109,17.2160071 19.023481,17.4585635 18.9786679,17.7328806 L18.7865806,18.857559 C18.6691094,19.5491166 18.1320047,20.0794775 17.4458856,20.1871595 C17.4252194,20.1888998 17.4045532,20.1921629 17.3838869,20.1962962 C17.3449474,20.201082 17.3053552,20.2047802 17.2622824,20.2069556 L16.1502213,20.2624281 C15.8678552,20.275698 15.6072431,20.4127478 15.4340817,20.6396413 L14.7542713,21.5359034 C14.4479759,21.9376986 13.9635158,22.1776445 13.458607,22.1776445 C13.2197487,22.1776445 12.9893746,22.1260877 12.7740106,22.0240618 C12.7690072,22.0216688 12.7642214,22.0194934 12.7592179,22.017318 C11.7067626,21.5717975 11.6826157,21.5093637 11.4826971,21.5093637 L11.2320917,21.5093637 C11.0302152,21.5093637 10.979311,21.5839797 9.95513579,22.0190584 C9.73933676,22.1147757 9.54137593,22.1776445 9.25618189,22.1776445 C8.74996781,22.1776445 8.26616031,21.9374811 7.96073507,21.5341631 L7.28179473,20.6418167 C7.10928604,20.4134004 6.84584593,20.2754805 6.56413246,20.2637333 C4.99415102,20.1815035 5.59064388,20.2197904 5.27608201,20.1888998 C4.58691736,20.0844809 4.04611452,19.5521622 3.92755559,18.857559 L3.73655601,17.7354911 C3.69152535,17.4626968 3.52924103,17.2220982 3.29103543,17.0752591 C3.28842496,17.0735188 3.28581449,17.071996 3.28298649,17.0702557 L2.30558222,16.4902959 C1.64948355,16.1019881 1.35471773,15.3227622 1.58857254,14.5950931 L1.93881086,13.5069613 C2.02647923,13.2413457 1.99254309,12.9504956 1.8439637,12.7053288 L1.24333758,11.7314051 C0.84393534,11.0813975 0.94400344,10.2536603 1.48698165,9.71916613 Z M11.4712848,19.2687651 C15.7702974,19.2687651 19.267895,15.7711675 19.267895,11.472155 C19.267895,7.17314243 15.7702974,3.67554479 11.4712848,3.67554479 C9.92980103,3.67554479 8.44030911,4.12519864 7.16444086,4.97599498 C6.908397,5.14654583 6.83921952,5.49221589 7.00998789,5.74825969 C7.18053874,6.00408596 7.52620875,6.0732635 7.7822526,5.90249507 C8.87451764,5.17439086 10.1503859,4.78934625 11.4712848,4.78934625 C15.1561838,4.78934625 18.1540935,7.78725596 18.1540935,11.472155 C18.1540935,15.157054 15.1561838,18.1549637 11.4712848,18.1549637 C7.78638581,18.1549637 4.78847609,15.157054 4.78847609,11.472155 C4.78847609,10.5345604 5.00384001,9.61241111 5.21724615,9.11424598 C5.33841556,8.83144483 5.20745684,8.50404812 4.92487327,8.38287872 C4.64228965,8.26170926 4.31467537,8.3928855 4.19350596,8.67546913 C3.87829146,9.41096964 3.67467464,10.5088907 3.67467464,11.472155 C3.67467464,15.7711675 7.17205469,19.2687651 11.4712848,19.2687651 Z M14.8945879,8.74404626 L14.4782514,8.4609375 L10.3648477,14.7559441 L8.33312598,12.9240638 L8.00005685,13.3070933 L10.4647684,15.5053496 L14.8945879,8.74404626 Z"/>
  </g>
</svg>
