<svg xmlns="http://www.w3.org/2000/svg" width="22" height="22" viewBox="0 0 22 22">
  <g fill="none" fill-rule="evenodd">
    <path fill="#FFE288" d="M20.2555977,9.48857422 C20.3102109,9.70694141 20.2452422,9.94146484 20.0860859,10.1006641 L9.68085938,20.5230352 C9.42953516,20.7743594 9.02060156,20.7743594 8.76927734,20.5230352 L1.47696484,13.2306797 C1.22564063,12.9793555 1.22564063,12.5704219 1.47696484,12.3190977 L11.8993789,1.91391406 C12.0212813,1.79201172 12.1873984,1.72536719 12.3566094,1.72536719 C12.4083438,1.72536719 12.4603789,1.73159766 12.5114688,1.74435938 L17.9912734,3.09714453 L16.4390273,4.64939063 C15.720375,4.30710156 14.8326836,4.43265625 14.2385977,5.02674219 C13.484625,5.78071484 13.484625,7.00742969 14.2385977,7.76140234 C14.6155195,8.13836719 15.1107344,8.32687109 15.6059063,8.32687109 C16.1010352,8.32687109 16.59625,8.13841016 16.9731719,7.76140234 C17.5673867,7.16723047 17.6928984,6.27958203 17.3505234,5.56092969 L18.9027695,4.00868359 L20.2555977,9.48857422 Z"/>
    <path fill="#000" fill-rule="nonzero" d="M21.8111953,0.188804687 C21.5595273,-0.06290625 21.1513672,-0.06290625 20.8996562,0.188804687 L19.0223516,2.06610937 C18.9069375,2.01110937 18.7851641,1.96680859 18.6580195,1.93505469 L12.8241094,0.493753906 C12.1690078,0.33 11.4653516,0.524863281 10.9878398,1.002375 L0.56546875,11.4076016 C-0.188417969,12.1615312 -0.188417969,13.3882891 0.56546875,14.1422617 L7.85782422,21.4345742 C8.61175391,22.1885039 9.83851172,22.1885469 10.5924844,21.4345742 L20.9977109,11.0121602 C21.4752227,10.5346484 21.6701289,9.83099219 21.5062891,9.17584766 L20.0650312,3.34198047 C20.0332344,3.21487891 19.9889766,3.0930625 19.9339766,2.97764844 L21.8112812,1.10034375 C22.0629062,0.848632812 22.0629062,0.440515625 21.8111953,0.188804687 Z M20.2555977,9.48857422 C20.3102109,9.70694141 20.2452422,9.94146484 20.0860859,10.1006641 L9.68085938,20.5230352 C9.42953516,20.7743594 9.02060156,20.7743594 8.76927734,20.5230352 L1.47696484,13.2306797 C1.22564062,12.9793555 1.22564062,12.5704219 1.47696484,12.3190977 L11.8993789,1.91391406 C12.0212812,1.79201172 12.1873984,1.72536719 12.3566094,1.72536719 C12.4083437,1.72536719 12.4603789,1.73159766 12.5114687,1.74435938 L17.9912734,3.09714453 L16.4390273,4.64939062 C15.720375,4.30710156 14.8326836,4.43265625 14.2385977,5.02674219 C13.484625,5.78071484 13.484625,7.00742969 14.2385977,7.76140234 C14.6155195,8.13836719 15.1107344,8.32687109 15.6059063,8.32687109 C16.1010352,8.32687109 16.59625,8.13841016 16.9731719,7.76140234 C17.5673867,7.16723047 17.6928984,6.27958203 17.3505234,5.56092969 L18.9027695,4.00868359 L20.2555977,9.48857422 Z M16.0616758,6.84990625 C15.8103945,7.1011875 15.4014609,7.10123047 15.1501367,6.84990625 C14.8988555,6.598625 14.8988555,6.18964844 15.1501367,5.93836719 C15.2758203,5.81268359 15.4408203,5.74990625 15.6059062,5.74990625 C15.7709062,5.74990625 15.9359922,5.81272656 16.0615898,5.93832422 L16.0616328,5.93836719 L16.0616758,5.93841016 C16.313,6.18969141 16.312957,6.598625 16.0616758,6.84990625 Z"/>
    <path fill="#000" fill-rule="nonzero" d="M10.5923984 7.76144531C9.83846875 7.00751562 8.61171094 7.00751562 7.85773828 7.76144531 7.10385156 8.515375 7.10385156 9.74213281 7.85773828 10.4961055 8.61166797 11.2500352 9.83846875 11.2500352 10.5923984 10.4961055 11.3463711 9.74213281 11.3463711 8.51541797 10.5923984 7.76144531zM9.68090234 9.58452344C9.42957812 9.83584766 9.02064453 9.83584766 8.76936328 9.58452344 8.51808203 9.33319922 8.51799609 8.92426563 8.76932031 8.67298438 9.02064453 8.42170313 9.42953516 8.42166016 9.68090234 8.67298438 9.93218359 8.92426563 9.93218359 9.33319922 9.68090234 9.58452344zM11.5039375 14.1422187C10.7482461 13.3865273 9.52514062 13.3864414 8.76932031 14.1422187 8.01534766 14.8961914 8.01534766 16.1229062 8.76932031 16.8768789 9.52505469 17.6325703 10.7481602 17.6326992 11.5039375 16.8768789 12.2579102 16.1229062 12.2579102 14.8961914 11.5039375 14.1422187zM10.5923984 15.9653398C10.3405586 16.2172227 9.93274219 16.2172656 9.68085938 15.9653398 9.42957812 15.7140586 9.42957812 15.305082 9.68085938 15.0538008 9.93274219 14.801918 10.3405156 14.801875 10.5923984 15.0538008 10.8436797 15.305082 10.8436797 15.7139727 10.5923984 15.9653398z"/>
    <path fill="#000" d="M14.4234492,11.7922148 C14.3841328,11.4384102 14.0653906,11.1834336 13.7116289,11.22275 L5.50777734,12.1342891 C5.15397266,12.1736055 4.89899609,12.4922617 4.9383125,12.8461094 C4.97496484,13.1757227 5.25400391,13.4195703 5.57816016,13.4195703 C5.60192188,13.4195703 5.62598438,13.4182383 5.65013281,13.4155742 L13.8540273,12.5040352 C14.207832,12.4646758 14.4628086,12.1460195 14.4234492,11.7922148 Z"/>
  </g>
</svg>
