<?xml version="1.0" encoding="UTF-8"?>
<svg width="20px" height="20px" viewBox="0 0 20 20" version="1.1" xmlns="http://www.w3.org/2000/svg" xmlns:xlink="http://www.w3.org/1999/xlink">
    <title>ms-word</title>
    <g id="Symbols" stroke="none" stroke-width="1" fill="none" fill-rule="evenodd">
        <g id="Book-box-Copy-5" transform="translate(-99.000000, -340.000000)" fill="#1565C0" fill-rule="nonzero">
            <g id="ms-word" transform="translate(99.000000, 340.000000)">
                <path d="M11.5100368,0.093291574 C11.5895055,0.156760324 11.6423243,0.246429074 11.660074,0.344817824 L11.6666794,0.419971262 L11.666,1.669 L19.5833571,1.66997126 C19.8134743,1.66997126 20.0000368,1.85653376 20.0000368,2.08665095 L20.0000368,17.0866509 C20.0000368,17.3167681 19.8135133,17.5032916 19.5833961,17.5032916 L11.666,17.503 L11.6666794,18.7533697 C11.6666794,18.7639361 11.6662687,18.7745025 11.6654577,18.7850396 L11.6618336,18.8165338 C11.6312428,19.0155279 11.4645442,19.1598516 11.2709665,19.1694022 L11.1866774,19.1650103 L0.353357067,17.4983306 C0.175554332,17.4709869 0.0383813068,17.3337042 0.00686621812,17.1620842 L1.81914955e-05,17.0866509 L1.81914955e-05,2.91997126 C-0.00153955831,2.75229269 0.0970771917,2.60303886 0.245353528,2.53621671 L0.323396129,2.50997126 L11.1567164,0.00997126151 C11.2810133,-0.017724051 11.4111696,0.012979074 11.5100368,0.093291574 Z M19.1667164,2.50329157 L11.666,2.503 L11.666,4.169 L17.9167164,4.1699322 C18.1468336,4.1699322 18.3333961,4.3564947 18.3333961,4.58661189 C18.3333961,4.81676814 18.1468336,5.00329157 17.9167164,5.00329157 L11.666,5.003 L11.666,6.669 L17.9167164,6.6699322 C18.1468336,6.6699322 18.3333961,6.8564947 18.3333961,7.08661189 C18.3333961,7.31672907 18.1468336,7.50329157 17.9167164,7.50329157 L11.666,7.503 L11.666,9.169 L17.9167164,9.1699322 C18.1468336,9.1699322 18.3333961,9.3564947 18.3333961,9.58661189 C18.3333961,9.81676814 18.1468336,10.0032916 17.9167164,10.0032916 L11.666,10.003 L11.666,11.669 L17.9167164,11.6699322 C18.1468336,11.6699322 18.3333961,11.8564947 18.3333961,12.0866119 C18.3333961,12.3167681 18.1468336,12.5032916 17.9167164,12.5032916 L11.666,12.503 L11.666,14.169 L17.9167164,14.1699322 C18.1468336,14.1699322 18.3333961,14.3564947 18.3333961,14.5866119 C18.3333961,14.8167681 18.1468336,15.0032916 17.9167164,15.0032916 L11.666,15.003 L11.666,16.669 L19.1667164,16.6699322 L19.1667164,2.50329157 Z M2.47667738,6.94907282 C2.40691175,6.72977595 2.17261488,6.60852595 1.953318,6.67829157 C1.73402113,6.7480572 1.61277113,6.98235407 1.68253675,7.20165095 L1.68253675,7.20165095 L3.34917738,13.0349713 C3.39316175,13.1412994 3.47761488,13.2257525 3.583943,13.2697369 C3.80511488,13.3612213 4.05855238,13.2561041 4.15003675,13.0349713 L4.15003675,13.0349713 L5.41671644,8.60329157 L6.68339613,13.0349713 C6.73464613,13.2134088 6.89773207,13.3364556 7.08339613,13.3366511 C7.26933363,13.3368072 7.43288832,13.2137213 7.48421644,13.0349713 L7.48421644,13.0349713 L9.15089613,7.20165095 C9.21409925,6.98051814 9.08616957,6.75001032 8.86507582,6.68665095 C8.86195082,6.68575251 8.85886488,6.68485407 8.85573988,6.6839947 C8.636443,6.62403376 8.41003675,6.75321345 8.35007582,6.97251032 L8.35007582,6.97251032 L7.08339613,11.4033306 L5.81757582,6.97165095 C5.77359144,6.86532282 5.68913832,6.7808697 5.58281019,6.73688532 C5.36163832,6.64540095 5.10820082,6.75051814 5.01671644,6.97165095 L5.01671644,6.97165095 L3.75003675,11.4032916 L2.48339613,6.97247126 C2.48136488,6.9646197 2.47913832,6.9568072 2.47667738,6.94907282 Z" id="Combined-Shape"></path>
            </g>
        </g>
    </g>
</svg>