<?xml version="1.0" encoding="UTF-8"?>
<svg width="27px" height="19px" viewBox="0 0 27 19" version="1.1" xmlns="http://www.w3.org/2000/svg" xmlns:xlink="http://www.w3.org/1999/xlink">
    <title>open-book</title>
    <g id="Symbols" stroke="none" stroke-width="1" fill="none" fill-rule="evenodd">
        <g id="Book-box-Copy-5" transform="translate(-224.000000, -340.000000)" fill-rule="nonzero">
            <g id="open-book" transform="translate(224.000000, 340.000000)">
                <path d="M0.511784512,2.10752862 L2.75851852,2.10752862 L2.75851852,15.4548687 C3.84951515,15.2900101 4.95106734,15.2044781 6.05441077,15.1989764 C7.59513805,15.173963 9.12934007,15.4057374 10.5939394,15.8847677 L11.8375758,16.8776296 C11.1057239,16.7957441 8.89993266,16.7548013 8.1783165,16.7548013 C5.79442424,16.734138 3.43081145,17.1935926 1.22828283,18.1059125 L0.511784512,18.4129832 L0.511784512,2.10752862 Z" id="Path" fill="#BA9930"></path>
                <path d="M25.1695623,18.1059125 C22.9670337,17.1935926 20.6034209,16.734138 18.2195286,16.7548013 C17.4927946,16.7548013 15.4149495,16.8366869 14.6882155,16.9185724 L15.8039057,15.8950034 C17.2745185,15.4105354 18.8157576,15.1753064 20.3639057,15.1989764 C21.4672492,15.20467 22.5688013,15.290202 23.659798,15.4548687 L23.659798,2.10752862 L25.906532,2.10752862 L25.906532,18.418101 L25.1695623,18.1059125 Z" id="Path" fill="#BA9930"></path>
                <path d="M25.8860606,1.59574411 L24.1511111,1.59574411 L24.1511111,1.00207407 C24.1604512,0.76710101 24.0084512,0.555925926 23.7826263,0.490289562 C22.5781414,0.174646465 21.3378316,0.0163771044 20.0926599,0.0194039756 C18.0455219,0.0194039756 15.2562963,0.480053872 13.1938047,2.57837037 C11.1466667,0.459582492 8.3369697,0.0194039756 6.29494949,0.0194039756 C5.04977778,0.0163771044 3.80946801,0.174646465 2.60498316,0.490289562 C2.37915825,0.555925926 2.22715825,0.76710101 2.23649832,1.00207407 L2.23649832,1.59062626 L0.511784512,1.59062626 C0.229151515,1.59062626 0,1.81977778 0,2.10241077 L0,18.4488081 C0,18.7314411 0.229151515,18.9605926 0.511784512,18.9605926 C0.599683502,18.9603367 0.686047138,18.9374343 0.762558923,18.8940606 C0.813737374,18.8684714 5.93158249,16.0690101 13.0760943,17.8704916 L13.152862,17.8704916 L13.1989226,17.8704916 C13.2397374,17.8754175 13.280936,17.8754175 13.3217508,17.8704916 C20.486734,16.0536566 25.6045791,18.848 25.6352862,18.8940606 C25.7936195,18.9854781 25.9887374,18.9854781 26.1470707,18.8940606 C26.3044444,18.8032189 26.4018754,18.6356734 26.402963,18.4539259 L26.402963,2.10752862 C26.402963,1.82489562 26.1738754,1.59574411 25.8911785,1.59574411 C25.8895152,1.59574411 25.8877879,1.59574411 25.8860606,1.59574411 L25.8860606,1.59574411 Z M1.02356902,17.6350707 L1.02356902,2.61931313 L2.24673401,2.61931313 L2.24673401,15.4548687 C2.24353535,15.7375017 2.47006397,15.9692121 2.75269697,15.9724108 C2.78033333,15.9727306 2.8079697,15.9708114 2.8352862,15.9666532 C3.8940404,15.8049933 4.96296633,15.7194613 6.03393939,15.7107609 C7.51747475,15.6850438 8.99480471,15.9081818 10.4045791,16.370963 C7.2209596,15.9859731 3.99172727,16.4211178 1.02356902,17.6350707 L1.02356902,17.6350707 Z M12.687138,16.3249024 C11.6226263,15.6288754 9.54478114,14.6923098 6.03393939,14.6923098 C5.10306734,14.6944209 4.17328283,14.7542357 3.24983165,14.8714343 L3.24983165,1.40638384 C4.24627609,1.18439731 5.26383165,1.07110101 6.2847138,1.06860606 C8.19878788,1.06860606 10.839596,1.50874074 12.6717845,3.57635017 L12.687138,16.3249024 Z M13.7107071,3.57635017 C15.5428956,1.52921212 18.1837037,1.06860606 20.0977778,1.06860606 C21.118596,1.07161279 22.1361515,1.18484512 23.1326599,1.40638384 L23.1326599,14.8714343 C22.2143906,14.7531481 21.2897239,14.6916061 20.3639057,14.6871919 C16.8735354,14.6871919 14.7905724,15.6237576 13.7107071,16.3197845 L13.7107071,3.57635017 L13.7107071,3.57635017 Z M25.3742761,17.6350707 C22.3997845,16.4177912 19.1631313,15.9825825 15.9727946,16.370963 C17.3891582,15.9065185 18.8735253,15.6833165 20.3639057,15.7107609 C21.441596,15.7167744 22.517431,15.8005791 23.5830303,15.9615354 C23.8624646,16.0039495 24.1234108,15.8117744 24.1658249,15.5323401 C24.1699832,15.5050236 24.1719024,15.4773872 24.1715825,15.4497508 L24.1715825,2.61931313 L25.3947475,2.61931313 L25.3742761,17.6350707 Z" id="Shape" fill="#2D2122"></path>
            </g>
        </g>
    </g>
</svg>