<?xml version="1.0" encoding="UTF-8"?>
<svg width="20px" height="23px" viewBox="0 0 20 23" version="1.1" xmlns="http://www.w3.org/2000/svg" xmlns:xlink="http://www.w3.org/1999/xlink">
    <title>pdf-file</title>
    <g id="Symbols" stroke="none" stroke-width="1" fill="none" fill-rule="evenodd">
        <g id="Book-box-Copy-5" transform="translate(-164.000000, -336.000000)" fill-rule="nonzero">
            <g id="pdf-file" transform="translate(164.000000, 336.000000)">
                <path d="M4.28571429,0 C3.5,0 2.85714286,0.642857143 2.85714286,1.42857143 L2.85714286,21.4285714 C2.85714286,22.2142857 3.5,22.8571429 4.28571429,22.8571429 L18.5714286,22.8571429 C19.3571429,22.8571429 20,22.2142857 20,21.4285714 L20,5.71428571 L14.2857143,0 L4.28571429,0 Z" id="Path" fill="#E2E5E7"></path>
                <path d="M15.7142857,5.71428571 L20,5.71428571 L14.2857143,0 L14.2857143,4.28571429 C14.2857143,5.07142857 14.9285714,5.71428571 15.7142857,5.71428571 Z" id="Path" fill="#B0B7BD"></path>
                <polygon id="Path" fill="#CAD1D8" points="20 10 15.7142857 5.71428571 20 5.71428571"></polygon>
                <path d="M17.1428571,18.5714286 C17.1428571,18.9642857 16.8214286,19.2857143 16.4285714,19.2857143 L0.714285714,19.2857143 C0.321428571,19.2857143 0,18.9642857 0,18.5714286 L0,11.4285714 C0,11.0357143 0.321428571,10.7142857 0.714285714,10.7142857 L16.4285714,10.7142857 C16.8214286,10.7142857 17.1428571,11.0357143 17.1428571,11.4285714 L17.1428571,18.5714286 Z" id="Path" fill="#CC5243"></path>
                <g id="Group" transform="translate(3.080357, 13.125000)" fill="#FFFFFF">
                    <path d="M0.0332142857,0.408571429 C0.0332142857,0.22 0.181785714,0.0142857143 0.421071429,0.0142857143 L1.74035714,0.0142857143 C2.48321429,0.0142857143 3.15178571,0.511428571 3.15178571,1.46428571 C3.15178571,2.36714286 2.48321429,2.87 1.74035714,2.87 L0.786785714,2.87 L0.786785714,3.62428571 C0.786785714,3.87571429 0.626785714,4.01785714 0.421071429,4.01785714 C0.2325,4.01785714 0.0332142857,3.87571429 0.0332142857,3.62428571 L0.0332142857,0.408571429 L0.0332142857,0.408571429 Z M0.786785714,0.733571429 L0.786785714,2.15642857 L1.74035714,2.15642857 C2.12321429,2.15642857 2.42607143,1.81857143 2.42607143,1.46428571 C2.42607143,1.065 2.12321429,0.733571429 1.74035714,0.733571429 L0.786785714,0.733571429 Z" id="Shape"></path>
                    <path d="M4.27035714,4.01785714 C4.08178571,4.01785714 3.87607143,3.915 3.87607143,3.66428571 L3.87607143,0.42 C3.87607143,0.215 4.08178571,0.0657142857 4.27035714,0.0657142857 L5.57821429,0.0657142857 C8.18821429,0.0657142857 8.13107143,4.01785714 5.62964286,4.01785714 L4.27035714,4.01785714 L4.27035714,4.01785714 Z M4.63035714,0.762857143 L4.63035714,3.32142857 L5.57821429,3.32142857 C7.12035714,3.32142857 7.18892857,0.762857143 5.57821429,0.762857143 L4.63035714,0.762857143 L4.63035714,0.762857143 Z" id="Shape"></path>
                    <path d="M9.05678571,0.808571429 L9.05678571,1.71642857 L10.5132143,1.71642857 C10.7189286,1.71642857 10.9246429,1.92214286 10.9246429,2.12142857 C10.9246429,2.31 10.7189286,2.46428571 10.5132143,2.46428571 L9.05678571,2.46428571 L9.05678571,3.66357143 C9.05678571,3.86357143 8.91464286,4.01714286 8.71464286,4.01714286 C8.46321429,4.01714286 8.30964286,3.86357143 8.30964286,3.66357143 L8.30964286,0.419285714 C8.30964286,0.214285714 8.46392857,0.065 8.71464286,0.065 L10.7196429,0.065 C10.9710714,0.065 11.1196429,0.214285714 11.1196429,0.419285714 C11.1196429,0.602142857 10.9710714,0.807857143 10.7196429,0.807857143 L9.05678571,0.807857143 L9.05678571,0.808571429 Z" id="Path"></path>
                </g>
                <path d="M16.4285714,19.2857143 L2.85714286,19.2857143 L2.85714286,20 L16.4285714,20 C16.8214286,20 17.1428571,19.6785714 17.1428571,19.2857143 L17.1428571,18.5714286 C17.1428571,18.9642857 16.8214286,19.2857143 16.4285714,19.2857143 Z" id="Path" fill="#CAD1D8"></path>
            </g>
        </g>
    </g>
</svg>