<svg xmlns="http://www.w3.org/2000/svg" width="25" height="23" viewBox="0 0 25 23">
  <g fill="none" fill-rule="evenodd">
    <path fill="#000" d="M19.6289062 6.8359375C19.3593979 6.8359375 19.140625 7.0547104 19.140625 7.32421875 19.140625 7.5937271 19.3593979 7.8125 19.6289062 7.8125 19.8984146 7.8125 20.1171875 7.5937271 20.1171875 7.32421875 20.1171875 7.0547104 19.8984146 6.8359375 19.6289062 6.8359375zM9.91554258 5.68161011L10.546875 5.05046846 11.1782074 5.68180083C11.3689423 5.87234497 11.6779327 5.87234497 11.8686676 5.68180083L12.5 5.05046846 13.1313324 5.68180083C13.3220673 5.87234497 13.6310577 5.87234497 13.8217926 5.68180083L14.453125 5.05046846 15.0844574 5.68180083C15.2751923 5.87234497 15.5841827 5.87234497 15.7749176 5.68180083 15.9656524 5.49106597 15.9656524 5.18188477 15.7749176 4.9911499L14.7983551 4.0145874C14.6076202 3.82404326 14.2986298 3.82404326 14.1078949 4.0145874L13.4765625 4.64591982 12.8452301 4.0145874C12.6544952 3.82385254 12.3455048 3.82385254 12.1547699 4.0145874L11.5234375 4.64591982 10.8921051 4.0145874C10.7013702 3.82385254 10.3923798 3.82385254 10.2016449 4.0145874L9.22508242 4.9911499C9.03434756 5.18169404 9.03434756 5.49087524 9.22508242 5.68161011 9.41581729 5.87234497 9.72480771 5.87234497 9.91554258 5.68161011z"/>
    <path fill="#FFE288" d="M12.5,12.6953125 C12.5,11.0797882 13.8141632,9.765625 15.4296875,9.765625 C17.0452118,9.765625 18.359375,11.0797882 18.359375,12.6953125 C18.359375,14.3014908 17.0515061,15.625 15.4296875,15.625 C13.8101578,15.625 12.5,14.3041611 12.5,12.6953125 Z M16.8945312,20.7592011 L15.7749176,19.6395874 C15.5841827,19.4488525 15.2751923,19.4488525 15.0844574,19.6395874 L13.9648438,20.7592011 L13.9648438,16.3166046 C14.4266128,16.504097 14.9219513,16.6015625 15.4296875,16.6015625 C15.9374237,16.6015625 16.4327622,16.504097 16.8945312,16.3166046 L16.8945312,20.7592011 Z"/>
    <path fill="#000" fill-rule="nonzero" d="M24.5117188,0 L0.48828125,0 C0.218582129,0 0,0.218582129 0,0.48828125 L0,19.0429688 C0,19.3126679 0.218582129,19.53125 0.48828125,19.53125 L12.9882812,19.53125 L12.9882812,21.9379425 C12.9882812,22.1355438 13.1072998,22.3134995 13.2896423,22.3890305 C13.4721756,22.4645615 13.6821747,22.4227905 13.8217926,22.2831726 L15.4296875,20.6754685 L17.0375824,22.2833633 C17.1772003,22.4229812 17.3871994,22.4645615 17.5697327,22.3892212 C17.7520752,22.3134995 17.8710938,22.1355438 17.8710938,21.9379425 L17.8710938,19.53125 L24.5117188,19.53125 C24.7814179,19.53125 25,19.3126679 25,19.0429688 L25,0.48828125 C25,0.218582129 24.7814179,0 24.5117188,0 Z M12.5,12.6953125 C12.5,11.0797882 13.8141632,9.765625 15.4296875,9.765625 C17.0452118,9.765625 18.359375,11.0797882 18.359375,12.6953125 C18.359375,14.3014908 17.0515061,15.625 15.4296875,15.625 C13.8101578,15.625 12.5,14.3041611 12.5,12.6953125 Z M17.8710938,15.7421112 C18.7927246,15.00206 19.3359375,13.8816833 19.3359375,12.6953125 C19.3359375,10.5413437 17.5836563,8.7890625 15.4296875,8.7890625 C13.2757187,8.7890625 11.5234375,10.5413437 11.5234375,12.6953125 C11.5234375,13.8816833 12.0666504,15.00206 12.9882812,15.7421112 L12.9882812,16.6015625 L4.33273315,16.6015625 C4.1557312,15.9162521 3.61499785,15.3755188 2.9296875,15.1985168 L2.9296875,4.33273315 C3.61499785,4.1557312 4.1557312,3.61499785 4.33273315,2.9296875 L20.6672668,2.9296875 C20.8442688,3.61499785 21.3850021,4.1557312 22.0703125,4.33273315 L22.0703125,15.1985168 C21.3850021,15.3755188 20.8442688,15.9162521 20.6672668,16.6015625 L17.8710938,16.6015625 L17.8710938,15.7421112 Z M16.8945312,20.7592011 L15.7749176,19.6395874 C15.5841827,19.4488525 15.2751923,19.4488525 15.0844574,19.6395874 L13.9648438,20.7592011 L13.9648438,16.3166046 C14.4266128,16.504097 14.9219513,16.6015625 15.4296875,16.6015625 C15.9374237,16.6015625 16.4327622,16.504097 16.8945312,16.3166046 L16.8945312,20.7592011 Z M24.0234375,18.5546875 L17.8710938,18.5546875 L17.8710938,17.578125 L21.09375,17.578125 C21.3634491,17.578125 21.5820312,17.3595429 21.5820312,17.0898438 C21.5820312,16.5513992 22.0201492,16.1132812 22.5585938,16.1132812 C22.8282929,16.1132812 23.046875,15.8946991 23.046875,15.625 L23.046875,3.90625 C23.046875,3.63655088 22.8282929,3.41796875 22.5585938,3.41796875 C22.0201492,3.41796875 21.5820312,2.97985078 21.5820312,2.44140625 C21.5820312,2.17170713 21.3634491,1.953125 21.09375,1.953125 L3.90625,1.953125 C3.63655088,1.953125 3.41796875,2.17170713 3.41796875,2.44140625 C3.41796875,2.97985078 2.97985078,3.41796875 2.44140625,3.41796875 C2.17170713,3.41796875 1.953125,3.63655088 1.953125,3.90625 L1.953125,15.625 C1.953125,15.8946991 2.17170713,16.1132812 2.44140625,16.1132812 C2.97985078,16.1132812 3.41796875,16.5513992 3.41796875,17.0898438 C3.41796875,17.3595429 3.63655088,17.578125 3.90625,17.578125 L12.9882813,17.578125 L12.9882813,18.5546875 L0.9765625,18.5546875 L0.9765625,0.9765625 L24.0234375,0.9765625 L24.0234375,18.5546875 Z"/>
    <path fill="#000" fill-rule="nonzero" d="M17.3828125,12.6953125 C17.3828125,11.6184234 16.5065766,10.7421875 15.4296875,10.7421875 C14.3527984,10.7421875 13.4765625,11.6184234 13.4765625,12.6953125 C13.4765625,13.7722016 14.3527984,14.6484375 15.4296875,14.6484375 C16.5065766,14.6484375 17.3828125,13.7722016 17.3828125,12.6953125 Z M14.453125,12.6953125 C14.453125,12.156868 14.891243,11.71875 15.4296875,11.71875 C15.968132,11.71875 16.40625,12.156868 16.40625,12.6953125 C16.40625,13.233757 15.968132,13.671875 15.4296875,13.671875 C14.891243,13.671875 14.453125,13.233757 14.453125,12.6953125 Z"/>
    <path fill="#000" d="M17.6757812 6.8359375L5.37109375 6.8359375C5.10139463 6.8359375 4.8828125 7.05451963 4.8828125 7.32421875 4.8828125 7.59391787 5.10139463 7.8125 5.37109375 7.8125L17.6757812 7.8125C17.9454804 7.8125 18.1640625 7.59391787 18.1640625 7.32421875 18.1640625 7.05451963 17.9454804 6.8359375 17.6757812 6.8359375zM9.5703125 9.765625L5.37109375 9.765625C5.10139463 9.765625 4.8828125 9.98420713 4.8828125 10.2539062 4.8828125 10.5236054 5.10139463 10.7421875 5.37109375 10.7421875L9.5703125 10.7421875C9.84001162 10.7421875 10.0585938 10.5236054 10.0585938 10.2539062 10.0585938 9.98420713 9.84001162 9.765625 9.5703125 9.765625zM9.5703125 12.6953125L5.37109375 12.6953125C5.10139463 12.6953125 4.8828125 12.9138946 4.8828125 13.1835938 4.8828125 13.4532929 5.10139463 13.671875 5.37109375 13.671875L9.5703125 13.671875C9.84001162 13.671875 10.0585938 13.4532929 10.0585938 13.1835938 10.0585938 12.9138946 9.84001162 12.6953125 9.5703125 12.6953125z"/>
  </g>
</svg>
